<?xml version="1.0" standalone="no"?>
<!DOCTYPE svg PUBLIC "-//W3C//DTD SVG 1.1//EN" "http://www.w3.org/Graphics/SVG/1.1/DTD/svg11.dtd" >
<svg xmlns="http://www.w3.org/2000/svg" xmlns:xlink="http://www.w3.org/1999/xlink" version="1.1">
<metadata></metadata>
<defs>
<font id="lab_grotesqueitalic" horiz-adv-x="1208" >
<font-face units-per-em="2048" ascent="1536" descent="-512" />
<missing-glyph horiz-adv-x="464" />
<glyph unicode="&#xfb01;" horiz-adv-x="1140" d="M115 877l26 131h195l35 168q67 309 338 309q82 0 180 -29l-51 -133q-69 16 -119 16q-72 0 -113.5 -46t-64.5 -152l-29 -133h248l-27 -131h-250l-184 -877h-176l186 877h-194zM713 0l213 1008h176l-213 -1008h-176zM969 1206l45 211h176l-45 -211h-176z" />
<glyph unicode="&#xfb02;" horiz-adv-x="1148" d="M115 877l26 131h195l35 168q64 309 338 309q82 0 180 -29l-51 -133q-69 16 -119 16q-74 0 -114.5 -44.5t-65.5 -153.5l-27 -133h244l-27 -131h-246l-186 -877h-176l186 877h-192zM719 0l309 1454h176l-309 -1454h-176z" />
<glyph unicode="ff" horiz-adv-x="1363" d="M115 877l26 131h195l35 168q67 309 338 309q110 0 213 -41l-52 -129q-83 24 -143 24q-79 0 -121 -44.5t-65 -153.5l-29 -133h209l-29 -131h-209l-184 -877h-176l186 877h-194zM772 0l186 877h-170l29 131h170l35 168q64 309 338 309q116 0 209 -43l-51 -129 q-68 26 -146 26q-75 0 -117 -45t-65 -153l-27 -133h242l-27 -131h-243l-187 -877h-176z" />
<glyph unicode="ffi" horiz-adv-x="1792" d="M115 877l26 131h195l35 168q67 309 338 309q110 0 213 -41l-52 -129q-83 24 -143 24q-79 0 -121 -44.5t-65 -153.5l-29 -133h209l-29 -131h-209l-184 -877h-176l186 877h-194zM772 0l186 877h-170l29 131h170l35 168q64 309 338 309q78 0 180 -29l-53 -133 q-66 16 -117 16q-73 0 -115 -46t-65 -152l-27 -133h246l-27 -131h-247l-187 -877h-176zM1364 0l213 1008h176l-213 -1008h-176zM1620 1206l45 211h176l-45 -211h-176z" />
<glyph unicode="ffj" horiz-adv-x="1769" d="M113 0l186 877h-184l26 131h185l36 168q64 309 336 309q106 0 215 -41l-53 -129q-82 24 -143 24q-79 0 -121.5 -44.5t-65.5 -153.5l-28 -133h209l-27 -131h-209l-186 -877h-176zM764 0l184 877h-170l29 131h170l35 168q67 309 338 309q78 0 180 -29l-51 -133 q-69 16 -119 16q-74 0 -114.5 -45t-63.5 -153l-29 -133h248l-29 -131h-248l-184 -877h-176zM995 -365l52 129q83 -18 127 -18q73 0 108 43t59 150l226 1069h176l-232 -1098q-33 -163 -106.5 -235t-214.5 -72q-113 0 -195 32zM1610 1206l45 211h176l-45 -211h-176z" />
<glyph unicode="fj" horiz-adv-x="1130" d="M115 877l26 131h195l35 168q67 309 338 309q82 0 180 -29l-51 -133q-69 16 -119 16q-72 0 -113.5 -46t-64.5 -152l-29 -133h248l-27 -131h-250l-184 -877h-176l186 877h-194zM354 -365l52 129q82 -18 129 -18q72 0 106.5 43t58.5 150l226 1069h176l-232 -1098 q-33 -163 -106 -235t-213 -72q-115 0 -197 32zM969 1206l45 211h176l-45 -211h-176z" />
<glyph horiz-adv-x="0" />
<glyph horiz-adv-x="682" />
<glyph unicode=" "  horiz-adv-x="464" />
<glyph unicode="&#x09;" horiz-adv-x="464" />
<glyph unicode="&#xa0;" horiz-adv-x="464" />
<glyph unicode="!" horiz-adv-x="559" d="M78 0l47 221h209l-45 -221h-211zM215 412l90 606l92 436h191l-94 -438l-170 -604h-109z" />
<glyph unicode="&#x22;" horiz-adv-x="768" d="M236 975l83 479h168l-120 -479h-131zM600 975l84 479h170l-123 -479h-131z" />
<glyph unicode="#" d="M49 379l27 125h205l81 389h-202l28 125h201l80 375h143l-80 -375h320l80 375h143l-80 -375h203l-29 -125h-200l-82 -389h198l-26 -125h-199l-80 -379h-143l80 379h-320l-80 -379h-143l80 379h-205zM424 504h319l82 389h-317z" />
<glyph unicode="$" horiz-adv-x="1249" d="M27 221l116 111q97 -93 177.5 -140.5t164.5 -60.5l115 535q-194 73 -275 150t-81 194q0 82 35.5 156.5t100 132.5t163 92t217.5 34l37 172h131l-39 -180q106 -18 194 -68t177 -139l-117 -108q-152 140 -287 164l-100 -482q189 -69 273.5 -151t84.5 -207 q0 -88 -34.5 -169.5t-98.5 -146.5t-166 -104t-227 -39h-6l-37 -172h-131l39 185q-118 20 -217.5 77.5t-208.5 163.5zM414 1024q0 -65 49.5 -108.5t169.5 -88.5l96 449q-138 -6 -226.5 -75.5t-88.5 -176.5zM614 121q148 6 238 88.5t90 198.5q0 76 -52 122.5t-169 92.5z" />
<glyph unicode="%" horiz-adv-x="1757" d="M186 1040q0 51 14 103.5t43 101t69.5 86.5t98.5 61t124 23q119 0 195.5 -76t76.5 -194q0 -70 -22 -137t-63.5 -122.5t-109 -89.5t-149.5 -34q-124 0 -200.5 75.5t-76.5 202.5zM236 49l1265 1374l96 -77l-1269 -1377zM322 1047q0 -79 39 -124.5t110 -45.5q97 0 150 84 q51 80 51 178q0 77 -37.5 120.5t-112.5 43.5q-92 0 -146 -79t-54 -177zM997 258q0 65 23 130t65 120t110.5 89t150.5 34q121 0 196.5 -75t75.5 -194q0 -70 -22 -137t-63.5 -122t-109 -89t-149.5 -34q-124 0 -200.5 75.5t-76.5 202.5zM1133 264q0 -79 39 -125.5t110 -46.5 q65 0 112.5 42.5t68 101t20.5 120.5q0 76 -37 119t-113 43q-94 0 -147 -80t-53 -174z" />
<glyph unicode="&#x26;" horiz-adv-x="1417" d="M51 309q2 85 25 149.5t81 129.5t155 128t249 138q-86 160 -86 279q0 64 24 124t70 110t121 80t168 30q139 0 225 -72t86 -188q-1 -64 -15.5 -111t-55 -98.5t-116 -103t-194.5 -111.5l201 -349l268 271l111 -107l-299 -301l176 -307h-194l-107 188q-130 -115 -240.5 -166 t-238.5 -51q-187 0 -300.5 99.5t-113.5 238.5zM229 326q0 -83 70 -145t172 -62q101 0 189.5 47.5t205.5 157.5l-233 407q-131 -68 -205.5 -114.5t-120.5 -93.5t-61 -90t-17 -107zM641 1145q0 -55 16.5 -102.5t59.5 -124.5q122 58 187.5 108t84.5 90.5t19 95.5q0 62 -43 99 t-115 37q-94 0 -151.5 -60.5t-57.5 -142.5z" />
<glyph unicode="'" horiz-adv-x="401" d="M236 975l83 479h168l-120 -479h-131z" />
<glyph unicode="(" horiz-adv-x="690" d="M129 426q0 354 159 656t474 526l90 -107q-551 -449 -551 -1073q0 -329 188 -690l-131 -70q-229 386 -229 758z" />
<glyph unicode=")" horiz-adv-x="690" d="M-113 -233q555 448 555 1085q0 312 -186 672l129 73q114 -193 171.5 -375.5t57.5 -377.5q0 -351 -161 -655.5t-476 -530.5z" />
<glyph unicode="*" horiz-adv-x="892" d="M227 1163l35 105l252 -88v274h123v-274l254 86l37 -105l-264 -84l174 -221l-93 -70l-172 228l-163 -223l-95 71l174 215z" />
<glyph unicode="+" horiz-adv-x="1228" d="M82 559v152h455v456h155v-456h455v-152h-455v-457h-155v457h-455z" />
<glyph unicode="," horiz-adv-x="442" d="M-59 -256l170 256h-101l47 221h222l-46 -221l-182 -256h-110z" />
<glyph unicode="-" horiz-adv-x="829" d="M117 510l35 158h596l-35 -158h-596z" />
<glyph unicode="." horiz-adv-x="442" d="M10 0l47 221h209l-47 -221h-209z" />
<glyph unicode="/" horiz-adv-x="897" d="M-61 0l931 1454h185l-932 -1454h-184z" />
<glyph unicode="0" d="M100 451q0 182 68 415q67 225 219 394q149 165 381 165q210 0 317 -128.5t107 -354.5q0 -181 -66 -414q-64 -225 -215 -393q-149 -168 -389 -168q-208 0 -315 129t-107 355zM281 449q0 -155 61 -240.5t188 -85.5q162 0 269 143q110 143 162 336q51 188 51 342t-61.5 240 t-186.5 86q-160 0 -270 -140q-108 -141 -160 -333q-53 -195 -53 -348z" />
<glyph unicode="1" horiz-adv-x="942" d="M195 1079l493 314h137l-295 -1393h-180l246 1155l-330 -203z" />
<glyph unicode="2" horiz-adv-x="1171" d="M-14 0l16 80q55 253 268 403q123 84 256 156l97 53q159 87 233 135q75 49 117 109q41 59 41 143q0 89 -65.5 140t-168.5 51q-118 0 -216 -57t-230 -195l-125 102q142 160 278 232.5t299 72.5q181 0 294.5 -94t113.5 -244q0 -123 -57 -212.5t-174 -165.5 q-119 -77 -351 -203q-136 -74 -196 -113q-75 -46 -123 -100q-57 -60 -84 -139h797l-33 -154h-987z" />
<glyph unicode="3" horiz-adv-x="1177" d="M-2 152l106 124q120 -82 214 -117.5t200 -35.5q113 0 196.5 49t123 123t39.5 160q0 112 -75.5 175.5t-219.5 63.5q-98 0 -160 -26l-60 108l588 463h-663l32 154h893l-32 -150l-535 -422h17q172 0 283.5 -99.5t111.5 -256.5q2 -89 -33 -176.5t-100 -161t-171 -118 t-235 -42.5q-279 0 -520 185z" />
<glyph unicode="4" horiz-adv-x="1187" d="M25 326l34 163l768 904h209l-780 -918h502l67 318h179l-68 -318h209l-29 -149h-211l-69 -326h-177l68 326h-702z" />
<glyph unicode="5" horiz-adv-x="1202" d="M8 160l111 125q121 -88 215 -125t207 -37t198.5 54.5t126.5 138t41 180.5q0 111 -73 178t-199 67q-158 0 -289 -104l-153 16l217 740h811l-35 -154h-658l-127 -430q121 80 283 80q174 0 287.5 -109.5t113.5 -273.5q1 -76 -19.5 -152t-65.5 -146.5t-109 -124.5t-157.5 -86 t-203.5 -30q-144 0 -265.5 46.5t-256.5 146.5z" />
<glyph unicode="6" horiz-adv-x="1206" d="M109 379q0 238 141 459t446 460l119 95h258v-2l-264 -205q-250 -191 -379 -367q116 90 283 90q178 0 287.5 -110t109.5 -271q1 -75 -21 -153t-68 -152t-110 -131.5t-156 -91t-198 -31.5q-199 0 -323.5 114.5t-124.5 295.5zM283 383q0 -116 77 -188t205 -72q72 0 133 23.5 t103.5 62.5t72.5 89.5t44 104.5t14 109q0 117 -72.5 183.5t-197.5 66.5q-121 0 -209 -55t-129 -139t-41 -185z" />
<glyph unicode="7" horiz-adv-x="1089" d="M172 0q88 314 315 655q230 341 486 586h-768l33 152h995l-27 -131q-260 -230 -495 -578q-230 -336 -336 -684h-203z" />
<glyph unicode="8" horiz-adv-x="1206" d="M72 342q0 137 84 262q82 120 266 170q-70 42 -108 105.5t-38 142.5q0 57 18 113t57.5 108.5t96 92.5t139.5 64.5t181 24.5q176 0 294 -92.5t118 -234.5q0 -117 -70.5 -215t-200.5 -144q95 -50 148 -129.5t53 -177.5q0 -67 -19.5 -131.5t-62.5 -125t-105.5 -106.5 t-156.5 -74t-207 -28q-218 0 -352.5 108t-134.5 267zM248 360q0 -107 87.5 -174t239.5 -67q172 0 265.5 92t93.5 225q0 107 -84 174.5t-223 67.5q-96 0 -171 -27t-119 -72.5t-66.5 -101t-22.5 -117.5zM446 1024q0 -88 69 -145.5t177 -57.5q149 0 233.5 75.5t84.5 190.5 q0 89 -69 141t-189 52q-137 0 -221.5 -70.5t-84.5 -185.5z" />
<glyph unicode="9" horiz-adv-x="1206" d="M178 864q-1 75 21 153t68 152t110 131.5t156 91t198 31.5q199 0 324 -114.5t125 -294.5q0 -238 -141.5 -459.5t-446.5 -460.5l-119 -94h-258v2l264 205q247 188 379 364q-113 -88 -283 -88q-178 0 -287.5 110.5t-109.5 270.5zM356 881q0 -116 73 -183t198 -67 q121 0 209 55t129 139t41 185q0 116 -77.5 188t-205.5 72q-72 0 -133 -23.5t-103.5 -62.5t-72.5 -89.5t-44 -104.5t-14 -109z" />
<glyph unicode=":" horiz-adv-x="524" d="M57 0l47 221h209l-47 -221h-209zM223 786l47 222h209l-47 -222h-209z" />
<glyph unicode=";" horiz-adv-x="524" d="M-12 -256l170 256h-101l47 221h222l-45 -221l-183 -256h-110zM227 786l47 222h209l-47 -222h-209z" />
<glyph unicode="&#x3c;" horiz-adv-x="1228" d="M123 555v160l983 368v-163l-787 -285l787 -285v-164z" />
<glyph unicode="=" horiz-adv-x="1228" d="M82 354v152h1065v-152h-1065zM82 764v151h1065v-151h-1065z" />
<glyph unicode="&#x3e;" horiz-adv-x="1228" d="M123 186v164l786 285l-786 285v163l983 -368v-160z" />
<glyph unicode="?" horiz-adv-x="1005" d="M211 1284q252 203 514 203q168 0 273.5 -83t105.5 -226q0 -174 -143 -297q-40 -35 -218 -170q-94 -70 -143 -123q-44 -46 -72 -127l-18 -60h-150l17 74q20 90 41 136t66.5 92.5t146.5 121.5l35 27q107 76 154.5 118t72.5 85q27 47 27 104q0 75 -59 119.5t-161 44.5 q-186 0 -399 -168zM250 0l47 221h209l-47 -221h-209z" />
<glyph unicode="@" horiz-adv-x="1939" d="M98 367q0 221 99 458q98 234 319 404q220 166 567 166q229 0 404.5 -85t273 -244.5t97.5 -371.5q0 -87 -16 -177.5t-51.5 -179t-86 -156.5t-127.5 -109t-168 -39q-223 0 -238 205q-125 -205 -340 -205q-145 0 -224 84.5t-79 234.5q-1 84 21.5 172t66 166.5t102 140 t135.5 96t159 31.5q107 0 171.5 -47.5t76.5 -130.5l28 162h146l-113 -536q-21 -76 -21 -134q0 -122 115 -122q74 -3 134 49.5t95 135.5t53.5 174t18.5 175q0 143 -48.5 255t-134.5 183.5t-202 108.5t-254 37q-289 0 -479 -146q-187 -146 -270 -354q-82 -204 -82 -393 q0 -308 183 -474.5t544 -166.5h424l-27 -123h-405q-423 0 -645 201.5t-222 554.5zM686 365q0 -99 43 -151t123 -52q66 -2 124 30.5t97 85t67.5 117.5t41.5 127.5t12 114.5q0 99 -40.5 146.5t-131.5 47.5q-94 3 -174 -69.5t-122 -180.5t-40 -216z" />
<glyph unicode="A" horiz-adv-x="1372" d="M-72 0l836 1454h248l219 -1454h-187l-53 371h-653l-209 -371h-201zM428 530h541l-27 191q-3 22 -7 52.5t-11 74t-11 74.5q-40 279 -51 393q-70 -141 -170 -318q-119 -212 -133 -239l-22 -39z" />
<glyph unicode="B" horiz-adv-x="1378" d="M61 0l310 1454h596q174 0 282.5 -90t108.5 -238q0 -132 -77.5 -235t-209.5 -139q94 -38 148.5 -114.5t54.5 -182.5q0 -90 -33 -171t-95.5 -145t-162.5 -101.5t-225 -37.5h-697zM283 152h422q194 0 287 83.5t93 225.5q0 107 -73.5 166t-214.5 59h-402zM428 838h399 q177 0 263 73t86 201q0 91 -66 141t-188 50h-396z" />
<glyph unicode="C" horiz-adv-x="1366" d="M115 551v11q0 82 14 168q15 92 47 185t79 177.5t115 158t150 127.5q80 53 186 82q99 27 209 27h15q151 0 270.5 -60t216.5 -182l-133 -110q-81 98 -169 142t-200 44h-14q-107 -1 -203 -43q-102 -46 -172.5 -123t-122 -176t-75.5 -204q-23 -101 -23 -198v-8 q0 -202 104 -319t287 -117q121 0 224 53q100 53 231 172l117 -116q-262 -275 -570 -275q-184 0 -317.5 77t-199.5 207.5t-66 299.5z" />
<glyph unicode="D" horiz-adv-x="1452" d="M61 0l310 1454h450q274 0 428 -154t154 -409v-9q-1 -120 -27 -240q-28 -124 -89 -242t-149.5 -207t-219.5 -142q-126 -51 -276 -51h-11h-570zM283 158h321h13q99 0 185 28q92 30 156.5 84.5t115 125t80 153.5t44.5 166q14 78 14 156v10q0 202 -105 308.5t-308 106.5h-275 z" />
<glyph unicode="E" horiz-adv-x="1251" d="M61 0l310 1454h966l-34 -158h-779l-100 -469h725l-33 -157h-725l-108 -512h796l-32 -158h-986z" />
<glyph unicode="F" horiz-adv-x="1222" d="M61 0l310 1454h966l-34 -158h-779l-104 -499h723l-35 -158h-723l-135 -639h-189z" />
<glyph unicode="G" horiz-adv-x="1519" d="M115 551v9q0 102 21 206q22 109 65 215.5t113.5 198t160.5 161t212 108.5q113 36 241 36h20q339 0 565 -277l-139 -110q-105 120 -205 170.5t-235 50.5h-15q-112 0 -209 -41q-104 -45 -177 -121.5t-125.5 -175.5t-77.5 -206q-23 -103 -23 -204v-8q0 -199 105.5 -313.5 t302.5 -114.5q175 0 315.5 113.5t179.5 296.5l13 57h-465l33 160h641l-160 -762h-148l25 188q-171 -219 -467 -219q-173 0 -303 76.5t-197 207.5t-67 298z" />
<glyph unicode="H" horiz-adv-x="1503" d="M61 0l310 1454h188l-131 -620h780l131 620h191l-309 -1454h-191l144 676h-781l-143 -676h-189z" />
<glyph unicode="I" horiz-adv-x="561" d="M76 0l309 1454h188l-309 -1454h-188z" />
<glyph unicode="J" horiz-adv-x="954" d="M-53 78l80 143q157 -80 288 -80q106 0 170.5 64.5t96.5 206.5l221 1042h190l-231 -1079q-43 -206 -149 -303t-285 -97q-204 0 -381 103z" />
<glyph unicode="K" horiz-adv-x="1349" d="M61 0l310 1454h188l-151 -713l831 713h250l-672 -567l408 -887h-199l-352 766l-318 -270l-106 -496h-189z" />
<glyph unicode="L" horiz-adv-x="1091" d="M61 0l310 1454h188l-276 -1294h680l-33 -160h-869z" />
<glyph unicode="M" horiz-adv-x="1787" d="M61 0l310 1454h291l92 -641q53 -371 71 -586q135 267 318 586l362 641h312l-310 -1454h-184l152 727l131 592q-73 -138 -289 -518q-4 -9 -18.5 -34.5t-22.5 -39.5l-408 -727h-168l-104 727l-12 92q-50 319 -70 496q-44 -230 -121 -590l-153 -725h-179z" />
<glyph unicode="N" horiz-adv-x="1507" d="M61 0l310 1454h204l295 -674q166 -387 228 -551q50 297 110 562l142 663h184l-309 -1454h-205l-291 664q-176 409 -235 563q-46 -280 -111 -574l-139 -653h-183z" />
<glyph unicode="O" horiz-adv-x="1533" d="M117 567v16q0 94 21 194q23 108 66.5 211.5t112.5 195t155 160.5q86 70 200 108q105 36 221 35h18q267 0 421.5 -161.5t154.5 -438.5v-9q0 -100 -22 -203q-23 -108 -66.5 -212t-112.5 -195t-154 -159.5t-197 -106.5q-104 -35 -219 -35h-18q-267 0 -424 161.5t-157 438.5z M307 575q0 -210 104 -326t289 -116h14q104 0 196 42q98 45 168 122t120.5 175.5t74.5 203.5q23 101 23 197v8q0 209 -102 324.5t-287 115.5h-14q-104 0 -197 -42q-99 -45 -169 -122t-121 -175q-52 -98 -76 -202q-24 -100 -23 -197v-8z" />
<glyph unicode="P" horiz-adv-x="1339" d="M61 0l310 1454h596q189 0 301 -102t112 -269q0 -78 -20.5 -150t-65 -136t-108 -111t-156 -74.5t-203.5 -27.5h-452l-125 -584h-189zM408 741h393q200 0 297.5 89.5t97.5 240.5q0 111 -69 168t-199 57h-404z" />
<glyph unicode="Q" horiz-adv-x="1536" d="M117 569v8q0 119 31 243q31 129 97.5 250.5t158.5 215.5t224 150q122 51 261 51h20q267 0 422.5 -162.5t155.5 -437.5q0 -212 -90 -430q-91 -215 -264 -348l88 -162l-146 -78l-86 158q-138 -60 -289 -60q-269 0 -426 162t-157 440zM307 575q0 -210 103.5 -326t287.5 -116 q110 0 211 43l-141 258l145 78l134 -246q121 109 186 279q63 166 63 336q0 209 -102 324.5t-287 115.5h-14q-104 0 -197 -42q-99 -45 -169 -122t-121 -175t-76 -202q-23 -101 -23 -197v-8z" />
<glyph unicode="R" horiz-adv-x="1376" d="M61 0l310 1454h579q189 0 302.5 -102t113.5 -269q0 -88 -28 -169t-82 -148.5t-142.5 -114t-200.5 -61.5l281 -590h-199l-274 584h-346l-125 -584h-189zM408 741h378q199 0 297.5 90t98.5 240q0 109 -71 167t-200 58h-387z" />
<glyph unicode="S" horiz-adv-x="1308" d="M37 219l115 135q151 -124 262 -172q111 -51 245 -51q154 0 250.5 82t96.5 203q-3 31 -10.5 55t-17.5 43.5t-32.5 37t-45 30.5t-64 29.5t-80 29t-103.5 33.5q-124 37 -201.5 71t-130.5 77.5t-74.5 96t-21.5 125.5q0 84 37.5 162.5t105.5 141t172.5 100t229.5 37.5 q159 0 289 -57.5t252 -172.5l-117 -127q-106 100 -210 147.5t-224 47.5q-149 0 -250.5 -76.5t-101.5 -189.5q0 -59 34.5 -97t106.5 -67q68 -27 213 -74q245 -77 336.5 -161.5t91.5 -233.5q0 -85 -35.5 -165.5t-101 -146t-170 -105.5t-230.5 -40q-178 0 -321 60.5t-295 191.5 z" />
<glyph unicode="T" horiz-adv-x="1218" d="M225 1294l35 160h1100l-37 -160h-455l-272 -1294h-190l274 1294h-455z" />
<glyph unicode="U" horiz-adv-x="1423" d="M143 344q0 62 19 152l205 958h188l-209 -975q-10 -65 -10 -102q0 -118 80.5 -180t234.5 -62q174 0 274.5 84.5t137.5 253.5l209 981h190l-213 -993q-51 -246 -200 -369t-404 -123q-246 0 -374 95.5t-128 279.5z" />
<glyph unicode="V" horiz-adv-x="1306" d="M238 1454h188l88 -721l6 -43q42 -353 55 -518q122 247 293 559l394 723h204l-802 -1454h-242z" />
<glyph unicode="W" horiz-adv-x="1931" d="M268 1454h185l14 -700q4 -294 4 -328l-2 -233q134 306 258 561l340 700h190l37 -700q17 -430 19 -561l30 75q139 328 209 486l314 700h196l-659 -1454h-232l-38 668q-17 392 -19 544q-97 -218 -252 -546l-319 -666h-234z" />
<glyph unicode="X" horiz-adv-x="1323" d="M-84 0l688 778l-323 676h196l260 -555l484 555h219l-617 -696l359 -758h-197l-297 633l-551 -633h-221z" />
<glyph unicode="Y" horiz-adv-x="1292" d="M248 1454h192l260 -666l543 666h221l-694 -833l-131 -621h-188l131 623z" />
<glyph unicode="Z" horiz-adv-x="1275" d="M-23 0l33 152l1108 1144h-827l35 158h1067l-33 -151l-1110 -1145h864l-33 -158h-1104z" />
<glyph unicode="[" horiz-adv-x="671" d="M29 -291l393 1845h397l-28 -131h-228l-338 -1585h230l-29 -129h-397z" />
<glyph unicode="\" horiz-adv-x="854" d="M248 1454h164l290 -1454h-161z" />
<glyph unicode="]" horiz-adv-x="671" d="M-94 -291l26 129h230l338 1585h-230l29 131h397l-393 -1845h-397z" />
<glyph unicode="^" d="M115 573l409 881h162l408 -881h-156l-334 723l-332 -723h-157z" />
<glyph unicode="_" horiz-adv-x="1228" d="M-174 -266h1249v-123h-1249v123z" />
<glyph unicode="`" horiz-adv-x="698" d="M365 1466h186l86 -295h-141z" />
<glyph unicode="a" horiz-adv-x="1153" d="M66 354v8q0 89 22 181q22 96 69 184.5t111 157.5t154 109q84 38 180 38h10q118 0 193.5 -49t101.5 -141l35 166h164l-215 -1008h-160l37 176q-132 -199 -354 -199q-165 0 -256.5 99.5t-91.5 277.5zM242 375q0 -250 211 -250h9q75 1 145 45q74 48 124.5 123.5t80.5 170.5 q29 92 28 181v6q0 113 -53 173.5t-160 60.5h-9q-68 1 -128 -29q-64 -32 -108.5 -85t-77 -121t-48.5 -138q-15 -66 -14 -129v-8z" />
<glyph unicode="b" horiz-adv-x="1148" d="M31 0l309 1454h176l-129 -602q138 178 350 178q161 0 252.5 -100.5t91.5 -274.5v-8q1 -91 -21 -184q-22 -97 -68 -185.5t-110 -157.5q-64 -68 -152 -108q-82 -37 -175 -37h-14q-117 0 -197 52.5t-113 144.5l-34 -172h-166zM293 362q0 -106 64 -172.5t169 -66.5h11 q85 -1 155 45q76 48 121 126t69 167q23 85 23 167v7q0 125 -51.5 186.5t-159.5 61.5h-10q-78 1 -150 -43q-76 -46 -128 -122q-54 -76 -84 -170q-30 -92 -29 -180v-6z" />
<glyph unicode="c" horiz-adv-x="1011" d="M63 387v7q1 83 23 170q24 91 71.5 176.5t114 152.5t160.5 107q87 37 186 36h15q237 0 373 -198l-129 -99q-60 84 -116 117t-138 33h-10q-80 -1 -151 -45q-75 -48 -121.5 -122.5t-72.5 -160.5q-26 -83 -26 -160v-6q0 -131 60.5 -202.5t176.5 -71.5q82 0 158 39t178 135 l107 -107q-113 -113 -221.5 -165t-229.5 -52q-186 0 -297 113t-111 303z" />
<glyph unicode="d" horiz-adv-x="1146" d="M59 354v8q0 89 22 181q23 96 70 184.5t111 157.5t154 109q84 38 180 38h10q110 0 186.5 -45t108.5 -127l127 594h176l-309 -1454h-160l39 186q-141 -209 -366 -209q-166 0 -257.5 99.5t-91.5 277.5zM236 375q0 -128 51 -189t159 -61h10q76 0 147 44q76 47 128.5 122 t82.5 169q30 92 30 179v6q0 112 -56 176t-163 64h-9q-70 1 -130 -29q-64 -32 -109.5 -85t-78 -121t-48.5 -138q-15 -66 -14 -129v-8z" />
<glyph unicode="e" horiz-adv-x="1097" d="M63 393v7q1 84 23 170q24 90 73 174.5t117 150.5t164 105q90 36 189 36h16q163 0 273 -96q104 -98 104 -254q0 -110 -33 -211h-745q-6 -40 -6 -80q0 -129 63.5 -202.5t192.5 -73.5q88 0 171 44t181 148l115 -98q-113 -127 -229 -184.5t-247 -57.5q-196 0 -309 113.5 t-113 308.5zM274 604h582q4 62 4 72q0 101 -59 160t-166 59q-127 0 -221 -79.5t-140 -211.5z" />
<glyph unicode="f" horiz-adv-x="712" d="M115 877l26 131h195l35 168q67 309 338 309q119 0 209 -43l-50 -129q-68 26 -147 26q-75 0 -116 -44.5t-64 -153.5l-29 -133h248l-27 -131h-250l-184 -877h-176l186 877h-194z" />
<glyph unicode="g" horiz-adv-x="1134" d="M-27 -236l95 121q101 -69 180.5 -100t167.5 -31q123 0 197 67.5t106 213.5l31 147q-132 -170 -334 -170q-161 0 -257 101.5t-96 269.5v7q0 82 21 168q22 91 68 177t108.5 153.5t150.5 107.5q82 36 173 36h14q116 0 193 -51t108 -145l37 172h162l-209 -988 q-44 -208 -161 -309.5t-314 -101.5q-234 0 -441 155zM240 412q0 -124 54 -188t159 -64h9q64 0 123 28q63 29 108.5 79.5t79.5 114t50 130.5q15 64 15 122v7q0 116 -59 180t-169 64h-9q-64 0 -121 -27q-62 -29 -105 -78.5t-74.5 -112.5t-46.5 -129q-14 -61 -14 -118v-8z" />
<glyph unicode="h" horiz-adv-x="1120" d="M33 0l307 1454h176l-121 -571q120 153 324 153q145 0 227 -72.5t82 -193.5q0 -50 -18 -133l-133 -637h-177l134 635q12 55 12 100q0 154 -178 154q-120 0 -214 -85t-124 -233l-121 -571h-176z" />
<glyph unicode="i" horiz-adv-x="458" d="M31 0l213 1008h176l-213 -1008h-176zM287 1206l45 211h176l-45 -211h-176z" />
<glyph unicode="j" horiz-adv-x="448" d="M-326 -365l52 129q83 -18 127 -18q73 0 107 42t60 151l226 1069h176l-232 -1098q-33 -162 -107.5 -234.5t-213.5 -72.5q-113 0 -195 32zM287 1206l45 211h176l-45 -211h-176z" />
<glyph unicode="k" horiz-adv-x="1011" d="M31 0l309 1454h176l-194 -917l526 471h215l-434 -390l284 -618h-178l-235 514l-224 -188l-69 -326h-176z" />
<glyph unicode="l" horiz-adv-x="466" d="M37 0l309 1454h176l-309 -1454h-176z" />
<glyph unicode="m" horiz-adv-x="1671" d="M35 0l213 1008h162l-29 -136q114 164 309 164q107 0 174.5 -50t85.5 -136q132 186 336 186q135 0 214 -70t79 -186q0 -35 -18 -137l-136 -643h-176l133 641q13 63 15 98q-3 148 -162 148q-106 0 -186.5 -83.5t-110.5 -234.5l-121 -569h-176l129 623q16 72 16 125 q0 139 -155 139q-106 0 -186.5 -82.5t-112.5 -233.5l-121 -571h-176z" />
<glyph unicode="n" horiz-adv-x="1124" d="M35 0l213 1008h164l-33 -148q122 176 342 176q146 0 227.5 -72t81.5 -192q0 -60 -16 -135l-135 -637h-177l134 635q12 55 12 102q0 152 -178 152q-120 0 -213 -85.5t-125 -234.5l-121 -569h-176z" />
<glyph unicode="o" horiz-adv-x="1116" d="M66 399v7q0 78 20 161q21 87 68 172.5t112 152.5t160 107q88 37 190 37h15q192 0 302.5 -112t110.5 -312v-7q0 -79 -20 -163q-22 -88 -68.5 -173.5t-111.5 -152.5q-66 -67 -160 -107q-90 -38 -193 -38h-10q-196 0 -305.5 112.5t-109.5 315.5zM242 399q0 -132 64 -206 t181 -74h9q66 0 124 28q62 30 106.5 81.5t77.5 116.5t49 134q15 65 15 125v8q0 134 -62 205.5t-183 71.5h-9q-65 0 -124 -28q-63 -30 -108 -81.5t-77.5 -116.5t-48.5 -133q-15 -64 -14 -123v-8z" />
<glyph unicode="p" horiz-adv-x="1146" d="M-49 -369l293 1377h166l-39 -177q138 199 364 199q161 0 252.5 -100.5t91.5 -274.5v-8q0 -91 -21 -184q-23 -97 -68.5 -185.5t-109 -157.5t-152.5 -108q-82 -37 -175 -37h-14q-110 0 -186.5 47.5t-112.5 131.5l-113 -523h-176zM291 362q0 -106 64 -172.5t169 -66.5h11 q84 0 155 45q76 49 121 126.5t69 166.5q23 85 23 167v7q0 125 -51.5 186.5t-159.5 61.5h-10q-78 0 -150 -43q-76 -47 -128.5 -122t-83.5 -170q-29 -91 -29 -180v-6z" />
<glyph unicode="q" horiz-adv-x="1150" d="M59 354v8q0 89 22 181q23 96 70 184.5t111.5 157.5t153.5 109q84 38 179 38h9q121 0 199 -52.5t108 -148.5l37 177h164l-293 -1377h-176l113 529q-139 -183 -348 -183q-166 0 -257.5 99.5t-91.5 277.5zM236 375q0 -128 51 -189t159 -61h10q76 0 147 44q76 47 128.5 123 t82.5 170q30 92 30 179v6q0 112 -58 175t-165 63h-11q-84 0 -156 -45q-77 -49 -123 -127t-71 -167q-24 -85 -24 -165v-6z" />
<glyph unicode="r" horiz-adv-x="745" d="M35 0l213 1008h166l-35 -158q107 168 274 168q82 0 164 -39l-61 -148q-72 29 -129 29q-110 0 -191 -90t-117 -258l-108 -512h-176z" />
<glyph unicode="s" horiz-adv-x="976" d="M-2 162l106 112q94 -82 176 -120.5t173 -38.5q109 0 173 48.5t64 127.5q0 76 -106 119q-101 33 -150 47q-124 35 -191 72.5t-92.5 81.5t-25.5 110q0 127 109 221t290 94q226 0 408 -168l-103 -114q-153 141 -317 141q-92 0 -154.5 -45.5t-62.5 -108.5q7 -59 43 -81.5 t182 -67.5q200 -61 268 -115t74 -174q0 -147 -115 -239.5t-307 -92.5q-233 0 -442 191z" />
<glyph unicode="t" horiz-adv-x="727" d="M115 877l26 131h189l71 335h177l-72 -335h260l-29 -131h-258l-127 -592q-8 -36 -8 -74q0 -43 22.5 -62.5t75.5 -19.5q63 0 142 27l14 -140q-89 -39 -201 -39q-233 0 -233 195q0 48 12 109l127 596h-188z" />
<glyph unicode="u" horiz-adv-x="1107" d="M84 233q0 63 16 138l133 637h177l-131 -623q-15 -77 -15 -117q0 -145 164 -145q122 0 215 89.5t127 252.5l115 543h176l-213 -1008h-162l33 152q-59 -87 -147.5 -134t-186.5 -47q-145 0 -223 70.5t-78 191.5z" />
<glyph unicode="v" horiz-adv-x="989" d="M133 1008h176l43 -371q30 -254 54 -502q81 169 258 500l202 373h189l-561 -1008h-230z" />
<glyph unicode="w" horiz-adv-x="1515" d="M147 1010h175l18 -377q12 -271 14 -481q45 101 224 479l186 379h168l26 -379q19 -284 21 -481q119 276 219 479l182 381h183l-496 -1010h-221l-21 326q-19 279 -22 462q-51 -113 -219 -466l-154 -322h-221z" />
<glyph unicode="x" horiz-adv-x="983" d="M-84 0l487 537l-229 471h180l168 -361l318 361h200l-440 -484l248 -524h-180l-187 408l-362 -408h-203z" />
<glyph unicode="y" horiz-adv-x="989" d="M-82 -373l47 133q58 -12 98 -12q69 0 113 34.5t98 131.5l19 31l-156 1063h176l45 -346q37 -269 62 -508q110 220 258 493l196 361h183l-637 -1155q-77 -139 -151 -194.5t-193 -55.5q-84 0 -158 24z" />
<glyph unicode="z" horiz-adv-x="978" d="M-29 0l29 131l737 733h-544l28 144h774l-26 -129l-740 -734h584l-31 -145h-811z" />
<glyph unicode="{" horiz-adv-x="749" d="M109 553l34 168q107 0 160 44.5t76 156.5l70 321q22 97 47.5 156t66 94.5t92 48t131.5 12.5h109l-29 -131h-71q-70 0 -104.5 -19.5t-47.5 -57.5q-13 -40 -33 -138l-67 -313q-24 -116 -79.5 -177t-166.5 -79l-2 -4q149 -25 149 -158q0 -45 -12 -98l-67 -326 q-25 -104 -25 -141q0 -39 26 -56.5t91 -17.5h71l-26 -129h-109q-123 0 -173 36.5t-50 129.5q0 59 18 145l70 332q10 45 10 84q0 63 -37 90t-122 27z" />
<glyph unicode="|" horiz-adv-x="784" d="M369 -287v1925h155v-1925h-155z" />
<glyph unicode="}" horiz-adv-x="749" d="M-94 -291l26 129h72q69 0 104 20t48 58q14 41 34 137l68 326q26 116 81 177t167 79l2 4q-80 13 -116 52.5t-36 107.5q0 20 13 96l67 313q25 113 25 140q0 42 -26 58.5t-93 16.5h-72l29 131h109q121 0 172 -35.5t51 -127.5q0 -55 -19 -148l-69 -321q-11 -64 -11 -82 q0 -63 38.5 -91t123.5 -28l-35 -168q-106 0 -159 -44.5t-78 -156.5l-70 -332q-20 -97 -45.5 -156t-66.5 -94.5t-93 -48t-133 -12.5h-108z" />
<glyph unicode="~" horiz-adv-x="1228" d="M117 573q5 114 80.5 183t201.5 69q57 0 108 -14t144 -51q72 -30 113 -42.5t82 -12.5q59 0 86.5 27.5t32.5 84.5h147q-5 -118 -70 -186t-180 -68q-56 0 -110 15.5t-136 50.5q-82 33 -124 45t-86 12q-60 0 -98 -31t-44 -82h-147z" />
<glyph unicode="&#xa1;" horiz-adv-x="479" d="M-51 -444l94 438l170 604h109l-91 -606l-92 -436h-190zM203 788l47 222h209l-47 -222h-209z" />
<glyph unicode="&#xa2;" d="M137 358q-2 113 33.5 229t101.5 215.5t173 164.5t235 69l39 183h135l-41 -191q88 -13 156.5 -60t130.5 -132l-123 -99q-51 65 -96.5 99.5t-98.5 44.5l-161 -754q63 11 126.5 48.5t143.5 113.5l108 -109q-111 -108 -206 -155.5t-205 -53.5l-37 -176h-137l41 185 q-152 25 -235 124t-83 254zM315 377q0 -97 43 -162.5t127 -85.5l162 756q-78 -11 -143 -64t-105.5 -127.5t-62.5 -157t-21 -159.5z" />
<glyph unicode="&#xa3;" d="M0 133q189 68 269.5 168.5t84.5 278.5h-198l26 137h168q-4 132 -4 180q0 222 115 373q113 149 379 149q242 0 430 -170l-115 -119q-159 134 -324 134q-303 0 -303 -375q0 -28 4 -172h439l-27 -137h-409q-12 -261 -193 -387q71 -5 197 -35q119 -31 217 -31q61 0 121 18 t143 60l47 -142q-165 -90 -311 -90q-103 0 -264 41q-47 16 -148 31q-54 4 -78 4q-70 0 -117.5 -12.5t-123.5 -46.5z" />
<glyph unicode="&#xa4;" d="M123 1087l90 89l139 -142q107 76 256 76q141 0 248 -70l139 138l90 -88l-135 -136q84 -113 84 -258t-84 -258l133 -133l-90 -88l-135 135q-106 -69 -250 -69q-147 0 -254 73l-141 -141l-88 88l139 139q-82 107 -82 254q0 143 80 252zM324 696q0 -126 79 -203t205 -77 t205.5 77t79.5 203t-79.5 203.5t-205.5 77.5t-205 -77.5t-79 -203.5z" />
<glyph unicode="&#xa5;" d="M115 393l28 131h373l21 99l-33 90h-322l29 131h246l-199 549h184l209 -609l469 609h209l-434 -549h246l-29 -131h-321l-74 -92l-21 -97h377l-29 -131h-374l-84 -393h-180l83 393h-374z" />
<glyph unicode="&#xa6;" horiz-adv-x="784" d="M356 -287v819h156v-819h-156zM356 819v819h156v-819h-156z" />
<glyph unicode="&#xa7;" d="M106 676q0 177 199 256q-72 37 -104.5 90t-32.5 135q0 143 121.5 234.5t310.5 91.5q139 0 244.5 -37t218.5 -125l-94 -121q-107 78 -187.5 107.5t-181.5 29.5q-117 0 -190.5 -50t-73.5 -126q8 -72 64 -100t253 -74q241 -52 345 -126.5t104 -207.5q0 -180 -199 -256 q72 -37 104.5 -90t32.5 -135q0 -143 -121.5 -234.5t-310.5 -91.5q-139 0 -244.5 37t-218.5 125l95 121q106 -81 188 -109q79 -28 180 -28q117 0 190.5 49t73.5 125q0 48 -32 77.5t-97 49.5q-86 25 -188 47q-241 52 -345 127.5t-104 208.5zM279 684q0 -106 159 -156 q77 -24 191 -49q14 -3 36 -8t31 -6q109 20 171.5 65.5t62.5 114.5q-3 31 -13 54t-33 42t-46.5 32t-68.5 26.5t-83.5 23t-105.5 23.5l-74 18q-227 -45 -227 -180z" />
<glyph unicode="&#xa8;" horiz-adv-x="952" d="M358 1206l45 211h172l-43 -211h-174zM719 1206l45 211h172l-45 -211h-172z" />
<glyph unicode="&#xa9;" horiz-adv-x="1753" d="M166 727q-3 206 98 381.5t276 276t380 96.5q154 3 294.5 -56t241.5 -160t160 -242t57 -296q2 -155 -57 -296t-160 -242t-241.5 -160t-294.5 -56q-205 -4 -380 96.5t-276 276t-98 381.5zM293 727q-3 -176 79.5 -325.5t228 -236t319.5 -83.5q176 -3 321.5 83.5t227.5 235.5 t79 326q3 177 -79 326t-227.5 235.5t-321.5 83.5q-174 3 -319.5 -83.5t-228 -236t-79.5 -325.5zM502 727q0 195 119 324t307 129q248 0 360 -219l-123 -58q-44 80 -100 116t-135 36q-126 0 -202.5 -92t-76.5 -236q0 -142 77.5 -234t201.5 -92q87 0 141 37t103 133l120 -61 q-64 -125 -148.5 -180.5t-217.5 -55.5q-188 0 -307 129t-119 324z" />
<glyph unicode="&#xaa;" horiz-adv-x="851" d="M152 829q0 127 95.5 196.5t313.5 104.5l187 31l6 29q2 8 2 37q0 121 -152 121q-68 0 -132.5 -30t-143.5 -97l-78 88q91 84 177.5 119.5t190.5 35.5q141 0 211 -57t70 -154q0 -30 -6 -57l-113 -524h-129l23 100q-101 -125 -283 -125q-111 0 -175 48.5t-64 133.5zM293 852 q0 -88 131 -88q106 0 184 55.5t101 153.5l16 84l-156 -31q-149 -30 -212.5 -69t-63.5 -105z" />
<glyph unicode="&#xab;" horiz-adv-x="1169" d="M129 518l381 447h184l-395 -461l188 -432h-165zM575 518l381 447h185l-398 -461l191 -432h-166z" />
<glyph unicode="&#xac;" horiz-adv-x="1228" d="M82 559v152h1065v-559h-154v407h-911z" />
<glyph unicode="&#xad;" horiz-adv-x="829" d="M117 510l35 158h596l-35 -158h-596z" />
<glyph unicode="&#xae;" horiz-adv-x="1138" d="M236 1026q0 192 130 322.5t322 130.5t322.5 -130.5t130.5 -322.5t-130.5 -322.5t-322.5 -130.5t-322 130.5t-130 322.5zM324 1026q0 -160 104 -267.5t260 -107.5t260.5 108t104.5 267t-104.5 267t-260.5 108t-260 -107.5t-104 -267.5zM514 778v510h209q71 0 117.5 -46 t46.5 -114q0 -51 -26.5 -88.5t-74.5 -56.5l127 -205h-102l-117 195h-88v-195h-92zM606 1051h99q44 0 68 20t24 57q0 33 -24.5 54.5t-67.5 21.5h-99v-153z" />
<glyph unicode="&#xaf;" horiz-adv-x="958" d="M354 1219l27 131h557l-29 -131h-555z" />
<glyph unicode="&#xb0;" horiz-adv-x="837" d="M262 1190q0 122 87 205.5t208 83.5q124 0 210.5 -83.5t86.5 -205.5q0 -124 -86.5 -207.5t-210.5 -83.5q-121 0 -208 84t-87 207zM389 1190q0 -75 47.5 -123.5t120.5 -48.5q75 0 122.5 48.5t47.5 123.5q0 74 -47.5 122t-122.5 48q-73 0 -120.5 -48t-47.5 -122z" />
<glyph unicode="&#xb1;" horiz-adv-x="1228" d="M82 0v152h1065v-152h-1065zM82 748v151h455v457h155v-457h455v-151h-455v-457h-155v457h-455z" />
<glyph unicode="&#xb2;" horiz-adv-x="835" d="M104 618l13 58q28 122 111.5 203.5t230.5 148.5l69 33q131 59 173 93t42 91q0 50 -39 77.5t-106 27.5q-63 0 -122.5 -24t-141.5 -81l-66 103q165 127 338 127q126 0 202.5 -59t76.5 -152q-3 -44 -10 -75.5t-27 -61t-42 -50.5t-69.5 -48.5t-93.5 -49.5t-129 -59 q-107 -51 -158.5 -89t-74.5 -92h499l-28 -121h-648z" />
<glyph unicode="&#xb3;" horiz-adv-x="833" d="M106 705l82 102q141 -84 261 -84q91 0 145.5 45.5t54.5 118.5q0 61 -41.5 95t-124.5 34q-77 0 -104 -15l-53 89l348 243h-404l25 121h590l-25 -119l-313 -217q115 0 181.5 -59.5t66.5 -155.5q0 -125 -93.5 -215t-252.5 -90q-181 0 -343 107z" />
<glyph unicode="&#xb4;" horiz-adv-x="698" d="M338 1171l207 295h211l-256 -295h-162z" />
<glyph unicode="&#xb6;" horiz-adv-x="1486" d="M76 1006q0 205 128 326.5t337 121.5h303v-1659h-146v762h-157q-209 0 -337 122t-128 327zM1014 -205v1659h147v-1659h-147z" />
<glyph unicode="&#xb7;" horiz-adv-x="442" d="M123 530l47 222h209l-47 -222h-209z" />
<glyph unicode="&#xb8;" horiz-adv-x="845" d="M31 -410l61 86q95 -53 166 -53q60 0 92.5 23.5t32.5 62.5q0 31 -31 50.5t-78 19.5q-35 0 -59 -6l-45 53l141 213l82 -39l-94 -137h14q76 0 128.5 -41.5t52.5 -108.5q0 -83 -61.5 -137.5t-170.5 -54.5q-119 0 -231 69z" />
<glyph unicode="&#xb9;" horiz-adv-x="665" d="M219 1266l299 188h111l-178 -836h-142l137 650l-174 -109z" />
<glyph unicode="&#xba;" horiz-adv-x="925" d="M197 963q-1 67 17.5 137.5t57 137.5t91.5 119t128.5 82.5t161.5 28.5q140 0 227 -86t87 -223q1 -68 -17.5 -139t-57.5 -138.5t-92 -119.5t-128.5 -82.5t-161.5 -28.5q-141 0 -227 86t-86 226zM338 971q0 -93 48 -146t134 -53q92 0 163.5 61t105.5 145.5t34 170.5 q0 93 -47.5 147t-132.5 54q-69 0 -128.5 -35.5t-97 -92t-58.5 -122t-21 -129.5z" />
<glyph unicode="&#xbb;" horiz-adv-x="1169" d="M35 72l395 460l-190 433h166l194 -447l-381 -446h-184zM479 72l398 460l-191 433h166l195 -447l-383 -446h-185z" />
<glyph unicode="&#xbc;" horiz-adv-x="1781" d="M193 49l1265 1374l96 -77l-1269 -1377zM219 1204l299 189h111l-178 -836h-142l137 649l-174 -108zM967 188l28 134l439 514h168l-453 -531h270l35 176h143l-38 -176h114l-24 -117h-115l-39 -188h-143l41 188h-426z" />
<glyph unicode="&#xbd;" horiz-adv-x="1910" d="M193 49l1265 1374l96 -77l-1269 -1377zM219 1204l299 189h111l-178 -836h-142l137 649l-174 -108zM1053 0l12 57q28 122 111.5 204.5t230.5 148.5l70 32q130 59 172.5 93.5t42.5 91.5q0 50 -38.5 77t-107.5 27q-62 0 -120 -23t-144 -81l-65 102q165 127 337 127 q126 0 202.5 -59t76.5 -152q-3 -44 -10 -75.5t-27 -61t-42 -50.5t-69.5 -48.5t-93.5 -49.5t-129 -59q-108 -51 -159 -88.5t-74 -91.5h500l-29 -121h-647z" />
<glyph unicode="&#xbe;" horiz-adv-x="1980" d="M109 643l81 102q77 -46 137 -64.5t124 -18.5q91 0 145.5 45t54.5 118q0 61 -41.5 95t-124.5 34q-79 0 -104 -14l-53 88l348 244h-404l25 121h590l-25 -119l-313 -217q115 0 181.5 -59.5t66.5 -155.5q0 -125 -93.5 -215t-252.5 -90q-182 0 -342 106zM391 49l1266 1374 l96 -77l-1270 -1377zM1167 188l29 134l438 514h168l-452 -531h270l35 176h143l-39 -176h115l-25 -117h-114l-39 -188h-144l41 188h-426z" />
<glyph unicode="&#xbf;" horiz-adv-x="950" d="M-125 -168q0 175 145 297q40 36 216 170q100 75 147 125q42 44 70 125l18 59h150l-17 -71q-17 -72 -29 -107.5t-40.5 -77t-69 -76t-117.5 -92.5l-43 -30q-106 -80 -150 -119.5t-69 -81.5q-27 -47 -27 -103q0 -75 59 -119t161 -44q187 0 399 170l90 -131 q-252 -203 -514 -203q-168 0 -273.5 83t-105.5 226zM475 788l45 222h211l-47 -222h-209z" />
<glyph unicode="&#xc0;" horiz-adv-x="1372" d="M-72 0l836 1454h248l219 -1454h-187l-53 371h-653l-209 -371h-201zM428 530h541l-27 191q-3 22 -7 52.5t-11 74t-11 74.5q-40 279 -51 393q-70 -141 -170 -318q-119 -212 -133 -239l-22 -39zM711 1884h186l86 -295h-141z" />
<glyph unicode="&#xc1;" horiz-adv-x="1372" d="M-72 0l836 1454h248l219 -1454h-187l-53 371h-653l-209 -371h-201zM428 530h541l-27 191q-3 22 -7 52.5t-11 74t-11 74.5q-40 279 -51 393q-70 -141 -170 -318q-119 -212 -133 -239l-22 -39zM831 1589l207 295h211l-256 -295h-162z" />
<glyph unicode="&#xc2;" horiz-adv-x="1372" d="M-72 0l836 1454h248l219 -1454h-187l-53 371h-653l-209 -371h-201zM428 530h541l-27 191q-3 22 -7 52.5t-11 74t-11 74.5q-40 279 -51 393q-70 -141 -170 -318q-119 -212 -133 -239l-22 -39zM600 1589l268 295h222l141 -295h-139l-121 207l-209 -207h-162z" />
<glyph unicode="&#xc3;" horiz-adv-x="1372" d="M-72 0l836 1454h248l219 -1454h-187l-53 371h-653l-209 -371h-201zM428 530h541l-27 191q-3 22 -7 52.5t-11 74t-11 74.5q-40 279 -51 393q-70 -141 -170 -318q-119 -212 -133 -239l-22 -39zM610 1612q23 104 81 163.5t136 59.5q39 0 73 -14t81 -47q39 -26 57.5 -34.5 t40.5 -8.5q35 0 55 25t31 77h115q-20 -104 -73 -163.5t-122 -59.5q-35 0 -66 12t-77 43q-45 27 -69.5 37t-53.5 10q-67 0 -94 -100h-115z" />
<glyph unicode="&#xc4;" horiz-adv-x="1372" d="M-72 0l836 1454h248l219 -1454h-187l-53 371h-653l-209 -371h-201zM428 530h541l-27 191q-3 22 -7 52.5t-11 74t-11 74.5q-40 279 -51 393q-70 -141 -170 -318q-119 -212 -133 -239l-22 -39zM657 1624l45 211h172l-43 -211h-174zM1018 1624l45 211h172l-45 -211h-172z " />
<glyph unicode="&#xc5;" horiz-adv-x="1382" d="M-72 0l830 1444q-80 64 -80 172q0 106 78 184q76 76 188 76q103 0 167.5 -63.5t64.5 -161.5q0 -74 -40.5 -137t-107.5 -95l213 -1419h-184l-53 371h-666l-211 -371h-199zM428 530h553l-29 189q-65 446 -80 616q-123 -240 -337 -616zM784 1616q0 -56 35.5 -92.5 t89.5 -36.5q68 0 114 46.5t46 115.5q0 60 -34.5 96.5t-94.5 36.5q-63 0 -109.5 -49.5t-46.5 -116.5z" />
<glyph unicode="&#xc6;" horiz-adv-x="1974" d="M-92 0l1061 1454h1091l-35 -158h-778l-100 -469h725l-35 -157h-723l-108 -512h796l-33 -158h-987l80 371h-481l-270 -371h-203zM496 530h399l166 779z" />
<glyph unicode="&#xc7;" horiz-adv-x="1366" d="M115 551q-1 88 14 179.5t47 184.5t79 177.5t115 158t149.5 127t187 82.5t223.5 27q151 0 270.5 -60t216.5 -182l-133 -110q-81 98 -169 142t-200 44q-115 3 -216.5 -42.5t-172.5 -123t-122.5 -176.5t-75.5 -204t-23 -206q0 -202 104 -319t287 -117q121 0 224 53 q100 53 231 172l117 -116q-262 -275 -570 -275h-20l-74 -104h14q76 0 128.5 -41.5t52.5 -108.5q0 -83 -61.5 -137.5t-170.5 -54.5q-119 0 -231 69l61 86q95 -53 166 -53q60 0 92.5 23.5t32.5 62.5q0 31 -30.5 50.5t-77.5 19.5q-36 0 -60 -6l-45 53l100 151 q-219 35 -339.5 189.5t-120.5 384.5z" />
<glyph unicode="&#xc8;" horiz-adv-x="1251" d="M61 0l310 1454h966l-34 -158h-779l-100 -469h725l-33 -157h-725l-108 -512h796l-32 -158h-986zM676 1884h186l86 -295h-141z" />
<glyph unicode="&#xc9;" horiz-adv-x="1251" d="M61 0l310 1454h966l-34 -158h-779l-100 -469h725l-33 -157h-725l-108 -512h796l-32 -158h-986zM797 1589l207 295h210l-256 -295h-161z" />
<glyph unicode="&#xca;" horiz-adv-x="1251" d="M61 0l310 1454h966l-34 -158h-779l-100 -469h725l-33 -157h-725l-108 -512h796l-32 -158h-986zM565 1589l269 295h221l141 -295h-139l-121 207l-209 -207h-162z" />
<glyph unicode="&#xcb;" horiz-adv-x="1251" d="M61 0l310 1454h966l-34 -158h-779l-100 -469h725l-33 -157h-725l-108 -512h796l-32 -158h-986zM623 1624l45 211h172l-43 -211h-174zM983 1624l45 211h172l-45 -211h-172z" />
<glyph unicode="&#xcc;" horiz-adv-x="561" d="M76 0l309 1454h188l-309 -1454h-188zM301 1884h186l86 -295h-141z" />
<glyph unicode="&#xcd;" horiz-adv-x="561" d="M76 0l309 1454h188l-309 -1454h-188zM422 1589l207 295h211l-256 -295h-162z" />
<glyph unicode="&#xce;" horiz-adv-x="561" d="M76 0l309 1454h188l-309 -1454h-188zM190 1589l269 295h221l141 -295h-139l-121 207l-209 -207h-162z" />
<glyph unicode="&#xcf;" horiz-adv-x="561" d="M76 0l309 1454h188l-309 -1454h-188zM248 1624l45 211h172l-43 -211h-174zM608 1624l45 211h172l-45 -211h-172z" />
<glyph unicode="&#xd0;" horiz-adv-x="1511" d="M88 672l35 157h172l133 625h451q275 0 429 -154.5t154 -408.5q1 -125 -26 -249.5t-89 -242t-150.5 -206.5t-220 -142t-288.5 -51h-569l143 672h-174zM342 158h320q127 -2 232 41.5t174 116.5t116.5 169.5t68 196t19.5 199.5q0 202 -105 308.5t-311 106.5h-272l-101 -467 h383l-35 -157h-380z" />
<glyph unicode="&#xd1;" horiz-adv-x="1507" d="M61 0l310 1454h204l295 -674q166 -387 228 -551q50 297 110 562l142 663h184l-309 -1454h-205l-291 664q-176 409 -235 563q-46 -280 -111 -574l-139 -653h-183zM674 1612q23 104 81 163.5t136 59.5q39 0 72.5 -14t80.5 -47q38 -25 57.5 -34t41.5 -9q35 0 55 25t31 77 h114q-20 -104 -72.5 -163.5t-121.5 -59.5q-35 0 -66 12t-77 43q-45 27 -69.5 37t-53.5 10q-68 0 -95 -100h-114z" />
<glyph unicode="&#xd2;" horiz-adv-x="1533" d="M117 567q-2 102 21 210t66.5 211.5t112.5 195t155 160.5t199.5 107.5t239.5 35.5q267 0 421.5 -161.5t154.5 -438.5q1 -104 -22 -212t-66.5 -212t-112.5 -195t-154 -159.5t-197 -106.5t-237 -35q-267 0 -424 161.5t-157 438.5zM307 575q0 -210 104 -326t289 -116 q112 -3 210.5 42t168 122t120 175.5t74.5 203.5t23 205q0 209 -102 324.5t-287 115.5q-112 3 -211 -42t-169 -122t-121 -175t-75.5 -202.5t-23.5 -204.5zM786 1884h187l86 -295h-141z" />
<glyph unicode="&#xd3;" horiz-adv-x="1533" d="M117 567q-2 102 21 210t66.5 211.5t112.5 195t155 160.5t199.5 107.5t239.5 35.5q267 0 421.5 -161.5t154.5 -438.5q1 -104 -22 -212t-66.5 -212t-112.5 -195t-154 -159.5t-197 -106.5t-237 -35q-267 0 -424 161.5t-157 438.5zM307 575q0 -210 104 -326t289 -116 q112 -3 210.5 42t168 122t120 175.5t74.5 203.5t23 205q0 209 -102 324.5t-287 115.5q-112 3 -211 -42t-169 -122t-121 -175t-75.5 -202.5t-23.5 -204.5zM907 1589l207 295h211l-256 -295h-162z" />
<glyph unicode="&#xd4;" horiz-adv-x="1533" d="M117 567q-2 102 21 210t66.5 211.5t112.5 195t155 160.5t199.5 107.5t239.5 35.5q267 0 421.5 -161.5t154.5 -438.5q1 -104 -22 -212t-66.5 -212t-112.5 -195t-154 -159.5t-197 -106.5t-237 -35q-267 0 -424 161.5t-157 438.5zM307 575q0 -210 104 -326t289 -116 q112 -3 210.5 42t168 122t120 175.5t74.5 203.5t23 205q0 209 -102 324.5t-287 115.5q-112 3 -211 -42t-169 -122t-121 -175t-75.5 -202.5t-23.5 -204.5zM676 1589l268 295h221l142 -295h-140l-120 207l-209 -207h-162z" />
<glyph unicode="&#xd5;" horiz-adv-x="1533" d="M117 567q-2 102 21 210t66.5 211.5t112.5 195t155 160.5t199.5 107.5t239.5 35.5q267 0 421.5 -161.5t154.5 -438.5q1 -104 -22 -212t-66.5 -212t-112.5 -195t-154 -159.5t-197 -106.5t-237 -35q-267 0 -424 161.5t-157 438.5zM307 575q0 -210 104 -326t289 -116 q112 -3 210.5 42t168 122t120 175.5t74.5 203.5t23 205q0 209 -102 324.5t-287 115.5q-112 3 -211 -42t-169 -122t-121 -175t-75.5 -202.5t-23.5 -204.5zM686 1612q23 104 81 163.5t136 59.5q39 0 73 -14t81 -47q39 -26 57.5 -34.5t40.5 -8.5q35 0 55 25t31 77h115 q-20 -104 -73 -163.5t-122 -59.5q-35 0 -66 12t-77 43q-45 27 -69.5 37t-53.5 10q-67 0 -94 -100h-115z" />
<glyph unicode="&#xd6;" horiz-adv-x="1533" d="M117 567q-2 102 21 210t66.5 211.5t112.5 195t155 160.5t199.5 107.5t239.5 35.5q267 0 421.5 -161.5t154.5 -438.5q1 -104 -22 -212t-66.5 -212t-112.5 -195t-154 -159.5t-197 -106.5t-237 -35q-267 0 -424 161.5t-157 438.5zM307 575q0 -210 104 -326t289 -116 q112 -3 210.5 42t168 122t120 175.5t74.5 203.5t23 205q0 209 -102 324.5t-287 115.5q-112 3 -211 -42t-169 -122t-121 -175t-75.5 -202.5t-23.5 -204.5zM735 1624l45 211h172l-43 -211h-174zM1096 1624l45 211h172l-45 -211h-172z" />
<glyph unicode="&#xd7;" horiz-adv-x="1228" d="M143 270l365 365l-365 364l107 107l364 -365l365 365l104 -107l-362 -364l362 -365l-104 -104l-365 362l-364 -362z" />
<glyph unicode="&#xd8;" horiz-adv-x="1536" d="M59 84l144 139q-86 139 -86 346q-1 123 30.5 251.5t98 250t158.5 215.5t223.5 149.5t281.5 51.5q266 0 422 -162l137 135l97 -90l-156 -151q78 -141 78 -332q1 -125 -30.5 -255t-98.5 -250.5t-159 -214.5t-222 -148.5t-277 -51.5q-260 0 -415 152l-127 -125zM307 575 q0 -125 37 -215l856 838q-102 123 -293 123q-112 3 -211 -42t-169 -122t-121 -175t-75.5 -202.5t-23.5 -204.5zM414 246q101 -113 284 -113q112 -3 211 42t169 122t120.5 175.5t74.5 203.5t23 205q0 112 -30 198z" />
<glyph unicode="&#xd9;" horiz-adv-x="1423" d="M143 344q0 62 19 152l205 958h188l-209 -975q-10 -65 -10 -102q0 -118 80.5 -180t234.5 -62q174 0 274.5 84.5t137.5 253.5l209 981h190l-213 -993q-51 -246 -200 -369t-404 -123q-246 0 -374 95.5t-128 279.5zM715 1884h186l86 -295h-141z" />
<glyph unicode="&#xda;" horiz-adv-x="1423" d="M143 344q0 62 19 152l205 958h188l-209 -975q-10 -65 -10 -102q0 -118 80.5 -180t234.5 -62q174 0 274.5 84.5t137.5 253.5l209 981h190l-213 -993q-51 -246 -200 -369t-404 -123q-246 0 -374 95.5t-128 279.5zM836 1589l206 295h211l-256 -295h-161z" />
<glyph unicode="&#xdb;" horiz-adv-x="1423" d="M143 344q0 62 19 152l205 958h188l-209 -975q-10 -65 -10 -102q0 -118 80.5 -180t234.5 -62q174 0 274.5 84.5t137.5 253.5l209 981h190l-213 -993q-51 -246 -200 -369t-404 -123q-246 0 -374 95.5t-128 279.5zM604 1589l268 295h222l141 -295h-139l-121 207l-209 -207 h-162z" />
<glyph unicode="&#xdc;" horiz-adv-x="1423" d="M143 344q0 62 19 152l205 958h188l-209 -975q-10 -65 -10 -102q0 -118 80.5 -180t234.5 -62q174 0 274.5 84.5t137.5 253.5l209 981h190l-213 -993q-51 -246 -200 -369t-404 -123q-246 0 -374 95.5t-128 279.5zM664 1624l45 211h172l-43 -211h-174zM1024 1624l45 211h172 l-45 -211h-172z" />
<glyph unicode="&#xdd;" horiz-adv-x="1292" d="M248 1454h192l260 -666l543 666h221l-694 -833l-131 -621h-188l131 623zM772 1589l207 295h211l-256 -295h-162z" />
<glyph unicode="&#xde;" horiz-adv-x="1341" d="M61 0l310 1454h188l-55 -264h399q196 0 308 -101.5t112 -269.5q0 -79 -20.5 -151t-64.5 -135.5t-108 -110t-156.5 -73.5t-203.5 -27h-453l-67 -322h-189zM352 477h393q199 0 297.5 90t98.5 240q0 112 -71 168.5t-206 56.5h-395z" />
<glyph unicode="&#xdf;" horiz-adv-x="1179" d="M31 0l225 1063q44 207 168 313.5t319 106.5q172 0 270.5 -94t98.5 -230q0 -113 -62.5 -208.5t-172.5 -141.5q105 -43 163 -131.5t58 -210.5q0 -96 -31.5 -182t-92 -154t-157.5 -107.5t-219 -39.5q-149 0 -268 45l55 137q98 -33 209 -33q156 0 245 97t89 239 q0 124 -84 196t-232 72h-49l29 140h49q77 0 137.5 24.5t95.5 65t52.5 87t17.5 95.5q0 83 -57 134.5t-154 51.5q-244 0 -305 -295l-221 -1040h-176z" />
<glyph unicode="&#xe0;" horiz-adv-x="1153" d="M66 354q-1 93 21.5 189t69.5 184.5t111.5 157.5t154 109t189.5 38q118 0 193.5 -49t101.5 -141l35 166h164l-215 -1008h-160l37 176q-132 -199 -354 -199q-165 0 -256.5 99.5t-91.5 277.5zM242 375q0 -250 211 -250q80 -3 154 44.5t124.5 123.5t80 171t28.5 187 q0 113 -53 173.5t-160 60.5q-73 2 -137 -29.5t-108.5 -84.5t-77 -121t-48 -138.5t-14.5 -136.5zM510 1466h186l86 -295h-141z" />
<glyph unicode="&#xe1;" horiz-adv-x="1153" d="M66 354q-1 93 21.5 189t69.5 184.5t111.5 157.5t154 109t189.5 38q118 0 193.5 -49t101.5 -141l35 166h164l-215 -1008h-160l37 176q-132 -199 -354 -199q-165 0 -256.5 99.5t-91.5 277.5zM242 375q0 -250 211 -250q80 -3 154 44.5t124.5 123.5t80 171t28.5 187 q0 113 -53 173.5t-160 60.5q-73 2 -137 -29.5t-108.5 -84.5t-77 -121t-48 -138.5t-14.5 -136.5zM631 1171l207 295h211l-256 -295h-162z" />
<glyph unicode="&#xe2;" horiz-adv-x="1153" d="M66 354q-1 93 21.5 189t69.5 184.5t111.5 157.5t154 109t189.5 38q118 0 193.5 -49t101.5 -141l35 166h164l-215 -1008h-160l37 176q-132 -199 -354 -199q-165 0 -256.5 99.5t-91.5 277.5zM242 375q0 -250 211 -250q80 -3 154 44.5t124.5 123.5t80 171t28.5 187 q0 113 -53 173.5t-160 60.5q-73 2 -137 -29.5t-108.5 -84.5t-77 -121t-48 -138.5t-14.5 -136.5zM399 1171l269 295h221l141 -295h-139l-121 207l-209 -207h-162z" />
<glyph unicode="&#xe3;" horiz-adv-x="1153" d="M66 354q-1 93 21.5 189t69.5 184.5t111.5 157.5t154 109t189.5 38q118 0 193.5 -49t101.5 -141l35 166h164l-215 -1008h-160l37 176q-132 -199 -354 -199q-165 0 -256.5 99.5t-91.5 277.5zM242 375q0 -250 211 -250q80 -3 154 44.5t124.5 123.5t80 171t28.5 187 q0 113 -53 173.5t-160 60.5q-73 2 -137 -29.5t-108.5 -84.5t-77 -121t-48 -138.5t-14.5 -136.5zM410 1194q23 104 81 163.5t136 59.5q39 0 72.5 -14t80.5 -47q38 -25 57.5 -34t41.5 -9q35 0 55 25t31 77h114q-20 -104 -72.5 -163.5t-121.5 -59.5q-36 0 -67 12.5t-77 42.5 q-45 27 -69.5 37t-53.5 10q-67 0 -94 -100h-114z" />
<glyph unicode="&#xe4;" horiz-adv-x="1153" d="M66 354q-1 93 21.5 189t69.5 184.5t111.5 157.5t154 109t189.5 38q118 0 193.5 -49t101.5 -141l35 166h164l-215 -1008h-160l37 176q-132 -199 -354 -199q-165 0 -256.5 99.5t-91.5 277.5zM242 375q0 -250 211 -250q80 -3 154 44.5t124.5 123.5t80 171t28.5 187 q0 113 -53 173.5t-160 60.5q-73 2 -137 -29.5t-108.5 -84.5t-77 -121t-48 -138.5t-14.5 -136.5zM457 1206l45 211h172l-43 -211h-174zM817 1206l45 211h172l-45 -211h-172z" />
<glyph unicode="&#xe5;" horiz-adv-x="1153" d="M66 354q-1 93 21.5 189t69.5 184.5t111.5 157.5t154 109t189.5 38q118 0 193.5 -49t101.5 -141l35 166h164l-215 -1008h-160l37 176q-132 -199 -354 -199q-165 0 -256.5 99.5t-91.5 277.5zM242 375q0 -250 211 -250q80 -3 154 44.5t124.5 123.5t80 171t28.5 187 q0 113 -53 173.5t-160 60.5q-73 2 -137 -29.5t-108.5 -84.5t-77 -121t-48 -138.5t-14.5 -136.5zM535 1333q0 98 68.5 167t166.5 69q91 0 146 -53.5t55 -139.5q0 -99 -67 -166t-169 -67q-90 0 -145 53.5t-55 136.5zM633 1333q0 -49 28 -75.5t76 -26.5q59 0 97 41.5t38 103.5 q0 51 -28.5 78t-79.5 27q-55 0 -93 -43t-38 -105z" />
<glyph unicode="&#xe6;" horiz-adv-x="1781" d="M27 233q0 302 477 349l278 26l13 51q10 52 10 78q0 154 -201 154q-170 0 -352 -164l-100 111q222 198 464 198q127 0 210 -41t116 -116q151 157 391 157q165 0 269 -100.5t104 -257.5q0 -105 -33 -203h-745q-6 -43 -6 -84q0 -126 64.5 -199t191.5 -73q96 0 176.5 44 t179.5 146l113 -96q-205 -242 -478 -242q-240 0 -354 172q-191 -176 -436 -176q-157 0 -254.5 72.5t-97.5 193.5zM203 250q0 -61 53 -99t143 -38q200 0 359 172q-10 62 -10 100q0 43 6 92l-232 -26q-170 -20 -244.5 -67.5t-74.5 -133.5zM961 604h577q6 41 6 72 q0 103 -59 161t-164 58q-130 0 -222 -78.5t-138 -212.5z" />
<glyph unicode="&#xe7;" horiz-adv-x="1011" d="M63 387q-1 86 22.5 177t71.5 176.5t114.5 152.5t160.5 106.5t201 36.5q237 0 373 -198l-129 -99q-60 84 -116 117t-138 33q-86 3 -161 -44.5t-121.5 -122.5t-73 -161t-25.5 -166q0 -131 60.5 -202.5t176.5 -71.5q82 0 158 39t178 135l107 -107q-110 -112 -217.5 -163.5 t-229.5 -53.5l-74 -108h13q76 0 128 -41.5t52 -108.5q0 -83 -60.5 -137.5t-168.5 -54.5q-120 0 -232 69l62 86q100 -53 165 -53q59 0 91 23.5t32 62.5q0 32 -29 51t-77 19q-36 0 -60 -6l-47 53l105 154q-147 29 -229.5 136t-82.5 271z" />
<glyph unicode="&#xe8;" horiz-adv-x="1097" d="M63 393q-1 86 22.5 176.5t73 175t117 150.5t164 105t205.5 36q163 0 273 -96q104 -98 104 -254q0 -110 -33 -211h-745q-6 -40 -6 -80q0 -129 63.5 -202.5t192.5 -73.5q88 0 171 44t181 148l115 -98q-113 -127 -229 -184.5t-247 -57.5q-196 0 -309 113.5t-113 308.5z M274 604h582q4 62 4 72q0 101 -59 160t-166 59q-127 0 -221 -79.5t-140 -211.5zM500 1466h186l86 -295h-141z" />
<glyph unicode="&#xe9;" horiz-adv-x="1097" d="M63 393q-1 86 22.5 176.5t73 175t117 150.5t164 105t205.5 36q163 0 273 -96q104 -98 104 -254q0 -110 -33 -211h-745q-6 -40 -6 -80q0 -129 63.5 -202.5t192.5 -73.5q88 0 171 44t181 148l115 -98q-113 -127 -229 -184.5t-247 -57.5q-196 0 -309 113.5t-113 308.5z M274 604h582q4 62 4 72q0 101 -59 160t-166 59q-127 0 -221 -79.5t-140 -211.5zM621 1171l206 295h211l-256 -295h-161z" />
<glyph unicode="&#xea;" horiz-adv-x="1097" d="M63 393q-1 86 22.5 176.5t73 175t117 150.5t164 105t205.5 36q163 0 273 -96q104 -98 104 -254q0 -110 -33 -211h-745q-6 -40 -6 -80q0 -129 63.5 -202.5t192.5 -73.5q88 0 171 44t181 148l115 -98q-113 -127 -229 -184.5t-247 -57.5q-196 0 -309 113.5t-113 308.5z M274 604h582q4 62 4 72q0 101 -59 160t-166 59q-127 0 -221 -79.5t-140 -211.5zM389 1171l268 295h222l141 -295h-139l-121 207l-209 -207h-162z" />
<glyph unicode="&#xeb;" horiz-adv-x="1097" d="M63 393q-1 86 22.5 176.5t73 175t117 150.5t164 105t205.5 36q163 0 273 -96q104 -98 104 -254q0 -110 -33 -211h-745q-6 -40 -6 -80q0 -129 63.5 -202.5t192.5 -73.5q88 0 171 44t181 148l115 -98q-113 -127 -229 -184.5t-247 -57.5q-196 0 -309 113.5t-113 308.5z M274 604h582q4 62 4 72q0 101 -59 160t-166 59q-127 0 -221 -79.5t-140 -211.5zM446 1206l46 211h172l-43 -211h-175zM807 1206l45 211h172l-45 -211h-172z" />
<glyph unicode="&#xec;" horiz-adv-x="458" d="M31 0l213 1008h176l-213 -1008h-176zM162 1466h186l86 -295h-141z" />
<glyph unicode="&#xed;" horiz-adv-x="458" d="M31 0l213 1008h176l-213 -1008h-176zM283 1171l206 295h211l-256 -295h-161z" />
<glyph unicode="&#xee;" horiz-adv-x="458" d="M31 0l213 1008h176l-213 -1008h-176zM51 1171l268 295h222l141 -295h-139l-121 207l-209 -207h-162z" />
<glyph unicode="&#xef;" horiz-adv-x="458" d="M31 0l213 1008h176l-213 -1008h-176zM111 1206l45 211h172l-43 -211h-174zM471 1206l45 211h172l-45 -211h-172z" />
<glyph unicode="&#xf0;" horiz-adv-x="1120" d="M57 360q-1 81 19 166.5t63.5 166t104 143.5t147.5 100t187 35q125 0 207.5 -54.5t115.5 -150.5q2 18 2 80q0 212 -147 336l-242 -138l-57 89l207 116q-51 31 -142 74l-84 37l82 121l82 -33q131 -55 215 -113l205 117l55 -88l-176 -98q162 -162 162 -430q0 -200 -59 -398 q-61 -199 -199 -334t-352 -135q-187 0 -291.5 108t-104.5 283zM231 377q0 -122 58.5 -189t177.5 -67q83 -3 155 40t117 110.5t70.5 144.5t24.5 147q0 123 -65 191.5t-185 68.5q-89 0 -159 -41.5t-111 -108.5t-62 -143t-21 -153z" />
<glyph unicode="&#xf1;" horiz-adv-x="1124" d="M35 0l213 1008h164l-33 -148q122 176 342 176q146 0 227.5 -72t81.5 -192q0 -60 -16 -135l-135 -637h-177l134 635q12 55 12 102q0 152 -178 152q-120 0 -213 -85.5t-125 -234.5l-121 -569h-176zM399 1194q23 104 81 163.5t136 59.5q39 0 73 -14t81 -47 q39 -26 57.5 -34.5t40.5 -8.5q35 0 55 25t31 77h115q-20 -104 -73 -163.5t-122 -59.5q-35 0 -66 12t-77 43q-45 27 -69.5 37t-53.5 10q-67 0 -94 -100h-115z" />
<glyph unicode="&#xf2;" horiz-adv-x="1116" d="M66 399q-1 81 20 168t68 172.5t112 152.5t160 107t205 37q192 0 302.5 -112t110.5 -312q1 -82 -20.5 -170t-68 -173.5t-111.5 -152.5t-159.5 -107t-203.5 -38q-196 0 -305.5 112.5t-109.5 315.5zM242 399q0 -132 64 -206t181 -74q70 -2 132.5 28t107 81.5t77.5 116.5 t49 134t15 133q0 134 -62 205.5t-183 71.5q-70 2 -133 -28t-108 -81.5t-77.5 -116.5t-48 -133t-14.5 -131zM492 1466h186l86 -295h-141z" />
<glyph unicode="&#xf3;" horiz-adv-x="1116" d="M66 399q-1 81 20 168t68 172.5t112 152.5t160 107t205 37q192 0 302.5 -112t110.5 -312q1 -82 -20.5 -170t-68 -173.5t-111.5 -152.5t-159.5 -107t-203.5 -38q-196 0 -305.5 112.5t-109.5 315.5zM242 399q0 -132 64 -206t181 -74q70 -2 132.5 28t107 81.5t77.5 116.5 t49 134t15 133q0 134 -62 205.5t-183 71.5q-70 2 -133 -28t-108 -81.5t-77.5 -116.5t-48 -133t-14.5 -131zM614 1171l207 295h211l-256 -295h-162z" />
<glyph unicode="&#xf4;" horiz-adv-x="1116" d="M66 399q-1 81 20 168t68 172.5t112 152.5t160 107t205 37q192 0 302.5 -112t110.5 -312q1 -82 -20.5 -170t-68 -173.5t-111.5 -152.5t-159.5 -107t-203.5 -38q-196 0 -305.5 112.5t-109.5 315.5zM242 399q0 -132 64 -206t181 -74q70 -2 132.5 28t107 81.5t77.5 116.5 t49 134t15 133q0 134 -62 205.5t-183 71.5q-70 2 -133 -28t-108 -81.5t-77.5 -116.5t-48 -133t-14.5 -131zM381 1171l268 295h221l142 -295h-140l-120 207l-209 -207h-162z" />
<glyph unicode="&#xf5;" horiz-adv-x="1116" d="M66 399q-1 81 20 168t68 172.5t112 152.5t160 107t205 37q192 0 302.5 -112t110.5 -312q1 -82 -20.5 -170t-68 -173.5t-111.5 -152.5t-159.5 -107t-203.5 -38q-196 0 -305.5 112.5t-109.5 315.5zM242 399q0 -132 64 -206t181 -74q70 -2 132.5 28t107 81.5t77.5 116.5 t49 134t15 133q0 134 -62 205.5t-183 71.5q-70 2 -133 -28t-108 -81.5t-77.5 -116.5t-48 -133t-14.5 -131zM391 1194q23 104 81 163.5t136 59.5q39 0 73 -14t81 -47q39 -26 57.5 -34.5t40.5 -8.5q35 0 55 25t31 77h115q-20 -104 -73 -163.5t-122 -59.5q-35 0 -66 12t-77 43 q-45 27 -69.5 37t-53.5 10q-67 0 -94 -100h-115z" />
<glyph unicode="&#xf6;" horiz-adv-x="1116" d="M66 399q-1 81 20 168t68 172.5t112 152.5t160 107t205 37q192 0 302.5 -112t110.5 -312q1 -82 -20.5 -170t-68 -173.5t-111.5 -152.5t-159.5 -107t-203.5 -38q-196 0 -305.5 112.5t-109.5 315.5zM242 399q0 -132 64 -206t181 -74q70 -2 132.5 28t107 81.5t77.5 116.5 t49 134t15 133q0 134 -62 205.5t-183 71.5q-70 2 -133 -28t-108 -81.5t-77.5 -116.5t-48 -133t-14.5 -131zM440 1206l45 211h172l-43 -211h-174zM801 1206l45 211h172l-45 -211h-172z" />
<glyph unicode="&#xf7;" horiz-adv-x="1228" d="M82 559v152h1065v-152h-1065zM510 158v223h209v-223h-209zM510 889v223h209v-223h-209z" />
<glyph unicode="&#xf8;" horiz-adv-x="1114" d="M57 27l86 96q-80 109 -80 276q-1 80 20.5 167.5t69 172.5t113 152.5t160 107.5t203.5 37q159 0 260 -73l86 96l84 -70l-92 -104q75 -106 75 -273q1 -81 -20.5 -169.5t-68.5 -174t-112.5 -153t-159 -107.5t-200.5 -37q-157 0 -260 74l-80 -90zM240 399q0 -83 24 -141 l516 584q-59 47 -157 47q-87 3 -162 -43.5t-122 -121t-73.5 -160t-25.5 -165.5zM330 168q58 -49 155 -49q70 -2 132.5 28t107 81.5t77.5 116.5t49 134t15 133q0 86 -20 136z" />
<glyph unicode="&#xf9;" horiz-adv-x="1107" d="M84 233q0 63 16 138l133 637h177l-131 -623q-15 -77 -15 -117q0 -145 164 -145q122 0 215 89.5t127 252.5l115 543h176l-213 -1008h-162l33 152q-59 -87 -147.5 -134t-186.5 -47q-145 0 -223 70.5t-78 191.5zM463 1466h186l86 -295h-141z" />
<glyph unicode="&#xfa;" horiz-adv-x="1107" d="M84 233q0 63 16 138l133 637h177l-131 -623q-15 -77 -15 -117q0 -145 164 -145q122 0 215 89.5t127 252.5l115 543h176l-213 -1008h-162l33 152q-59 -87 -147.5 -134t-186.5 -47q-145 0 -223 70.5t-78 191.5zM586 1171l207 295h211l-256 -295h-162z" />
<glyph unicode="&#xfb;" horiz-adv-x="1107" d="M84 233q0 63 16 138l133 637h177l-131 -623q-15 -77 -15 -117q0 -145 164 -145q122 0 215 89.5t127 252.5l115 543h176l-213 -1008h-162l33 152q-59 -87 -147.5 -134t-186.5 -47q-145 0 -223 70.5t-78 191.5zM352 1171l269 295h221l141 -295h-139l-121 207l-209 -207 h-162z" />
<glyph unicode="&#xfc;" horiz-adv-x="1107" d="M84 233q0 63 16 138l133 637h177l-131 -623q-15 -77 -15 -117q0 -145 164 -145q122 0 215 89.5t127 252.5l115 543h176l-213 -1008h-162l33 152q-59 -87 -147.5 -134t-186.5 -47q-145 0 -223 70.5t-78 191.5zM412 1206l45 211h172l-43 -211h-174zM772 1206l45 211h172 l-45 -211h-172z" />
<glyph unicode="&#xfd;" horiz-adv-x="989" d="M-82 -373l47 133q58 -12 98 -12q69 0 113 34.5t98 131.5l19 31l-156 1063h176l45 -346q37 -269 62 -508q110 220 258 493l196 361h183l-637 -1155q-77 -139 -151 -194.5t-193 -55.5q-84 0 -158 24zM530 1171l207 295h211l-256 -295h-162z" />
<glyph unicode="&#xfe;" horiz-adv-x="1146" d="M-49 -369l389 1823h176l-129 -600q138 176 348 176q161 0 252.5 -100.5t91.5 -274.5q1 -95 -21.5 -192t-68 -185.5t-109 -157.5t-152 -108.5t-189.5 -36.5q-110 0 -186.5 47.5t-112.5 131.5l-113 -523h-176zM291 362q0 -106 64 -172.5t169 -66.5q91 -3 166.5 45.5 t120.5 126t69 166.5t23 174q0 125 -51.5 186.5t-159.5 61.5q-83 3 -159.5 -43.5t-129 -121.5t-83 -169.5t-29.5 -186.5z" />
<glyph unicode="&#xff;" horiz-adv-x="989" d="M-82 -373l47 133q58 -12 98 -12q69 0 113 34.5t98 131.5l19 31l-156 1063h176l45 -346q37 -269 62 -508q110 220 258 493l196 361h183l-637 -1155q-77 -139 -151 -194.5t-193 -55.5q-84 0 -158 24zM356 1206l45 211h172l-43 -211h-174zM717 1206l45 211h172l-45 -211 h-172z" />
<glyph unicode="&#x13f;" horiz-adv-x="1091" d="M61 0l310 1454h188l-276 -1294h680l-33 -160h-869zM678 649l47 221h209l-47 -221h-209z" />
<glyph unicode="&#x140;" horiz-adv-x="811" d="M37 0l309 1454h176l-309 -1454h-176zM526 530l47 222h209l-47 -222h-209z" />
<glyph unicode="&#x152;" horiz-adv-x="2351" d="M109 537q-1 103 23.5 213.5t71.5 218t120.5 202.5t164.5 167t211 112t252 37q351 0 467 -266l51 233h967l-33 -158h-778l-100 -469h723l-33 -157h-725l-107 -512h797l-35 -158h-985l43 203q-211 -236 -524 -236q-270 0 -420.5 152t-150.5 418zM299 545 q0 -199 100.5 -305.5t288.5 -106.5q101 -3 192 30t160.5 91.5t126 136.5t92.5 166t54.5 178t17.5 174q0 198 -98 305t-285 107q-101 3 -192.5 -30t-161.5 -91.5t-127.5 -136.5t-94 -165.5t-55.5 -178t-18 -174.5z" />
<glyph unicode="&#x153;" horiz-adv-x="1884" d="M63 399q-1 80 20.5 167.5t69 172.5t113 152.5t160 107.5t203.5 37q135 0 226 -59t132 -172q76 109 188.5 170t256.5 61q167 0 271.5 -97.5t104.5 -252.5q0 -113 -32 -211h-746q-4 -70 -4 -80q0 -129 63.5 -202.5t192.5 -73.5q90 0 174 44t180 146l115 -96 q-209 -242 -477 -242q-138 0 -236 59.5t-143 166.5q-70 -107 -174.5 -166.5t-239.5 -59.5q-196 0 -307 113t-111 315zM240 399q0 -132 64 -206t181 -74q70 -2 132.5 28t107 81.5t77.5 116.5t49 134t15 133q0 135 -62.5 206t-180.5 71q-87 3 -162 -43.5t-122 -121t-73.5 -160 t-25.5 -165.5zM1063 604h579q7 40 7 72q0 101 -59.5 160t-168.5 59q-126 0 -219 -79t-139 -212z" />
<glyph unicode="&#x178;" horiz-adv-x="1292" d="M248 1454h192l260 -666l543 666h221l-694 -833l-131 -621h-188l131 623zM598 1624l45 211h172l-43 -211h-174zM958 1624l46 211h172l-46 -211h-172z" />
<glyph unicode="&#x2c6;" horiz-adv-x="956" d="M307 1171l268 295h222l141 -295h-139l-121 207l-209 -207h-162z" />
<glyph unicode="&#x2dc;" horiz-adv-x="1064" d="M369 1194q23 104 81 163.5t136 59.5q39 0 72.5 -14t80.5 -47q38 -25 57.5 -34t41.5 -9q35 0 55 25t31 77h114q-20 -104 -72.5 -163.5t-121.5 -59.5q-36 0 -67 12.5t-77 42.5q-46 27 -69.5 37t-52.5 10q-68 0 -95 -100h-114z" />
<glyph unicode="&#x3bc;" horiz-adv-x="1099" d="M135 -375v1383h176v-664q0 -221 221 -221q112 0 183 72t71 198v615h177v-1008h-160v139q-41 -80 -116 -124t-169 -44q-137 0 -207 70v-416h-176z" />
<glyph unicode="&#x2000;" horiz-adv-x="942" />
<glyph unicode="&#x2001;" horiz-adv-x="1884" />
<glyph unicode="&#x2002;" horiz-adv-x="942" />
<glyph unicode="&#x2003;" horiz-adv-x="1884" />
<glyph unicode="&#x2004;" horiz-adv-x="628" />
<glyph unicode="&#x2005;" horiz-adv-x="471" />
<glyph unicode="&#x2006;" horiz-adv-x="314" />
<glyph unicode="&#x2007;" horiz-adv-x="314" />
<glyph unicode="&#x2008;" horiz-adv-x="235" />
<glyph unicode="&#x2009;" horiz-adv-x="376" />
<glyph unicode="&#x200a;" horiz-adv-x="104" />
<glyph unicode="&#x2010;" horiz-adv-x="829" d="M117 510l35 158h596l-35 -158h-596z" />
<glyph unicode="&#x2011;" horiz-adv-x="829" d="M117 510l35 158h596l-35 -158h-596z" />
<glyph unicode="&#x2012;" horiz-adv-x="829" d="M117 510l35 158h596l-35 -158h-596z" />
<glyph unicode="&#x2013;" horiz-adv-x="1480" d="M143 514l29 150h1202l-31 -150h-1200z" />
<glyph unicode="&#x2014;" horiz-adv-x="1978" d="M166 514l31 150h1652l-30 -150h-1653z" />
<glyph unicode="&#x2018;" horiz-adv-x="409" d="M184 1001l45 209l174 244h105l-162 -244h96l-45 -209h-213z" />
<glyph unicode="&#x2019;" horiz-adv-x="409" d="M188 1001l162 244h-96l45 209h213l-45 -209l-172 -244h-107z" />
<glyph unicode="&#x201a;" horiz-adv-x="403" d="M-68 -233l150 233h-94l45 213h213l-43 -213l-170 -233h-101z" />
<glyph unicode="&#x201c;" horiz-adv-x="780" d="M184 1001l45 209l174 244h105l-162 -244h96l-45 -209h-213zM555 1001l45 209l172 244h107l-162 -244h96l-45 -209h-213z" />
<glyph unicode="&#x201d;" horiz-adv-x="780" d="M188 1001l162 244h-96l45 209h213l-45 -209l-172 -244h-107zM559 1001l162 244h-96l45 209h213l-45 -209l-174 -244h-105z" />
<glyph unicode="&#x201e;" horiz-adv-x="774" d="M-70 -233l150 233h-94l45 213h213l-45 -213l-170 -233h-99zM299 -233l150 233h-93l43 213h215l-45 -213l-170 -233h-100z" />
<glyph unicode="&#x2022;" horiz-adv-x="1024" d="M160 612q0 149 105.5 255t254.5 106q148 0 255.5 -106t107.5 -255q0 -146 -107.5 -254t-255.5 -108q-147 0 -253.5 107.5t-106.5 254.5z" />
<glyph unicode="&#x2026;" horiz-adv-x="1290" d="M10 0l47 221h209l-47 -221h-209zM434 0l47 221h209l-47 -221h-209zM860 0l45 221h209l-45 -221h-209z" />
<glyph unicode="&#x202f;" horiz-adv-x="376" />
<glyph unicode="&#x2039;" horiz-adv-x="724" d="M129 518l381 447h184l-395 -461l188 -432h-165z" />
<glyph unicode="&#x203a;" horiz-adv-x="724" d="M35 72l395 460l-190 433h166l194 -447l-381 -446h-184z" />
<glyph unicode="&#x2044;" horiz-adv-x="464" d="M-432 49l1266 1374l96 -77l-1270 -1377z" />
<glyph unicode="&#x205f;" horiz-adv-x="471" />
<glyph unicode="&#x20ac;" horiz-adv-x="1249" d="M106 489l29 129h141q12 103 39 191h-141l29 131h157q90 225 248 355t371 130q120 0 210 -36.5t167 -110.5l-111 -115q-67 58 -129.5 82.5t-146.5 24.5q-137 0 -244.5 -87.5t-179.5 -242.5h530l-28 -131h-551q-31 -98 -43 -191h555l-29 -129h-537v-8q0 -177 73 -267.5 t216 -90.5q80 0 147 22.5t164 83.5l76 -131q-103 -69 -196 -100t-199 -31q-219 0 -338 135.5t-119 368.5q0 14 2 18h-162z" />
<glyph unicode="&#x2116;" horiz-adv-x="2410" d="M371 0v1454h207l409 -672q11 -17 38.5 -64t45.5 -75q177 -298 232 -399q-9 231 -9 547v663h185v-1454h-207l-404 662l-43 71q-43 74 -118 197q-91 150 -162 276q8 -156 8 -553v-653h-182zM1661 1073q0 178 105.5 285.5t273.5 107.5q165 0 272 -108.5t107 -284.5 q0 -179 -104 -286t-275 -107q-168 0 -273.5 108t-105.5 285zM1702 414v139h678v-139h-678zM1817 1073q0 -117 62 -187.5t161 -70.5t162 71t63 187t-63 187t-162 71t-161 -70.5t-62 -187.5z" />
<glyph unicode="&#x2122;" horiz-adv-x="1955" d="M199 1343v111h688v-111h-281v-681h-127v681h-280zM1038 662v792h181l270 -641l256 641h182v-792h-121v634l-260 -634h-116l-269 626v-626h-123z" />
<glyph unicode="&#x25fc;" horiz-adv-x="1003" d="M0 0v1004h1004v-1004h-1004z" />
<glyph horiz-adv-x="1372" d="M-72 0l836 1454h248l219 -1454h-187l-53 371h-653l-209 -371h-201zM428 530h541l-27 191q-3 22 -7 52.5t-11 74t-11 74.5q-40 279 -51 393q-70 -141 -170 -318q-119 -212 -133 -239l-22 -39zM641 1722q0 50 37 86.5t88 36.5q43 0 72.5 -28.5t29.5 -69.5q0 -51 -37 -88 t-88 -37q-43 0 -72.5 29.5t-29.5 70.5zM1008 1722q0 50 37 86.5t88 36.5q43 0 71.5 -28.5t28.5 -69.5q0 -51 -37 -88t-88 -37q-42 0 -71 29t-29 71z" />
<glyph horiz-adv-x="1251" d="M61 0l310 1454h966l-34 -158h-779l-100 -469h725l-33 -157h-725l-108 -512h796l-32 -158h-986zM606 1722q0 50 37 86.5t88 36.5q43 0 73 -28.5t30 -69.5q0 -51 -37 -88t-88 -37q-43 0 -73 29.5t-30 70.5zM973 1722q0 50 37 86.5t88 36.5q43 0 71.5 -28.5t28.5 -69.5 q0 -51 -37 -88t-88 -37q-42 0 -71 29t-29 71z" />
<glyph horiz-adv-x="561" d="M76 0l309 1454h188l-309 -1454h-188zM231 1722q0 50 37 86.5t88 36.5q43 0 73 -28.5t30 -69.5q0 -51 -37 -88t-88 -37q-43 0 -73 29.5t-30 70.5zM598 1722q0 50 37 86.5t88 36.5q43 0 71.5 -28.5t28.5 -69.5q0 -51 -37 -88t-88 -37q-42 0 -71 29t-29 71z" />
<glyph horiz-adv-x="1349" d="M61 0l310 1454h188l-153 -723l929 754l107 -121l-617 -496l400 -868h-199l-346 754l-326 -260l-104 -494h-189z" />
<glyph horiz-adv-x="1533" d="M117 567q-2 102 21 210t66.5 211.5t112.5 195t155 160.5t199.5 107.5t239.5 35.5q267 0 421.5 -161.5t154.5 -438.5q1 -104 -22 -212t-66.5 -212t-112.5 -195t-154 -159.5t-197 -106.5t-237 -35q-267 0 -424 161.5t-157 438.5zM307 575q0 -210 104 -326t289 -116 q112 -3 210.5 42t168 122t120 175.5t74.5 203.5t23 205q0 209 -102 324.5t-287 115.5q-112 3 -211 -42t-169 -122t-121 -175t-75.5 -202.5t-23.5 -204.5zM717 1722q0 50 37 86.5t88 36.5q43 0 72.5 -28.5t29.5 -69.5q0 -51 -37 -88t-88 -37q-43 0 -72.5 29.5t-29.5 70.5z M1083 1722q0 50 37 86.5t88 36.5q43 0 72 -28.5t29 -69.5q0 -51 -37 -88t-88 -37q-42 0 -71.5 29t-29.5 71z" />
<glyph horiz-adv-x="1423" d="M143 344q0 62 19 152l205 958h188l-209 -975q-10 -65 -10 -102q0 -118 80.5 -180t234.5 -62q174 0 274.5 84.5t137.5 253.5l209 981h190l-213 -993q-51 -246 -200 -369t-404 -123q-246 0 -374 95.5t-128 279.5zM645 1722q0 50 37 86.5t88 36.5q43 0 72.5 -28.5 t29.5 -69.5q0 -51 -36.5 -88t-87.5 -37q-43 0 -73 29.5t-30 70.5zM1012 1722q0 50 37 86.5t88 36.5q43 0 71.5 -28.5t28.5 -69.5q0 -51 -37 -88t-88 -37q-42 0 -71 29t-29 71z" />
<glyph horiz-adv-x="1292" d="M248 1454h192l260 -666l543 666h221l-694 -833l-131 -621h-188l131 623zM582 1722q0 50 37 86.5t88 36.5q43 0 72.5 -28.5t29.5 -69.5q0 -51 -37 -88t-88 -37q-43 0 -72.5 29.5t-29.5 70.5zM948 1722q0 50 37 86.5t88 36.5q43 0 72 -28.5t29 -69.5q0 -51 -37 -88t-88 -37 q-43 0 -72 29t-29 71z" />
<glyph horiz-adv-x="1153" d="M66 354q-1 93 21.5 189t69.5 184.5t111.5 157.5t154 109t189.5 38q118 0 193.5 -49t101.5 -141l35 166h164l-215 -1008h-160l37 176q-132 -199 -354 -199q-165 0 -256.5 99.5t-91.5 277.5zM242 375q0 -250 211 -250q80 -3 154 44.5t124.5 123.5t80 171t28.5 187 q0 113 -53 173.5t-160 60.5q-73 2 -137 -29.5t-108.5 -84.5t-77 -121t-48 -138.5t-14.5 -136.5zM440 1305q0 50 37 86t88 36q43 0 73 -28.5t30 -69.5q0 -51 -37 -88t-88 -37q-43 0 -73 30t-30 71zM807 1305q0 50 37 86t88 36q43 0 71.5 -28.5t28.5 -69.5q0 -51 -37 -88 t-88 -37q-42 0 -71 29.5t-29 71.5z" />
<glyph horiz-adv-x="1097" d="M63 393q-1 86 22.5 176.5t73 175t117 150.5t164 105t205.5 36q163 0 273 -96q104 -98 104 -254q0 -110 -33 -211h-745q-6 -40 -6 -80q0 -129 63.5 -202.5t192.5 -73.5q88 0 171 44t181 148l115 -98q-113 -127 -229 -184.5t-247 -57.5q-196 0 -309 113.5t-113 308.5z M274 604h582q4 62 4 72q0 101 -59 160t-166 59q-127 0 -221 -79.5t-140 -211.5zM430 1305q0 50 37 86t88 36q43 0 72.5 -28.5t29.5 -69.5q0 -51 -37 -88t-88 -37q-42 0 -72 30t-30 71zM797 1305q0 50 37 86t88 36q43 0 71.5 -28.5t28.5 -69.5q0 -51 -37 -88t-88 -37 q-42 0 -71 29.5t-29 71.5z" />
<glyph horiz-adv-x="458" d="M31 0l213 1008h176l-213 -1008h-176zM272 1300q0 54 37.5 90.5t91.5 36.5q44 0 73.5 -28.5t29.5 -71.5q0 -54 -36.5 -91.5t-90.5 -37.5q-44 0 -74.5 29.5t-30.5 72.5z" />
<glyph horiz-adv-x="458" d="M31 0l213 1008h176l-213 -1008h-176zM92 1305q0 50 37 86t88 36q43 0 72.5 -28.5t29.5 -69.5q0 -51 -36.5 -88t-87.5 -37q-43 0 -73 30t-30 71zM459 1305q0 50 37 86t88 36q43 0 71.5 -28.5t28.5 -69.5q0 -51 -37 -88t-88 -37q-42 0 -71 29.5t-29 71.5z" />
<glyph horiz-adv-x="458" d="M31 0l213 1008h176l-213 -1008h-176zM287 1206l45 211h176l-45 -211h-176z" />
<glyph horiz-adv-x="444" d="M-219 -389l37 137l51 -4q59 0 92 35t47 106l238 1123h174l-244 -1143q-25 -125 -96.5 -193.5t-185.5 -68.5q-77 0 -113 8zM289 1206l45 211h172l-45 -211h-172z" />
<glyph horiz-adv-x="448" d="M-326 -365l52 129q83 -18 127 -18q73 0 107 42t60 151l226 1069h176l-232 -1098q-33 -162 -107.5 -234.5t-213.5 -72.5q-113 0 -195 32zM272 1300q0 54 37.5 90.5t91.5 36.5q44 0 73.5 -28.5t29.5 -71.5q0 -54 -36.5 -91.5t-90.5 -37.5q-44 0 -74.5 29.5t-30.5 72.5z" />
<glyph horiz-adv-x="1011" d="M31 0l309 1454h176l-199 -940l613 514l102 -108l-393 -324l274 -596h-178l-225 489l-240 -196l-63 -293h-176z" />
<glyph horiz-adv-x="1116" d="M66 399q-1 81 20 168t68 172.5t112 152.5t160 107t205 37q192 0 302.5 -112t110.5 -312q1 -82 -20.5 -170t-68 -173.5t-111.5 -152.5t-159.5 -107t-203.5 -38q-196 0 -305.5 112.5t-109.5 315.5zM242 399q0 -132 64 -206t181 -74q70 -2 132.5 28t107 81.5t77.5 116.5 t49 134t15 133q0 134 -62 205.5t-183 71.5q-70 2 -133 -28t-108 -81.5t-77.5 -116.5t-48 -133t-14.5 -131zM424 1305q0 50 37 86t88 36q43 0 72.5 -28.5t29.5 -69.5q0 -51 -37 -88t-88 -37q-42 0 -72 30t-30 71zM791 1305q0 50 36.5 86t87.5 36q43 0 72 -28.5t29 -69.5 q0 -51 -37 -88t-88 -37q-42 0 -71 29.5t-29 71.5z" />
<glyph horiz-adv-x="1107" d="M84 233q0 63 16 138l133 637h177l-131 -623q-15 -77 -15 -117q0 -145 164 -145q122 0 215 89.5t127 252.5l115 543h176l-213 -1008h-162l33 152q-59 -87 -147.5 -134t-186.5 -47q-145 0 -223 70.5t-78 191.5zM395 1305q0 50 37 86t88 36q43 0 73 -28.5t30 -69.5 q0 -51 -37 -88t-88 -37q-43 0 -73 30t-30 71zM762 1305q0 50 37 86t88 36q43 0 71.5 -28.5t28.5 -69.5q0 -51 -37 -88t-88 -37q-42 0 -71 29.5t-29 71.5z" />
<glyph horiz-adv-x="989" d="M-82 -373l47 133q58 -12 98 -12q69 0 113 34.5t98 131.5l19 31l-156 1063h176l45 -346q37 -269 62 -508q110 220 258 493l196 361h183l-637 -1155q-77 -139 -151 -194.5t-193 -55.5q-84 0 -158 24zM340 1305q0 50 37 86t88 36q43 0 72.5 -28.5t29.5 -69.5q0 -51 -37 -88 t-88 -37q-42 0 -72 30t-30 71zM707 1305q0 50 36.5 86t87.5 36q43 0 72 -28.5t29 -69.5q0 -51 -37 -88t-88 -37q-42 0 -71 29.5t-29 71.5z" />
<glyph horiz-adv-x="1140" d="M115 877l26 131h195l35 168q67 309 338 309q82 0 180 -29l-51 -133q-69 16 -119 16q-72 0 -113.5 -46t-64.5 -152l-29 -133h248l-27 -131h-250l-184 -877h-176l186 877h-194zM713 0l213 1008h176l-213 -1008h-176zM954 1298q0 54 36.5 90.5t90.5 36.5q44 0 74.5 -28.5 t30.5 -71.5q0 -54 -37 -91.5t-92 -37.5q-44 0 -73.5 29.5t-29.5 72.5z" />
<glyph horiz-adv-x="1228" d="M115 461q0 199 69 434q70 240 224 416q149 174 387 174q205 0 309 -132t104 -366q0 -195 -67 -430q-70 -240 -221 -416q-153 -176 -394 -176q-205 0 -308 131.5t-103 364.5zM293 461q0 -340 242 -340q167 0 280 155q108 148 162 361q51 200 51 354q0 338 -242 338 q-166 0 -278 -151q-108 -149 -162 -357q-53 -207 -53 -360z" />
<glyph horiz-adv-x="958" d="M227 1141l494 313h137l-309 -1454h-180l260 1219l-330 -205z" />
<glyph horiz-adv-x="1191" d="M-6 0l18 82q54 260 267 416q91 64 262 164l116 67q175 101 226 137q69 48 110 111q39 59 39 149q0 96 -63 149.5t-164 53.5q-120 0 -221 -60.5t-232 -203.5l-125 102q142 161 285.5 238.5t302.5 77.5q181 0 289 -94t108 -242q0 -135 -57.5 -231t-171.5 -173 q-107 -73 -358 -215q-135 -74 -199 -116q-66 -43 -125 -109q-55 -64 -82 -149h797l-35 -154h-987z" />
<glyph horiz-adv-x="1198" d="M10 154l107 125q112 -83 207.5 -120.5t203.5 -37.5q110 0 195 52t127.5 131.5t42.5 170.5q0 121 -76.5 186.5t-226.5 65.5q-81 0 -131 -20l-76 108l592 485h-666l35 154h895l-35 -149l-542 -451h2q179 0 293 -104.5t114 -266.5q1 -73 -21 -146.5t-68.5 -141 t-110.5 -119.5t-154 -82.5t-193 -28.5q-281 0 -514 189z" />
<glyph d="M37 342l35 162l776 950h215l-791 -962h498l72 333h178l-72 -333h209l-31 -150h-208l-74 -342h-176l71 342h-702z" />
<glyph horiz-adv-x="1222" d="M20 166l111 125q118 -93 212.5 -131.5t209.5 -38.5q113 0 199.5 59.5t129 149t42.5 190.5q0 119 -72.5 190.5t-198.5 71.5q-157 0 -291 -116l-153 18l225 770h809l-35 -154h-653l-131 -450q122 78 276 78q172 0 286 -114t114 -284q1 -78 -20 -157t-66.5 -153.5 t-110 -131.5t-158 -91t-202.5 -32q-147 0 -267.5 48.5t-255.5 152.5z" />
<glyph horiz-adv-x="1228" d="M119 381q0 250 145.5 486.5t454.5 488.5l119 98h254l-2 -2l-265 -211q-268 -213 -401 -410q127 115 303 115q184 0 291.5 -111t107.5 -278q1 -78 -22 -160.5t-71 -160.5t-114 -139t-160 -97t-200 -33q-197 0 -318.5 115t-121.5 299zM295 387q0 -119 73 -192.5t199 -73.5 q88 0 162 39t120.5 101t72.5 135t26 145q0 123 -71.5 189.5t-202.5 66.5q-89 0 -162.5 -35t-120 -93.5t-71.5 -131t-25 -150.5z" />
<glyph horiz-adv-x="1110" d="M178 0q120 347 352 686q245 358 498 617h-815l33 151h1026l-27 -131q-273 -267 -504 -612q-235 -351 -362 -711h-201z" />
<glyph horiz-adv-x="1226" d="M76 350q0 147 86 277q83 127 270 176q-70 45 -108.5 111t-38.5 147q0 76 29.5 149t87 135.5t155.5 101t221 38.5q176 0 294 -95t118 -243q0 -126 -72 -228.5t-207 -148.5q97 -50 150 -132.5t53 -184.5q1 -67 -18.5 -134.5t-63 -132t-106.5 -114t-157 -79t-206 -28.5 q-217 0 -352 112t-135 273zM254 371q0 -112 85.5 -182t235.5 -70q172 0 267.5 98t95.5 238q0 113 -83.5 183.5t-221.5 70.5q-96 0 -171 -29t-119 -78t-66.5 -108t-22.5 -123zM455 1065q0 -93 68.5 -153t176.5 -60q149 0 234.5 81t85.5 204q0 93 -67.5 146.5t-188.5 53.5 q-139 0 -224 -75t-85 -197z" />
<glyph horiz-adv-x="1228" d="M201 897q-1 77 22 159.5t71 160.5t114 139t160 97t200 34q197 0 318.5 -115t121.5 -299q0 -250 -145.5 -486.5t-454.5 -488.5l-119 -98h-253l2 2l264 211q263 208 399 408q-125 -113 -301 -113q-184 0 -291.5 111t-107.5 278zM379 913q0 -123 71.5 -189.5t202.5 -66.5 q89 0 162.5 35t120 93.5t71.5 131t25 150.5q0 119 -73 192.5t-199 73.5q-88 0 -162 -39t-120.5 -101t-72.5 -135t-26 -145z" />
<glyph d="M96 451q0 182 68 415q67 225 219 394q149 165 381 165q210 0 317 -128.5t107 -354.5q0 -181 -66 -414q-64 -225 -215 -393q-149 -168 -389 -168q-208 0 -315 129t-107 355zM276 449q0 -155 61.5 -240.5t188.5 -85.5q162 0 269 143q108 141 161 336q52 192 52 342 q0 154 -61.5 240t-186.5 86q-161 0 -271 -140q-106 -139 -159 -333q-54 -199 -54 -348z" />
<glyph d="M113 0l28 141h361l215 1016l-348 -217l-74 127l516 326h137l-266 -1252h340l-31 -141h-878z" />
<glyph d="M2 0l16 80q54 252 269 403q123 84 256 156l96 53q159 87 233 135q75 49 117 109q41 59 41 143q0 89 -65.5 140t-167.5 51q-118 0 -217 -57t-230 -195l-125 102q142 160 278.5 232.5t299.5 72.5q181 0 294 -94t113 -244q0 -123 -57 -212.5t-174 -165.5q-124 -80 -350 -203 q-143 -78 -197 -113q-75 -46 -123 -100q-57 -60 -84 -139h797l-33 -154h-987z" />
<glyph d="M2 152l107 124q121 -82 214 -117.5t199 -35.5q113 0 196.5 49t123 123t39.5 160q0 112 -75.5 175.5t-219.5 63.5q-98 0 -160 -26l-59 108l587 463h-663l33 154h893l-33 -150l-535 -422h17q172 0 283.5 -99.5t111.5 -256.5q2 -89 -33 -176.5t-100 -161t-171 -118 t-235 -42.5q-279 0 -520 185z" />
<glyph d="M47 326l35 163l768 904h209l-780 -918h501l68 318h178l-68 -318h209l-28 -149h-211l-70 -326h-176l68 326h-703z" />
<glyph d="M14 160l111 125q121 -88 215 -125t207 -37t198.5 54.5t126.5 138t41 180.5q0 111 -73 178t-199 67q-158 0 -289 -104l-153 16l217 740h811l-35 -154h-657l-127 -430q121 80 282 80q174 0 288 -109.5t114 -273.5q1 -76 -19.5 -152t-65.5 -146.5t-109 -124.5t-157.5 -86 t-203.5 -30q-144 0 -266 46.5t-257 146.5z" />
<glyph d="M113 379q0 238 141 459t446 460l119 95h258v-2l-264 -205q-250 -191 -379 -367q116 90 283 90q178 0 287.5 -110t109.5 -271q1 -75 -21 -153t-68 -152t-110 -131.5t-156 -91t-198 -31.5q-199 0 -323.5 114.5t-124.5 295.5zM287 383q0 -116 77 -188t205 -72q72 0 133 23.5 t103.5 62.5t72.5 89.5t44 104.5t14 109q0 117 -72.5 183.5t-197.5 66.5q-121 0 -209 -55t-129 -139t-41 -185z" />
<glyph d="M215 0q88 314 315 655q230 341 486 586h-768l33 152h995l-27 -131q-260 -230 -495 -578q-230 -336 -336 -684h-203z" />
<glyph d="M74 342q0 137 84 262q82 120 266 170q-145 87 -145 248q0 57 18 113t57.5 108.5t95.5 92.5t139 64.5t181 24.5q176 0 294 -92.5t118 -234.5q0 -117 -70.5 -215t-200.5 -144q95 -50 148 -129.5t53 -177.5q0 -67 -19.5 -131.5t-62.5 -125t-105.5 -106.5t-156.5 -74 t-207 -28q-218 0 -352.5 108t-134.5 267zM250 360q0 -107 88 -174t240 -67q172 0 265 91.5t93 225.5q0 107 -84 174.5t-223 67.5q-96 0 -171 -27t-119 -72.5t-66.5 -101t-22.5 -117.5zM449 1024q0 -88 68.5 -145.5t176.5 -57.5q149 0 233.5 75.5t84.5 190.5q0 89 -69 141 t-189 52q-137 0 -221 -70.5t-84 -185.5z" />
<glyph d="M180 864q-1 75 21 153t68 152t110 131.5t156 91t198 31.5q199 0 324 -114.5t125 -294.5q0 -238 -141.5 -459.5t-446.5 -460.5l-119 -94h-258v2l264 205q247 188 379 364q-113 -88 -282 -88q-178 0 -288 110.5t-110 270.5zM358 881q0 -116 73 -183t198 -67q121 0 209 55 t129 139t41 185q0 116 -77.5 188t-205.5 72q-72 0 -133 -23.5t-103.5 -62.5t-72.5 -89.5t-44 -104.5t-14 -109z" />
<glyph d="M100 451q0 182 68 415q67 225 219 394q149 165 381 165q210 0 317 -128.5t107 -354.5q0 -181 -66 -414q-64 -225 -215 -393q-149 -168 -389 -168q-208 0 -315 129t-107 355zM281 449q0 -66 8 -105l661 840q-65 86 -186 86q-160 0 -270 -140q-108 -141 -160 -333 q-53 -195 -53 -348zM338 213q66 -90 192 -90q162 0 269 143q110 143 162 336q51 188 51 342q0 41 -11 113z" />
<glyph horiz-adv-x="827" d="M41 283q-1 74 15 153t51 155.5t83.5 136t119.5 95t153 33.5q131 0 202.5 -82.5t71.5 -220.5q1 -76 -15 -155t-50 -155t-82 -135.5t-119 -94.5t-154 -33q-132 0 -204 82t-72 221zM184 289q0 -88 36.5 -136.5t103.5 -48.5q52 -2 97.5 26.5t77 75t53.5 105.5t32.5 119 t9.5 115q0 91 -36 138.5t-105 47.5q-63 3 -116 -40t-85.5 -111.5t-50.5 -145t-17 -145.5z" />
<glyph horiz-adv-x="665" d="M96 647l299 189h111l-178 -836h-142l138 649l-174 -108z" />
<glyph horiz-adv-x="835" d="M-23 0l13 57q28 122 111.5 204.5t230.5 148.5l69 32q130 59 172.5 93.5t42.5 91.5q0 50 -38.5 77t-106.5 27q-62 0 -120 -23t-144 -81l-66 102q165 127 338 127q126 0 202.5 -59t76.5 -152q-3 -44 -10 -75.5t-27 -61t-42 -50.5t-69.5 -48.5t-93.5 -49.5t-129 -59 q-108 -51 -159 -88.5t-74 -91.5h499l-28 -121h-648z" />
<glyph horiz-adv-x="833" d="M-14 86l82 102q78 -46 137.5 -65t122.5 -19q91 0 145.5 45.5t54.5 118.5q0 61 -41.5 95t-124.5 34q-79 0 -104 -14l-53 88l348 244h-403l24 121h590l-25 -119l-311 -217q115 0 180.5 -59.5t65.5 -155.5q0 -125 -93.5 -215t-252.5 -90q-182 0 -342 106z" />
<glyph horiz-adv-x="817" d="M4 188l29 134l438 514h168l-453 -531h271l35 176h143l-39 -176h115l-25 -117h-115l-39 -188h-143l41 188h-426z" />
<glyph horiz-adv-x="835" d="M-4 90l80 105q71 -48 129 -69.5t125 -21.5q98 0 160.5 57t62.5 140q0 57 -40 91t-112 34q-97 0 -188 -66l-111 13l131 463h541l-26 -121h-422l-62 -217q77 47 185 47q114 0 181.5 -65.5t67.5 -164.5q0 -60 -22 -117.5t-65 -107t-116.5 -80t-166.5 -30.5q-179 0 -332 110z " />
<glyph horiz-adv-x="823" d="M41 254q0 150 109 301.5t317 280.5h209v-2q-286 -170 -400 -320q71 45 175 45q115 0 184.5 -66.5t69.5 -170.5q0 -62 -22 -121t-64.5 -109.5t-114 -81t-160.5 -30.5q-142 0 -222.5 73t-80.5 201zM178 240q0 -61 45 -98.5t119 -37.5q103 0 162 55.5t59 147.5 q0 62 -43.5 98.5t-118.5 36.5q-102 0 -162.5 -57t-60.5 -145z" />
<glyph horiz-adv-x="776" d="M90 715l27 121h653l-25 -111q-182 -157 -307.5 -345t-181.5 -380h-154q48 183 177 377q137 207 292 338h-481z" />
<glyph horiz-adv-x="829" d="M20 211q0 88 52 154t153 96q-86 53 -86 160q0 109 89 177t231 68q133 0 205.5 -56.5t72.5 -147.5q0 -73 -43 -130t-121 -86q115 -56 115 -174q0 -126 -94 -205t-260 -79q-150 0 -232 61.5t-82 161.5zM160 227q0 -53 47 -85.5t131 -32.5q96 0 153.5 45.5t57.5 119.5 q0 55 -44 88t-122 33q-105 0 -164 -49t-59 -119zM268 608q0 -48 38.5 -78t101.5 -30q86 0 140 40t54 107q0 48 -41 76.5t-112 28.5q-87 0 -134 -40.5t-47 -103.5z" />
<glyph horiz-adv-x="827" d="M72 510q0 49 14 97.5t44 93.5t73 79.5t105 55t136 20.5q140 0 217.5 -72t77.5 -200q0 -152 -109.5 -304.5t-316.5 -279.5h-209v2q286 164 400 320q-73 -48 -174 -48q-115 0 -186.5 67.5t-71.5 168.5zM213 524q0 -60 44 -95.5t118 -35.5q106 0 166.5 57.5t60.5 147.5 q0 61 -43.5 97t-120.5 36q-102 0 -163.5 -57.5t-61.5 -149.5z" />
<glyph horiz-adv-x="827" d="M164 840q-1 74 15 153t51 155.5t83.5 136t119.5 95t153 33.5q131 0 202.5 -82.5t71.5 -220.5q1 -76 -15 -155t-50 -155t-82 -135.5t-119 -94.5t-154 -33q-132 0 -204 82t-72 221zM307 846q0 -88 36 -136t103 -48q65 -2 119 41t86 110.5t49.5 143.5t16.5 145 q0 91 -36.5 138.5t-105.5 47.5q-63 3 -116 -40t-85.5 -111.5t-50 -145t-16.5 -145.5z" />
<glyph horiz-adv-x="665" d="M219 1204l299 189h111l-178 -836h-142l137 649l-174 -108z" />
<glyph horiz-adv-x="835" d="M100 557l13 57q28 122 111.5 204.5t230.5 148.5l69 32q130 59 172.5 93.5t42.5 91.5q0 50 -39 77t-106 27q-63 0 -122.5 -23.5t-141.5 -80.5l-66 102q165 127 338 127q126 0 202.5 -59t76.5 -152q-3 -44 -10 -75.5t-27 -61t-42 -50.5t-69.5 -48.5t-93.5 -49.5t-129 -59 q-108 -51 -159.5 -88.5t-74.5 -91.5h500l-28 -121h-648z" />
<glyph horiz-adv-x="833" d="M109 643l81 102q77 -46 137 -64.5t124 -18.5q91 0 145.5 45t54.5 118q0 61 -41.5 95t-124.5 34q-79 0 -104 -14l-53 88l348 244h-404l25 121h590l-25 -119l-313 -217q115 0 181.5 -59.5t66.5 -155.5q0 -125 -93.5 -215t-252.5 -90q-182 0 -342 106z" />
<glyph horiz-adv-x="817" d="M127 745l29 134l438 514h168l-455 -531h271l36 176h144l-39 -176h115l-25 -117h-115l-39 -188h-143l41 188h-426z" />
<glyph horiz-adv-x="835" d="M119 647l80 105q70 -48 128 -69t126 -21q98 0 160.5 56.5t62.5 139.5q0 57 -40 91t-112 34q-99 0 -188 -65l-111 12l131 463h541l-27 -121h-421l-62 -217q77 47 184 47q114 0 182 -65.5t68 -164.5q0 -60 -22 -117.5t-65 -107t-116.5 -80t-166.5 -30.5q-179 0 -332 110z " />
<glyph horiz-adv-x="823" d="M162 811q0 150 109 301.5t317 280.5h209v-2q-286 -170 -400 -320q71 45 174 45q115 0 184.5 -66.5t69.5 -170.5q0 -62 -22 -121t-64.5 -109.5t-113.5 -81t-160 -30.5q-142 0 -222.5 73t-80.5 201zM299 797q0 -60 44.5 -97.5t119.5 -37.5q103 0 162 55t59 147 q0 62 -43.5 98.5t-118.5 36.5q-102 0 -162.5 -57t-60.5 -145z" />
<glyph horiz-adv-x="776" d="M213 1272l27 121h653l-25 -111q-182 -157 -307.5 -345t-181.5 -380h-154q49 185 176 377q136 205 293 338h-481z" />
<glyph horiz-adv-x="829" d="M143 768q0 88 51.5 154t151.5 96q-84 57 -84 160q0 109 89 177t231 68q133 0 205.5 -56.5t72.5 -147.5q0 -74 -42 -130t-120 -85q113 -55 113 -175q0 -126 -94 -205t-260 -79q-150 0 -232 61.5t-82 161.5zM283 784q0 -53 47 -85.5t131 -32.5q96 0 153.5 45.5t57.5 119.5 q0 55 -44 88t-122 33q-105 0 -164 -49t-59 -119zM391 1165q0 -48 38.5 -78t100.5 -30q86 0 140.5 40t54.5 107q0 48 -41.5 76.5t-112.5 28.5q-87 0 -133.5 -40.5t-46.5 -103.5z" />
<glyph horiz-adv-x="827" d="M195 1067q0 49 14 97.5t44 93.5t73 79.5t105 55t136 20.5q140 0 217.5 -72t77.5 -200q0 -152 -109.5 -304.5t-316.5 -279.5h-209v2q286 164 400 320q-73 -48 -174 -48q-115 0 -186.5 67.5t-71.5 168.5zM336 1081q0 -60 44 -95.5t118 -35.5q106 0 166.5 57.5t60.5 147.5 q0 61 -43.5 97t-120.5 36q-102 0 -163.5 -57.5t-61.5 -149.5z" />
<glyph horiz-adv-x="542" d="M78 0l94 438l170 604h109l-91 -606l-92 -436h-190zM332 1233l47 221h209l-47 -221h-209z" />
<glyph horiz-adv-x="993" d="M10 276q0 174 146 297q45 41 215 170q100 75 147 125q42 44 70 125l18 60h150l-17 -74q-14 -57 -24 -87.5t-26.5 -64.5t-43 -61.5t-63.5 -59.5t-99 -77l-43 -31q-106 -80 -150 -119.5t-69 -81.5q-26 -45 -26 -102q0 -75 58.5 -119.5t160.5 -44.5q189 0 399 168l90 -129 q-252 -203 -514 -203q-168 0 -273.5 83t-105.5 226zM610 1233l47 221h209l-47 -221h-209z" />
<glyph horiz-adv-x="487" d="M131 629q0 56 41 97.5t100 41.5q47 0 80 -34t33 -81q0 -57 -41 -99t-98 -42q-49 0 -82 33.5t-33 83.5z" />
<glyph horiz-adv-x="528" d="M55 98q0 56 41.5 98t100.5 42q47 0 79.5 -33.5t32.5 -81.5q0 -57 -41 -99t-98 -42q-49 0 -82 33t-33 83zM217 881q0 56 41 97.5t100 41.5q47 0 80 -34t33 -81q0 -57 -40 -99t-97 -42q-51 0 -84 33.5t-33 83.5z" />
<glyph horiz-adv-x="446" d="M-31 -268l17 86q60 13 110 58.5t68 111.5q-28 -4 -35 -4q-51 0 -84 30.5t-33 79.5q0 58 42 100t102 42q58 0 94.5 -41.5t36.5 -114.5q0 -133 -96 -237.5t-222 -110.5z" />
<glyph horiz-adv-x="1359" d="M33 98q0 56 41 98t100 42q47 0 80 -34t33 -81q0 -57 -41.5 -99t-98.5 -42q-49 0 -81.5 33t-32.5 83zM469 98q0 56 41 98t100 42q47 0 80 -34t33 -81q0 -57 -41 -99t-98 -42q-49 0 -82 33t-33 83zM905 98q0 56 41.5 98t100.5 42q47 0 79.5 -33.5t32.5 -81.5q0 -57 -41 -99 t-98 -42q-49 0 -82 33t-33 83z" />
<glyph horiz-adv-x="559" d="M88 98q0 56 41 98t100 42q47 0 80 -34t33 -81q0 -57 -41 -99t-98 -42q-49 0 -82 33t-33 83zM215 412l90 606l92 436h191l-94 -438l-170 -604h-109z" />
<glyph horiz-adv-x="479" d="M-51 -444l94 438l170 604h109l-91 -606l-92 -436h-190zM195 887q0 57 41 99t98 42q50 0 83.5 -34t33.5 -83q0 -56 -42.5 -97.5t-99.5 -41.5q-49 0 -81.5 33.5t-32.5 81.5z" />
<glyph horiz-adv-x="448" d="M14 98q0 56 41.5 98t100.5 42q47 0 79.5 -33.5t32.5 -81.5q0 -57 -41 -99t-98 -42q-49 0 -82 33t-33 83z" />
<glyph horiz-adv-x="1005" d="M211 1284q252 203 514 203q168 0 273.5 -83t105.5 -226q0 -174 -143 -297q-40 -35 -218 -170q-94 -70 -143 -123q-44 -46 -72 -127l-18 -60h-150l17 74q20 90 41 136t66.5 92.5t146.5 121.5l35 27q107 76 154.5 118t72.5 85q27 47 27 104q0 75 -59 119.5t-161 44.5 q-186 0 -399 -168zM260 98q0 56 41 98t98 42q49 0 82 -33.5t33 -81.5q0 -57 -41 -99t-98 -42q-49 0 -82 33t-33 83z" />
<glyph horiz-adv-x="950" d="M-121 -170q0 174 146 297q45 41 215 170q91 69 149 127q44 47 68 123l18 59h150l-17 -71q-17 -72 -29 -107.5t-40.5 -77t-69 -76t-117.5 -92.5q-161 -121 -176 -133q-52 -40 -82 -90q-31 -48 -31 -111q0 -75 60 -119t160 -44q187 0 399 170l90 -131q-260 -201 -514 -201 q-161 0 -270 80q-109 83 -109 227zM471 885q0 57 41 99t98 42q50 0 82.5 -33t32.5 -82q0 -56 -41 -97.5t-100 -41.5q-47 0 -80 33t-33 80z" />
<glyph horiz-adv-x="528" d="M10 -268l17 86q60 13 110 58.5t68 111.5q-28 -4 -35 -4q-51 0 -84 30.5t-33 79.5q0 58 42.5 100t101.5 42q58 0 94.5 -41.5t36.5 -114.5q0 -133 -96 -237.5t-222 -110.5zM219 881q0 56 41 97.5t100 41.5q47 0 80 -34t33 -81q0 -57 -41 -99t-98 -42q-49 0 -82 33.5 t-33 83.5z" />
<glyph horiz-adv-x="1978" d="M193 635l30 149h1653l-31 -149h-1652z" />
<glyph horiz-adv-x="1482" d="M170 635l29 149h1202l-31 -149h-1200z" />
<glyph horiz-adv-x="829" d="M143 631l35 157h596l-35 -157h-596z" />
<glyph horiz-adv-x="1169" d="M164 682l381 446h184l-395 -460l188 -432h-166zM610 682l381 446h185l-398 -460l191 -432h-166z" />
<glyph horiz-adv-x="1169" d="M70 236l395 460l-191 432h166l195 -446l-381 -446h-184zM514 236l397 460l-190 432h166l194 -446l-383 -446h-184z" />
<glyph horiz-adv-x="724" d="M164 682l381 446h184l-395 -460l188 -432h-166z" />
<glyph horiz-adv-x="724" d="M70 236l395 460l-191 432h166l195 -446l-381 -446h-184z" />
<glyph horiz-adv-x="819" d="M-29 -254l17 80q57 13 103.5 55.5t64.5 106.5q-28 -4 -35 -4q-48 0 -78.5 29.5t-30.5 76.5q0 55 39.5 94t95.5 39q57 0 91 -37.5t34 -107.5q0 -130 -89.5 -228t-211.5 -104zM340 -254l16 80q57 13 103.5 55.5t64.5 106.5q-28 -4 -32 -4q-48 0 -79.5 29.5t-31.5 76.5 q0 55 39.5 94t95.5 39q57 0 91 -37.5t34 -107.5q0 -130 -89.5 -228t-211.5 -104z" />
<glyph horiz-adv-x="833" d="M219 1133q0 129 91 227t212 104l-16 -80q-57 -14 -104.5 -57t-65.5 -106q16 4 35 4q50 0 80 -29t30 -76q0 -57 -40 -95t-97 -38t-91 38t-34 108zM594 1133q0 129 91 227t212 104l-16 -80q-57 -14 -104.5 -57t-65.5 -106q16 4 34 4q50 0 80.5 -29t30.5 -76q0 -57 -40 -95 t-97 -38q-55 0 -90 39t-35 107z" />
<glyph horiz-adv-x="827" d="M221 985l17 80q57 13 103.5 55.5t64.5 106.5q-28 -4 -33 -4q-48 0 -79.5 29.5t-31.5 76.5q0 55 39.5 94t95.5 39q57 0 91 -37.5t34 -107.5q0 -130 -89.5 -228t-211.5 -104zM590 985l16 80q57 13 103.5 55.5t64.5 106.5q-28 -4 -33 -4q-48 0 -79 29.5t-31 76.5 q0 55 39.5 94t95.5 39q57 0 91 -37.5t34 -107.5q0 -130 -89.5 -228t-211.5 -104z" />
<glyph horiz-adv-x="456" d="M219 1130q0 129 91 227.5t212 104.5l-16 -80q-56 -12 -104 -56t-66 -105q32 4 35 4q48 0 79 -30t31 -77q0 -55 -40 -94t-97 -39t-91 37.5t-34 107.5z" />
<glyph horiz-adv-x="456" d="M221 985l17 80q57 13 103.5 55.5t64.5 106.5q-28 -4 -33 -4q-48 0 -79.5 29.5t-31.5 76.5q0 55 39.5 94t95.5 39q57 0 91 -37.5t34 -107.5q0 -130 -89.5 -228t-211.5 -104z" />
<glyph horiz-adv-x="450" d="M-29 -254l17 80q57 13 103.5 55.5t64.5 106.5q-28 -4 -35 -4q-48 0 -78.5 29.5t-30.5 76.5q0 55 39.5 94t95.5 39q57 0 91 -37.5t34 -107.5q0 -130 -89.5 -228t-211.5 -104z" />
<glyph horiz-adv-x="1228" d="M82 559v152h1065v-152h-1065zM487 254q0 52 37.5 89.5t91.5 37.5q51 0 89 -38t38 -89t-38 -89t-89 -38q-54 0 -91.5 37.5t-37.5 89.5zM487 1018q0 51 37.5 88t91.5 37q51 0 89 -37t38 -88q0 -54 -37.5 -91.5t-89.5 -37.5q-54 0 -91.5 37.5t-37.5 91.5z" />
<glyph horiz-adv-x="1753" d="M166 727q-3 206 98 381.5t276 276t380 96.5q154 3 294.5 -56t241.5 -160t160 -242t57 -296q2 -155 -57 -296t-160 -242t-241.5 -160t-294.5 -56q-205 -4 -380 96.5t-276 276t-98 381.5zM293 727q-3 -176 79.5 -325.5t228 -236t319.5 -83.5q176 -3 321.5 83.5t227.5 235.5 t79 326q3 177 -79 326t-227.5 235.5t-321.5 83.5q-174 3 -319.5 -83.5t-228 -236t-79.5 -325.5zM629 313v848h340q121 0 197.5 -74t76.5 -190q0 -82 -44 -143t-124 -90l219 -351h-149l-201 332h-184v-332h-131zM760 756h178q85 0 129.5 37.5t44.5 105.5q0 67 -44.5 105 t-129.5 38h-178v-286z" />
<glyph horiz-adv-x="944" d="M334 1305q0 50 37 86t88 36q43 0 72.5 -28.5t29.5 -69.5q0 -51 -37 -88t-88 -37q-42 0 -72 30t-30 71zM700 1305q0 50 37 86t88 36q43 0 72 -28.5t29 -69.5q0 -51 -37 -88t-88 -37q-42 0 -71.5 29.5t-29.5 71.5z" />
</font>
</defs>
</svg>
