<?xml version="1.0" encoding="UTF-8" standalone="no"?>
<svg width="42px" height="42px" viewBox="0 0 42 42" version="1.1" xmlns="http://www.w3.org/2000/svg" xmlns:xlink="http://www.w3.org/1999/xlink" xmlns:sketch="http://www.bohemiancoding.com/sketch/ns">
    <!-- Generator: Sketch 3.4 (15575) - http://www.bohemiancoding.com/sketch -->
    <title>sunny</title>
    <desc>Created with Sketch.</desc>
    <defs></defs>
    <g id="Page-1" stroke="none" stroke-width="1" fill="none" fill-rule="evenodd" sketch:type="MSPage">
        <g id="sunny" sketch:type="MSLayerGroup" transform="translate(1.000000, 1.000000)">
            <path d="M19.9983931,26.3 C16.4987949,26.3 13.6991162,23.5 13.6991162,20 C13.6991162,16.5 16.4987949,13.7 19.9983931,13.7 C23.4979914,13.7 26.29767,16.5 26.29767,20 C26.29767,23.5 23.4979914,26.3 19.9983931,26.3 M33.1968781,19.2 L27.7974979,19.2 C27.5975208,17.6 26.9975897,16.2 26.097693,15 L28.8973716,12.2 C29.1973372,11.9 29.1973372,11.4 28.8973716,11.1 C28.5974061,10.8 28.0974634,10.8 27.7974979,11.1 L24.9978193,13.9 C23.797957,12.9 22.3981177,12.3 20.7983013,12.2 L20.7983013,6.8 C20.7983013,6.4 20.4983357,6 19.9983931,6 C19.598439,6 19.198485,6.3 19.198485,6.8 L19.198485,12.2 C17.5986686,12.4 16.1988293,13 14.998967,13.9 L12.1992884,11.1 C11.8993228,10.8 11.3993802,10.8 11.0994146,11.1 C10.7994491,11.4 10.7994491,11.9 11.0994146,12.2 L13.8990933,15 C12.899208,16.2 12.2992769,17.6 12.1992884,19.2 L6.79990818,19.2 C6.39995409,19.2 6,19.5 6,20 C6,20.4 6.29996557,20.8 6.79990818,20.8 L12.1992884,20.8 C12.3992654,22.4 12.9991966,23.8 13.8990933,25 L11.0994146,27.8 C10.7994491,28.1 10.7994491,28.6 11.0994146,28.9 C11.2993917,29.1 11.3993802,29.1 11.5993573,29.1 C11.7993343,29.1 11.9993113,29 12.0992999,28.9 L14.8989785,26.1 C16.0988408,27.1 17.4986801,27.7 19.0984964,27.8 L19.0984964,33.2 C19.0984964,33.6 19.398462,34 19.8984046,34 C20.2983587,34 20.6983128,33.7 20.6983128,33.2 L20.6983128,27.8 C22.2981291,27.6 23.6979685,27 24.8978307,26.1 L27.6975094,28.9 C27.8974864,29.1 27.9974749,29.1 28.197452,29.1 C28.397429,29.1 28.5974061,29 28.6973946,28.9 C28.9973601,28.6 28.9973601,28.1 28.6973946,27.8 L25.897716,25 C26.8976012,23.8 27.4975323,22.4 27.5975208,20.8 L32.996901,20.8 C33.3968551,20.8 33.7968092,20.5 33.7968092,20 C33.9967863,19.5 33.5968322,19.2 33.1968781,19.2" id="Sunny" fill="#005467" sketch:type="MSShapeGroup"></path>
            <circle id="Oval" stroke="#005467" stroke-width="1.5" sketch:type="MSShapeGroup" cx="20.1" cy="20.1" r="20"></circle>
        </g>
    </g>
</svg>