<?xml version="1.0" encoding="UTF-8" standalone="no"?>
<svg width="148px" height="148px" viewBox="0 0 148 148" version="1.1" xmlns="http://www.w3.org/2000/svg" xmlns:xlink="http://www.w3.org/1999/xlink" xmlns:sketch="http://www.bohemiancoding.com/sketch/ns">
    <!-- Generator: Sketch 3.4.2 (15855) - http://www.bohemiancoding.com/sketch -->
    <title>About</title>
    <desc>Created with Sketch.</desc>
    <defs></defs>
    <g id="Page-1" stroke="none" stroke-width="1" fill="none" fill-rule="evenodd" sketch:type="MSPage">
        <g id="start-icons" sketch:type="MSLayerGroup">
            <g id="About" sketch:type="MSShapeGroup">
                <path d="M89.935,68.563 C89.635,68.062 89.334,67.662 89.034,67.261 C87.131,64.958 84.227,63.356 81.023,63.356 C77.819,63.356 74.915,64.858 73.012,67.161 C72.611,67.562 72.311,68.062 72.011,68.463 C71.01,70.065 70.509,71.868 70.509,73.87 C70.509,79.778 75.215,84.484 81.023,84.484 C86.831,84.484 91.537,79.677 91.537,73.87 C91.537,71.968 90.936,70.166 89.935,68.563" id="Shape" stroke="#005467" stroke-width="1.5"></path>
                <path d="M81.023,56.674 C87.031,56.674 92.238,59.978 95.042,64.785 L111.965,64.785" id="Shape" stroke="#005467" stroke-width="1.5"></path>
                <path d="M36.762,64.785 L67.003,64.785 C69.907,59.978 75.114,56.674 81.122,56.674" id="Shape" stroke="#005467" stroke-width="1.5"></path>
                <rect id="Rectangle-path" stroke="#005467" stroke-width="1.5" x="45.088" y="54.998" width="9.613" height="4.406"></rect>
                <path d="M97.145,98.504 L109.862,98.504 C109.862,98.504 113.267,98.504 113.267,94.899 L113.267,51.74 C113.267,51.74 113.267,48.135 109.862,48.135 L38.865,48.135 C38.865,48.135 35.46,48.135 35.46,51.74 L35.46,94.899 C35.46,94.899 35.46,98.504 38.865,98.504 L82.625,98.504 L97.145,98.504" id="Shape" stroke="#005467" stroke-width="3"></path>
                <g id="circle" fill="#787878">
                    <path d="M69.707,1.873 L69.707,1.873 L69.707,1.873 C69.306,1.873 68.906,1.573 69.006,1.072 L69.006,1.072 C69.006,0.671 69.306,0.271 69.707,0.371 L69.707,0.371 C70.108,0.371 70.508,0.671 70.508,1.072 L70.508,1.072 C70.508,1.472 70.208,1.873 69.707,1.873 L69.707,1.873 L69.707,1.873 L69.707,1.873 Z" id="Shape"></path>
                    <path d="M65.201,2.273 L65.201,2.273 L65.201,2.273 C64.8,2.273 64.4,1.973 64.4,1.572 L64.4,1.572 C64.4,1.171 64.7,0.771 65.101,0.771 L65.101,0.771 C65.502,0.771 65.902,1.071 65.902,1.472 L65.902,1.472 C66.002,1.873 65.702,2.273 65.201,2.273 L65.201,2.273 L65.201,2.273 L65.201,2.273 Z" id="Shape"></path>
                    <path d="M60.795,2.974 L60.795,2.974 L60.795,2.974 C60.394,2.974 59.994,2.774 59.994,2.273 L59.994,2.273 C59.894,1.872 60.194,1.472 60.595,1.472 L60.595,1.472 C60.996,1.372 61.396,1.672 61.396,2.073 L61.396,2.073 C61.496,2.574 61.196,2.874 60.795,2.974 L60.795,2.974 L60.795,2.974 L60.795,2.974 Z" id="Shape"></path>
                    <path d="M56.389,3.976 L56.389,3.976 L56.389,3.976 C55.988,4.076 55.588,3.776 55.488,3.375 L55.488,3.375 C55.388,2.974 55.688,2.574 56.089,2.474 L56.089,2.474 C56.49,2.374 56.89,2.674 56.99,3.075 L56.99,3.075 C57.09,3.475 56.79,3.875 56.389,3.976 L56.389,3.976 L56.389,3.976 L56.389,3.976 Z" id="Shape"></path>
                    <path d="M51.983,5.277 L51.983,5.277 L51.983,5.277 C51.582,5.377 51.182,5.177 51.082,4.776 L51.082,4.776 C50.982,4.375 51.182,3.975 51.583,3.875 L51.583,3.875 C51.984,3.775 52.384,3.975 52.484,4.376 L52.484,4.376 C52.684,4.677 52.484,5.077 51.983,5.277 L51.983,5.277 L51.983,5.277 L51.983,5.277 Z" id="Shape"></path>
                    <path d="M47.777,6.779 L47.777,6.779 L47.777,6.779 C47.376,6.879 46.976,6.679 46.876,6.278 L46.876,6.278 C46.776,5.877 46.976,5.477 47.377,5.377 L47.377,5.377 C47.778,5.277 48.178,5.477 48.378,5.878 L48.378,5.878 C48.378,6.179 48.178,6.579 47.777,6.779 L47.777,6.779 L47.777,6.779 L47.777,6.779 Z" id="Shape"></path>
                    <path d="M43.672,8.582 L43.672,8.582 L43.672,8.582 C43.271,8.682 42.871,8.582 42.671,8.181 L42.671,8.181 C42.471,7.78 42.671,7.38 43.072,7.18 L43.072,7.18 C43.473,6.98 43.873,7.18 44.073,7.581 L44.073,7.581 C44.172,7.981 44.072,8.382 43.672,8.582 L43.672,8.582 L43.672,8.582 L43.672,8.582 Z" id="Shape"></path>
                    <path d="M39.566,10.685 L39.566,10.685 L39.566,10.685 C39.165,10.885 38.765,10.685 38.565,10.284 L38.565,10.284 C38.365,9.883 38.565,9.483 38.966,9.283 L38.966,9.283 C39.367,9.083 39.767,9.283 39.967,9.684 L39.967,9.684 C40.167,9.984 39.967,10.384 39.566,10.685 L39.566,10.685 C39.666,10.585 39.666,10.585 39.566,10.685 L39.566,10.685 Z" id="Shape"></path>
                    <path d="M35.761,12.988 L35.761,12.988 L35.761,12.988 C35.36,13.188 34.96,13.088 34.76,12.688 L34.76,12.688 C34.56,12.287 34.66,11.887 35.06,11.687 L35.06,11.687 C35.461,11.487 35.861,11.587 36.061,11.987 L36.061,11.987 C36.162,12.287 36.061,12.687 35.761,12.988 L35.761,12.988 C35.761,12.888 35.761,12.888 35.761,12.988 L35.761,12.988 Z" id="Shape"></path>
                    <path d="M31.956,15.491 L31.956,15.491 L31.956,15.491 C31.656,15.691 31.155,15.591 30.955,15.291 L30.955,15.291 C30.755,14.991 30.855,14.49 31.155,14.29 L31.155,14.29 C31.556,14.09 31.956,14.19 32.156,14.49 L32.156,14.49 C32.457,14.79 32.356,15.191 31.956,15.491 L31.956,15.491 L31.956,15.491 L31.956,15.491 Z" id="Shape"></path>
                    <path d="M28.451,18.295 L28.451,18.295 L28.451,18.295 C28.151,18.495 27.65,18.495 27.45,18.095 L27.45,18.095 C27.25,17.795 27.25,17.294 27.65,17.094 L27.65,17.094 C27.95,16.794 28.451,16.894 28.751,17.294 L28.751,17.294 C28.852,17.494 28.751,17.995 28.451,18.295 L28.451,18.295 C28.451,18.195 28.451,18.195 28.451,18.295 L28.451,18.295 Z" id="Shape"></path>
                    <path d="M25.046,21.199 L25.046,21.199 L25.046,21.199 C24.746,21.499 24.245,21.399 23.945,21.099 L23.945,21.099 C23.645,20.799 23.745,20.298 24.045,19.998 L24.045,19.998 C24.345,19.698 24.846,19.798 25.146,20.098 L25.146,20.098 C25.347,20.498 25.347,20.899 25.046,21.199 L25.046,21.199 L25.046,21.199 L25.046,21.199 Z" id="Shape"></path>
                    <path d="M21.842,24.403 L21.842,24.403 L21.842,24.403 C21.542,24.703 21.041,24.703 20.74,24.403 L20.74,24.403 C20.44,24.103 20.44,23.602 20.74,23.302 L20.74,23.302 C21.04,23.002 21.541,23.002 21.842,23.302 L21.842,23.302 C22.143,23.702 22.143,24.103 21.842,24.403 L21.842,24.403 L21.842,24.403 L21.842,24.403 Z" id="Shape"></path>
                    <path d="M18.838,27.808 L18.838,27.808 L18.838,27.808 C18.538,28.108 18.037,28.108 17.737,27.808 L17.737,27.808 C17.437,27.508 17.437,27.007 17.737,26.707 L17.737,26.707 C18.037,26.407 18.538,26.407 18.838,26.707 L18.838,26.707 C19.138,27.007 19.138,27.508 18.838,27.808 L18.838,27.808 L18.838,27.808 L18.838,27.808 Z" id="Shape"></path>
                    <path d="M16.034,31.413 L16.034,31.413 L16.034,31.413 C15.734,31.713 15.333,31.814 14.933,31.513 L14.933,31.513 C14.633,31.213 14.532,30.812 14.833,30.412 L14.833,30.412 C15.133,30.112 15.534,30.011 15.934,30.312 L15.934,30.312 C16.234,30.612 16.335,31.012 16.034,31.413 L16.034,31.413 L16.034,31.413 L16.034,31.413 Z" id="Shape"></path>
                    <path d="M13.531,35.118 L13.531,35.118 L13.531,35.118 C13.331,35.418 12.83,35.519 12.429,35.318 L12.429,35.318 C12.129,35.118 12.028,34.617 12.229,34.317 L12.229,34.317 C12.429,34.017 12.93,33.916 13.23,34.117 L13.23,34.117 C13.731,34.317 13.731,34.818 13.531,35.118 L13.531,35.118 L13.531,35.118 L13.531,35.118 Z" id="Shape"></path>
                    <path d="M11.228,39.023 L11.228,39.023 L11.228,39.023 C11.028,39.323 10.527,39.524 10.227,39.223 L10.227,39.223 C9.927,39.023 9.726,38.522 10.027,38.222 L10.027,38.222 C10.227,37.821 10.728,37.721 11.028,38.022 L11.028,38.022 C11.328,38.222 11.428,38.623 11.228,39.023 L11.228,39.023 L11.228,39.023 L11.228,39.023 Z" id="Shape"></path>
                    <path d="M9.225,43.029 L9.225,43.029 L9.225,43.029 C9.025,43.43 8.524,43.53 8.224,43.329 L8.224,43.329 C7.823,43.129 7.723,42.628 7.924,42.328 L7.924,42.328 C8.124,41.927 8.625,41.827 8.925,42.028 L8.925,42.028 C9.225,42.228 9.325,42.628 9.225,43.029 L9.225,43.029 L9.225,43.029 L9.225,43.029 Z" id="Shape"></path>
                    <path d="M7.422,47.234 L7.422,47.234 L7.422,47.234 C7.222,47.635 6.821,47.735 6.421,47.635 L6.421,47.635 C6.02,47.435 5.92,47.034 6.02,46.634 L6.02,46.634 C6.22,46.233 6.621,46.133 7.021,46.233 L7.021,46.233 C7.422,46.433 7.523,46.834 7.422,47.234 L7.422,47.234 L7.422,47.234 L7.422,47.234 Z" id="Shape"></path>
                    <path d="M5.82,51.44 L5.82,51.44 L5.82,51.44 C5.62,51.841 5.219,52.041 4.819,51.841 L4.819,51.841 C4.418,51.741 4.218,51.24 4.418,50.84 L4.418,50.84 C4.518,50.439 5.019,50.239 5.419,50.439 L5.419,50.439 C5.82,50.639 6.021,51.04 5.82,51.44 L5.82,51.44 L5.82,51.44 L5.82,51.44 Z" id="Shape"></path>
                    <path d="M4.619,55.846 L4.619,55.846 L4.619,55.846 C4.519,56.247 4.118,56.447 3.718,56.347 L3.718,56.347 C3.317,56.247 3.117,55.846 3.217,55.446 L3.217,55.446 C3.317,55.045 3.818,54.845 4.118,54.945 L4.118,54.945 C4.519,55.045 4.719,55.345 4.619,55.846 L4.619,55.846 C4.619,55.746 4.619,55.846 4.619,55.846 L4.619,55.846 Z" id="Shape"></path>
                    <path d="M3.617,60.252 L3.617,60.252 L3.617,60.252 C3.517,60.653 3.116,60.853 2.716,60.753 L2.716,60.753 C2.315,60.653 2.115,60.252 2.215,59.852 L2.215,59.852 C2.315,59.451 2.716,59.251 3.116,59.351 L3.116,59.351 C3.417,59.451 3.717,59.751 3.617,60.252 L3.617,60.252 L3.617,60.252 L3.617,60.252 Z" id="Shape"></path>
                    <path d="M2.916,64.658 L2.916,64.658 L2.916,64.658 C2.816,65.059 2.415,65.359 2.015,65.259 L2.015,65.259 C1.614,65.159 1.314,64.758 1.414,64.358 L1.414,64.358 C1.514,63.957 1.915,63.657 2.315,63.757 L2.315,63.757 C2.716,63.857 3.016,64.258 2.916,64.658 L2.916,64.658 L2.916,64.658 L2.916,64.658 Z" id="Shape"></path>
                    <path d="M2.516,69.164 L2.516,69.164 L2.516,69.164 C2.416,69.565 2.115,69.865 1.715,69.765 L1.715,69.765 C1.314,69.765 1.014,69.364 1.114,68.964 L1.114,68.964 C1.114,68.563 1.515,68.263 1.915,68.263 L1.915,68.263 C2.215,68.363 2.516,68.764 2.516,69.164 L2.516,69.164 L2.516,69.164 L2.516,69.164 Z" id="Shape"></path>
                    <path d="M2.316,73.67 L2.316,73.67 L2.316,73.67 C2.316,74.071 1.915,74.371 1.515,74.371 L1.515,74.371 C1.114,74.371 0.814,73.97 0.814,73.57 L0.814,73.57 C0.814,73.169 1.215,72.869 1.615,72.869 L1.615,72.869 C2.015,72.969 2.316,73.27 2.316,73.67 L2.316,73.67 L2.316,73.67 L2.316,73.67 Z" id="Shape"></path>
                    <path d="M2.516,78.277 L2.516,78.277 L2.516,78.277 C2.516,78.678 2.216,79.078 1.715,78.978 L1.715,78.978 C1.314,78.978 0.914,78.678 1.014,78.277 L1.014,78.277 C1.014,77.876 1.314,77.476 1.715,77.476 L1.715,77.476 C2.115,77.476 2.516,77.776 2.516,78.277 L2.516,78.277 C2.516,78.177 2.516,78.177 2.516,78.277 L2.516,78.277 Z" id="Shape"></path>
                    <path d="M2.916,82.783 L2.916,82.783 L2.916,82.783 C2.916,83.184 2.616,83.584 2.215,83.584 L2.215,83.584 C1.814,83.584 1.414,83.284 1.414,82.883 L1.414,82.883 C1.414,82.482 1.714,82.082 2.115,82.082 L2.115,82.082 C2.516,81.982 2.916,82.282 2.916,82.783 L2.916,82.783 C2.916,82.683 2.916,82.683 2.916,82.783 L2.916,82.783 Z" id="Shape"></path>
                    <path d="M3.617,87.189 L3.617,87.189 L3.617,87.189 C3.617,87.59 3.417,87.99 2.916,87.99 L2.916,87.99 C2.515,88.09 2.115,87.79 2.115,87.389 L2.115,87.389 C2.015,86.988 2.315,86.588 2.716,86.588 L2.716,86.588 C3.217,86.488 3.517,86.788 3.617,87.189 L3.617,87.189 L3.617,87.189 L3.617,87.189 Z" id="Shape"></path>
                    <path d="M4.619,91.595 L4.619,91.595 L4.619,91.595 C4.719,91.996 4.419,92.396 4.018,92.496 L4.018,92.496 C3.617,92.596 3.217,92.296 3.117,91.895 L3.117,91.895 C3.017,91.494 3.317,91.094 3.718,90.994 L3.718,90.994 C4.118,90.894 4.519,91.194 4.619,91.595 L4.619,91.595 L4.619,91.595 L4.619,91.595 Z" id="Shape"></path>
                    <path d="M5.92,96.001 L5.92,96.001 L5.92,96.001 C6.02,96.402 5.82,96.802 5.419,96.902 L5.419,96.902 C5.018,97.002 4.618,96.802 4.518,96.401 L4.518,96.401 C4.418,96 4.618,95.6 5.019,95.5 L5.019,95.5 C5.32,95.3 5.72,95.5 5.92,96.001 L5.92,96.001 C5.92,95.901 5.92,95.901 5.92,96.001 L5.92,96.001 Z" id="Shape"></path>
                    <path d="M7.422,100.206 L7.422,100.206 L7.422,100.206 C7.522,100.607 7.322,101.007 6.921,101.107 L6.921,101.107 C6.52,101.207 6.12,101.007 6.02,100.606 L6.02,100.606 C5.92,100.205 6.12,99.805 6.521,99.605 L6.521,99.605 C6.822,99.606 7.222,99.806 7.422,100.206 L7.422,100.206 L7.422,100.206 L7.422,100.206 Z" id="Shape"></path>
                    <path d="M9.225,104.312 L9.225,104.312 L9.225,104.312 C9.325,104.713 9.225,105.113 8.824,105.313 L8.824,105.313 C8.423,105.513 8.023,105.313 7.823,104.912 L7.823,104.912 C7.623,104.511 7.823,104.111 8.224,103.911 L8.224,103.911 C8.624,103.811 9.025,103.912 9.225,104.312 L9.225,104.312 L9.225,104.312 L9.225,104.312 Z" id="Shape"></path>
                    <path d="M11.328,108.418 L11.328,108.418 L11.328,108.418 C11.528,108.819 11.328,109.219 10.927,109.419 L10.927,109.419 C10.526,109.619 10.126,109.419 9.926,109.018 L9.926,109.018 C9.726,108.617 9.926,108.217 10.327,108.017 L10.327,108.017 C10.627,107.817 11.027,108.017 11.328,108.418 L11.328,108.418 C11.228,108.318 11.228,108.318 11.328,108.418 L11.328,108.418 Z" id="Shape"></path>
                    <path d="M13.631,112.223 L13.631,112.223 L13.631,112.223 C13.831,112.624 13.731,113.024 13.331,113.224 L13.331,113.224 C12.93,113.424 12.53,113.324 12.33,112.924 L12.33,112.924 C12.13,112.523 12.23,112.123 12.63,111.923 L12.63,111.923 C12.93,111.822 13.331,111.922 13.631,112.223 L13.631,112.223 C13.531,112.223 13.531,112.223 13.631,112.223 L13.631,112.223 Z" id="Shape"></path>
                    <path d="M16.134,116.028 L16.134,116.028 L16.134,116.028 C16.334,116.328 16.234,116.829 15.934,117.029 L15.934,117.029 C15.634,117.229 15.133,117.129 14.933,116.829 L14.933,116.829 C14.733,116.428 14.833,116.028 15.133,115.828 L15.133,115.828 C15.433,115.527 15.834,115.627 16.134,116.028 L16.134,116.028 L16.134,116.028 L16.134,116.028 Z" id="Shape"></path>
                    <path d="M18.938,119.533 L18.938,119.533 L18.938,119.533 C19.138,119.833 19.138,120.334 18.738,120.534 L18.738,120.534 C18.438,120.734 17.937,120.734 17.737,120.334 L17.737,120.334 C17.437,120.034 17.537,119.533 17.937,119.232 L17.937,119.232 C18.137,119.132 18.638,119.232 18.938,119.533 L18.938,119.533 C18.838,119.533 18.838,119.533 18.938,119.533 L18.938,119.533 Z" id="Shape"></path>
                    <path d="M21.842,122.937 L21.842,122.937 L21.842,122.937 C22.142,123.237 22.042,123.738 21.742,124.039 L21.742,124.039 C21.442,124.339 20.941,124.239 20.641,123.939 L20.641,123.939 C20.341,123.639 20.441,123.138 20.741,122.837 L20.741,122.837 C21.141,122.637 21.542,122.637 21.842,122.937 L21.842,122.937 L21.842,122.937 L21.842,122.937 Z" id="Shape"></path>
                    <path d="M25.046,126.142 L25.046,126.142 L25.046,126.142 C25.346,126.442 25.346,126.943 25.046,127.244 L25.046,127.244 C24.746,127.544 24.245,127.544 23.945,127.244 L23.945,127.244 C23.645,126.944 23.645,126.443 23.945,126.142 L23.945,126.142 C24.345,125.841 24.746,125.841 25.046,126.142 L25.046,126.142 L25.046,126.142 L25.046,126.142 Z" id="Shape"></path>
                    <path d="M28.451,129.146 L28.451,129.146 L28.451,129.146 C28.751,129.446 28.751,129.947 28.451,130.248 L28.451,130.248 C28.151,130.548 27.65,130.548 27.35,130.248 L27.35,130.248 C27.05,129.948 27.05,129.447 27.35,129.146 L27.35,129.146 C27.65,128.845 28.151,128.845 28.451,129.146 L28.451,129.146 L28.451,129.146 L28.451,129.146 Z" id="Shape"></path>
                    <path d="M32.056,131.95 L32.056,131.95 L32.056,131.95 C32.356,132.25 32.457,132.651 32.156,133.052 L32.156,133.052 C31.856,133.352 31.455,133.453 31.055,133.152 L31.055,133.152 C30.755,132.852 30.654,132.451 30.955,132.05 L30.955,132.05 C31.255,131.749 31.655,131.649 32.056,131.95 L32.056,131.95 C32.056,131.85 32.056,131.95 32.056,131.95 L32.056,131.95 Z" id="Shape"></path>
                    <path d="M35.761,134.453 L35.761,134.453 L35.761,134.453 C36.061,134.653 36.162,135.154 35.961,135.555 L35.961,135.555 C35.761,135.855 35.26,135.956 34.96,135.755 L34.96,135.755 C34.66,135.555 34.559,135.054 34.76,134.754 L34.76,134.754 C34.96,134.253 35.461,134.253 35.761,134.453 L35.761,134.453 L35.761,134.453 L35.761,134.453 Z" id="Shape"></path>
                    <path d="M39.666,136.756 L39.666,136.756 L39.666,136.756 C39.966,136.956 40.167,137.457 39.866,137.757 L39.866,137.757 C39.666,138.057 39.165,138.258 38.865,137.957 L38.865,137.957 C38.464,137.757 38.364,137.256 38.665,136.956 L38.665,136.956 C38.865,136.656 39.266,136.556 39.666,136.756 L39.666,136.756 L39.666,136.756 L39.666,136.756 Z" id="Shape"></path>
                    <path d="M43.672,138.759 L43.672,138.759 L43.672,138.759 C44.073,138.959 44.173,139.46 43.972,139.76 L43.972,139.76 C43.772,140.161 43.271,140.261 42.971,140.06 L42.971,140.06 C42.57,139.86 42.47,139.359 42.671,139.059 L42.671,139.059 C42.871,138.759 43.271,138.659 43.672,138.759 L43.672,138.759 L43.672,138.759 L43.672,138.759 Z" id="Shape"></path>
                    <path d="M47.878,140.561 L47.878,140.561 L47.878,140.561 C48.279,140.761 48.379,141.162 48.279,141.562 L48.279,141.562 C48.079,141.963 47.678,142.063 47.278,141.963 L47.278,141.963 C46.877,141.763 46.777,141.362 46.877,140.962 L46.877,140.962 C47.076,140.561 47.477,140.461 47.878,140.561 L47.878,140.561 L47.878,140.561 L47.878,140.561 Z" id="Shape"></path>
                    <path d="M52.083,142.164 L52.083,142.164 L52.083,142.164 C52.484,142.364 52.684,142.765 52.484,143.165 L52.484,143.165 C52.384,143.566 51.883,143.766 51.483,143.566 L51.483,143.566 C51.082,143.466 50.882,142.965 51.082,142.565 L51.082,142.565 C51.282,142.164 51.683,141.963 52.083,142.164 L52.083,142.164 L52.083,142.164 L52.083,142.164 Z" id="Shape"></path>
                    <path d="M56.489,143.365 L56.489,143.365 L56.489,143.365 C56.89,143.465 57.09,143.866 56.99,144.266 L56.99,144.266 C56.89,144.667 56.489,144.867 56.089,144.767 L56.089,144.767 C55.688,144.667 55.488,144.166 55.588,143.866 L55.588,143.866 C55.688,143.465 55.989,143.265 56.489,143.365 L56.489,143.365 C56.389,143.365 56.489,143.365 56.489,143.365 L56.489,143.365 Z" id="Shape"></path>
                    <path d="M60.895,144.367 L60.895,144.367 L60.895,144.367 C61.296,144.467 61.496,144.868 61.396,145.268 L61.396,145.268 C61.296,145.669 60.895,145.869 60.495,145.769 L60.495,145.769 C60.094,145.669 59.894,145.268 59.994,144.868 L59.994,144.868 C60.094,144.567 60.395,144.266 60.895,144.367 L60.895,144.367 L60.895,144.367 L60.895,144.367 Z" id="Shape"></path>
                    <path d="M65.301,145.068 L65.301,145.068 L65.301,145.068 C65.702,145.168 66.002,145.569 65.902,145.969 L65.902,145.969 C65.802,146.37 65.401,146.67 65.001,146.57 L65.001,146.57 C64.6,146.47 64.3,146.069 64.4,145.669 L64.4,145.669 C64.5,145.268 64.901,144.967 65.301,145.068 L65.301,145.068 L65.301,145.068 L65.301,145.068 Z" id="Shape"></path>
                    <path d="M69.807,145.468 L69.807,145.468 L69.807,145.468 C70.208,145.568 70.508,145.869 70.408,146.269 L70.408,146.269 C70.408,146.67 70.007,146.97 69.607,146.87 L69.607,146.87 C69.206,146.87 68.906,146.469 68.906,146.069 L68.906,146.069 C69.006,145.768 69.407,145.468 69.807,145.468 L69.807,145.468 L69.807,145.468 L69.807,145.468 Z" id="Shape"></path>
                    <path d="M74.313,145.668 L74.313,145.668 L74.313,145.668 C74.714,145.668 75.014,146.069 75.014,146.469 L75.014,146.469 C75.014,146.87 74.613,147.17 74.213,147.17 L74.213,147.17 C73.812,147.17 73.512,146.769 73.512,146.369 L73.512,146.369 C73.613,145.969 73.913,145.668 74.313,145.668 L74.313,145.668 L74.313,145.668 L74.313,145.668 Z" id="Shape"></path>
                    <path d="M78.92,145.468 L78.92,145.468 L78.92,145.468 C79.321,145.468 79.721,145.768 79.621,146.269 L79.621,146.269 C79.621,146.67 79.321,147.07 78.92,146.97 L78.92,146.97 C78.519,146.97 78.119,146.67 78.119,146.269 L78.119,146.269 C78.119,145.869 78.419,145.468 78.92,145.468 L78.92,145.468 C78.82,145.468 78.82,145.468 78.92,145.468 L78.92,145.468 Z" id="Shape"></path>
                    <path d="M83.426,145.068 L83.426,145.068 L83.426,145.068 C83.827,145.068 84.227,145.368 84.227,145.769 L84.227,145.769 C84.227,146.17 83.927,146.57 83.526,146.57 L83.526,146.57 C83.125,146.57 82.725,146.27 82.725,145.869 L82.725,145.869 C82.625,145.468 82.925,145.068 83.426,145.068 L83.426,145.068 C83.326,145.068 83.326,145.068 83.426,145.068 L83.426,145.068 Z" id="Shape"></path>
                    <path d="M83.426,145.068 L83.426,145.068 L83.426,145.068 C83.827,145.068 84.227,145.368 84.227,145.769 L84.227,145.769 C84.227,146.17 83.927,146.57 83.526,146.57 L83.526,146.57 C83.125,146.57 82.725,146.27 82.725,145.869 L82.725,145.869 C82.625,145.468 82.925,145.068 83.426,145.068 L83.426,145.068 C83.326,145.068 83.326,145.068 83.426,145.068 L83.426,145.068 Z" id="Shape"></path>
                    <path d="M87.832,144.367 L87.832,144.367 L87.832,144.367 C88.233,144.367 88.633,144.567 88.633,145.068 L88.633,145.068 C88.733,145.469 88.433,145.869 88.032,145.869 L88.032,145.869 C87.631,145.969 87.231,145.669 87.231,145.268 L87.231,145.268 C87.131,144.767 87.431,144.467 87.832,144.367 L87.832,144.367 L87.832,144.367 L87.832,144.367 Z" id="Shape"></path>
                    <path d="M92.238,143.365 L92.238,143.365 L92.238,143.365 C92.639,143.265 93.039,143.565 93.139,143.966 L93.139,143.966 C93.239,144.367 92.939,144.767 92.538,144.867 L92.538,144.867 C92.137,144.967 91.737,144.667 91.637,144.266 L91.637,144.266 C91.537,143.866 91.837,143.465 92.238,143.365 L92.238,143.365 L92.238,143.365 L92.238,143.365 Z" id="Shape"></path>
                    <path d="M96.644,142.063 L96.644,142.063 L96.644,142.063 C97.045,141.963 97.445,142.163 97.545,142.564 L97.545,142.564 C97.645,142.965 97.445,143.365 97.044,143.465 L97.044,143.465 C96.643,143.565 96.243,143.365 96.143,142.964 L96.143,142.964 C95.943,142.664 96.143,142.264 96.644,142.063 L96.644,142.063 C96.544,142.063 96.544,142.063 96.644,142.063 L96.644,142.063 Z" id="Shape"></path>
                    <path d="M100.85,140.561 L100.85,140.561 L100.85,140.561 C101.251,140.461 101.651,140.661 101.751,141.062 L101.751,141.062 C101.851,141.463 101.651,141.863 101.25,141.963 L101.25,141.963 C100.849,142.063 100.449,141.863 100.249,141.462 L100.249,141.462 C100.249,141.162 100.449,140.762 100.85,140.561 L100.85,140.561 L100.85,140.561 L100.85,140.561 Z" id="Shape"></path>
                    <path d="M104.955,138.759 L104.955,138.759 L104.955,138.759 C105.356,138.659 105.756,138.759 105.956,139.16 L105.956,139.16 C106.156,139.561 105.956,139.961 105.555,140.161 L105.555,140.161 C105.154,140.361 104.754,140.161 104.554,139.76 L104.554,139.76 C104.454,139.36 104.555,138.959 104.955,138.759 L104.955,138.759 L104.955,138.759 L104.955,138.759 Z" id="Shape"></path>
                    <path d="M109.061,136.656 L109.061,136.656 L109.061,136.656 C109.462,136.456 109.862,136.656 110.062,137.057 L110.062,137.057 C110.262,137.458 110.062,137.858 109.661,138.058 L109.661,138.058 C109.26,138.258 108.86,138.058 108.66,137.657 L108.66,137.657 C108.46,137.357 108.66,136.956 109.061,136.656 L109.061,136.656 C108.961,136.756 108.961,136.756 109.061,136.656 L109.061,136.656 Z" id="Shape"></path>
                    <path d="M112.866,134.353 L112.866,134.353 L112.866,134.353 C113.267,134.153 113.667,134.253 113.867,134.653 L113.867,134.653 C114.067,135.054 113.967,135.454 113.567,135.654 L113.567,135.654 C113.166,135.854 112.766,135.754 112.566,135.354 L112.566,135.354 C112.465,135.054 112.566,134.653 112.866,134.353 L112.866,134.353 C112.866,134.453 112.866,134.453 112.866,134.353 L112.866,134.353 Z" id="Shape"></path>
                    <path d="M116.671,131.85 L116.671,131.85 L116.671,131.85 C116.971,131.65 117.472,131.75 117.672,132.05 L117.672,132.05 C117.872,132.35 117.772,132.851 117.472,133.051 L117.472,133.051 C117.071,133.251 116.671,133.151 116.471,132.851 L116.471,132.851 C116.17,132.551 116.271,132.15 116.671,131.85 L116.671,131.85 L116.671,131.85 L116.671,131.85 Z" id="Shape"></path>
                    <path d="M120.176,129.046 L120.176,129.046 L120.176,129.046 C120.476,128.846 120.977,128.846 121.177,129.246 L121.177,129.246 C121.377,129.546 121.377,130.047 120.977,130.247 L120.977,130.247 C120.677,130.547 120.176,130.447 119.875,130.047 L119.875,130.047 C119.775,129.847 119.875,129.346 120.176,129.046 L120.176,129.046 C120.176,129.146 120.176,129.146 120.176,129.046 L120.176,129.046 Z" id="Shape"></path>
                    <path d="M123.581,126.142 L123.581,126.142 L123.581,126.142 C123.881,125.842 124.382,125.942 124.683,126.242 L124.683,126.242 C124.983,126.542 124.883,127.043 124.583,127.344 L124.583,127.344 C124.283,127.644 123.782,127.544 123.481,127.244 L123.481,127.244 C123.28,126.843 123.28,126.442 123.581,126.142 L123.581,126.142 L123.581,126.142 L123.581,126.142 Z" id="Shape"></path>
                    <path d="M126.785,122.937 L126.785,122.937 L126.785,122.937 C127.085,122.637 127.586,122.637 127.887,122.937 L127.887,122.937 C128.187,123.237 128.187,123.738 127.887,124.039 L127.887,124.039 C127.587,124.339 127.086,124.339 126.785,124.039 L126.785,124.039 C126.484,123.638 126.484,123.238 126.785,122.937 L126.785,122.937 L126.785,122.937 L126.785,122.937 Z" id="Shape"></path>
                    <path d="M129.789,119.533 L129.789,119.533 L129.789,119.533 C130.089,119.233 130.59,119.233 130.891,119.533 L130.891,119.533 C131.191,119.833 131.191,120.334 130.891,120.635 L130.891,120.635 C130.591,120.935 130.09,120.935 129.789,120.635 L129.789,120.635 C129.489,120.334 129.489,119.833 129.789,119.533 L129.789,119.533 L129.789,119.533 L129.789,119.533 Z" id="Shape"></path>
                    <path d="M132.593,115.928 L132.593,115.928 L132.593,115.928 C132.893,115.628 133.294,115.527 133.695,115.828 L133.695,115.828 C133.995,116.128 134.096,116.529 133.795,116.93 L133.795,116.93 C133.495,117.23 133.094,117.331 132.693,117.03 L132.693,117.03 C132.393,116.729 132.292,116.328 132.593,115.928 L132.593,115.928 C132.493,115.928 132.593,115.928 132.593,115.928 L132.593,115.928 Z" id="Shape"></path>
                    <path d="M135.096,112.223 L135.096,112.223 L135.096,112.223 C135.296,111.923 135.797,111.822 136.198,112.023 L136.198,112.023 C136.498,112.223 136.599,112.724 136.398,113.024 L136.398,113.024 C136.198,113.324 135.697,113.425 135.397,113.224 L135.397,113.224 C134.896,113.024 134.896,112.523 135.096,112.223 L135.096,112.223 L135.096,112.223 L135.096,112.223 Z" id="Shape"></path>
                    <path d="M137.399,108.318 L137.399,108.318 L137.399,108.318 C137.599,108.018 138.1,107.817 138.4,108.118 L138.4,108.118 C138.7,108.318 138.901,108.819 138.6,109.119 L138.6,109.119 C138.4,109.52 137.899,109.62 137.599,109.319 L137.599,109.319 C137.299,109.119 137.199,108.718 137.399,108.318 L137.399,108.318 L137.399,108.318 L137.399,108.318 Z" id="Shape"></path>
                    <path d="M139.402,104.312 L139.402,104.312 L139.402,104.312 C139.602,103.911 140.103,103.811 140.403,104.012 L140.403,104.012 C140.804,104.212 140.904,104.713 140.703,105.013 L140.703,105.013 C140.503,105.414 140.002,105.514 139.702,105.313 L139.702,105.313 C139.402,105.113 139.302,104.713 139.402,104.312 L139.402,104.312 L139.402,104.312 L139.402,104.312 Z" id="Shape"></path>
                    <path d="M141.204,100.106 L141.204,100.106 L141.204,100.106 C141.404,99.705 141.805,99.605 142.205,99.705 L142.205,99.705 C142.606,99.905 142.706,100.306 142.606,100.706 L142.606,100.706 C142.406,101.107 142.005,101.207 141.605,101.107 L141.605,101.107 C141.204,100.907 141.104,100.507 141.204,100.106 L141.204,100.106 L141.204,100.106 L141.204,100.106 Z" id="Shape"></path>
                    <path d="M142.807,95.901 L142.807,95.901 L142.807,95.901 C143.007,95.5 143.408,95.3 143.808,95.5 L143.808,95.5 C144.209,95.6 144.409,96.101 144.209,96.501 L144.209,96.501 C144.109,96.902 143.608,97.102 143.208,96.902 L143.208,96.902 C142.807,96.702 142.606,96.301 142.807,95.901 L142.807,95.901 C142.707,95.901 142.807,95.901 142.807,95.901 L142.807,95.901 Z" id="Shape"></path>
                    <path d="M144.008,91.495 L144.008,91.495 L144.008,91.495 C144.108,91.094 144.509,90.894 144.909,90.994 L144.909,90.994 C145.31,91.094 145.51,91.495 145.41,91.895 L145.41,91.895 C145.31,92.296 144.809,92.496 144.509,92.396 L144.509,92.396 C144.108,92.296 143.908,91.995 144.008,91.495 L144.008,91.495 C144.008,91.595 144.008,91.495 144.008,91.495 L144.008,91.495 Z" id="Shape"></path>
                    <path d="M145.01,87.089 L145.01,87.089 L145.01,87.089 C145.11,86.688 145.511,86.488 145.911,86.588 L145.911,86.588 C146.312,86.688 146.512,87.089 146.412,87.489 L146.412,87.489 C146.312,87.89 145.911,88.09 145.511,87.99 L145.511,87.99 C145.21,87.89 144.91,87.589 145.01,87.089 L145.01,87.089 L145.01,87.089 L145.01,87.089 Z" id="Shape"></path>
                    <path d="M145.711,82.683 L145.711,82.683 L145.711,82.683 C145.811,82.282 146.212,81.982 146.612,82.082 L146.612,82.082 C147.013,82.182 147.313,82.583 147.213,82.983 L147.213,82.983 C147.113,83.384 146.712,83.684 146.312,83.584 L146.312,83.584 C145.911,83.484 145.61,83.083 145.711,82.683 L145.711,82.683 L145.711,82.683 L145.711,82.683 Z" id="Shape"></path>
                    <path d="M146.111,78.177 L146.111,78.177 L146.111,78.177 C146.211,77.776 146.512,77.476 146.912,77.576 L146.912,77.576 C147.313,77.576 147.613,77.977 147.513,78.377 L147.513,78.377 C147.513,78.778 147.112,79.078 146.712,79.078 L146.712,79.078 C146.412,78.978 146.111,78.577 146.111,78.177 L146.111,78.177 L146.111,78.177 L146.111,78.177 Z" id="Shape"></path>
                    <path d="M146.311,73.67 L146.311,73.67 L146.311,73.67 C146.311,73.269 146.712,72.969 147.112,72.969 L147.112,72.969 C147.513,72.969 147.813,73.37 147.813,73.77 L147.813,73.77 C147.813,74.171 147.412,74.471 147.012,74.471 L147.012,74.471 C146.612,74.371 146.311,74.071 146.311,73.67 L146.311,73.67 L146.311,73.67 L146.311,73.67 Z" id="Shape"></path>
                    <path d="M146.111,69.064 L146.111,69.064 L146.111,69.064 C146.111,68.663 146.411,68.263 146.912,68.363 L146.912,68.363 C147.313,68.363 147.713,68.663 147.613,69.064 L147.613,69.064 C147.613,69.465 147.313,69.865 146.912,69.865 L146.912,69.865 C146.512,69.865 146.111,69.565 146.111,69.064 L146.111,69.064 C146.111,69.164 146.111,69.164 146.111,69.064 L146.111,69.064 Z" id="Shape"></path>
                    <path d="M145.711,64.558 L145.711,64.558 L145.711,64.558 C145.711,64.157 146.011,63.757 146.412,63.757 L146.412,63.757 C146.813,63.757 147.213,64.057 147.213,64.458 L147.213,64.458 C147.213,64.859 146.913,65.259 146.512,65.259 L146.512,65.259 C146.111,65.359 145.711,65.059 145.711,64.558 L145.711,64.558 C145.711,64.658 145.711,64.658 145.711,64.558 L145.711,64.558 Z" id="Shape"></path>
                    <path d="M145.01,60.152 L145.01,60.152 L145.01,60.152 C145.01,59.751 145.21,59.351 145.711,59.351 L145.711,59.351 C146.112,59.251 146.512,59.551 146.512,59.952 L146.512,59.952 C146.612,60.353 146.312,60.753 145.911,60.753 L145.911,60.753 C145.41,60.853 145.11,60.553 145.01,60.152 L145.01,60.152 L145.01,60.152 L145.01,60.152 Z" id="Shape"></path>
                    <path d="M144.008,55.746 L144.008,55.746 L144.008,55.746 C143.908,55.345 144.208,54.945 144.609,54.845 L144.609,54.845 C145.01,54.745 145.41,55.045 145.51,55.446 L145.51,55.446 C145.61,55.847 145.31,56.247 144.909,56.347 L144.909,56.347 C144.509,56.447 144.108,56.147 144.008,55.746 L144.008,55.746 L144.008,55.746 L144.008,55.746 Z" id="Shape"></path>
                    <path d="M142.707,51.34 L142.707,51.34 L142.707,51.34 C142.607,50.939 142.807,50.539 143.208,50.439 L143.208,50.439 C143.609,50.339 144.009,50.539 144.109,50.94 L144.109,50.94 C144.209,51.341 144.009,51.741 143.608,51.841 L143.608,51.841 C143.307,52.041 142.907,51.841 142.707,51.34 L142.707,51.34 C142.707,51.44 142.707,51.44 142.707,51.34 L142.707,51.34 Z" id="Shape"></path>
                    <path d="M141.204,47.134 L141.204,47.134 L141.204,47.134 C141.104,46.733 141.304,46.333 141.705,46.233 L141.705,46.233 C142.106,46.133 142.506,46.333 142.606,46.734 L142.606,46.734 C142.706,47.135 142.506,47.535 142.105,47.735 L142.105,47.735 C141.805,47.735 141.405,47.535 141.204,47.134 L141.204,47.134 L141.204,47.134 L141.204,47.134 Z" id="Shape"></path>
                    <path d="M139.402,43.029 L139.402,43.029 L139.402,43.029 C139.302,42.628 139.402,42.228 139.803,42.028 L139.803,42.028 C140.204,41.828 140.604,42.028 140.804,42.429 L140.804,42.429 C141.004,42.83 140.804,43.23 140.403,43.43 L140.403,43.43 C140.003,43.529 139.602,43.429 139.402,43.029 L139.402,43.029 L139.402,43.029 L139.402,43.029 Z" id="Shape"></path>
                    <path d="M137.299,38.923 L137.299,38.923 L137.299,38.923 C137.099,38.522 137.299,38.122 137.7,37.922 L137.7,37.922 C138.101,37.722 138.501,37.922 138.701,38.323 L138.701,38.323 C138.901,38.724 138.701,39.124 138.3,39.324 L138.3,39.324 C138,39.524 137.6,39.324 137.299,38.923 L137.299,38.923 C137.399,39.023 137.399,39.023 137.299,38.923 L137.299,38.923 Z" id="Shape"></path>
                    <path d="M134.996,35.118 L134.996,35.118 L134.996,35.118 C134.796,34.717 134.896,34.317 135.296,34.117 L135.296,34.117 C135.697,33.917 136.097,34.017 136.297,34.417 L136.297,34.417 C136.497,34.818 136.397,35.218 135.997,35.418 L135.997,35.418 C135.697,35.518 135.296,35.418 134.996,35.118 L134.996,35.118 L134.996,35.118 L134.996,35.118 Z" id="Shape"></path>
                    <path d="M132.493,31.313 L132.493,31.313 L132.493,31.313 C132.293,31.013 132.393,30.512 132.693,30.312 L132.693,30.312 C132.993,30.112 133.494,30.212 133.694,30.512 L133.694,30.512 C133.894,30.913 133.794,31.313 133.494,31.513 L133.494,31.513 C133.194,31.813 132.793,31.713 132.493,31.313 L132.493,31.313 L132.493,31.313 L132.493,31.313 Z" id="Shape"></path>
                    <path d="M129.689,27.808 L129.689,27.808 L129.689,27.808 C129.489,27.508 129.489,27.007 129.889,26.807 L129.889,26.807 C130.189,26.607 130.69,26.607 130.89,27.007 L130.89,27.007 C131.19,27.307 131.09,27.808 130.69,28.108 L130.69,28.108 C130.49,28.209 129.989,28.108 129.689,27.808 L129.689,27.808 L129.689,27.808 L129.689,27.808 Z" id="Shape"></path>
                    <path d="M126.785,24.403 L126.785,24.403 L126.785,24.403 C126.485,24.103 126.585,23.602 126.885,23.302 L126.885,23.302 C127.185,23.002 127.686,23.102 127.987,23.402 L127.987,23.402 C128.287,23.702 128.187,24.203 127.887,24.503 L127.887,24.503 C127.486,24.704 127.085,24.704 126.785,24.403 L126.785,24.403 L126.785,24.403 L126.785,24.403 Z" id="Shape"></path>
                    <path d="M123.581,21.199 L123.581,21.199 L123.581,21.199 C123.281,20.899 123.281,20.398 123.581,20.097 L123.581,20.097 C123.881,19.797 124.382,19.797 124.683,20.097 L124.683,20.097 C124.983,20.397 124.983,20.898 124.683,21.199 L124.683,21.199 C124.281,21.499 123.881,21.499 123.581,21.199 L123.581,21.199 L123.581,21.199 L123.581,21.199 Z" id="Shape"></path>
                    <path d="M120.176,18.195 L120.176,18.195 L120.176,18.195 C119.876,17.895 119.876,17.394 120.176,17.094 L120.176,17.094 C120.476,16.794 120.977,16.794 121.278,17.094 L121.278,17.094 C121.578,17.394 121.578,17.895 121.278,18.195 L121.278,18.195 C120.977,18.495 120.476,18.495 120.176,18.195 L120.176,18.195 L120.176,18.195 L120.176,18.195 Z" id="Shape"></path>
                    <path d="M116.571,15.391 L116.571,15.391 L116.571,15.391 C116.271,15.091 116.17,14.69 116.471,14.29 L116.471,14.29 C116.771,13.99 117.172,13.889 117.573,14.19 L117.573,14.19 C117.873,14.49 117.974,14.891 117.673,15.291 L117.673,15.291 C117.372,15.591 116.972,15.692 116.571,15.391 L116.571,15.391 C116.571,15.491 116.571,15.391 116.571,15.391 L116.571,15.391 Z" id="Shape"></path>
                    <path d="M112.866,12.888 L112.866,12.888 L112.866,12.888 C112.566,12.688 112.465,12.187 112.666,11.787 L112.666,11.787 C112.866,11.487 113.367,11.386 113.667,11.587 L113.667,11.587 C113.967,11.787 114.068,12.288 113.867,12.588 L113.867,12.588 C113.667,13.088 113.166,13.088 112.866,12.888 L112.866,12.888 L112.866,12.888 L112.866,12.888 Z" id="Shape"></path>
                    <path d="M108.961,10.585 L108.961,10.585 L108.961,10.585 C108.661,10.385 108.46,9.884 108.761,9.584 L108.761,9.584 C108.961,9.284 109.462,9.083 109.762,9.384 L109.762,9.384 C110.163,9.584 110.263,10.085 109.962,10.385 L109.962,10.385 C109.762,10.685 109.361,10.785 108.961,10.585 L108.961,10.585 L108.961,10.585 L108.961,10.585 Z" id="Shape"></path>
                    <path d="M104.955,8.582 L104.955,8.582 L104.955,8.582 C104.554,8.382 104.454,7.881 104.655,7.581 L104.655,7.581 C104.855,7.18 105.356,7.08 105.656,7.281 L105.656,7.281 C106.057,7.481 106.157,7.982 105.956,8.282 L105.956,8.282 C105.756,8.582 105.356,8.682 104.955,8.582 L104.955,8.582 L104.955,8.582 L104.955,8.582 Z" id="Shape"></path>
                    <path d="M100.749,6.779 L100.749,6.779 L100.749,6.779 C100.348,6.579 100.248,6.178 100.348,5.778 L100.348,5.778 C100.548,5.377 100.949,5.277 101.349,5.377 L101.349,5.377 C101.75,5.577 101.85,5.978 101.75,6.378 L101.75,6.378 C101.551,6.779 101.15,6.88 100.749,6.779 L100.749,6.779 L100.749,6.779 L100.749,6.779 Z" id="Shape"></path>
                    <path d="M96.544,5.177 L96.544,5.177 L96.544,5.177 C96.143,4.977 95.943,4.576 96.143,4.176 L96.143,4.176 C96.243,3.775 96.744,3.575 97.144,3.775 L97.144,3.775 C97.545,3.875 97.745,4.376 97.545,4.776 L97.545,4.776 C97.345,5.177 96.944,5.377 96.544,5.177 L96.544,5.177 C96.544,5.277 96.544,5.177 96.544,5.177 L96.544,5.177 Z" id="Shape"></path>
                    <path d="M92.138,3.976 L92.138,3.976 L92.138,3.976 C91.737,3.876 91.537,3.475 91.637,3.075 L91.637,3.075 C91.737,2.674 92.138,2.474 92.538,2.574 L92.538,2.574 C92.939,2.674 93.139,3.175 93.039,3.475 L93.039,3.475 C92.939,3.875 92.638,4.076 92.138,3.976 L92.138,3.976 L92.138,3.976 L92.138,3.976 Z" id="Shape"></path>
                    <path d="M87.732,2.974 L87.732,2.974 L87.732,2.974 C87.331,2.874 87.131,2.473 87.231,2.073 L87.231,2.073 C87.331,1.672 87.732,1.472 88.132,1.572 L88.132,1.572 C88.533,1.672 88.733,2.073 88.633,2.473 L88.633,2.473 C88.533,2.774 88.232,3.074 87.732,2.974 L87.732,2.974 L87.732,2.974 L87.732,2.974 Z" id="Shape"></path>
                    <path d="M83.326,2.273 L83.326,2.273 L83.326,2.273 C82.925,2.173 82.625,1.772 82.725,1.372 L82.725,1.372 C82.825,0.971 83.226,0.671 83.626,0.771 L83.626,0.771 C84.027,0.871 84.327,1.272 84.227,1.672 L84.227,1.672 C84.127,2.073 83.726,2.373 83.326,2.273 L83.326,2.273 L83.326,2.273 L83.326,2.273 Z" id="Shape"></path>
                    <path d="M78.82,1.873 L78.82,1.873 L78.82,1.873 C78.419,1.773 78.119,1.472 78.219,1.072 L78.219,1.072 C78.219,0.671 78.62,0.371 79.02,0.471 L79.02,0.471 C79.421,0.471 79.721,0.872 79.721,1.272 L79.721,1.272 C79.621,1.572 79.22,1.873 78.82,1.873 L78.82,1.873 L78.82,1.873 L78.82,1.873 Z" id="Shape"></path>
                    <path d="M74.313,1.672 L74.313,1.672 L74.313,1.672 C73.912,1.672 73.612,1.271 73.612,0.871 L73.612,0.871 C73.612,0.47 74.013,0.17 74.413,0.17 L74.413,0.17 C74.814,0.17 75.114,0.571 75.114,0.971 L75.114,0.971 C75.014,1.372 74.714,1.672 74.313,1.672 L74.313,1.672 L74.313,1.672 L74.313,1.672 Z" id="Shape"></path>
                </g>
            </g>
        </g>
    </g>
</svg>