<?xml version="1.0" encoding="UTF-8" standalone="no"?>
<svg width="66px" height="54px" viewBox="0 0 66 54" version="1.1" xmlns="http://www.w3.org/2000/svg" xmlns:xlink="http://www.w3.org/1999/xlink" xmlns:sketch="http://www.bohemiancoding.com/sketch/ns">
    <!-- Generator: Sketch 3.4 (15575) - http://www.bohemiancoding.com/sketch -->
    <title>opening-quotes</title>
    <desc>Created with Sketch.</desc>
    <defs></defs>
    <g id="Page-1" stroke="none" stroke-width="1" fill="none" fill-rule="evenodd" sketch:type="MSPage">
        <g id="Small-Icons" sketch:type="MSLayerGroup" transform="translate(-140.000000, -75.000000)" fill="#E8E8E8">
            <g id="Icons" transform="translate(6.000000, 6.000000)" sketch:type="MSShapeGroup">
                <path d="M196.8,69.8 C192.8,69.8 166.8,77.5 166.8,102.2 C166.8,109.6 172.2,122.7 181.9,122.7 C187.7,122.7 191.2,118 191.2,112.9 C191.2,108 186.3,104.5 185.1,103.6 C181.8,99.9 180.2,97.8 180.2,92.9 C180.2,83.1 191.8,76.1 197,74.7 C198.6,74.2 199.6,73.8 199.3,71.7 C198.9,69.4 198,69.8 196.8,69.8 M164.3,69.8 C160.3,69.8 134.3,77.5 134.3,102.2 C134.3,109.6 139.7,122.7 149.4,122.7 C155.2,122.7 158.7,118 158.7,112.9 C158.7,108 153.8,104.5 152.6,103.6 C149.3,99.9 147.7,97.8 147.7,92.9 C147.7,83.1 159.3,76.1 164.5,74.7 C166.1,74.2 167.1,73.8 166.8,71.7 C166.3,69.4 165.4,69.8 164.3,69.8" id="opening-quotes"></path>
            </g>
        </g>
    </g>
</svg>