<?xml version="1.0" encoding="UTF-8" standalone="no"?>
<svg width="148px" height="148px" viewBox="0 0 148 148" version="1.1" xmlns="http://www.w3.org/2000/svg" xmlns:xlink="http://www.w3.org/1999/xlink" xmlns:sketch="http://www.bohemiancoding.com/sketch/ns">
    <!-- Generator: Sketch 3.4.2 (15855) - http://www.bohemiancoding.com/sketch -->
    <title>Contact</title>
    <desc>Created with Sketch.</desc>
    <defs></defs>
    <g id="Page-1" stroke="none" stroke-width="1" fill="none" fill-rule="evenodd" sketch:type="MSPage">
        <g id="start-icons" sketch:type="MSLayerGroup" transform="translate(-955.000000, 0.000000)">
            <g id="Contact" transform="translate(955.000000, 0.000000)" sketch:type="MSShapeGroup">
                <path d="M96.533,98.504 L109.25,98.504 C109.25,98.504 112.655,98.504 112.655,94.899 L112.655,51.74 C112.655,51.74 112.655,48.135 109.25,48.135 L38.253,48.135 C38.253,48.135 34.848,48.135 34.848,51.74 L34.848,94.899 C34.848,94.899 34.848,98.504 38.253,98.504 L82.013,98.504 L96.533,98.504" id="Shape" stroke="#005467" stroke-width="3"></path>
                <g id="circle_2_" fill="#787878">
                    <path d="M69.005,1.873 L69.005,1.873 L69.005,1.873 C68.604,1.873 68.204,1.573 68.304,1.072 L68.304,1.072 C68.304,0.671 68.604,0.271 69.005,0.371 L69.005,0.371 C69.406,0.371 69.806,0.671 69.806,1.072 L69.806,1.072 C69.806,1.472 69.506,1.873 69.005,1.873 L69.005,1.873 L69.005,1.873 L69.005,1.873 Z" id="Shape"></path>
                    <path d="M64.499,2.273 L64.499,2.273 L64.499,2.273 C64.098,2.273 63.698,1.973 63.698,1.572 L63.698,1.572 C63.698,1.171 63.998,0.771 64.399,0.771 L64.399,0.771 C64.8,0.771 65.2,1.071 65.2,1.472 L65.2,1.472 C65.3,1.873 65,2.273 64.499,2.273 L64.499,2.273 L64.499,2.273 L64.499,2.273 Z" id="Shape"></path>
                    <path d="M60.093,2.974 L60.093,2.974 L60.093,2.974 C59.692,2.974 59.292,2.774 59.292,2.273 L59.292,2.273 C59.192,1.872 59.492,1.472 59.893,1.472 L59.893,1.472 C60.294,1.372 60.694,1.672 60.694,2.073 L60.694,2.073 C60.794,2.574 60.494,2.874 60.093,2.974 L60.093,2.974 L60.093,2.974 L60.093,2.974 Z" id="Shape"></path>
                    <path d="M55.687,3.976 L55.687,3.976 L55.687,3.976 C55.286,4.076 54.886,3.776 54.786,3.375 L54.786,3.375 C54.686,2.974 54.986,2.574 55.387,2.474 L55.387,2.474 C55.788,2.374 56.188,2.674 56.288,3.075 L56.288,3.075 C56.388,3.475 56.088,3.875 55.687,3.976 L55.687,3.976 L55.687,3.976 L55.687,3.976 Z" id="Shape"></path>
                    <path d="M51.281,5.277 L51.281,5.277 L51.281,5.277 C50.88,5.377 50.48,5.177 50.38,4.776 L50.38,4.776 C50.28,4.375 50.48,3.975 50.881,3.875 L50.881,3.875 C51.282,3.775 51.682,3.975 51.782,4.376 L51.782,4.376 C51.982,4.677 51.782,5.077 51.281,5.277 L51.281,5.277 L51.281,5.277 L51.281,5.277 Z" id="Shape"></path>
                    <path d="M47.076,6.779 L47.076,6.779 L47.076,6.779 C46.675,6.879 46.275,6.679 46.175,6.278 L46.175,6.278 C46.075,5.877 46.275,5.477 46.676,5.377 L46.676,5.377 C47.077,5.277 47.477,5.477 47.677,5.878 L47.677,5.878 C47.676,6.179 47.476,6.579 47.076,6.779 L47.076,6.779 L47.076,6.779 L47.076,6.779 Z" id="Shape"></path>
                    <path d="M42.97,8.582 L42.97,8.582 L42.97,8.582 C42.569,8.682 42.169,8.582 41.969,8.181 L41.969,8.181 C41.769,7.78 41.969,7.38 42.37,7.18 L42.37,7.18 C42.771,6.98 43.171,7.18 43.371,7.581 L43.371,7.581 C43.471,7.981 43.37,8.382 42.97,8.582 L42.97,8.582 L42.97,8.582 L42.97,8.582 Z" id="Shape"></path>
                    <path d="M38.864,10.685 L38.864,10.685 L38.864,10.685 C38.463,10.885 38.063,10.685 37.863,10.284 L37.863,10.284 C37.663,9.883 37.863,9.483 38.264,9.283 L38.264,9.283 C38.665,9.083 39.065,9.283 39.265,9.684 L39.265,9.684 C39.465,9.984 39.265,10.384 38.864,10.685 L38.864,10.685 C38.964,10.585 38.964,10.585 38.864,10.685 L38.864,10.685 Z" id="Shape"></path>
                    <path d="M35.059,12.988 L35.059,12.988 L35.059,12.988 C34.658,13.188 34.258,13.088 34.058,12.688 L34.058,12.688 C33.858,12.287 33.958,11.887 34.358,11.687 L34.358,11.687 C34.759,11.487 35.159,11.587 35.359,11.987 L35.359,11.987 C35.46,12.287 35.36,12.687 35.059,12.988 L35.059,12.988 C35.059,12.888 35.059,12.888 35.059,12.988 L35.059,12.988 Z" id="Shape"></path>
                    <path d="M31.254,15.491 L31.254,15.491 L31.254,15.491 C30.954,15.691 30.453,15.591 30.253,15.291 L30.253,15.291 C30.053,14.991 30.153,14.49 30.453,14.29 L30.453,14.29 C30.854,14.09 31.254,14.19 31.454,14.49 L31.454,14.49 C31.755,14.79 31.655,15.191 31.254,15.491 L31.254,15.491 L31.254,15.491 L31.254,15.491 Z" id="Shape"></path>
                    <path d="M27.749,18.295 L27.749,18.295 L27.749,18.295 C27.449,18.495 26.948,18.495 26.748,18.095 L26.748,18.095 C26.548,17.795 26.548,17.294 26.948,17.094 L26.948,17.094 C27.248,16.794 27.749,16.894 28.049,17.294 L28.049,17.294 C28.15,17.494 28.05,17.995 27.749,18.295 L27.749,18.295 C27.749,18.195 27.749,18.195 27.749,18.295 L27.749,18.295 Z" id="Shape"></path>
                    <path d="M24.345,21.199 L24.345,21.199 L24.345,21.199 C24.045,21.499 23.544,21.399 23.243,21.099 L23.243,21.099 C22.943,20.799 23.043,20.298 23.343,19.998 L23.343,19.998 C23.643,19.698 24.144,19.798 24.444,20.098 L24.444,20.098 C24.645,20.498 24.645,20.899 24.345,21.199 L24.345,21.199 L24.345,21.199 L24.345,21.199 Z" id="Shape"></path>
                    <path d="M21.14,24.403 L21.14,24.403 L21.14,24.403 C20.84,24.703 20.339,24.703 20.038,24.403 L20.038,24.403 C19.738,24.103 19.738,23.602 20.038,23.301 L20.038,23.301 C20.338,23.001 20.839,23.001 21.14,23.301 L21.14,23.301 C21.441,23.702 21.441,24.103 21.14,24.403 L21.14,24.403 L21.14,24.403 L21.14,24.403 Z" id="Shape"></path>
                    <path d="M18.136,27.808 L18.136,27.808 L18.136,27.808 C17.836,28.108 17.335,28.108 17.035,27.808 L17.035,27.808 C16.735,27.508 16.735,27.007 17.035,26.706 L17.035,26.706 C17.335,26.406 17.836,26.406 18.136,26.706 L18.136,26.706 C18.437,27.007 18.437,27.508 18.136,27.808 L18.136,27.808 L18.136,27.808 L18.136,27.808 Z" id="Shape"></path>
                    <path d="M15.332,31.413 L15.332,31.413 L15.332,31.413 C15.032,31.713 14.631,31.814 14.231,31.513 L14.231,31.513 C13.931,31.213 13.83,30.812 14.131,30.412 L14.131,30.412 C14.431,30.112 14.832,30.011 15.232,30.312 L15.232,30.312 C15.533,30.612 15.633,31.012 15.332,31.413 L15.332,31.413 L15.332,31.413 L15.332,31.413 Z" id="Shape"></path>
                    <path d="M12.829,35.118 L12.829,35.118 L12.829,35.118 C12.629,35.418 12.128,35.519 11.728,35.318 L11.728,35.318 C11.428,35.118 11.327,34.617 11.528,34.317 L11.528,34.317 C11.728,34.017 12.229,33.916 12.529,34.117 L12.529,34.117 C13.029,34.317 13.029,34.818 12.829,35.118 L12.829,35.118 L12.829,35.118 L12.829,35.118 Z" id="Shape"></path>
                    <path d="M10.526,39.023 L10.526,39.023 L10.526,39.023 C10.326,39.323 9.825,39.524 9.525,39.223 L9.525,39.223 C9.225,39.023 9.024,38.522 9.325,38.222 L9.325,38.222 C9.525,37.821 10.026,37.721 10.326,38.022 L10.326,38.022 C10.626,38.222 10.726,38.623 10.526,39.023 L10.526,39.023 L10.526,39.023 L10.526,39.023 Z" id="Shape"></path>
                    <path d="M8.523,43.029 L8.523,43.029 L8.523,43.029 C8.323,43.43 7.822,43.53 7.522,43.329 L7.522,43.329 C7.121,43.129 7.021,42.628 7.222,42.328 L7.222,42.328 C7.422,41.927 7.923,41.827 8.223,42.028 L8.223,42.028 C8.523,42.228 8.623,42.628 8.523,43.029 L8.523,43.029 L8.523,43.029 L8.523,43.029 Z" id="Shape"></path>
                    <path d="M6.721,47.234 L6.721,47.234 L6.721,47.234 C6.521,47.635 6.12,47.735 5.72,47.635 L5.72,47.635 C5.319,47.435 5.219,47.034 5.319,46.634 L5.319,46.634 C5.519,46.233 5.92,46.133 6.32,46.233 L6.32,46.233 C6.721,46.433 6.821,46.834 6.721,47.234 L6.721,47.234 L6.721,47.234 L6.721,47.234 Z" id="Shape"></path>
                    <path d="M5.118,51.44 L5.118,51.44 L5.118,51.44 C4.918,51.841 4.517,52.041 4.117,51.841 L4.117,51.841 C3.716,51.741 3.516,51.24 3.716,50.84 L3.716,50.84 C3.816,50.439 4.317,50.239 4.717,50.439 L4.717,50.439 C5.118,50.639 5.319,51.04 5.118,51.44 L5.118,51.44 L5.118,51.44 L5.118,51.44 Z" id="Shape"></path>
                    <path d="M3.917,55.846 L3.917,55.846 L3.917,55.846 C3.817,56.247 3.416,56.447 3.016,56.347 L3.016,56.347 C2.615,56.247 2.415,55.846 2.515,55.446 L2.515,55.446 C2.615,55.045 3.116,54.845 3.416,54.945 L3.416,54.945 C3.817,55.045 4.017,55.345 3.917,55.846 L3.917,55.846 C3.917,55.746 3.917,55.846 3.917,55.846 L3.917,55.846 Z" id="Shape"></path>
                    <path d="M2.915,60.252 L2.915,60.252 L2.915,60.252 C2.815,60.653 2.414,60.853 2.014,60.753 L2.014,60.753 C1.613,60.653 1.413,60.252 1.513,59.852 L1.513,59.852 C1.613,59.451 2.014,59.251 2.414,59.351 L2.414,59.351 C2.715,59.451 3.016,59.751 2.915,60.252 L2.915,60.252 L2.915,60.252 L2.915,60.252 Z" id="Shape"></path>
                    <path d="M2.214,64.658 L2.214,64.658 L2.214,64.658 C2.114,65.059 1.713,65.359 1.313,65.259 L1.313,65.259 C0.912,65.159 0.612,64.758 0.712,64.358 L0.712,64.358 C0.812,63.957 1.213,63.657 1.613,63.757 L1.613,63.757 C2.014,63.857 2.315,64.258 2.214,64.658 L2.214,64.658 L2.214,64.658 L2.214,64.658 Z" id="Shape"></path>
                    <path d="M1.814,69.164 L1.814,69.164 L1.814,69.164 C1.714,69.565 1.413,69.865 1.013,69.765 L1.013,69.765 C0.612,69.765 0.312,69.364 0.412,68.964 L0.412,68.964 C0.412,68.563 0.813,68.263 1.213,68.263 L1.213,68.263 C1.513,68.363 1.814,68.764 1.814,69.164 L1.814,69.164 L1.814,69.164 L1.814,69.164 Z" id="Shape"></path>
                    <path d="M1.614,73.67 L1.614,73.67 L1.614,73.67 C1.614,74.071 1.213,74.371 0.813,74.371 L0.813,74.371 C0.412,74.371 0.112,73.97 0.112,73.57 L0.112,73.57 C0.112,73.169 0.513,72.869 0.913,72.869 L0.913,72.869 C1.313,72.969 1.614,73.27 1.614,73.67 L1.614,73.67 L1.614,73.67 L1.614,73.67 Z" id="Shape"></path>
                    <path d="M1.814,78.277 L1.814,78.277 L1.814,78.277 C1.814,78.678 1.514,79.078 1.013,78.978 L1.013,78.978 C0.612,78.978 0.212,78.678 0.312,78.277 L0.312,78.277 C0.312,77.876 0.612,77.476 1.013,77.476 L1.013,77.476 C1.413,77.476 1.814,77.776 1.814,78.277 L1.814,78.277 C1.814,78.177 1.814,78.177 1.814,78.277 L1.814,78.277 Z" id="Shape"></path>
                    <path d="M2.214,82.783 L2.214,82.783 L2.214,82.783 C2.214,83.184 1.914,83.584 1.513,83.584 L1.513,83.584 C1.112,83.584 0.712,83.284 0.712,82.883 L0.712,82.883 C0.712,82.482 1.012,82.082 1.413,82.082 L1.413,82.082 C1.814,81.982 2.214,82.282 2.214,82.783 L2.214,82.783 C2.214,82.683 2.214,82.683 2.214,82.783 L2.214,82.783 Z" id="Shape"></path>
                    <path d="M2.915,87.189 L2.915,87.189 L2.915,87.189 C2.915,87.59 2.715,87.99 2.214,87.99 L2.214,87.99 C1.813,88.09 1.413,87.79 1.413,87.389 L1.413,87.389 C1.313,86.988 1.613,86.588 2.014,86.588 L2.014,86.588 C2.515,86.488 2.815,86.788 2.915,87.189 L2.915,87.189 L2.915,87.189 L2.915,87.189 Z" id="Shape"></path>
                    <path d="M3.917,91.595 L3.917,91.595 L3.917,91.595 C4.017,91.996 3.717,92.396 3.316,92.496 L3.316,92.496 C2.915,92.596 2.515,92.296 2.415,91.895 L2.415,91.895 C2.315,91.494 2.615,91.094 3.016,90.994 L3.016,90.994 C3.416,90.894 3.817,91.194 3.917,91.595 L3.917,91.595 L3.917,91.595 L3.917,91.595 Z" id="Shape"></path>
                    <path d="M5.219,96.001 L5.219,96.001 L5.219,96.001 C5.319,96.402 5.119,96.802 4.718,96.902 L4.718,96.902 C4.317,97.002 3.917,96.802 3.817,96.401 L3.817,96.401 C3.717,96 3.917,95.6 4.318,95.5 L4.318,95.5 C4.618,95.3 5.018,95.5 5.219,96.001 L5.219,96.001 C5.219,95.901 5.219,95.901 5.219,96.001 L5.219,96.001 Z" id="Shape"></path>
                    <path d="M6.721,100.207 L6.721,100.207 L6.721,100.207 C6.821,100.608 6.621,101.008 6.22,101.108 L6.22,101.108 C5.819,101.208 5.419,101.008 5.319,100.607 L5.319,100.607 C5.219,100.206 5.419,99.806 5.82,99.606 L5.82,99.606 C6.12,99.606 6.52,99.806 6.721,100.207 L6.721,100.207 L6.721,100.207 L6.721,100.207 Z" id="Shape"></path>
                    <path d="M8.523,104.312 L8.523,104.312 L8.523,104.312 C8.623,104.713 8.523,105.113 8.122,105.313 L8.122,105.313 C7.721,105.513 7.321,105.313 7.121,104.912 L7.121,104.912 C6.921,104.511 7.121,104.111 7.522,103.911 L7.522,103.911 C7.922,103.811 8.323,103.912 8.523,104.312 L8.523,104.312 L8.523,104.312 L8.523,104.312 Z" id="Shape"></path>
                    <path d="M10.626,108.418 L10.626,108.418 L10.626,108.418 C10.826,108.819 10.626,109.219 10.225,109.419 L10.225,109.419 C9.824,109.619 9.424,109.419 9.224,109.018 L9.224,109.018 C9.024,108.617 9.224,108.217 9.625,108.017 L9.625,108.017 C9.925,107.817 10.326,108.017 10.626,108.418 L10.626,108.418 C10.526,108.318 10.526,108.318 10.626,108.418 L10.626,108.418 Z" id="Shape"></path>
                    <path d="M12.929,112.223 L12.929,112.223 L12.929,112.223 C13.129,112.624 13.029,113.024 12.629,113.224 L12.629,113.224 C12.228,113.424 11.828,113.324 11.628,112.924 L11.628,112.924 C11.428,112.523 11.528,112.123 11.928,111.923 L11.928,111.923 C12.228,111.822 12.629,111.922 12.929,112.223 L12.929,112.223 C12.829,112.223 12.829,112.223 12.929,112.223 L12.929,112.223 Z" id="Shape"></path>
                    <path d="M15.432,116.028 L15.432,116.028 L15.432,116.028 C15.632,116.328 15.532,116.829 15.232,117.029 L15.232,117.029 C14.932,117.229 14.431,117.129 14.231,116.829 L14.231,116.829 C14.031,116.428 14.131,116.028 14.431,115.828 L14.431,115.828 C14.731,115.527 15.132,115.627 15.432,116.028 L15.432,116.028 L15.432,116.028 L15.432,116.028 Z" id="Shape"></path>
                    <path d="M18.236,119.533 L18.236,119.533 L18.236,119.533 C18.436,119.833 18.436,120.334 18.036,120.534 L18.036,120.534 C17.736,120.734 17.235,120.734 17.035,120.334 L17.035,120.334 C16.735,120.034 16.835,119.533 17.235,119.232 L17.235,119.232 C17.435,119.132 17.936,119.232 18.236,119.533 L18.236,119.533 C18.136,119.533 18.136,119.533 18.236,119.533 L18.236,119.533 Z" id="Shape"></path>
                    <path d="M21.14,122.937 L21.14,122.937 L21.14,122.937 C21.44,123.237 21.34,123.738 21.04,124.039 L21.04,124.039 C20.74,124.339 20.239,124.239 19.939,123.939 L19.939,123.939 C19.639,123.639 19.739,123.138 20.039,122.837 L20.039,122.837 C20.439,122.637 20.84,122.637 21.14,122.937 L21.14,122.937 L21.14,122.937 L21.14,122.937 Z" id="Shape"></path>
                    <path d="M24.345,126.142 L24.345,126.142 L24.345,126.142 C24.645,126.442 24.645,126.943 24.345,127.244 L24.345,127.244 C24.045,127.544 23.544,127.544 23.243,127.244 L23.243,127.244 C22.943,126.944 22.943,126.443 23.243,126.142 L23.243,126.142 C23.644,125.841 24.044,125.841 24.345,126.142 L24.345,126.142 L24.345,126.142 L24.345,126.142 Z" id="Shape"></path>
                    <path d="M27.749,129.146 L27.749,129.146 L27.749,129.146 C28.049,129.446 28.049,129.947 27.749,130.248 L27.749,130.248 C27.449,130.548 26.948,130.548 26.647,130.248 L26.647,130.248 C26.347,129.948 26.347,129.447 26.647,129.146 L26.647,129.146 C26.948,128.845 27.449,128.845 27.749,129.146 L27.749,129.146 L27.749,129.146 L27.749,129.146 Z" id="Shape"></path>
                    <path d="M31.354,131.95 L31.354,131.95 L31.354,131.95 C31.654,132.25 31.755,132.651 31.454,133.052 L31.454,133.052 C31.154,133.352 30.753,133.453 30.353,133.152 L30.353,133.152 C30.053,132.852 29.952,132.451 30.253,132.05 L30.253,132.05 C30.553,131.749 30.954,131.649 31.354,131.95 L31.354,131.95 C31.354,131.85 31.354,131.95 31.354,131.95 L31.354,131.95 Z" id="Shape"></path>
                    <path d="M35.059,134.453 L35.059,134.453 L35.059,134.453 C35.359,134.653 35.46,135.154 35.259,135.555 L35.259,135.555 C35.059,135.855 34.558,135.956 34.258,135.755 L34.258,135.755 C33.958,135.555 33.857,135.054 34.058,134.754 L34.058,134.754 C34.258,134.253 34.759,134.253 35.059,134.453 L35.059,134.453 L35.059,134.453 L35.059,134.453 Z" id="Shape"></path>
                    <path d="M38.964,136.756 L38.964,136.756 L38.964,136.756 C39.264,136.956 39.465,137.457 39.164,137.757 L39.164,137.757 C38.964,138.057 38.463,138.258 38.163,137.957 L38.163,137.957 C37.762,137.757 37.662,137.256 37.963,136.956 L37.963,136.956 C38.163,136.656 38.564,136.556 38.964,136.756 L38.964,136.756 L38.964,136.756 L38.964,136.756 Z" id="Shape"></path>
                    <path d="M42.97,138.759 L42.97,138.759 L42.97,138.759 C43.371,138.959 43.471,139.46 43.27,139.76 L43.27,139.76 C43.07,140.161 42.569,140.261 42.269,140.06 L42.269,140.06 C41.868,139.86 41.768,139.359 41.969,139.059 L41.969,139.059 C42.169,138.759 42.569,138.659 42.97,138.759 L42.97,138.759 L42.97,138.759 L42.97,138.759 Z" id="Shape"></path>
                    <path d="M47.176,140.561 L47.176,140.561 L47.176,140.561 C47.577,140.761 47.677,141.162 47.577,141.562 L47.577,141.562 C47.377,141.963 46.976,142.063 46.576,141.963 L46.576,141.963 C46.175,141.763 46.075,141.362 46.175,140.962 L46.175,140.962 C46.375,140.561 46.775,140.461 47.176,140.561 L47.176,140.561 L47.176,140.561 L47.176,140.561 Z" id="Shape"></path>
                    <path d="M51.381,142.164 L51.381,142.164 L51.381,142.164 C51.782,142.364 51.982,142.765 51.782,143.165 L51.782,143.165 C51.682,143.566 51.181,143.766 50.781,143.566 L50.781,143.566 C50.38,143.466 50.18,142.965 50.38,142.565 L50.38,142.565 C50.58,142.164 50.981,141.963 51.381,142.164 L51.381,142.164 L51.381,142.164 L51.381,142.164 Z" id="Shape"></path>
                    <path d="M55.787,143.365 L55.787,143.365 L55.787,143.365 C56.188,143.465 56.388,143.866 56.288,144.266 L56.288,144.266 C56.188,144.667 55.787,144.867 55.387,144.767 L55.387,144.767 C54.986,144.667 54.786,144.166 54.886,143.866 L54.886,143.866 C54.986,143.465 55.287,143.265 55.787,143.365 L55.787,143.365 C55.687,143.365 55.787,143.365 55.787,143.365 L55.787,143.365 Z" id="Shape"></path>
                    <path d="M60.193,144.367 L60.193,144.367 L60.193,144.367 C60.594,144.467 60.794,144.868 60.694,145.268 L60.694,145.268 C60.594,145.669 60.193,145.869 59.793,145.769 L59.793,145.769 C59.392,145.669 59.192,145.268 59.292,144.868 L59.292,144.868 C59.392,144.567 59.693,144.266 60.193,144.367 L60.193,144.367 L60.193,144.367 L60.193,144.367 Z" id="Shape"></path>
                    <path d="M64.599,145.068 L64.599,145.068 L64.599,145.068 C65,145.168 65.3,145.569 65.2,145.969 L65.2,145.969 C65.1,146.37 64.699,146.67 64.299,146.57 L64.299,146.57 C63.898,146.47 63.598,146.069 63.698,145.669 L63.698,145.669 C63.798,145.268 64.199,144.967 64.599,145.068 L64.599,145.068 L64.599,145.068 L64.599,145.068 Z" id="Shape"></path>
                    <path d="M69.105,145.468 L69.105,145.468 L69.105,145.468 C69.506,145.568 69.806,145.869 69.706,146.269 L69.706,146.269 C69.706,146.67 69.305,146.97 68.905,146.87 L68.905,146.87 C68.504,146.87 68.204,146.469 68.204,146.069 L68.204,146.069 C68.304,145.769 68.705,145.468 69.105,145.468 L69.105,145.468 L69.105,145.468 L69.105,145.468 Z" id="Shape"></path>
                    <path d="M73.612,145.668 L73.612,145.668 L73.612,145.668 C74.013,145.668 74.313,146.069 74.313,146.469 L74.313,146.469 C74.313,146.87 73.912,147.17 73.512,147.17 L73.512,147.17 C73.111,147.17 72.811,146.769 72.811,146.369 L72.811,146.369 C72.911,145.969 73.211,145.668 73.612,145.668 L73.612,145.668 L73.612,145.668 L73.612,145.668 Z" id="Shape"></path>
                    <path d="M78.218,145.468 L78.218,145.468 L78.218,145.468 C78.619,145.468 79.019,145.768 78.919,146.269 L78.919,146.269 C78.919,146.67 78.619,147.07 78.218,146.97 L78.218,146.97 C77.817,146.97 77.417,146.67 77.417,146.269 L77.417,146.269 C77.417,145.869 77.717,145.468 78.218,145.468 L78.218,145.468 C78.118,145.468 78.118,145.468 78.218,145.468 L78.218,145.468 Z" id="Shape"></path>
                    <path d="M82.724,145.068 L82.724,145.068 L82.724,145.068 C83.125,145.068 83.525,145.368 83.525,145.769 L83.525,145.769 C83.525,146.17 83.225,146.57 82.824,146.57 L82.824,146.57 C82.423,146.57 82.023,146.27 82.023,145.869 L82.023,145.869 C81.923,145.468 82.223,145.068 82.724,145.068 L82.724,145.068 C82.624,145.068 82.624,145.068 82.724,145.068 L82.724,145.068 Z" id="Shape"></path>
                    <path d="M82.724,145.068 L82.724,145.068 L82.724,145.068 C83.125,145.068 83.525,145.368 83.525,145.769 L83.525,145.769 C83.525,146.17 83.225,146.57 82.824,146.57 L82.824,146.57 C82.423,146.57 82.023,146.27 82.023,145.869 L82.023,145.869 C81.923,145.468 82.223,145.068 82.724,145.068 L82.724,145.068 C82.624,145.068 82.624,145.068 82.724,145.068 L82.724,145.068 Z" id="Shape"></path>
                    <path d="M87.13,144.367 L87.13,144.367 L87.13,144.367 C87.531,144.367 87.931,144.567 87.931,145.068 L87.931,145.068 C88.031,145.469 87.731,145.869 87.33,145.869 L87.33,145.869 C86.929,145.969 86.529,145.669 86.529,145.268 L86.529,145.268 C86.429,144.767 86.729,144.467 87.13,144.367 L87.13,144.367 L87.13,144.367 L87.13,144.367 Z" id="Shape"></path>
                    <path d="M91.536,143.365 L91.536,143.365 L91.536,143.365 C91.937,143.265 92.337,143.565 92.437,143.966 L92.437,143.966 C92.537,144.367 92.237,144.767 91.836,144.867 L91.836,144.867 C91.435,144.967 91.035,144.667 90.935,144.266 L90.935,144.266 C90.835,143.866 91.135,143.465 91.536,143.365 L91.536,143.365 L91.536,143.365 L91.536,143.365 Z" id="Shape"></path>
                    <path d="M95.942,142.063 L95.942,142.063 L95.942,142.063 C96.343,141.963 96.743,142.163 96.843,142.564 L96.843,142.564 C96.943,142.965 96.743,143.365 96.342,143.465 L96.342,143.465 C95.941,143.565 95.541,143.365 95.441,142.964 L95.441,142.964 C95.241,142.664 95.441,142.264 95.942,142.063 L95.942,142.063 C95.842,142.063 95.842,142.063 95.942,142.063 L95.942,142.063 Z" id="Shape"></path>
                    <path d="M100.148,140.561 L100.148,140.561 L100.148,140.561 C100.549,140.461 100.949,140.661 101.049,141.062 L101.049,141.062 C101.149,141.463 100.949,141.863 100.548,141.963 L100.548,141.963 C100.147,142.063 99.747,141.863 99.547,141.462 L99.547,141.462 C99.547,141.162 99.747,140.762 100.148,140.561 L100.148,140.561 L100.148,140.561 L100.148,140.561 Z" id="Shape"></path>
                    <path d="M104.253,138.759 L104.253,138.759 L104.253,138.759 C104.654,138.659 105.054,138.759 105.254,139.16 L105.254,139.16 C105.454,139.561 105.254,139.961 104.853,140.161 L104.853,140.161 C104.452,140.361 104.052,140.161 103.852,139.76 L103.852,139.76 C103.753,139.36 103.853,138.959 104.253,138.759 L104.253,138.759 L104.253,138.759 L104.253,138.759 Z" id="Shape"></path>
                    <path d="M108.359,136.656 L108.359,136.656 L108.359,136.656 C108.76,136.456 109.16,136.656 109.36,137.057 L109.36,137.057 C109.56,137.458 109.36,137.858 108.959,138.058 L108.959,138.058 C108.558,138.258 108.158,138.058 107.958,137.657 L107.958,137.657 C107.758,137.357 107.958,136.957 108.359,136.656 L108.359,136.656 C108.259,136.756 108.259,136.756 108.359,136.656 L108.359,136.656 Z" id="Shape"></path>
                    <path d="M112.164,134.353 L112.164,134.353 L112.164,134.353 C112.565,134.153 112.965,134.253 113.165,134.653 L113.165,134.653 C113.365,135.054 113.265,135.454 112.865,135.654 L112.865,135.654 C112.464,135.854 112.064,135.754 111.864,135.354 L111.864,135.354 C111.764,135.054 111.864,134.653 112.164,134.353 L112.164,134.353 C112.164,134.453 112.164,134.453 112.164,134.353 L112.164,134.353 Z" id="Shape"></path>
                    <path d="M115.969,131.85 L115.969,131.85 L115.969,131.85 C116.269,131.65 116.77,131.75 116.97,132.05 L116.97,132.05 C117.17,132.35 117.07,132.851 116.77,133.051 L116.77,133.051 C116.369,133.251 115.969,133.151 115.769,132.851 L115.769,132.851 C115.469,132.551 115.569,132.15 115.969,131.85 L115.969,131.85 L115.969,131.85 L115.969,131.85 Z" id="Shape"></path>
                    <path d="M119.474,129.046 L119.474,129.046 L119.474,129.046 C119.774,128.846 120.275,128.846 120.475,129.246 L120.475,129.246 C120.675,129.546 120.675,130.047 120.275,130.247 L120.275,130.247 C119.975,130.547 119.474,130.447 119.173,130.047 L119.173,130.047 C119.073,129.847 119.174,129.346 119.474,129.046 L119.474,129.046 C119.474,129.146 119.474,129.146 119.474,129.046 L119.474,129.046 Z" id="Shape"></path>
                    <path d="M122.879,126.142 L122.879,126.142 L122.879,126.142 C123.179,125.842 123.68,125.942 123.98,126.242 L123.98,126.242 C124.28,126.542 124.18,127.043 123.88,127.344 L123.88,127.344 C123.58,127.644 123.079,127.544 122.778,127.244 L122.778,127.244 C122.578,126.843 122.578,126.442 122.879,126.142 L122.879,126.142 L122.879,126.142 L122.879,126.142 Z" id="Shape"></path>
                    <path d="M126.083,122.937 L126.083,122.937 L126.083,122.937 C126.383,122.637 126.884,122.637 127.184,122.937 L127.184,122.937 C127.484,123.237 127.484,123.738 127.184,124.039 L127.184,124.039 C126.884,124.339 126.383,124.339 126.083,124.039 L126.083,124.039 C125.783,123.638 125.783,123.238 126.083,122.937 L126.083,122.937 L126.083,122.937 L126.083,122.937 Z" id="Shape"></path>
                    <path d="M129.087,119.533 L129.087,119.533 L129.087,119.533 C129.387,119.233 129.888,119.233 130.189,119.533 L130.189,119.533 C130.489,119.833 130.489,120.334 130.189,120.635 L130.189,120.635 C129.889,120.935 129.388,120.935 129.087,120.635 L129.087,120.635 C128.787,120.334 128.787,119.833 129.087,119.533 L129.087,119.533 L129.087,119.533 L129.087,119.533 Z" id="Shape"></path>
                    <path d="M131.891,115.928 L131.891,115.928 L131.891,115.928 C132.191,115.628 132.592,115.527 132.993,115.828 L132.993,115.828 C133.293,116.128 133.394,116.529 133.093,116.93 L133.093,116.93 C132.793,117.23 132.392,117.331 131.992,117.03 L131.992,117.03 C131.691,116.729 131.59,116.328 131.891,115.928 L131.891,115.928 C131.791,115.928 131.891,115.928 131.891,115.928 L131.891,115.928 Z" id="Shape"></path>
                    <path d="M134.394,112.223 L134.394,112.223 L134.394,112.223 C134.594,111.923 135.095,111.822 135.496,112.023 L135.496,112.023 C135.796,112.223 135.897,112.724 135.696,113.024 L135.696,113.024 C135.496,113.324 134.995,113.425 134.695,113.224 L134.695,113.224 C134.194,113.024 134.194,112.523 134.394,112.223 L134.394,112.223 L134.394,112.223 L134.394,112.223 Z" id="Shape"></path>
                    <path d="M136.697,108.318 L136.697,108.318 L136.697,108.318 C136.897,108.018 137.398,107.817 137.698,108.118 L137.698,108.118 C137.998,108.318 138.199,108.819 137.898,109.119 L137.898,109.119 C137.698,109.52 137.197,109.62 136.897,109.319 L136.897,109.319 C136.597,109.119 136.497,108.718 136.697,108.318 L136.697,108.318 L136.697,108.318 L136.697,108.318 Z" id="Shape"></path>
                    <path d="M138.7,104.312 L138.7,104.312 L138.7,104.312 C138.9,103.911 139.401,103.811 139.701,104.012 L139.701,104.012 C140.102,104.212 140.202,104.713 140.001,105.013 L140.001,105.013 C139.801,105.414 139.3,105.514 139,105.313 L139,105.313 C138.7,105.113 138.6,104.713 138.7,104.312 L138.7,104.312 L138.7,104.312 L138.7,104.312 Z" id="Shape"></path>
                    <path d="M140.503,100.106 L140.503,100.106 L140.503,100.106 C140.703,99.705 141.104,99.605 141.504,99.705 L141.504,99.705 C141.905,99.905 142.005,100.306 141.905,100.706 L141.905,100.706 C141.705,101.107 141.304,101.207 140.904,101.107 L140.904,101.107 C140.503,100.907 140.402,100.507 140.503,100.106 L140.503,100.106 L140.503,100.106 L140.503,100.106 Z" id="Shape"></path>
                    <path d="M142.105,95.901 L142.105,95.901 L142.105,95.901 C142.305,95.5 142.706,95.3 143.106,95.5 L143.106,95.5 C143.507,95.6 143.707,96.101 143.507,96.501 L143.507,96.501 C143.407,96.902 142.906,97.102 142.506,96.902 L142.506,96.902 C142.105,96.702 141.905,96.301 142.105,95.901 L142.105,95.901 C142.005,95.901 142.105,95.901 142.105,95.901 L142.105,95.901 Z" id="Shape"></path>
                    <path d="M143.306,91.495 L143.306,91.495 L143.306,91.495 C143.406,91.094 143.807,90.894 144.207,90.994 L144.207,90.994 C144.608,91.094 144.808,91.495 144.708,91.895 L144.708,91.895 C144.608,92.296 144.107,92.496 143.807,92.396 L143.807,92.396 C143.407,92.296 143.206,91.995 143.306,91.495 L143.306,91.495 C143.306,91.595 143.306,91.495 143.306,91.495 L143.306,91.495 Z" id="Shape"></path>
                    <path d="M144.308,87.089 L144.308,87.089 L144.308,87.089 C144.408,86.688 144.809,86.488 145.209,86.588 L145.209,86.588 C145.61,86.688 145.81,87.089 145.71,87.489 L145.71,87.489 C145.61,87.89 145.209,88.09 144.809,87.99 L144.809,87.99 C144.508,87.89 144.208,87.589 144.308,87.089 L144.308,87.089 L144.308,87.089 L144.308,87.089 Z" id="Shape"></path>
                    <path d="M145.009,82.683 L145.009,82.683 L145.009,82.683 C145.109,82.282 145.51,81.982 145.91,82.082 L145.91,82.082 C146.311,82.182 146.611,82.583 146.511,82.983 L146.511,82.983 C146.411,83.384 146.01,83.684 145.61,83.584 L145.61,83.584 C145.209,83.484 144.909,83.083 145.009,82.683 L145.009,82.683 L145.009,82.683 L145.009,82.683 Z" id="Shape"></path>
                    <path d="M145.409,78.177 L145.409,78.177 L145.409,78.177 C145.509,77.776 145.81,77.476 146.21,77.576 L146.21,77.576 C146.611,77.576 146.911,77.977 146.811,78.377 L146.811,78.377 C146.811,78.778 146.41,79.078 146.01,79.078 L146.01,79.078 C145.71,78.978 145.409,78.577 145.409,78.177 L145.409,78.177 L145.409,78.177 L145.409,78.177 Z" id="Shape"></path>
                    <path d="M145.61,73.67 L145.61,73.67 L145.61,73.67 C145.61,73.269 146.011,72.969 146.411,72.969 L146.411,72.969 C146.812,72.969 147.112,73.37 147.112,73.77 L147.112,73.77 C147.112,74.171 146.711,74.471 146.311,74.471 L146.311,74.471 C145.91,74.371 145.61,74.071 145.61,73.67 L145.61,73.67 L145.61,73.67 L145.61,73.67 Z" id="Shape"></path>
                    <path d="M145.409,69.064 L145.409,69.064 L145.409,69.064 C145.409,68.663 145.709,68.263 146.21,68.363 L146.21,68.363 C146.611,68.363 147.011,68.663 146.911,69.064 L146.911,69.064 C146.911,69.465 146.611,69.865 146.21,69.865 L146.21,69.865 C145.81,69.865 145.409,69.565 145.409,69.064 L145.409,69.064 C145.409,69.164 145.409,69.164 145.409,69.064 L145.409,69.064 Z" id="Shape"></path>
                    <path d="M145.009,64.558 L145.009,64.558 L145.009,64.558 C145.009,64.157 145.309,63.757 145.71,63.757 L145.71,63.757 C146.111,63.757 146.511,64.057 146.511,64.458 L146.511,64.458 C146.511,64.859 146.211,65.259 145.81,65.259 L145.81,65.259 C145.409,65.359 145.009,65.059 145.009,64.558 L145.009,64.558 C145.009,64.658 145.009,64.658 145.009,64.558 L145.009,64.558 Z" id="Shape"></path>
                    <path d="M144.308,60.152 L144.308,60.152 L144.308,60.152 C144.308,59.751 144.508,59.351 145.009,59.351 L145.009,59.351 C145.41,59.251 145.81,59.551 145.81,59.952 L145.81,59.952 C145.91,60.353 145.61,60.753 145.209,60.753 L145.209,60.753 C144.708,60.853 144.408,60.553 144.308,60.152 L144.308,60.152 L144.308,60.152 L144.308,60.152 Z" id="Shape"></path>
                    <path d="M143.306,55.746 L143.306,55.746 L143.306,55.746 C143.206,55.345 143.506,54.945 143.907,54.845 L143.907,54.845 C144.308,54.745 144.708,55.045 144.808,55.446 L144.808,55.446 C144.908,55.847 144.608,56.247 144.207,56.347 L144.207,56.347 C143.807,56.447 143.407,56.147 143.306,55.746 L143.306,55.746 L143.306,55.746 L143.306,55.746 Z" id="Shape"></path>
                    <path d="M142.005,51.34 L142.005,51.34 L142.005,51.34 C141.905,50.939 142.105,50.539 142.506,50.439 L142.506,50.439 C142.907,50.339 143.307,50.539 143.407,50.94 L143.407,50.94 C143.507,51.341 143.307,51.741 142.906,51.841 L142.906,51.841 C142.605,52.041 142.205,51.841 142.005,51.34 L142.005,51.34 C142.005,51.44 142.005,51.44 142.005,51.34 L142.005,51.34 Z" id="Shape"></path>
                    <path d="M140.503,47.134 L140.503,47.134 L140.503,47.134 C140.403,46.733 140.603,46.333 141.004,46.233 L141.004,46.233 C141.405,46.133 141.805,46.333 141.905,46.734 L141.905,46.734 C142.005,47.135 141.805,47.535 141.404,47.735 L141.404,47.735 C141.103,47.735 140.703,47.535 140.503,47.134 L140.503,47.134 L140.503,47.134 L140.503,47.134 Z" id="Shape"></path>
                    <path d="M138.7,43.029 L138.7,43.029 L138.7,43.029 C138.6,42.628 138.7,42.228 139.101,42.028 L139.101,42.028 C139.502,41.828 139.902,42.028 140.102,42.429 L140.102,42.429 C140.302,42.83 140.102,43.23 139.701,43.43 L139.701,43.43 C139.301,43.529 138.9,43.429 138.7,43.029 L138.7,43.029 L138.7,43.029 L138.7,43.029 Z" id="Shape"></path>
                    <path d="M136.597,38.923 L136.597,38.923 L136.597,38.923 C136.397,38.522 136.597,38.122 136.998,37.922 L136.998,37.922 C137.399,37.722 137.799,37.922 137.999,38.323 L137.999,38.323 C138.199,38.724 137.999,39.124 137.598,39.324 L137.598,39.324 C137.298,39.524 136.898,39.324 136.597,38.923 L136.597,38.923 C136.697,39.023 136.697,39.023 136.597,38.923 L136.597,38.923 Z" id="Shape"></path>
                    <path d="M134.294,35.118 L134.294,35.118 L134.294,35.118 C134.094,34.717 134.194,34.317 134.594,34.117 L134.594,34.117 C134.995,33.917 135.395,34.017 135.595,34.417 L135.595,34.417 C135.795,34.818 135.695,35.218 135.295,35.418 L135.295,35.418 C134.995,35.519 134.595,35.418 134.294,35.118 L134.294,35.118 L134.294,35.118 L134.294,35.118 Z" id="Shape"></path>
                    <path d="M131.791,31.313 L131.791,31.313 L131.791,31.313 C131.591,31.013 131.691,30.512 131.991,30.312 L131.991,30.312 C132.291,30.112 132.792,30.212 132.992,30.512 L132.992,30.512 C133.192,30.913 133.092,31.313 132.792,31.513 L132.792,31.513 C132.492,31.813 132.091,31.713 131.791,31.313 L131.791,31.313 L131.791,31.313 L131.791,31.313 Z" id="Shape"></path>
                    <path d="M128.987,27.808 L128.987,27.808 L128.987,27.808 C128.787,27.508 128.787,27.007 129.187,26.807 L129.187,26.807 C129.487,26.607 129.988,26.607 130.188,27.007 L130.188,27.007 C130.488,27.307 130.388,27.808 129.988,28.108 L129.988,28.108 C129.788,28.209 129.287,28.108 128.987,27.808 L128.987,27.808 L128.987,27.808 L128.987,27.808 Z" id="Shape"></path>
                    <path d="M126.083,24.403 L126.083,24.403 L126.083,24.403 C125.783,24.103 125.883,23.602 126.183,23.301 L126.183,23.301 C126.483,23.001 126.984,23.101 127.285,23.401 L127.285,23.401 C127.585,23.701 127.485,24.202 127.185,24.502 L127.185,24.502 C126.784,24.704 126.383,24.704 126.083,24.403 L126.083,24.403 L126.083,24.403 L126.083,24.403 Z" id="Shape"></path>
                    <path d="M122.879,21.199 L122.879,21.199 L122.879,21.199 C122.579,20.899 122.579,20.398 122.879,20.098 L122.879,20.098 C123.179,19.798 123.68,19.798 123.98,20.098 L123.98,20.098 C124.28,20.398 124.28,20.899 123.98,21.199 L123.98,21.199 C123.58,21.499 123.179,21.499 122.879,21.199 L122.879,21.199 L122.879,21.199 L122.879,21.199 Z" id="Shape"></path>
                    <path d="M119.474,18.195 L119.474,18.195 L119.474,18.195 C119.174,17.895 119.174,17.394 119.474,17.094 L119.474,17.094 C119.774,16.794 120.275,16.794 120.576,17.094 L120.576,17.094 C120.876,17.394 120.876,17.895 120.576,18.195 L120.576,18.195 C120.275,18.495 119.774,18.495 119.474,18.195 L119.474,18.195 L119.474,18.195 L119.474,18.195 Z" id="Shape"></path>
                    <path d="M115.869,15.391 L115.869,15.391 L115.869,15.391 C115.569,15.091 115.468,14.69 115.769,14.29 L115.769,14.29 C116.069,13.99 116.47,13.889 116.871,14.19 L116.871,14.19 C117.171,14.49 117.272,14.891 116.971,15.292 L116.971,15.292 C116.67,15.591 116.27,15.692 115.869,15.391 L115.869,15.391 C115.869,15.491 115.869,15.391 115.869,15.391 L115.869,15.391 Z" id="Shape"></path>
                    <path d="M112.164,12.888 L112.164,12.888 L112.164,12.888 C111.864,12.688 111.763,12.187 111.964,11.787 L111.964,11.787 C112.164,11.487 112.665,11.386 112.965,11.587 L112.965,11.587 C113.265,11.787 113.366,12.288 113.165,12.588 L113.165,12.588 C112.965,13.088 112.464,13.088 112.164,12.888 L112.164,12.888 L112.164,12.888 L112.164,12.888 Z" id="Shape"></path>
                    <path d="M108.259,10.585 L108.259,10.585 L108.259,10.585 C107.959,10.385 107.758,9.884 108.059,9.584 L108.059,9.584 C108.259,9.284 108.76,9.083 109.06,9.384 L109.06,9.384 C109.461,9.584 109.561,10.085 109.26,10.385 L109.26,10.385 C109.06,10.685 108.659,10.785 108.259,10.585 L108.259,10.585 L108.259,10.585 L108.259,10.585 Z" id="Shape"></path>
                    <path d="M104.253,8.582 L104.253,8.582 L104.253,8.582 C103.852,8.382 103.752,7.881 103.953,7.581 L103.953,7.581 C104.153,7.18 104.654,7.08 104.954,7.281 L104.954,7.281 C105.355,7.481 105.455,7.982 105.254,8.282 L105.254,8.282 C105.054,8.582 104.654,8.682 104.253,8.582 L104.253,8.582 L104.253,8.582 L104.253,8.582 Z" id="Shape"></path>
                    <path d="M100.048,6.779 L100.048,6.779 L100.048,6.779 C99.647,6.579 99.547,6.178 99.647,5.778 L99.647,5.778 C99.847,5.377 100.248,5.277 100.648,5.377 L100.648,5.377 C101.049,5.577 101.149,5.978 101.049,6.378 L101.049,6.378 C100.849,6.779 100.448,6.88 100.048,6.779 L100.048,6.779 L100.048,6.779 L100.048,6.779 Z" id="Shape"></path>
                    <path d="M95.842,5.177 L95.842,5.177 L95.842,5.177 C95.441,4.977 95.241,4.576 95.441,4.176 L95.441,4.176 C95.541,3.775 96.042,3.575 96.442,3.775 L96.442,3.775 C96.843,3.875 97.043,4.376 96.843,4.776 L96.843,4.776 C96.643,5.177 96.242,5.377 95.842,5.177 L95.842,5.177 C95.842,5.277 95.842,5.177 95.842,5.177 L95.842,5.177 Z" id="Shape"></path>
                    <path d="M91.436,3.976 L91.436,3.976 L91.436,3.976 C91.035,3.876 90.835,3.475 90.935,3.075 L90.935,3.075 C91.035,2.674 91.436,2.474 91.836,2.574 L91.836,2.574 C92.237,2.674 92.437,3.175 92.337,3.475 L92.337,3.475 C92.237,3.875 91.937,4.076 91.436,3.976 L91.436,3.976 L91.436,3.976 L91.436,3.976 Z" id="Shape"></path>
                    <path d="M87.03,2.974 L87.03,2.974 L87.03,2.974 C86.629,2.874 86.429,2.473 86.529,2.073 L86.529,2.073 C86.629,1.672 87.03,1.472 87.43,1.572 L87.43,1.572 C87.831,1.672 88.031,2.073 87.931,2.473 L87.931,2.473 C87.831,2.774 87.531,3.074 87.03,2.974 L87.03,2.974 L87.03,2.974 L87.03,2.974 Z" id="Shape"></path>
                    <path d="M82.624,2.273 L82.624,2.273 L82.624,2.273 C82.223,2.173 81.923,1.772 82.023,1.372 L82.023,1.372 C82.123,0.971 82.524,0.671 82.924,0.771 L82.924,0.771 C83.325,0.871 83.625,1.272 83.525,1.672 L83.525,1.672 C83.425,2.073 83.024,2.373 82.624,2.273 L82.624,2.273 L82.624,2.273 L82.624,2.273 Z" id="Shape"></path>
                    <path d="M78.118,1.873 L78.118,1.873 L78.118,1.873 C77.717,1.773 77.417,1.472 77.517,1.072 L77.517,1.072 C77.517,0.671 77.918,0.371 78.318,0.471 L78.318,0.471 C78.719,0.471 79.019,0.872 79.019,1.272 L79.019,1.272 C78.919,1.572 78.518,1.873 78.118,1.873 L78.118,1.873 L78.118,1.873 L78.118,1.873 Z" id="Shape"></path>
                    <path d="M73.612,1.672 L73.612,1.672 L73.612,1.672 C73.211,1.672 72.911,1.271 72.911,0.871 L72.911,0.871 C72.911,0.47 73.312,0.17 73.712,0.17 L73.712,0.17 C74.113,0.17 74.413,0.571 74.413,0.971 L74.413,0.971 C74.313,1.372 74.012,1.672 73.612,1.672 L73.612,1.672 L73.612,1.672 L73.612,1.672 Z" id="Shape"></path>
                </g>
                <path d="M81.736,71.522 L112.15,96.867" id="Shape" stroke="#005467" stroke-width="1.5"></path>
                <path d="M65.617,71.826 L35.102,96.867" id="Shape" stroke="#005467" stroke-width="1.5"></path>
                <path d="M34.798,48.306 L73.018,78.112 L112.049,48.306" id="Shape" stroke="#005467" stroke-width="1.5"></path>
            </g>
        </g>
    </g>
</svg>