<?xml version="1.0" encoding="utf-8"?>
<!-- Generator: Adobe Illustrator 18.0.0, SVG Export Plug-In . SVG Version: 6.00 Build 0)  -->
<!DOCTYPE svg PUBLIC "-//W3C//DTD SVG 1.1//EN" "http://www.w3.org/Graphics/SVG/1.1/DTD/svg11.dtd">
<svg version="1.1" xmlns="http://www.w3.org/2000/svg" xmlns:xlink="http://www.w3.org/1999/xlink" x="0px" y="0px"
	 viewBox="0 0 1920 1080" enable-background="new 0 0 1920 1080" xml:space="preserve">

<g id="Layer_1">
	<g>
		<g>
			<path fill="#005467" d="M737.019,429.829v-19.102H714.83v19.102h-5.21v-42.642h5.017v18.716h22.189v-18.716h5.017v42.642H737.019
				z"/>
			<path fill="#005467" d="M767.891,427.899c-1.351,0.965-2.701,1.544-4.245,1.929c-1.351,0.386-2.894,0.579-4.245,0.579
				c-2.315,0-4.245-0.579-5.596-1.737c-1.544-1.158-2.315-2.894-2.315-5.21c0-2.894,1.158-5.21,3.666-6.753
				c2.508-1.737,6.367-2.894,11.963-3.859v-5.017c0-0.579-0.193-1.158-0.386-1.544s-0.386-0.772-0.772-1.158
				c-1.158-0.965-2.894-1.351-5.017-1.351c-1.737,0-3.28,0.386-4.824,0.965c-1.544,0.579-2.701,1.351-3.666,2.315v-4.438
				c0.965-0.965,2.315-1.737,3.859-2.315c1.544-0.579,3.28-0.772,5.017-0.772c3.28,0,5.788,0.772,7.525,2.122
				c1.737,1.351,2.701,3.666,2.701,6.56c0,0.193,0,0.772,0,1.544c0,0.772,0,1.737,0,3.087c0,1.158,0,2.508,0,3.859
				c0,1.351,0,2.701,0,3.859s0,2.315,0,3.087c0,0.965,0,1.544,0,1.737c0.579,0.386,0.965,0.772,1.544,0.965
				c0.579,0.193,1.158,0.193,1.737,0.193c0.386,0,0.579,0,0.772,0l-0.386,3.859c-0.386,0.193-0.965,0.193-1.351,0.193
				c-0.965,0-2.122-0.193-3.087-0.579C769.627,429.443,768.662,428.864,767.891,427.899z M767.312,416.322
				c-2.122,0.386-3.859,0.772-5.21,1.158c-1.351,0.386-2.508,0.772-3.28,1.351c-0.772,0.579-1.544,1.158-1.737,1.737
				c-0.386,0.579-0.579,1.351-0.579,2.122c0,1.351,0.386,2.315,1.158,2.894c0.772,0.579,2.122,0.965,3.859,0.965
				c1.158,0,2.122-0.193,3.28-0.386c1.158-0.386,1.93-0.772,2.701-1.351v-8.49H767.312z"/>
			<path fill="#005467" d="M798.569,404.553c-0.772-0.386-1.737-0.579-2.894-0.579c-1.158,0-2.508,0.386-4.052,0.965
				c-1.351,0.579-2.894,1.544-4.245,2.894v21.996h-4.438v-29.714h4.052l0.386,3.473c1.544-1.544,2.894-2.701,4.245-3.28
				c1.351-0.579,2.701-0.965,3.859-0.965c1.158,0,2.122,0.386,3.087,0.965V404.553z"/>
			<path fill="#005467" d="M819.987,427.899c-1.351,0.965-2.701,1.544-4.245,1.929c-1.351,0.386-2.894,0.579-4.245,0.579
				c-2.315,0-4.245-0.579-5.595-1.737c-1.544-1.158-2.315-2.894-2.315-5.21c0-2.894,1.158-5.21,3.666-6.753
				c2.508-1.737,6.367-2.894,11.963-3.859v-5.017c0-0.579-0.193-1.158-0.386-1.544s-0.386-0.772-0.772-1.158
				c-1.158-0.965-2.894-1.351-5.017-1.351c-1.737,0-3.28,0.386-4.824,0.965c-1.544,0.579-2.701,1.351-3.666,2.315v-4.438
				c0.965-0.965,2.315-1.737,3.859-2.315c1.544-0.579,3.28-0.772,5.017-0.772c3.28,0,5.788,0.772,7.525,2.122
				c1.737,1.351,2.701,3.666,2.701,6.56c0,0.193,0,0.772,0,1.544c0,0.772,0,1.737,0,3.087c0,1.158,0,2.508,0,3.859
				c0,1.351,0,2.701,0,3.859s0,2.315,0,3.087c0,0.965,0,1.544,0,1.737c0.579,0.386,0.965,0.772,1.544,0.965
				c0.579,0.193,1.158,0.193,1.737,0.193c0.386,0,0.579,0,0.772,0l-0.386,3.859c-0.386,0.193-0.965,0.193-1.351,0.193
				c-0.965,0-2.122-0.193-3.087-0.579C821.723,429.443,820.951,428.864,819.987,427.899z M819.408,416.322
				c-2.122,0.386-3.859,0.772-5.21,1.158c-1.351,0.386-2.508,0.772-3.28,1.351c-0.772,0.579-1.544,1.158-1.737,1.737
				c-0.386,0.579-0.579,1.351-0.579,2.122c0,1.351,0.386,2.315,1.158,2.894c0.772,0.579,2.122,0.965,3.859,0.965
				c1.158,0,2.122-0.193,3.28-0.386c1.158-0.386,1.93-0.772,2.701-1.351v-8.49H819.408z"/>
			<path fill="#005467" d="M835.037,429.829V382.75l4.438-1.158v48.237H835.037z"/>
			<path fill="#005467" d="M874.398,427.513c-1.544,0.965-3.473,1.544-5.403,2.122c-1.93,0.579-4.052,0.772-6.367,0.772
				c-4.631,0-8.297-1.351-10.805-3.859c-2.701-2.508-4.052-6.174-4.052-10.998c0-2.508,0.386-4.631,1.158-6.56
				c0.772-1.93,1.737-3.666,3.087-5.017c1.351-1.351,2.894-2.508,4.824-3.28c1.93-0.772,3.859-1.158,5.981-1.158
				c1.351,0,2.701,0.193,3.859,0.386c1.158,0.386,2.315,0.772,3.087,1.158v-18.33l4.438-1.158v45.922H874.398z M869.96,405.324
				c-0.579-0.386-1.737-0.772-2.894-1.158c-1.351-0.386-2.508-0.579-3.859-0.579c-1.544,0-2.894,0.193-4.245,0.772
				c-1.351,0.386-2.508,1.158-3.473,2.122c-0.965,0.965-1.737,2.122-2.315,3.666c-0.579,1.544-0.772,3.28-0.772,5.21
				c0,3.473,0.965,5.981,2.701,7.911c1.93,1.737,4.438,2.701,7.911,2.701c1.351,0,2.701-0.193,3.859-0.386
				c1.158-0.193,2.122-0.579,2.894-0.965v-19.295H869.96z"/>
			<path fill="#005467" d="M901.99,429.829v-42.642h25.083v4.631h-20.067v14.085h17.944v4.631h-17.944v14.471h20.645v4.631H901.99
				V429.829z"/>
			<path fill="#005467" d="M942.123,389.117c0,0.965-0.386,1.737-0.965,2.315s-1.351,0.965-2.315,0.965
				c-0.965,0-1.737-0.386-2.315-0.965s-0.772-1.351-0.772-2.315c0-0.965,0.193-1.737,0.965-2.315
				c0.579-0.579,1.351-0.965,2.315-0.965c0.965,0,1.737,0.386,2.315,0.965C941.93,387.38,942.123,388.152,942.123,389.117z
				 M936.72,429.829v-29.714h4.438v29.714C941.158,429.829,936.72,429.829,936.72,429.829z"/>
			<path fill="#005467" d="M950.612,423.462c0.965,0.965,2.122,1.544,3.666,2.122c1.544,0.386,3.087,0.772,4.824,0.772
				c2.122,0,3.666-0.386,4.631-1.158c0.965-0.772,1.351-1.737,1.351-3.087c0-0.965-0.386-1.737-1.158-2.315
				c-0.772-0.579-1.544-1.158-2.701-1.737c-0.965-0.579-2.122-1.158-3.473-1.544c-1.158-0.579-2.315-1.158-3.473-1.929
				c-0.965-0.772-1.93-1.544-2.701-2.508c-0.772-0.965-1.158-2.315-1.158-3.666c0-1.351,0.193-2.508,0.772-3.666
				c0.579-0.965,1.158-1.929,2.122-2.701c0.965-0.772,2.122-1.351,3.28-1.737c1.351-0.386,2.701-0.579,4.245-0.579
				s3.087,0.193,4.245,0.386c1.351,0.386,2.508,0.772,3.28,1.351v4.824c-0.579-0.579-1.737-1.158-3.087-1.737
				c-1.351-0.579-2.894-0.772-4.438-0.772c-2.122,0-3.666,0.386-4.438,1.158c-0.965,0.772-1.351,1.737-1.351,3.087
				c0,0.772,0.386,1.544,1.158,2.122c0.772,0.579,1.544,1.158,2.701,1.544c0.965,0.579,2.122,0.965,3.473,1.544
				c1.158,0.579,2.315,1.158,3.473,1.929c0.965,0.772,1.929,1.737,2.701,2.701c0.772,0.965,1.158,2.315,1.158,3.859
				c0,2.508-0.965,4.631-2.701,6.174c-1.737,1.544-4.438,2.508-7.911,2.508c-1.93,0-3.473-0.193-5.017-0.579
				c-1.544-0.386-2.701-0.965-3.666-1.544L950.612,423.462z"/>
			<path fill="#005467" d="M1000.2,427.128c-1.158,1.158-2.701,1.929-4.438,2.508c-1.737,0.579-3.473,0.772-5.403,0.772
				c-2.315,0-4.245-0.386-6.174-1.158c-1.737-0.772-3.473-1.737-4.631-3.087c-1.351-1.351-2.315-2.894-3.087-4.824
				s-1.158-3.859-1.158-6.174c0-2.508,0.386-4.631,1.158-6.753c0.772-1.929,1.737-3.666,3.087-5.017
				c1.351-1.351,2.701-2.315,4.438-3.087c1.737-0.772,3.473-1.158,5.596-1.158c3.473,0,6.174,0.965,8.297,2.894
				c2.122,1.93,3.087,4.438,3.087,7.911c0,0.579,0,1.158,0,1.929s0,1.544-0.193,2.122h-20.645v1.158
				c0,1.544,0.193,2.894,0.772,4.245c0.579,1.351,1.158,2.315,2.122,3.28c0.965,0.965,2.122,1.737,3.473,2.122
				c1.351,0.579,2.894,0.772,4.631,0.772c1.93,0,3.859-0.386,5.403-1.158c1.544-0.772,2.894-1.544,3.859-2.701v5.403H1000.2z
				 M996.148,410.534v-0.965c0-1.737-0.579-3.28-1.737-4.438c-1.158-1.158-2.894-1.737-5.403-1.737
				c-2.315,0-4.245,0.772-5.788,2.122s-2.315,3.087-2.701,5.017H996.148z"/>
			<path fill="#005467" d="M1029.142,429.829v-21.61c0-1.544-0.386-2.701-1.351-3.28c-0.772-0.772-2.122-1.158-4.052-1.158
				c-1.544,0-3.28,0.386-5.017,0.965s-3.28,1.544-4.631,2.701v22.382h-4.438v-29.714h4.052l0.386,3.28
				c1.737-1.351,3.473-2.508,5.403-3.087c1.737-0.579,3.666-0.965,5.596-0.965c2.701,0,4.631,0.579,6.367,1.93
				c1.544,1.351,2.315,3.473,2.315,6.56v21.803h-4.631V429.829z"/>
			<path fill="#005467" d="M1044.578,382.75l4.438-1.158v20.453c1.351-0.965,2.701-1.544,4.052-1.929
				c1.351-0.386,2.894-0.579,4.438-0.579c1.929,0,3.666,0.386,5.403,0.965c1.736,0.579,3.087,1.544,4.438,2.701
				c1.158,1.158,2.315,2.701,2.894,4.631c0.772,1.93,1.158,4.052,1.158,6.367c0,2.508-0.386,4.824-1.158,6.946
				c-0.772,1.93-1.93,3.666-3.28,5.017s-3.087,2.508-5.017,3.087c-1.93,0.772-4.052,1.158-6.367,1.158
				c-1.93,0-4.052-0.193-5.788-0.579c-1.93-0.386-3.666-1.158-5.017-2.122V382.75H1044.578z M1049.209,424.812
				c0.772,0.386,1.736,0.772,2.894,0.965c1.158,0.193,2.315,0.386,3.473,0.386c1.544,0,3.087-0.193,4.438-0.579
				s2.508-1.158,3.473-2.122c0.965-0.965,1.737-2.122,2.315-3.666s0.772-3.28,0.772-5.403c0-3.473-0.965-6.174-2.701-7.911
				c-1.737-1.737-4.245-2.701-7.332-2.701c-1.351,0-2.701,0.193-4.052,0.579c-1.351,0.386-2.508,0.965-3.473,1.737v18.716H1049.209z
				"/>
			<path fill="#005467" d="M1101.691,427.128c-1.158,1.158-2.701,1.929-4.438,2.508c-1.736,0.579-3.473,0.772-5.402,0.772
				c-2.315,0-4.245-0.386-6.174-1.158c-1.737-0.772-3.473-1.737-4.631-3.087c-1.351-1.351-2.315-2.894-3.087-4.824
				c-0.772-1.929-1.158-3.859-1.158-6.174c0-2.508,0.386-4.631,1.158-6.753c0.772-1.929,1.737-3.666,3.087-5.017
				c1.351-1.351,2.701-2.315,4.438-3.087s3.473-1.158,5.595-1.158c3.473,0,6.174,0.965,8.297,2.894
				c2.122,1.93,3.087,4.438,3.087,7.911c0,0.579,0,1.158,0,1.929s0,1.544-0.193,2.122h-20.645v1.158
				c0,1.544,0.193,2.894,0.772,4.245c0.579,1.351,1.158,2.315,2.122,3.28c0.965,0.965,2.122,1.737,3.473,2.122
				c1.351,0.579,2.894,0.772,4.631,0.772c1.93,0,3.859-0.386,5.403-1.158s2.894-1.544,3.859-2.701v5.403H1101.691z
				 M1097.832,410.534v-0.965c0-1.737-0.579-3.28-1.736-4.438c-1.158-1.158-2.894-1.737-5.403-1.737
				c-2.315,0-4.245,0.772-5.788,2.122s-2.315,3.087-2.701,5.017H1097.832z"/>
			<path fill="#005467" d="M1126.774,404.553c-0.772-0.386-1.737-0.579-2.894-0.579c-1.158,0-2.508,0.386-4.052,0.965
				c-1.351,0.579-2.894,1.544-4.245,2.894v21.996h-4.438v-29.714h4.052l0.386,3.473c1.544-1.544,2.894-2.701,4.245-3.28
				s2.701-0.965,3.859-0.965s2.122,0.386,3.087,0.965V404.553z"/>
			<path fill="#005467" d="M1143.946,399.536c1.351,0,2.701,0.193,3.859,0.579s2.122,0.772,3.087,1.351l2.508-5.21h4.052
				c0,0.193,0,0.386,0.193,0.579c0,0.193,0,0.579,0,0.579c0,2.508-1.736,4.438-5.21,5.403c0.965,0.965,1.737,2.122,2.122,3.28
				c0.386,1.351,0.579,2.701,0.579,4.052c0,1.544-0.386,3.087-0.965,4.438c-0.579,1.351-1.351,2.508-2.315,3.473
				c-0.965,0.965-2.122,1.737-3.473,2.315c-1.351,0.579-2.894,0.772-4.438,0.772c-0.386,0-0.579,0-0.965,0
				c-0.386,0-0.579,0-0.965-0.193l-3.473,2.894c-0.386,0.386-0.772,0.579-0.965,0.965c-0.193,0.193-0.193,0.579-0.193,0.772
				c0,0.386,0.193,0.772,0.579,1.158c0.386,0.193,1.158,0.386,2.122,0.386h11.191c2.508,0,4.438,0.579,5.788,1.737
				c1.351,1.158,1.929,2.894,1.929,5.403c0,1.544-0.386,3.087-1.158,4.631c-0.772,1.544-1.929,2.701-3.473,3.859
				c-1.544,1.158-3.28,1.929-5.21,2.701c-2.122,0.579-4.245,0.965-6.56,0.965c-4.245,0-7.332-0.579-9.454-1.93
				c-2.122-1.351-3.28-3.087-3.28-5.017c0-0.772,0.193-1.544,0.386-2.122c0.193-0.772,0.579-1.351,1.158-2.122
				c0.579-0.772,1.351-1.351,2.122-2.122c0.965-0.772,2.122-1.544,3.28-2.315c-1.351-0.386-2.508-0.772-3.087-1.544
				s-0.965-1.544-0.965-2.508c0-0.772,0.193-1.544,0.579-2.315l5.017-4.052c-1.93-0.965-3.473-2.122-4.438-3.859
				c-0.965-1.544-1.544-3.666-1.544-5.981c0-1.544,0.193-3.087,0.772-4.438c0.579-1.351,1.351-2.508,2.315-3.473
				c0.965-0.965,2.122-1.737,3.473-2.315C1140.859,399.729,1142.403,399.536,1143.946,399.536z M1140.473,431.372
				c-1.158,0.772-2.122,1.544-2.894,2.315c-0.772,0.772-1.351,1.351-1.736,1.737c-0.386,0.579-0.772,0.965-0.965,1.544
				c-0.193,0.386-0.193,0.965-0.193,1.351c0,1.158,0.579,2.122,1.929,2.894c1.351,0.772,3.473,1.158,6.753,1.158
				c1.737,0,3.473-0.193,4.824-0.579s2.701-0.965,3.666-1.544c0.965-0.772,1.736-1.544,2.315-2.315
				c0.579-0.772,0.772-1.737,0.772-2.701c0-2.315-1.351-3.666-4.052-3.666h-10.419V431.372z M1144.139,417.673
				c1.929,0,3.473-0.579,4.824-1.929c1.351-1.351,1.93-3.087,1.93-5.403s-0.579-4.245-1.93-5.403
				c-1.351-1.158-3.087-1.737-5.017-1.737s-3.473,0.579-4.824,1.929c-1.351,1.351-1.929,3.087-1.929,5.403
				c0,2.315,0.579,4.052,1.929,5.403C1140.473,417.094,1142.21,417.673,1144.139,417.673z"/>
			<path fill="#005467" d="M1186.781,427.128c-1.158,1.158-2.701,1.929-4.438,2.508c-1.736,0.579-3.473,0.772-5.402,0.772
				c-2.315,0-4.245-0.386-6.174-1.158c-1.737-0.772-3.473-1.737-4.631-3.087c-1.351-1.351-2.315-2.894-3.087-4.824
				c-0.772-1.929-1.158-3.859-1.158-6.174c0-2.508,0.386-4.631,1.158-6.753c0.772-1.929,1.737-3.666,3.087-5.017
				c1.351-1.351,2.701-2.315,4.438-3.087s3.473-1.158,5.595-1.158c3.473,0,6.174,0.965,8.297,2.894
				c2.122,1.93,3.087,4.438,3.087,7.911c0,0.579,0,1.158,0,1.929s0,1.544-0.193,2.122h-20.646v1.158
				c0,1.544,0.193,2.894,0.772,4.245c0.579,1.351,1.158,2.315,2.122,3.28c0.965,0.965,2.122,1.737,3.473,2.122
				c1.351,0.579,2.894,0.772,4.631,0.772c1.93,0,3.859-0.386,5.403-1.158s2.894-1.544,3.859-2.701v5.403H1186.781z
				 M1182.922,410.534v-0.965c0-1.737-0.579-3.28-1.736-4.438c-1.158-1.158-2.894-1.737-5.403-1.737
				c-2.315,0-4.245,0.772-5.788,2.122s-2.315,3.087-2.701,5.017H1182.922z"/>
			<path fill="#005467" d="M1211.864,404.553c-0.772-0.386-1.737-0.579-2.894-0.579c-1.158,0-2.508,0.386-4.052,0.965
				c-1.351,0.579-2.894,1.544-4.245,2.894v21.996h-4.438v-29.714h4.052l0.386,3.473c1.543-1.544,2.894-2.701,4.245-3.28
				c1.351-0.579,2.701-0.965,3.859-0.965s2.122,0.386,3.087,0.965V404.553L1211.864,404.553z"/>
		</g>
		<path fill="#40403F" d="M873.24,466.296c0,1.351-0.193,2.508-0.772,3.473c-0.386,0.965-1.158,1.929-1.93,2.701
			s-1.737,1.158-2.894,1.544c-1.158,0.386-2.315,0.579-3.473,0.579h-4.631v13.12h-0.965v-29.328h5.981
			c1.544,0,2.894,0.193,3.859,0.772s1.929,0.965,2.701,1.737c0.772,0.772,1.158,1.544,1.544,2.508
			C873.047,464.367,873.24,465.331,873.24,466.296z M859.541,473.628h4.438c2.508,0,4.438-0.579,5.788-1.929
			s2.122-3.087,2.122-5.403c0-2.122-0.772-3.859-2.122-5.017s-3.28-1.929-5.788-1.929h-4.631v14.278H859.541z"/>
		<path fill="#40403F" d="M894.272,487.713v-15.436c0-1.351-0.386-2.508-1.158-3.087c-0.772-0.579-1.93-1.158-3.473-1.158
			c-1.351,0-2.701,0.193-4.052,0.772c-1.351,0.579-2.701,1.351-4.052,2.701v16.208h-0.965v-32.801l0.965-0.386v15.822
			c1.351-1.158,2.508-2.122,3.859-2.701c1.351-0.579,2.701-0.772,4.245-0.772c3.666,0,5.595,1.737,5.595,5.017v15.629h-0.965
			V487.713z"/>
		<path fill="#40403F" d="M921.67,477.487c0,1.544-0.193,2.894-0.772,4.245s-1.158,2.315-2.122,3.28s-1.93,1.544-3.087,2.122
			c-1.158,0.579-2.508,0.772-3.859,0.772c-1.351,0-2.701-0.193-3.859-0.772c-1.158-0.579-2.315-1.158-3.087-2.122
			c-0.965-0.965-1.544-1.929-2.122-3.28c-0.579-1.351-0.772-2.701-0.772-4.245c0-1.544,0.193-2.894,0.772-4.245
			c0.579-1.351,1.158-2.315,2.122-3.28c0.965-0.965,1.93-1.544,3.087-2.122c1.158-0.579,2.508-0.772,3.859-0.772
			c1.351,0,2.701,0.193,3.859,0.772c1.158,0.579,2.315,1.158,3.087,2.122c0.965,0.965,1.544,1.929,2.122,3.28
			C921.284,474.593,921.67,475.943,921.67,477.487z M911.637,486.941c1.158,0,2.315-0.193,3.473-0.579
			c1.158-0.386,1.93-1.158,2.894-1.93c0.965-0.772,1.351-1.737,1.93-2.894c0.386-1.158,0.772-2.508,0.772-3.859
			c0-1.544-0.193-2.894-0.772-4.052c-0.386-1.158-1.158-2.122-1.93-2.894c-0.772-0.772-1.737-1.351-2.701-1.737
			c-0.965-0.386-2.122-0.579-3.28-0.579c-1.158,0-2.315,0.193-3.473,0.579c-1.158,0.386-1.929,1.158-2.894,1.929
			c-0.772,0.772-1.351,1.737-1.93,2.894c-0.386,1.158-0.772,2.508-0.772,3.859c0,1.544,0.193,2.894,0.772,4.052
			c0.386,1.158,1.158,2.122,1.93,2.894c0.772,0.772,1.737,1.351,2.701,1.737C909.322,486.748,910.479,486.941,911.637,486.941z"/>
		<path fill="#40403F" d="M936.72,486.556c-0.965,0.965-2.122,1.544-3.859,1.544c-1.351,0-2.315-0.386-3.087-0.965
			c-0.772-0.579-1.158-1.737-1.158-3.28v-15.436h-3.859v-1.158h3.859v-5.017l0.965-0.386v5.403h5.788v0.965h-5.788v15.243
			c0,1.351,0.386,2.122,0.965,2.701s1.351,0.772,2.508,0.772c0.772,0,1.544-0.193,2.122-0.386c0.579-0.386,1.158-0.772,1.544-1.158
			L936.72,486.556L936.72,486.556z"/>
		<path fill="#40403F" d="M960.067,477.487c0,1.544-0.193,2.894-0.772,4.245c-0.579,1.351-1.158,2.315-2.122,3.28
			s-1.93,1.544-3.087,2.122c-1.158,0.579-2.508,0.772-3.859,0.772c-1.351,0-2.701-0.193-3.859-0.772
			c-1.158-0.579-2.315-1.158-3.087-2.122c-0.965-0.965-1.544-1.929-2.122-3.28s-0.772-2.701-0.772-4.245
			c0-1.544,0.193-2.894,0.772-4.245s1.158-2.315,2.122-3.28s1.929-1.544,3.087-2.122c1.158-0.579,2.508-0.772,3.859-0.772
			c1.351,0,2.701,0.193,3.859,0.772c1.158,0.579,2.315,1.158,3.087,2.122c0.965,0.965,1.544,1.929,2.122,3.28
			C959.874,474.593,960.067,475.943,960.067,477.487z M950.227,486.941c1.158,0,2.315-0.193,3.473-0.579s1.93-1.158,2.894-1.93
			c0.965-0.772,1.351-1.737,1.93-2.894c0.386-1.158,0.772-2.508,0.772-3.859c0-1.544-0.193-2.894-0.772-4.052
			c-0.386-1.158-1.158-2.122-1.93-2.894c-0.772-0.772-1.737-1.351-2.701-1.737c-0.965-0.386-2.122-0.579-3.28-0.579
			c-1.158,0-2.315,0.193-3.473,0.579c-1.158,0.386-1.93,1.158-2.894,1.929c-0.772,0.772-1.351,1.737-1.93,2.894
			c-0.386,1.158-0.772,2.508-0.772,3.859c0,1.544,0.193,2.894,0.772,4.052c0.386,1.158,1.158,2.122,1.93,2.894
			c0.772,0.772,1.737,1.351,2.701,1.737C947.911,486.748,949.069,486.941,950.227,486.941z"/>
		<path fill="#40403F" d="M972.03,467.068c0.772,0,1.544,0,2.315,0.193c0.772,0.193,1.351,0.386,1.93,0.772l2.122-3.473h0.772v0.193
			c0,0.386-0.193,0.965-0.386,1.351c-0.386,0.579-0.965,1.351-1.93,2.315c0.772,0.579,1.351,1.351,1.737,2.315
			c0.386,0.965,0.579,2.122,0.579,3.28c0,0.965-0.193,1.93-0.579,2.894c-0.386,0.772-0.772,1.544-1.351,2.315
			c-0.579,0.772-1.351,1.158-2.122,1.544s-1.737,0.579-2.701,0.579c-0.772,0-1.544-0.193-2.315-0.386l-3.28,3.28
			c-0.193,0.193-0.386,0.386-0.386,0.579c0,0.193,0,0.386,0,0.579c0,0.386,0.193,0.772,0.579,0.965
			c0.386,0.386,1.158,0.386,1.93,0.386h8.297c1.737,0,2.894,0.386,3.666,1.158s1.158,1.929,1.158,3.28
			c0,0.965-0.193,1.929-0.772,2.894c-0.579,0.965-1.158,1.737-2.122,2.508s-1.93,1.351-3.28,1.737
			c-1.351,0.386-2.701,0.772-4.245,0.772s-2.894-0.193-4.052-0.386c-1.158-0.386-1.929-0.579-2.701-1.158
			c-0.772-0.386-1.158-0.965-1.544-1.544c-0.386-0.579-0.386-1.158-0.386-1.737c0-0.579,0-0.965,0.193-1.544
			c0.193-0.386,0.386-0.965,0.965-1.544c0.579-0.579,0.965-0.965,1.544-1.737c0.579-0.579,1.544-1.351,2.508-2.122
			c-0.965,0-1.737-0.386-2.315-0.772s-0.772-0.965-0.772-1.544c0-0.386,0.193-0.965,0.386-1.351l3.473-3.473
			c-1.158-0.579-2.122-1.351-2.894-2.508s-0.965-2.508-0.965-3.859c0-0.965,0.193-1.929,0.579-2.894
			c0.386-0.965,0.772-1.544,1.351-2.315c0.579-0.579,1.351-1.158,2.122-1.544C969.907,466.682,971.065,467.068,972.03,467.068z
			 M969.135,487.713c-1.158,0.965-2.122,1.737-2.894,2.508c-0.772,0.579-1.351,1.158-1.544,1.737
			c-0.386,0.579-0.579,0.965-0.772,1.351s-0.193,0.772-0.193,1.158c0,0.965,0.579,1.93,1.929,2.701
			c1.351,0.772,3.28,1.158,5.788,1.158c1.351,0,2.508-0.193,3.666-0.579c1.158-0.386,2.122-0.772,3.087-1.544
			s1.544-1.351,1.93-2.122c0.386-0.772,0.772-1.737,0.772-2.701c0-1.158-0.386-1.929-0.965-2.508
			c-0.579-0.579-1.737-0.965-3.087-0.965h-7.718V487.713z M972.223,480.381c0.772,0,1.544-0.193,2.122-0.386
			c0.772-0.193,1.351-0.579,1.93-1.158c0.579-0.579,0.965-1.158,1.351-1.929c0.386-0.772,0.386-1.544,0.386-2.701
			s-0.193-1.93-0.386-2.701c-0.386-0.772-0.772-1.351-1.351-1.929c-0.579-0.579-1.158-0.965-1.93-1.158
			c-0.772-0.193-1.544-0.386-2.315-0.386c-0.772,0-1.544,0.193-2.315,0.386c-0.772,0.193-1.351,0.579-1.929,1.158
			c-0.579,0.579-0.965,1.158-1.158,1.929c-0.386,0.772-0.386,1.737-0.386,2.701c0,1.929,0.579,3.473,1.737,4.438
			C968.943,479.802,970.486,480.381,972.223,480.381z"/>
		<path fill="#40403F" d="M995.569,468.611c-0.579-0.386-1.158-0.386-1.93-0.386s-1.544,0.193-2.508,0.772
			c-0.965,0.579-1.93,1.544-3.087,3.087v15.629h-0.965v-20.452h0.965v3.473c1.158-1.351,2.315-2.315,3.087-2.894
			c0.965-0.579,1.737-0.772,2.508-0.772s1.351,0.193,1.93,0.386V468.611z"/>
		<path fill="#40403F" d="M1011.198,486.17c-1.737,1.351-3.666,1.929-5.981,1.929c-3.28,0-5.017-1.544-5.017-4.438
			c0-0.772,0.193-1.544,0.579-2.315c0.386-0.579,0.965-1.351,1.737-1.737c0.772-0.579,1.929-0.965,3.28-1.544
			c1.351-0.386,3.087-0.965,5.21-1.351v-4.824c0-0.386,0-0.772-0.193-1.351c-0.193-0.386-0.386-0.772-0.579-1.158
			c-0.772-0.965-2.315-1.544-4.438-1.544c-0.965,0-1.93,0.193-2.894,0.579c-0.965,0.386-1.737,0.772-2.315,1.351v-1.158
			c0.579-0.579,1.351-0.965,2.315-1.158c0.965-0.386,1.929-0.386,3.087-0.386c1.93,0,3.473,0.386,4.631,1.351
			c0.965,0.772,1.544,2.122,1.544,3.666v3.666c0,0.965,0,1.929,0,3.087s0,2.122,0,3.087v3.859c0.579,0.579,1.158,0.965,1.544,1.158
			c0.386,0.193,0.965,0.193,1.544,0.193c0.193,0,0.386,0,0.579,0v0.965c-0.193,0-0.386,0-0.772,0c-0.579,0-1.158-0.193-1.93-0.386
			S1011.777,486.748,1011.198,486.17z M1011.005,477.68c-1.929,0.386-3.666,0.772-4.824,1.158c-1.351,0.386-2.315,0.772-2.894,1.351
			c-0.772,0.386-1.158,0.965-1.544,1.544c-0.193,0.579-0.386,1.158-0.386,1.929c0,2.315,1.351,3.28,3.859,3.28
			c1.158,0,2.122-0.193,3.087-0.386c0.965-0.386,1.93-0.772,2.701-1.351V477.68z"/>
		<path fill="#40403F" d="M1038.404,476.908c0,1.737-0.193,3.473-0.772,4.824s-1.158,2.508-1.929,3.473
			c-0.772,0.965-1.737,1.737-2.894,2.122s-2.315,0.772-3.666,0.772c-2.894,0-5.21-0.579-6.753-1.929v12.735h-0.965v-30.1
			c1.158-0.579,2.315-0.965,3.666-1.158c1.351-0.386,2.508-0.386,3.859-0.386c1.351,0,2.508,0.193,3.666,0.579
			c1.158,0.386,2.122,0.965,3.087,1.737s1.544,1.737,2.122,3.087C1038.404,474.014,1038.404,475.172,1038.404,476.908z
			 M1022.389,484.819c1.737,1.351,4.052,2.122,6.753,2.122c1.158,0,2.122-0.193,3.28-0.579c0.965-0.386,1.929-0.965,2.508-1.929
			c0.772-0.772,1.351-1.929,1.737-3.087c0.386-1.351,0.579-2.701,0.579-4.438c0-1.544-0.193-2.701-0.579-3.859
			c-0.386-1.158-0.965-1.93-1.737-2.701s-1.737-1.351-2.701-1.737s-2.122-0.579-3.473-0.579s-2.315,0.193-3.473,0.386
			c-0.965,0.193-2.122,0.579-2.894,0.965V484.819z"/>
		<path fill="#40403F" d="M1058.856,487.713v-15.436c0-1.351-0.386-2.508-1.158-3.087c-0.772-0.579-1.929-1.158-3.473-1.158
			c-1.351,0-2.701,0.193-4.052,0.772c-1.351,0.579-2.701,1.351-4.052,2.701v16.208h-0.965v-32.801l0.965-0.386v15.822
			c1.351-1.158,2.508-2.122,3.859-2.701c1.351-0.579,2.701-0.772,4.245-0.772c3.666,0,5.595,1.737,5.595,5.017v15.629h-0.965
			V487.713z"/>
	</g>
</g>
</svg>
