<?xml version="1.0" encoding="utf-8"?>
<!-- Generator: Adobe Illustrator 18.0.0, SVG Export Plug-In . SVG Version: 6.00 Build 0)  -->
<!DOCTYPE svg PUBLIC "-//W3C//DTD SVG 1.1//EN" "http://www.w3.org/Graphics/SVG/1.1/DTD/svg11.dtd">
<svg version="1.1" id="Layer_1" xmlns="http://www.w3.org/2000/svg" xmlns:xlink="http://www.w3.org/1999/xlink" x="0px" y="0px"
	 viewBox="0 0 277.5 70.2" enable-background="new 0 0 277.5 70.2" xml:space="preserve">
<g>
	<g>
		<path fill="#005467" d="M23.9,27.6v-9.9H12.4v9.9H9.7V5.5h2.6v9.7h11.5V5.5h2.6v22.1H23.9z"/>
		<path fill="#005467" d="M39.9,26.6c-0.7,0.5-1.4,0.8-2.2,1c-0.7,0.2-1.5,0.3-2.2,0.3c-1.2,0-2.2-0.3-2.9-0.9
			c-0.8-0.6-1.2-1.5-1.2-2.7c0-1.5,0.6-2.7,1.9-3.5c1.3-0.9,3.3-1.5,6.2-2v-2.6c0-0.3-0.1-0.6-0.2-0.8c-0.1-0.2-0.2-0.4-0.4-0.6
			c-0.6-0.5-1.5-0.7-2.6-0.7c-0.9,0-1.7,0.2-2.5,0.5c-0.8,0.3-1.4,0.7-1.9,1.2v-2.3c0.5-0.5,1.2-0.9,2-1.2c0.8-0.3,1.7-0.4,2.6-0.4
			c1.7,0,3,0.4,3.9,1.1s1.4,1.9,1.4,3.4c0,0.1,0,0.4,0,0.8c0,0.4,0,0.9,0,1.6c0,0.6,0,1.3,0,2c0,0.7,0,1.4,0,2c0,0.6,0,1.2,0,1.6
			c0,0.5,0,0.8,0,0.9c0.3,0.2,0.5,0.4,0.8,0.5c0.3,0.1,0.6,0.1,0.9,0.1c0.2,0,0.3,0,0.4,0l-0.2,2c-0.2,0.1-0.5,0.1-0.7,0.1
			c-0.5,0-1.1-0.1-1.6-0.3C40.8,27.4,40.3,27.1,39.9,26.6z M39.6,20.6c-1.1,0.2-2,0.4-2.7,0.6c-0.7,0.2-1.3,0.4-1.7,0.7
			c-0.4,0.3-0.8,0.6-0.9,0.9c-0.2,0.3-0.3,0.7-0.3,1.1c0,0.7,0.2,1.2,0.6,1.5c0.4,0.3,1.1,0.5,2,0.5c0.6,0,1.1-0.1,1.7-0.2
			c0.6-0.2,1-0.4,1.4-0.7V20.6z"/>
		<path fill="#005467" d="M55.8,14.5c-0.4-0.2-0.9-0.3-1.5-0.3c-0.6,0-1.3,0.2-2.1,0.5c-0.7,0.3-1.5,0.8-2.2,1.5v11.4h-2.3V12.2h2.1
			L50,14c0.8-0.8,1.5-1.4,2.2-1.7c0.7-0.3,1.4-0.5,2-0.5c0.6,0,1.1,0.2,1.6,0.5V14.5z"/>
		<path fill="#005467" d="M66.9,26.6c-0.7,0.5-1.4,0.8-2.2,1c-0.7,0.2-1.5,0.3-2.2,0.3c-1.2,0-2.2-0.3-2.9-0.9
			c-0.8-0.6-1.2-1.5-1.2-2.7c0-1.5,0.6-2.7,1.9-3.5c1.3-0.9,3.3-1.5,6.2-2v-2.6c0-0.3-0.1-0.6-0.2-0.8c-0.1-0.2-0.2-0.4-0.4-0.6
			c-0.6-0.5-1.5-0.7-2.6-0.7c-0.9,0-1.7,0.2-2.5,0.5c-0.8,0.3-1.4,0.7-1.9,1.2v-2.3c0.5-0.5,1.2-0.9,2-1.2c0.8-0.3,1.7-0.4,2.6-0.4
			c1.7,0,3,0.4,3.9,1.1s1.4,1.9,1.4,3.4c0,0.1,0,0.4,0,0.8c0,0.4,0,0.9,0,1.6c0,0.6,0,1.3,0,2c0,0.7,0,1.4,0,2c0,0.6,0,1.2,0,1.6
			c0,0.5,0,0.8,0,0.9c0.3,0.2,0.5,0.4,0.8,0.5c0.3,0.1,0.6,0.1,0.9,0.1c0.2,0,0.3,0,0.4,0l-0.2,2c-0.2,0.1-0.5,0.1-0.7,0.1
			c-0.5,0-1.1-0.1-1.6-0.3C67.8,27.4,67.4,27.1,66.9,26.6z M66.6,20.6c-1.1,0.2-2,0.4-2.7,0.6c-0.7,0.2-1.3,0.4-1.7,0.7
			c-0.4,0.3-0.8,0.6-0.9,0.9c-0.2,0.3-0.3,0.7-0.3,1.1c0,0.7,0.2,1.2,0.6,1.5c0.4,0.3,1.1,0.5,2,0.5c0.6,0,1.1-0.1,1.7-0.2
			c0.6-0.2,1-0.4,1.4-0.7V20.6z"/>
		<path fill="#005467" d="M74.7,27.6V3.2L77,2.6v25H74.7z"/>
		<path fill="#005467" d="M95.1,26.4c-0.8,0.5-1.8,0.8-2.8,1.1c-1,0.3-2.1,0.4-3.3,0.4c-2.4,0-4.3-0.7-5.6-2
			c-1.4-1.3-2.1-3.2-2.1-5.7c0-1.3,0.2-2.4,0.6-3.4s0.9-1.9,1.6-2.6c0.7-0.7,1.5-1.3,2.5-1.7c1-0.4,2-0.6,3.1-0.6
			c0.7,0,1.4,0.1,2,0.2c0.6,0.2,1.2,0.4,1.6,0.6V3.2l2.3-0.6V26.4z M92.8,14.9c-0.3-0.2-0.9-0.4-1.5-0.6c-0.7-0.2-1.3-0.3-2-0.3
			c-0.8,0-1.5,0.1-2.2,0.4c-0.7,0.2-1.3,0.6-1.8,1.1c-0.5,0.5-0.9,1.1-1.2,1.9c-0.3,0.8-0.4,1.7-0.4,2.7c0,1.8,0.5,3.1,1.4,4.1
			c1,0.9,2.3,1.4,4.1,1.4c0.7,0,1.4-0.1,2-0.2c0.6-0.1,1.1-0.3,1.5-0.5V14.9z"/>
		<path fill="#005467" d="M109.4,27.6V5.5h13v2.4H112v7.3h9.3v2.4H112v7.5h10.7v2.4H109.4z"/>
		<path fill="#005467" d="M130.2,6.5c0,0.5-0.2,0.9-0.5,1.2c-0.3,0.3-0.7,0.5-1.2,0.5c-0.5,0-0.9-0.2-1.2-0.5
			c-0.3-0.3-0.4-0.7-0.4-1.2c0-0.5,0.1-0.9,0.5-1.2c0.3-0.3,0.7-0.5,1.2-0.5c0.5,0,0.9,0.2,1.2,0.5C130.1,5.6,130.2,6,130.2,6.5z
			 M127.4,27.6V12.2h2.3v15.4H127.4z"/>
		<path fill="#005467" d="M134.6,24.3c0.5,0.5,1.1,0.8,1.9,1.1c0.8,0.2,1.6,0.4,2.5,0.4c1.1,0,1.9-0.2,2.4-0.6
			c0.5-0.4,0.7-0.9,0.7-1.6c0-0.5-0.2-0.9-0.6-1.2c-0.4-0.3-0.8-0.6-1.4-0.9c-0.5-0.3-1.1-0.6-1.8-0.8c-0.6-0.3-1.2-0.6-1.8-1
			c-0.5-0.4-1-0.8-1.4-1.3c-0.4-0.5-0.6-1.2-0.6-1.9c0-0.7,0.1-1.3,0.4-1.9c0.3-0.5,0.6-1,1.1-1.4s1.1-0.7,1.7-0.9
			c0.7-0.2,1.4-0.3,2.2-0.3c0.8,0,1.6,0.1,2.2,0.2c0.7,0.2,1.3,0.4,1.7,0.7v2.5c-0.3-0.3-0.9-0.6-1.6-0.9c-0.7-0.3-1.5-0.4-2.3-0.4
			c-1.1,0-1.9,0.2-2.3,0.6c-0.5,0.4-0.7,0.9-0.7,1.6c0,0.4,0.2,0.8,0.6,1.1c0.4,0.3,0.8,0.6,1.4,0.8c0.5,0.3,1.1,0.5,1.8,0.8
			c0.6,0.3,1.2,0.6,1.8,1c0.5,0.4,1,0.9,1.4,1.4c0.4,0.5,0.6,1.2,0.6,2c0,1.3-0.5,2.4-1.4,3.2c-0.9,0.8-2.3,1.3-4.1,1.3
			c-1,0-1.8-0.1-2.6-0.3c-0.8-0.2-1.4-0.5-1.9-0.8L134.6,24.3z"/>
		<path fill="#005467" d="M160.3,26.2c-0.6,0.6-1.4,1-2.3,1.3c-0.9,0.3-1.8,0.4-2.8,0.4c-1.2,0-2.2-0.2-3.2-0.6
			c-0.9-0.4-1.8-0.9-2.4-1.6c-0.7-0.7-1.2-1.5-1.6-2.5c-0.4-1-0.6-2-0.6-3.2c0-1.3,0.2-2.4,0.6-3.5c0.4-1,0.9-1.9,1.6-2.6
			c0.7-0.7,1.4-1.2,2.3-1.6s1.8-0.6,2.9-0.6c1.8,0,3.2,0.5,4.3,1.5c1.1,1,1.6,2.3,1.6,4.1c0,0.3,0,0.6,0,1c0,0.4,0,0.8-0.1,1.1
			h-10.7v0.6c0,0.8,0.1,1.5,0.4,2.2c0.3,0.7,0.6,1.2,1.1,1.7c0.5,0.5,1.1,0.9,1.8,1.1c0.7,0.3,1.5,0.4,2.4,0.4c1,0,2-0.2,2.8-0.6
			c0.8-0.4,1.5-0.8,2-1.4V26.2z M158.2,17.6v-0.5c0-0.9-0.3-1.7-0.9-2.3c-0.6-0.6-1.5-0.9-2.8-0.9c-1.2,0-2.2,0.4-3,1.1
			s-1.2,1.6-1.4,2.6H158.2z"/>
		<path fill="#005467" d="M175.3,27.6V16.4c0-0.8-0.2-1.4-0.7-1.7c-0.4-0.4-1.1-0.6-2.1-0.6c-0.8,0-1.7,0.2-2.6,0.5
			s-1.7,0.8-2.4,1.4v11.6h-2.3V12.2h2.1l0.2,1.7c0.9-0.7,1.8-1.3,2.8-1.6c0.9-0.3,1.9-0.5,2.9-0.5c1.4,0,2.4,0.3,3.3,1
			c0.8,0.7,1.2,1.8,1.2,3.4v11.3H175.3z"/>
		<path fill="#005467" d="M183.3,3.2l2.3-0.6v10.6c0.7-0.5,1.4-0.8,2.1-1c0.7-0.2,1.5-0.3,2.3-0.3c1,0,1.9,0.2,2.8,0.5
			s1.6,0.8,2.3,1.4c0.6,0.6,1.2,1.4,1.5,2.4c0.4,1,0.6,2.1,0.6,3.3c0,1.3-0.2,2.5-0.6,3.6c-0.4,1-1,1.9-1.7,2.6
			c-0.7,0.7-1.6,1.3-2.6,1.6c-1,0.4-2.1,0.6-3.3,0.6c-1,0-2.1-0.1-3-0.3c-1-0.2-1.9-0.6-2.6-1.1V3.2z M185.7,25
			c0.4,0.2,0.9,0.4,1.5,0.5c0.6,0.1,1.2,0.2,1.8,0.2c0.8,0,1.6-0.1,2.3-0.3c0.7-0.2,1.3-0.6,1.8-1.1c0.5-0.5,0.9-1.1,1.2-1.9
			c0.3-0.8,0.4-1.7,0.4-2.8c0-1.8-0.5-3.2-1.4-4.1s-2.2-1.4-3.8-1.4c-0.7,0-1.4,0.1-2.1,0.3c-0.7,0.2-1.3,0.5-1.8,0.9V25z"/>
		<path fill="#005467" d="M212.9,26.2c-0.6,0.6-1.4,1-2.3,1.3c-0.9,0.3-1.8,0.4-2.8,0.4c-1.2,0-2.2-0.2-3.2-0.6
			c-0.9-0.4-1.8-0.9-2.4-1.6c-0.7-0.7-1.2-1.5-1.6-2.5c-0.4-1-0.6-2-0.6-3.2c0-1.3,0.2-2.4,0.6-3.5c0.4-1,0.9-1.9,1.6-2.6
			c0.7-0.7,1.4-1.2,2.3-1.6s1.8-0.6,2.9-0.6c1.8,0,3.2,0.5,4.3,1.5c1.1,1,1.6,2.3,1.6,4.1c0,0.3,0,0.6,0,1c0,0.4,0,0.8-0.1,1.1
			h-10.7v0.6c0,0.8,0.1,1.5,0.4,2.2c0.3,0.7,0.6,1.2,1.1,1.7c0.5,0.5,1.1,0.9,1.8,1.1c0.7,0.3,1.5,0.4,2.4,0.4c1,0,2-0.2,2.8-0.6
			c0.8-0.4,1.5-0.8,2-1.4V26.2z M210.9,17.6v-0.5c0-0.9-0.3-1.7-0.9-2.3c-0.6-0.6-1.5-0.9-2.8-0.9c-1.2,0-2.2,0.4-3,1.1
			s-1.2,1.6-1.4,2.6H210.9z"/>
		<path fill="#005467" d="M225.9,14.5c-0.4-0.2-0.9-0.3-1.5-0.3c-0.6,0-1.3,0.2-2.1,0.5c-0.7,0.3-1.5,0.8-2.2,1.5v11.4h-2.3V12.2
			h2.1l0.2,1.8c0.8-0.8,1.5-1.4,2.2-1.7s1.4-0.5,2-0.5c0.6,0,1.1,0.2,1.6,0.5V14.5z"/>
		<path fill="#005467" d="M234.8,11.9c0.7,0,1.4,0.1,2,0.3c0.6,0.2,1.1,0.4,1.6,0.7l1.3-2.7h2.1c0,0.1,0,0.2,0.1,0.3
			c0,0.1,0,0.3,0,0.3c0,1.3-0.9,2.3-2.7,2.8c0.5,0.5,0.9,1.1,1.1,1.7c0.2,0.7,0.3,1.4,0.3,2.1c0,0.8-0.2,1.6-0.5,2.3
			c-0.3,0.7-0.7,1.3-1.2,1.8s-1.1,0.9-1.8,1.2s-1.5,0.4-2.3,0.4c-0.2,0-0.3,0-0.5,0s-0.3,0-0.5-0.1l-1.8,1.5
			c-0.2,0.2-0.4,0.3-0.5,0.5c-0.1,0.1-0.1,0.3-0.1,0.4c0,0.2,0.1,0.4,0.3,0.6c0.2,0.1,0.6,0.2,1.1,0.2h5.8c1.3,0,2.3,0.3,3,0.9
			s1,1.5,1,2.8c0,0.8-0.2,1.6-0.6,2.4c-0.4,0.8-1,1.4-1.8,2c-0.8,0.6-1.7,1-2.7,1.4c-1.1,0.3-2.2,0.5-3.4,0.5c-2.2,0-3.8-0.3-4.9-1
			c-1.1-0.7-1.7-1.6-1.7-2.6c0-0.4,0.1-0.8,0.2-1.1c0.1-0.4,0.3-0.7,0.6-1.1c0.3-0.4,0.7-0.7,1.1-1.1c0.5-0.4,1.1-0.8,1.7-1.2
			c-0.7-0.2-1.3-0.4-1.6-0.8c-0.3-0.4-0.5-0.8-0.5-1.3c0-0.4,0.1-0.8,0.3-1.2l2.6-2.1c-1-0.5-1.8-1.1-2.3-2
			c-0.5-0.8-0.8-1.9-0.8-3.1c0-0.8,0.1-1.6,0.4-2.3c0.3-0.7,0.7-1.3,1.2-1.8c0.5-0.5,1.1-0.9,1.8-1.2C233.2,12,234,11.9,234.8,11.9z
			 M233,28.4c-0.6,0.4-1.1,0.8-1.5,1.2s-0.7,0.7-0.9,0.9c-0.2,0.3-0.4,0.5-0.5,0.8c-0.1,0.2-0.1,0.5-0.1,0.7c0,0.6,0.3,1.1,1,1.5
			c0.7,0.4,1.8,0.6,3.5,0.6c0.9,0,1.8-0.1,2.5-0.3c0.7-0.2,1.4-0.5,1.9-0.8c0.5-0.4,0.9-0.8,1.2-1.2s0.4-0.9,0.4-1.4
			c0-1.2-0.7-1.9-2.1-1.9H233z M234.9,21.3c1,0,1.8-0.3,2.5-1s1-1.6,1-2.8c0-1.2-0.3-2.2-1-2.8c-0.7-0.6-1.6-0.9-2.6-0.9
			c-1,0-1.8,0.3-2.5,1c-0.7,0.7-1,1.6-1,2.8c0,1.2,0.3,2.1,1,2.8C233,21,233.9,21.3,234.9,21.3z"/>
		<path fill="#005467" d="M257,26.2c-0.6,0.6-1.4,1-2.3,1.3c-0.9,0.3-1.8,0.4-2.8,0.4c-1.2,0-2.2-0.2-3.2-0.6
			c-0.9-0.4-1.8-0.9-2.4-1.6c-0.7-0.7-1.2-1.5-1.6-2.5c-0.4-1-0.6-2-0.6-3.2c0-1.3,0.2-2.4,0.6-3.5c0.4-1,0.9-1.9,1.6-2.6
			c0.7-0.7,1.4-1.2,2.3-1.6s1.8-0.6,2.9-0.6c1.8,0,3.2,0.5,4.3,1.5c1.1,1,1.6,2.3,1.6,4.1c0,0.3,0,0.6,0,1c0,0.4,0,0.8-0.1,1.1
			h-10.7v0.6c0,0.8,0.1,1.5,0.4,2.2c0.3,0.7,0.6,1.2,1.1,1.7c0.5,0.5,1.1,0.9,1.8,1.1c0.7,0.3,1.5,0.4,2.4,0.4c1,0,2-0.2,2.8-0.6
			c0.8-0.4,1.5-0.8,2-1.4V26.2z M255,17.6v-0.5c0-0.9-0.3-1.7-0.9-2.3c-0.6-0.6-1.5-0.9-2.8-0.9c-1.2,0-2.2,0.4-3,1.1
			s-1.2,1.6-1.4,2.6H255z"/>
		<path fill="#005467" d="M270,14.5c-0.4-0.2-0.9-0.3-1.5-0.3c-0.6,0-1.3,0.2-2.1,0.5c-0.7,0.3-1.5,0.8-2.2,1.5v11.4h-2.3V12.2h2.1
			l0.2,1.8c0.8-0.8,1.5-1.4,2.2-1.7s1.4-0.5,2-0.5c0.6,0,1.1,0.2,1.6,0.5V14.5z"/>
	</g>
	<path fill="#40403F" d="M94.5,46.5c0,0.7-0.1,1.3-0.4,1.8c-0.2,0.5-0.6,1-1,1.4s-0.9,0.6-1.5,0.8c-0.6,0.2-1.2,0.3-1.8,0.3h-2.4
		v6.8h-0.5V42.4h3.1c0.8,0,1.5,0.1,2,0.4s1,0.5,1.4,0.9c0.4,0.4,0.6,0.8,0.8,1.3C94.4,45.5,94.5,46,94.5,46.5z M87.4,50.3h2.3
		c1.3,0,2.3-0.3,3-1c0.7-0.7,1.1-1.6,1.1-2.8c0-1.1-0.4-2-1.1-2.6c-0.7-0.6-1.7-1-3-1h-2.4V50.3z"/>
	<path fill="#40403F" d="M105.4,57.6v-8c0-0.7-0.2-1.3-0.6-1.6s-1-0.6-1.8-0.6c-0.7,0-1.4,0.1-2.1,0.4c-0.7,0.3-1.4,0.7-2.1,1.4v8.4
		h-0.5v-17l0.5-0.2v8.2c0.7-0.6,1.3-1.1,2-1.4c0.7-0.3,1.4-0.4,2.2-0.4c1.9,0,2.9,0.9,2.9,2.6v8.1H105.4z"/>
	<path fill="#40403F" d="M119.6,52.3c0,0.8-0.1,1.5-0.4,2.2c-0.3,0.7-0.6,1.2-1.1,1.7c-0.5,0.5-1,0.8-1.6,1.1s-1.3,0.4-2,0.4
		s-1.4-0.1-2-0.4c-0.6-0.3-1.2-0.6-1.6-1.1c-0.5-0.5-0.8-1-1.1-1.7c-0.3-0.7-0.4-1.4-0.4-2.2c0-0.8,0.1-1.5,0.4-2.2
		c0.3-0.7,0.6-1.2,1.1-1.7c0.5-0.5,1-0.8,1.6-1.1s1.3-0.4,2-0.4s1.4,0.1,2,0.4c0.6,0.3,1.2,0.6,1.6,1.1c0.5,0.5,0.8,1,1.1,1.7
		C119.4,50.8,119.6,51.5,119.6,52.3z M114.4,57.2c0.6,0,1.2-0.1,1.8-0.3c0.6-0.2,1-0.6,1.5-1s0.7-0.9,1-1.5c0.2-0.6,0.4-1.3,0.4-2
		c0-0.8-0.1-1.5-0.4-2.1c-0.2-0.6-0.6-1.1-1-1.5c-0.4-0.4-0.9-0.7-1.4-0.9s-1.1-0.3-1.7-0.3c-0.6,0-1.2,0.1-1.8,0.3
		c-0.6,0.2-1,0.6-1.5,1c-0.4,0.4-0.7,0.9-1,1.5c-0.2,0.6-0.4,1.3-0.4,2c0,0.8,0.1,1.5,0.4,2.1c0.2,0.6,0.6,1.1,1,1.5
		c0.4,0.4,0.9,0.7,1.4,0.9C113.2,57.1,113.8,57.2,114.4,57.2z"/>
	<path fill="#40403F" d="M127.4,57c-0.5,0.5-1.1,0.8-2,0.8c-0.7,0-1.2-0.2-1.6-0.5c-0.4-0.3-0.6-0.9-0.6-1.7v-8h-2V47h2v-2.6
		l0.5-0.2V47h3v0.5h-3v7.9c0,0.7,0.2,1.1,0.5,1.4c0.3,0.3,0.7,0.4,1.3,0.4c0.4,0,0.8-0.1,1.1-0.2c0.3-0.2,0.6-0.4,0.8-0.6V57z"/>
	<path fill="#40403F" d="M139.5,52.3c0,0.8-0.1,1.5-0.4,2.2c-0.3,0.7-0.6,1.2-1.1,1.7c-0.5,0.5-1,0.8-1.6,1.1s-1.3,0.4-2,0.4
		s-1.4-0.1-2-0.4c-0.6-0.3-1.2-0.6-1.6-1.1c-0.5-0.5-0.8-1-1.1-1.7c-0.3-0.7-0.4-1.4-0.4-2.2c0-0.8,0.1-1.5,0.4-2.2
		c0.3-0.7,0.6-1.2,1.1-1.7c0.5-0.5,1-0.8,1.6-1.1s1.3-0.4,2-0.4s1.4,0.1,2,0.4c0.6,0.3,1.2,0.6,1.6,1.1c0.5,0.5,0.8,1,1.1,1.7
		C139.4,50.8,139.5,51.5,139.5,52.3z M134.4,57.2c0.6,0,1.2-0.1,1.8-0.3c0.6-0.2,1-0.6,1.5-1s0.7-0.9,1-1.5c0.2-0.6,0.4-1.3,0.4-2
		c0-0.8-0.1-1.5-0.4-2.1c-0.2-0.6-0.6-1.1-1-1.5c-0.4-0.4-0.9-0.7-1.4-0.9s-1.1-0.3-1.7-0.3c-0.6,0-1.2,0.1-1.8,0.3
		c-0.6,0.2-1,0.6-1.5,1c-0.4,0.4-0.7,0.9-1,1.5c-0.2,0.6-0.4,1.3-0.4,2c0,0.8,0.1,1.5,0.4,2.1c0.2,0.6,0.6,1.1,1,1.5
		c0.4,0.4,0.9,0.7,1.4,0.9C133.2,57.1,133.8,57.2,134.4,57.2z"/>
	<path fill="#40403F" d="M145.7,46.9c0.4,0,0.8,0,1.2,0.1c0.4,0.1,0.7,0.2,1,0.4l1.1-1.8h0.4v0.1c0,0.2-0.1,0.5-0.2,0.7
		c-0.2,0.3-0.5,0.7-1,1.2c0.4,0.3,0.7,0.7,0.9,1.2s0.3,1.1,0.3,1.7c0,0.5-0.1,1-0.3,1.5c-0.2,0.4-0.4,0.8-0.7,1.2s-0.7,0.6-1.1,0.8
		s-0.9,0.3-1.4,0.3c-0.4,0-0.8-0.1-1.2-0.2l-1.7,1.7c-0.1,0.1-0.2,0.2-0.2,0.3c0,0.1,0,0.2,0,0.3c0,0.2,0.1,0.4,0.3,0.5
		c0.2,0.2,0.6,0.2,1,0.2h4.3c0.9,0,1.5,0.2,1.9,0.6s0.6,1,0.6,1.7c0,0.5-0.1,1-0.4,1.5c-0.3,0.5-0.6,0.9-1.1,1.3
		c-0.5,0.4-1,0.7-1.7,0.9c-0.7,0.2-1.4,0.4-2.2,0.4s-1.5-0.1-2.1-0.2c-0.6-0.2-1-0.3-1.4-0.6c-0.4-0.2-0.6-0.5-0.8-0.8
		c-0.2-0.3-0.2-0.6-0.2-0.9c0-0.3,0-0.5,0.1-0.8c0.1-0.2,0.2-0.5,0.5-0.8s0.5-0.5,0.8-0.9c0.3-0.3,0.8-0.7,1.3-1.1
		c-0.5,0-0.9-0.2-1.2-0.4s-0.4-0.5-0.4-0.8c0-0.2,0.1-0.5,0.2-0.7l1.8-1.8c-0.6-0.3-1.1-0.7-1.5-1.3c-0.4-0.6-0.5-1.3-0.5-2
		c0-0.5,0.1-1,0.3-1.5s0.4-0.8,0.7-1.2c0.3-0.3,0.7-0.6,1.1-0.8S145.2,46.9,145.7,46.9z M144.2,57.6c-0.6,0.5-1.1,0.9-1.5,1.3
		c-0.4,0.3-0.7,0.6-0.8,0.9c-0.2,0.3-0.3,0.5-0.4,0.7s-0.1,0.4-0.1,0.6c0,0.5,0.3,1,1,1.4c0.7,0.4,1.7,0.6,3,0.6
		c0.7,0,1.3-0.1,1.9-0.3c0.6-0.2,1.1-0.4,1.6-0.8s0.8-0.7,1-1.1s0.4-0.9,0.4-1.4c0-0.6-0.2-1-0.5-1.3s-0.9-0.5-1.6-0.5H144.2z
		 M145.8,53.8c0.4,0,0.8-0.1,1.1-0.2c0.4-0.1,0.7-0.3,1-0.6c0.3-0.3,0.5-0.6,0.7-1c0.2-0.4,0.2-0.8,0.2-1.4c0-0.6-0.1-1-0.2-1.4
		c-0.2-0.4-0.4-0.7-0.7-1c-0.3-0.3-0.6-0.5-1-0.6s-0.8-0.2-1.2-0.2c-0.4,0-0.8,0.1-1.2,0.2c-0.4,0.1-0.7,0.3-1,0.6
		c-0.3,0.3-0.5,0.6-0.6,1c-0.2,0.4-0.2,0.9-0.2,1.4c0,1,0.3,1.8,0.9,2.3C144.1,53.5,144.9,53.8,145.8,53.8z"/>
	<path fill="#40403F" d="M157.9,47.7c-0.3-0.2-0.6-0.2-1-0.2c-0.4,0-0.8,0.1-1.3,0.4c-0.5,0.3-1,0.8-1.6,1.6v8.1h-0.5V47h0.5l0,1.8
		c0.6-0.7,1.2-1.2,1.6-1.5c0.5-0.3,0.9-0.4,1.3-0.4c0.4,0,0.7,0.1,1,0.2V47.7z"/>
	<path fill="#40403F" d="M166,56.8c-0.9,0.7-1.9,1-3.1,1c-1.7,0-2.6-0.8-2.6-2.3c0-0.4,0.1-0.8,0.3-1.2c0.2-0.3,0.5-0.7,0.9-0.9
		c0.4-0.3,1-0.5,1.7-0.8c0.7-0.2,1.6-0.5,2.7-0.7v-2.5c0-0.2,0-0.4-0.1-0.7c-0.1-0.2-0.2-0.4-0.3-0.6c-0.4-0.5-1.2-0.8-2.3-0.8
		c-0.5,0-1,0.1-1.5,0.3c-0.5,0.2-0.9,0.4-1.2,0.7v-0.6c0.3-0.3,0.7-0.5,1.2-0.6c0.5-0.2,1-0.2,1.6-0.2c1,0,1.8,0.2,2.4,0.7
		c0.5,0.4,0.8,1.1,0.8,1.9v1.9c0,0.5,0,1,0,1.6c0,0.6,0,1.1,0,1.6v2c0.3,0.3,0.6,0.5,0.8,0.6c0.2,0.1,0.5,0.1,0.8,0.1
		c0.1,0,0.2,0,0.3,0l0,0.5c-0.1,0-0.2,0-0.4,0c-0.3,0-0.6-0.1-1-0.2S166.3,57.1,166,56.8z M165.9,52.4c-1,0.2-1.9,0.4-2.5,0.6
		c-0.7,0.2-1.2,0.4-1.5,0.7c-0.4,0.2-0.6,0.5-0.8,0.8c-0.1,0.3-0.2,0.6-0.2,1c0,1.2,0.7,1.7,2,1.7c0.6,0,1.1-0.1,1.6-0.2
		c0.5-0.2,1-0.4,1.4-0.7V52.4z"/>
	<path fill="#40403F" d="M180.1,52c0,0.9-0.1,1.8-0.4,2.5s-0.6,1.3-1,1.8c-0.4,0.5-0.9,0.9-1.5,1.1c-0.6,0.2-1.2,0.4-1.9,0.4
		c-1.5,0-2.7-0.3-3.5-1v6.6h-0.5V47.8c0.6-0.3,1.2-0.5,1.9-0.6c0.7-0.2,1.3-0.2,2-0.2c0.7,0,1.3,0.1,1.9,0.3
		c0.6,0.2,1.1,0.5,1.6,0.9c0.5,0.4,0.8,0.9,1.1,1.6S180.1,51.1,180.1,52z M171.8,56.1c0.9,0.7,2.1,1.1,3.5,1.1
		c0.6,0,1.1-0.1,1.7-0.3c0.5-0.2,1-0.5,1.3-1c0.4-0.4,0.7-1,0.9-1.6c0.2-0.7,0.3-1.4,0.3-2.3c0-0.8-0.1-1.4-0.3-2
		c-0.2-0.6-0.5-1-0.9-1.4s-0.9-0.7-1.4-0.9c-0.5-0.2-1.1-0.3-1.8-0.3s-1.2,0.1-1.8,0.2c-0.5,0.1-1.1,0.3-1.5,0.5V56.1z"/>
	<path fill="#40403F" d="M190.7,57.6v-8c0-0.7-0.2-1.3-0.6-1.6s-1-0.6-1.8-0.6c-0.7,0-1.4,0.1-2.1,0.4c-0.7,0.3-1.4,0.7-2.1,1.4v8.4
		h-0.5v-17l0.5-0.2v8.2c0.7-0.6,1.3-1.1,2-1.4c0.7-0.3,1.4-0.4,2.2-0.4c1.9,0,2.9,0.9,2.9,2.6v8.1H190.7z"/>
</g>
</svg>
