<?xml version="1.0" encoding="utf-8"?>
<!-- Generator: Adobe Illustrator 18.0.0, SVG Export Plug-In . SVG Version: 6.00 Build 0)  -->
<!DOCTYPE svg PUBLIC "-//W3C//DTD SVG 1.1//EN" "http://www.w3.org/Graphics/SVG/1.1/DTD/svg11.dtd">
<svg version="1.1" xmlns="http://www.w3.org/2000/svg" xmlns:xlink="http://www.w3.org/1999/xlink" x="0px" y="0px"
	 viewBox="0 0 1920 1080" enable-background="new 0 0 1920 1080" xml:space="preserve">
<g id="Layer_2" display="none">
	<image display="inline" overflow="visible" width="1920" height="1080" xlink:href="vlcsnap-2015-12-15-16h55m21s221.png" >
	</image>
</g>
<g id="Layer_1" display="none">
	<g display="inline">
		<g>
			<path fill="#005467" d="M737.019,429.829v-19.102H714.83v19.102h-5.21v-42.642h5.017v18.716h22.189v-18.716h5.017v42.642H737.019
				z"/>
			<path fill="#005467" d="M767.891,427.899c-1.351,0.965-2.701,1.544-4.245,1.929c-1.351,0.386-2.894,0.579-4.245,0.579
				c-2.315,0-4.245-0.579-5.596-1.737c-1.544-1.158-2.315-2.894-2.315-5.21c0-2.894,1.158-5.21,3.666-6.753
				c2.508-1.737,6.367-2.894,11.963-3.859v-5.017c0-0.579-0.193-1.158-0.386-1.544s-0.386-0.772-0.772-1.158
				c-1.158-0.965-2.894-1.351-5.017-1.351c-1.737,0-3.28,0.386-4.824,0.965c-1.544,0.579-2.701,1.351-3.666,2.315v-4.438
				c0.965-0.965,2.315-1.737,3.859-2.315c1.544-0.579,3.28-0.772,5.017-0.772c3.28,0,5.788,0.772,7.525,2.122
				c1.737,1.351,2.701,3.666,2.701,6.56c0,0.193,0,0.772,0,1.544c0,0.772,0,1.737,0,3.087c0,1.158,0,2.508,0,3.859
				c0,1.351,0,2.701,0,3.859s0,2.315,0,3.087c0,0.965,0,1.544,0,1.737c0.579,0.386,0.965,0.772,1.544,0.965
				c0.579,0.193,1.158,0.193,1.737,0.193c0.386,0,0.579,0,0.772,0l-0.386,3.859c-0.386,0.193-0.965,0.193-1.351,0.193
				c-0.965,0-2.122-0.193-3.087-0.579C769.627,429.443,768.662,428.864,767.891,427.899z M767.312,416.322
				c-2.122,0.386-3.859,0.772-5.21,1.158c-1.351,0.386-2.508,0.772-3.28,1.351c-0.772,0.579-1.544,1.158-1.737,1.737
				c-0.386,0.579-0.579,1.351-0.579,2.122c0,1.351,0.386,2.315,1.158,2.894c0.772,0.579,2.122,0.965,3.859,0.965
				c1.158,0,2.122-0.193,3.28-0.386c1.158-0.386,1.93-0.772,2.701-1.351v-8.49H767.312z"/>
			<path fill="#005467" d="M798.569,404.553c-0.772-0.386-1.737-0.579-2.894-0.579c-1.158,0-2.508,0.386-4.052,0.965
				c-1.351,0.579-2.894,1.544-4.245,2.894v21.996h-4.438v-29.714h4.052l0.386,3.473c1.544-1.544,2.894-2.701,4.245-3.28
				c1.351-0.579,2.701-0.965,3.859-0.965c1.158,0,2.122,0.386,3.087,0.965V404.553z"/>
			<path fill="#005467" d="M819.987,427.899c-1.351,0.965-2.701,1.544-4.245,1.929c-1.351,0.386-2.894,0.579-4.245,0.579
				c-2.315,0-4.245-0.579-5.595-1.737c-1.544-1.158-2.315-2.894-2.315-5.21c0-2.894,1.158-5.21,3.666-6.753
				c2.508-1.737,6.367-2.894,11.963-3.859v-5.017c0-0.579-0.193-1.158-0.386-1.544s-0.386-0.772-0.772-1.158
				c-1.158-0.965-2.894-1.351-5.017-1.351c-1.737,0-3.28,0.386-4.824,0.965c-1.544,0.579-2.701,1.351-3.666,2.315v-4.438
				c0.965-0.965,2.315-1.737,3.859-2.315c1.544-0.579,3.28-0.772,5.017-0.772c3.28,0,5.788,0.772,7.525,2.122
				c1.737,1.351,2.701,3.666,2.701,6.56c0,0.193,0,0.772,0,1.544c0,0.772,0,1.737,0,3.087c0,1.158,0,2.508,0,3.859
				c0,1.351,0,2.701,0,3.859s0,2.315,0,3.087c0,0.965,0,1.544,0,1.737c0.579,0.386,0.965,0.772,1.544,0.965
				c0.579,0.193,1.158,0.193,1.737,0.193c0.386,0,0.579,0,0.772,0l-0.386,3.859c-0.386,0.193-0.965,0.193-1.351,0.193
				c-0.965,0-2.122-0.193-3.087-0.579C821.723,429.443,820.951,428.864,819.987,427.899z M819.408,416.322
				c-2.122,0.386-3.859,0.772-5.21,1.158c-1.351,0.386-2.508,0.772-3.28,1.351c-0.772,0.579-1.544,1.158-1.737,1.737
				c-0.386,0.579-0.579,1.351-0.579,2.122c0,1.351,0.386,2.315,1.158,2.894c0.772,0.579,2.122,0.965,3.859,0.965
				c1.158,0,2.122-0.193,3.28-0.386c1.158-0.386,1.93-0.772,2.701-1.351v-8.49H819.408z"/>
			<path fill="#005467" d="M835.037,429.829V382.75l4.438-1.158v48.237H835.037z"/>
			<path fill="#005467" d="M874.398,427.513c-1.544,0.965-3.473,1.544-5.403,2.122c-1.93,0.579-4.052,0.772-6.367,0.772
				c-4.631,0-8.297-1.351-10.805-3.859c-2.701-2.508-4.052-6.174-4.052-10.998c0-2.508,0.386-4.631,1.158-6.56
				c0.772-1.93,1.737-3.666,3.087-5.017c1.351-1.351,2.894-2.508,4.824-3.28c1.93-0.772,3.859-1.158,5.981-1.158
				c1.351,0,2.701,0.193,3.859,0.386c1.158,0.386,2.315,0.772,3.087,1.158v-18.33l4.438-1.158v45.922H874.398z M869.96,405.324
				c-0.579-0.386-1.737-0.772-2.894-1.158c-1.351-0.386-2.508-0.579-3.859-0.579c-1.544,0-2.894,0.193-4.245,0.772
				c-1.351,0.386-2.508,1.158-3.473,2.122c-0.965,0.965-1.737,2.122-2.315,3.666c-0.579,1.544-0.772,3.28-0.772,5.21
				c0,3.473,0.965,5.981,2.701,7.911c1.93,1.737,4.438,2.701,7.911,2.701c1.351,0,2.701-0.193,3.859-0.386
				c1.158-0.193,2.122-0.579,2.894-0.965v-19.295H869.96z"/>
			<path fill="#005467" d="M901.99,429.829v-42.642h25.083v4.631h-20.067v14.085h17.944v4.631h-17.944v14.471h20.645v4.631H901.99
				V429.829z"/>
			<path fill="#005467" d="M942.123,389.117c0,0.965-0.386,1.737-0.965,2.315s-1.351,0.965-2.315,0.965
				c-0.965,0-1.737-0.386-2.315-0.965s-0.772-1.351-0.772-2.315c0-0.965,0.193-1.737,0.965-2.315
				c0.579-0.579,1.351-0.965,2.315-0.965c0.965,0,1.737,0.386,2.315,0.965C941.93,387.38,942.123,388.152,942.123,389.117z
				 M936.72,429.829v-29.714h4.438v29.714H936.72z"/>
			<path fill="#005467" d="M950.612,423.462c0.965,0.965,2.122,1.544,3.666,2.122c1.544,0.386,3.087,0.772,4.824,0.772
				c2.122,0,3.666-0.386,4.631-1.158c0.965-0.772,1.351-1.737,1.351-3.087c0-0.965-0.386-1.737-1.158-2.315
				c-0.772-0.579-1.544-1.158-2.701-1.737c-0.965-0.579-2.122-1.158-3.473-1.544c-1.158-0.579-2.315-1.158-3.473-1.929
				c-0.965-0.772-1.93-1.544-2.701-2.508c-0.772-0.965-1.158-2.315-1.158-3.666c0-1.351,0.193-2.508,0.772-3.666
				c0.579-0.965,1.158-1.929,2.122-2.701c0.965-0.772,2.122-1.351,3.28-1.737c1.351-0.386,2.701-0.579,4.245-0.579
				s3.087,0.193,4.245,0.386c1.351,0.386,2.508,0.772,3.28,1.351v4.824c-0.579-0.579-1.737-1.158-3.087-1.737
				c-1.351-0.579-2.894-0.772-4.438-0.772c-2.122,0-3.666,0.386-4.438,1.158c-0.965,0.772-1.351,1.737-1.351,3.087
				c0,0.772,0.386,1.544,1.158,2.122c0.772,0.579,1.544,1.158,2.701,1.544c0.965,0.579,2.122,0.965,3.473,1.544
				c1.158,0.579,2.315,1.158,3.473,1.929c0.965,0.772,1.929,1.737,2.701,2.701c0.772,0.965,1.158,2.315,1.158,3.859
				c0,2.508-0.965,4.631-2.701,6.174c-1.737,1.544-4.438,2.508-7.911,2.508c-1.93,0-3.473-0.193-5.017-0.579
				c-1.544-0.386-2.701-0.965-3.666-1.544L950.612,423.462z"/>
			<path fill="#005467" d="M1000.2,427.128c-1.158,1.158-2.701,1.929-4.438,2.508c-1.737,0.579-3.473,0.772-5.403,0.772
				c-2.315,0-4.245-0.386-6.174-1.158c-1.737-0.772-3.473-1.737-4.631-3.087c-1.351-1.351-2.315-2.894-3.087-4.824
				s-1.158-3.859-1.158-6.174c0-2.508,0.386-4.631,1.158-6.753c0.772-1.929,1.737-3.666,3.087-5.017
				c1.351-1.351,2.701-2.315,4.438-3.087c1.737-0.772,3.473-1.158,5.596-1.158c3.473,0,6.174,0.965,8.297,2.894
				c2.122,1.93,3.087,4.438,3.087,7.911c0,0.579,0,1.158,0,1.929s0,1.544-0.193,2.122h-20.645v1.158
				c0,1.544,0.193,2.894,0.772,4.245c0.579,1.351,1.158,2.315,2.122,3.28c0.965,0.965,2.122,1.737,3.473,2.122
				c1.351,0.579,2.894,0.772,4.631,0.772c1.93,0,3.859-0.386,5.403-1.158c1.544-0.772,2.894-1.544,3.859-2.701v5.403H1000.2z
				 M996.148,410.534v-0.965c0-1.737-0.579-3.28-1.737-4.438c-1.158-1.158-2.894-1.737-5.403-1.737
				c-2.315,0-4.245,0.772-5.788,2.122s-2.315,3.087-2.701,5.017H996.148z"/>
			<path fill="#005467" d="M1029.142,429.829v-21.61c0-1.544-0.386-2.701-1.351-3.28c-0.772-0.772-2.122-1.158-4.052-1.158
				c-1.544,0-3.28,0.386-5.017,0.965s-3.28,1.544-4.631,2.701v22.382h-4.438v-29.714h4.052l0.386,3.28
				c1.737-1.351,3.473-2.508,5.403-3.087c1.737-0.579,3.666-0.965,5.596-0.965c2.701,0,4.631,0.579,6.367,1.93
				c1.544,1.351,2.315,3.473,2.315,6.56v21.803h-4.631V429.829z"/>
			<path fill="#005467" d="M1044.578,382.75l4.438-1.158v20.453c1.351-0.965,2.701-1.544,4.052-1.929
				c1.351-0.386,2.894-0.579,4.438-0.579c1.929,0,3.666,0.386,5.403,0.965c1.736,0.579,3.087,1.544,4.438,2.701
				c1.158,1.158,2.315,2.701,2.894,4.631c0.772,1.93,1.158,4.052,1.158,6.367c0,2.508-0.386,4.824-1.158,6.946
				c-0.772,1.93-1.93,3.666-3.28,5.017s-3.087,2.508-5.017,3.087c-1.93,0.772-4.052,1.158-6.367,1.158
				c-1.93,0-4.052-0.193-5.788-0.579c-1.93-0.386-3.666-1.158-5.017-2.122V382.75H1044.578z M1049.209,424.812
				c0.772,0.386,1.736,0.772,2.894,0.965c1.158,0.193,2.315,0.386,3.473,0.386c1.544,0,3.087-0.193,4.438-0.579
				s2.508-1.158,3.473-2.122c0.965-0.965,1.737-2.122,2.315-3.666s0.772-3.28,0.772-5.403c0-3.473-0.965-6.174-2.701-7.911
				c-1.737-1.737-4.245-2.701-7.332-2.701c-1.351,0-2.701,0.193-4.052,0.579c-1.351,0.386-2.508,0.965-3.473,1.737v18.716H1049.209z
				"/>
			<path fill="#005467" d="M1101.691,427.128c-1.158,1.158-2.701,1.929-4.438,2.508c-1.736,0.579-3.473,0.772-5.402,0.772
				c-2.315,0-4.245-0.386-6.174-1.158c-1.737-0.772-3.473-1.737-4.631-3.087c-1.351-1.351-2.315-2.894-3.087-4.824
				c-0.772-1.929-1.158-3.859-1.158-6.174c0-2.508,0.386-4.631,1.158-6.753c0.772-1.929,1.737-3.666,3.087-5.017
				c1.351-1.351,2.701-2.315,4.438-3.087s3.473-1.158,5.595-1.158c3.473,0,6.174,0.965,8.297,2.894
				c2.122,1.93,3.087,4.438,3.087,7.911c0,0.579,0,1.158,0,1.929s0,1.544-0.193,2.122h-20.645v1.158
				c0,1.544,0.193,2.894,0.772,4.245c0.579,1.351,1.158,2.315,2.122,3.28c0.965,0.965,2.122,1.737,3.473,2.122
				c1.351,0.579,2.894,0.772,4.631,0.772c1.93,0,3.859-0.386,5.403-1.158s2.894-1.544,3.859-2.701v5.403H1101.691z
				 M1097.832,410.534v-0.965c0-1.737-0.579-3.28-1.736-4.438c-1.158-1.158-2.894-1.737-5.403-1.737
				c-2.315,0-4.245,0.772-5.788,2.122s-2.315,3.087-2.701,5.017H1097.832z"/>
			<path fill="#005467" d="M1126.774,404.553c-0.772-0.386-1.737-0.579-2.894-0.579c-1.158,0-2.508,0.386-4.052,0.965
				c-1.351,0.579-2.894,1.544-4.245,2.894v21.996h-4.438v-29.714h4.052l0.386,3.473c1.544-1.544,2.894-2.701,4.245-3.28
				s2.701-0.965,3.859-0.965s2.122,0.386,3.087,0.965V404.553z"/>
			<path fill="#005467" d="M1143.946,399.536c1.351,0,2.701,0.193,3.859,0.579s2.122,0.772,3.087,1.351l2.508-5.21h4.052
				c0,0.193,0,0.386,0.193,0.579c0,0.193,0,0.579,0,0.579c0,2.508-1.736,4.438-5.21,5.403c0.965,0.965,1.737,2.122,2.122,3.28
				c0.386,1.351,0.579,2.701,0.579,4.052c0,1.544-0.386,3.087-0.965,4.438c-0.579,1.351-1.351,2.508-2.315,3.473
				c-0.965,0.965-2.122,1.737-3.473,2.315c-1.351,0.579-2.894,0.772-4.438,0.772c-0.386,0-0.579,0-0.965,0
				c-0.386,0-0.579,0-0.965-0.193l-3.473,2.894c-0.386,0.386-0.772,0.579-0.965,0.965c-0.193,0.193-0.193,0.579-0.193,0.772
				c0,0.386,0.193,0.772,0.579,1.158c0.386,0.193,1.158,0.386,2.122,0.386h11.191c2.508,0,4.438,0.579,5.788,1.737
				c1.351,1.158,1.929,2.894,1.929,5.403c0,1.544-0.386,3.087-1.158,4.631c-0.772,1.544-1.929,2.701-3.473,3.859
				c-1.544,1.158-3.28,1.929-5.21,2.701c-2.122,0.579-4.245,0.965-6.56,0.965c-4.245,0-7.332-0.579-9.454-1.93
				c-2.122-1.351-3.28-3.087-3.28-5.017c0-0.772,0.193-1.544,0.386-2.122c0.193-0.772,0.579-1.351,1.158-2.122
				c0.579-0.772,1.351-1.351,2.122-2.122c0.965-0.772,2.122-1.544,3.28-2.315c-1.351-0.386-2.508-0.772-3.087-1.544
				s-0.965-1.544-0.965-2.508c0-0.772,0.193-1.544,0.579-2.315l5.017-4.052c-1.93-0.965-3.473-2.122-4.438-3.859
				c-0.965-1.544-1.544-3.666-1.544-5.981c0-1.544,0.193-3.087,0.772-4.438c0.579-1.351,1.351-2.508,2.315-3.473
				c0.965-0.965,2.122-1.737,3.473-2.315C1140.859,399.729,1142.403,399.536,1143.946,399.536z M1140.473,431.372
				c-1.158,0.772-2.122,1.544-2.894,2.315c-0.772,0.772-1.351,1.351-1.736,1.737c-0.386,0.579-0.772,0.965-0.965,1.544
				c-0.193,0.386-0.193,0.965-0.193,1.351c0,1.158,0.579,2.122,1.929,2.894c1.351,0.772,3.473,1.158,6.753,1.158
				c1.737,0,3.473-0.193,4.824-0.579s2.701-0.965,3.666-1.544c0.965-0.772,1.736-1.544,2.315-2.315
				c0.579-0.772,0.772-1.737,0.772-2.701c0-2.315-1.351-3.666-4.052-3.666h-10.419V431.372z M1144.139,417.673
				c1.929,0,3.473-0.579,4.824-1.929c1.351-1.351,1.93-3.087,1.93-5.403s-0.579-4.245-1.93-5.403
				c-1.351-1.158-3.087-1.737-5.017-1.737s-3.473,0.579-4.824,1.929c-1.351,1.351-1.929,3.087-1.929,5.403
				c0,2.315,0.579,4.052,1.929,5.403C1140.473,417.094,1142.21,417.673,1144.139,417.673z"/>
			<path fill="#005467" d="M1186.781,427.128c-1.158,1.158-2.701,1.929-4.438,2.508c-1.736,0.579-3.473,0.772-5.402,0.772
				c-2.315,0-4.245-0.386-6.174-1.158c-1.737-0.772-3.473-1.737-4.631-3.087c-1.351-1.351-2.315-2.894-3.087-4.824
				c-0.772-1.929-1.158-3.859-1.158-6.174c0-2.508,0.386-4.631,1.158-6.753c0.772-1.929,1.737-3.666,3.087-5.017
				c1.351-1.351,2.701-2.315,4.438-3.087s3.473-1.158,5.595-1.158c3.473,0,6.174,0.965,8.297,2.894
				c2.122,1.93,3.087,4.438,3.087,7.911c0,0.579,0,1.158,0,1.929s0,1.544-0.193,2.122h-20.646v1.158
				c0,1.544,0.193,2.894,0.772,4.245c0.579,1.351,1.158,2.315,2.122,3.28c0.965,0.965,2.122,1.737,3.473,2.122
				c1.351,0.579,2.894,0.772,4.631,0.772c1.93,0,3.859-0.386,5.403-1.158s2.894-1.544,3.859-2.701v5.403H1186.781z
				 M1182.922,410.534v-0.965c0-1.737-0.579-3.28-1.736-4.438c-1.158-1.158-2.894-1.737-5.403-1.737
				c-2.315,0-4.245,0.772-5.788,2.122s-2.315,3.087-2.701,5.017H1182.922z"/>
			<path fill="#005467" d="M1211.864,404.553c-0.772-0.386-1.737-0.579-2.894-0.579c-1.158,0-2.508,0.386-4.052,0.965
				c-1.351,0.579-2.894,1.544-4.245,2.894v21.996h-4.438v-29.714h4.052l0.386,3.473c1.543-1.544,2.894-2.701,4.245-3.28
				c1.351-0.579,2.701-0.965,3.859-0.965s2.122,0.386,3.087,0.965V404.553L1211.864,404.553z"/>
		</g>
		<path fill="#40403F" d="M873.24,466.296c0,1.351-0.193,2.508-0.772,3.473c-0.386,0.965-1.158,1.929-1.93,2.701
			s-1.737,1.158-2.894,1.544c-1.158,0.386-2.315,0.579-3.473,0.579h-4.631v13.12h-0.965v-29.328h5.981
			c1.544,0,2.894,0.193,3.859,0.772s1.929,0.965,2.701,1.737c0.772,0.772,1.158,1.544,1.544,2.508
			C873.047,464.367,873.24,465.331,873.24,466.296z M859.541,473.628h4.438c2.508,0,4.438-0.579,5.788-1.929
			s2.122-3.087,2.122-5.403c0-2.122-0.772-3.859-2.122-5.017s-3.28-1.929-5.788-1.929h-4.631v14.278H859.541z"/>
		<path fill="#40403F" d="M894.272,487.713v-15.436c0-1.351-0.386-2.508-1.158-3.087c-0.772-0.579-1.93-1.158-3.473-1.158
			c-1.351,0-2.701,0.193-4.052,0.772c-1.351,0.579-2.701,1.351-4.052,2.701v16.208h-0.965v-32.801l0.965-0.386v15.822
			c1.351-1.158,2.508-2.122,3.859-2.701c1.351-0.579,2.701-0.772,4.245-0.772c3.666,0,5.595,1.737,5.595,5.017v15.629h-0.965
			V487.713z"/>
		<path fill="#40403F" d="M921.67,477.487c0,1.544-0.193,2.894-0.772,4.245s-1.158,2.315-2.122,3.28s-1.93,1.544-3.087,2.122
			c-1.158,0.579-2.508,0.772-3.859,0.772c-1.351,0-2.701-0.193-3.859-0.772c-1.158-0.579-2.315-1.158-3.087-2.122
			c-0.965-0.965-1.544-1.929-2.122-3.28c-0.579-1.351-0.772-2.701-0.772-4.245c0-1.544,0.193-2.894,0.772-4.245
			c0.579-1.351,1.158-2.315,2.122-3.28c0.965-0.965,1.93-1.544,3.087-2.122c1.158-0.579,2.508-0.772,3.859-0.772
			c1.351,0,2.701,0.193,3.859,0.772c1.158,0.579,2.315,1.158,3.087,2.122c0.965,0.965,1.544,1.929,2.122,3.28
			C921.284,474.593,921.67,475.943,921.67,477.487z M911.637,486.941c1.158,0,2.315-0.193,3.473-0.579
			c1.158-0.386,1.93-1.158,2.894-1.93c0.965-0.772,1.351-1.737,1.93-2.894c0.386-1.158,0.772-2.508,0.772-3.859
			c0-1.544-0.193-2.894-0.772-4.052c-0.386-1.158-1.158-2.122-1.93-2.894c-0.772-0.772-1.737-1.351-2.701-1.737
			c-0.965-0.386-2.122-0.579-3.28-0.579c-1.158,0-2.315,0.193-3.473,0.579c-1.158,0.386-1.929,1.158-2.894,1.929
			c-0.772,0.772-1.351,1.737-1.93,2.894c-0.386,1.158-0.772,2.508-0.772,3.859c0,1.544,0.193,2.894,0.772,4.052
			c0.386,1.158,1.158,2.122,1.93,2.894c0.772,0.772,1.737,1.351,2.701,1.737C909.322,486.748,910.479,486.941,911.637,486.941z"/>
		<path fill="#40403F" d="M936.72,486.556c-0.965,0.965-2.122,1.544-3.859,1.544c-1.351,0-2.315-0.386-3.087-0.965
			c-0.772-0.579-1.158-1.737-1.158-3.28v-15.436h-3.859v-1.158h3.859v-5.017l0.965-0.386v5.403h5.788v0.965h-5.788v15.243
			c0,1.351,0.386,2.122,0.965,2.701s1.351,0.772,2.508,0.772c0.772,0,1.544-0.193,2.122-0.386c0.579-0.386,1.158-0.772,1.544-1.158
			L936.72,486.556L936.72,486.556z"/>
		<path fill="#40403F" d="M960.067,477.487c0,1.544-0.193,2.894-0.772,4.245c-0.579,1.351-1.158,2.315-2.122,3.28
			s-1.93,1.544-3.087,2.122c-1.158,0.579-2.508,0.772-3.859,0.772c-1.351,0-2.701-0.193-3.859-0.772
			c-1.158-0.579-2.315-1.158-3.087-2.122c-0.965-0.965-1.544-1.929-2.122-3.28s-0.772-2.701-0.772-4.245
			c0-1.544,0.193-2.894,0.772-4.245s1.158-2.315,2.122-3.28s1.929-1.544,3.087-2.122c1.158-0.579,2.508-0.772,3.859-0.772
			c1.351,0,2.701,0.193,3.859,0.772c1.158,0.579,2.315,1.158,3.087,2.122c0.965,0.965,1.544,1.929,2.122,3.28
			C959.874,474.593,960.067,475.943,960.067,477.487z M950.227,486.941c1.158,0,2.315-0.193,3.473-0.579s1.93-1.158,2.894-1.93
			c0.965-0.772,1.351-1.737,1.93-2.894c0.386-1.158,0.772-2.508,0.772-3.859c0-1.544-0.193-2.894-0.772-4.052
			c-0.386-1.158-1.158-2.122-1.93-2.894c-0.772-0.772-1.737-1.351-2.701-1.737c-0.965-0.386-2.122-0.579-3.28-0.579
			c-1.158,0-2.315,0.193-3.473,0.579c-1.158,0.386-1.93,1.158-2.894,1.929c-0.772,0.772-1.351,1.737-1.93,2.894
			c-0.386,1.158-0.772,2.508-0.772,3.859c0,1.544,0.193,2.894,0.772,4.052c0.386,1.158,1.158,2.122,1.93,2.894
			c0.772,0.772,1.737,1.351,2.701,1.737C947.911,486.748,949.069,486.941,950.227,486.941z"/>
		<path fill="#40403F" d="M972.03,467.068c0.772,0,1.544,0,2.315,0.193c0.772,0.193,1.351,0.386,1.93,0.772l2.122-3.473h0.772v0.193
			c0,0.386-0.193,0.965-0.386,1.351c-0.386,0.579-0.965,1.351-1.93,2.315c0.772,0.579,1.351,1.351,1.737,2.315
			c0.386,0.965,0.579,2.122,0.579,3.28c0,0.965-0.193,1.93-0.579,2.894c-0.386,0.772-0.772,1.544-1.351,2.315
			c-0.579,0.772-1.351,1.158-2.122,1.544s-1.737,0.579-2.701,0.579c-0.772,0-1.544-0.193-2.315-0.386l-3.28,3.28
			c-0.193,0.193-0.386,0.386-0.386,0.579c0,0.193,0,0.386,0,0.579c0,0.386,0.193,0.772,0.579,0.965
			c0.386,0.386,1.158,0.386,1.93,0.386h8.297c1.737,0,2.894,0.386,3.666,1.158s1.158,1.929,1.158,3.28
			c0,0.965-0.193,1.929-0.772,2.894c-0.579,0.965-1.158,1.737-2.122,2.508s-1.93,1.351-3.28,1.737
			c-1.351,0.386-2.701,0.772-4.245,0.772s-2.894-0.193-4.052-0.386c-1.158-0.386-1.929-0.579-2.701-1.158
			c-0.772-0.386-1.158-0.965-1.544-1.544c-0.386-0.579-0.386-1.158-0.386-1.737c0-0.579,0-0.965,0.193-1.544
			c0.193-0.386,0.386-0.965,0.965-1.544c0.579-0.579,0.965-0.965,1.544-1.737c0.579-0.579,1.544-1.351,2.508-2.122
			c-0.965,0-1.737-0.386-2.315-0.772s-0.772-0.965-0.772-1.544c0-0.386,0.193-0.965,0.386-1.351l3.473-3.473
			c-1.158-0.579-2.122-1.351-2.894-2.508s-0.965-2.508-0.965-3.859c0-0.965,0.193-1.929,0.579-2.894
			c0.386-0.965,0.772-1.544,1.351-2.315c0.579-0.579,1.351-1.158,2.122-1.544C969.907,466.682,971.065,467.068,972.03,467.068z
			 M969.135,487.713c-1.158,0.965-2.122,1.737-2.894,2.508c-0.772,0.579-1.351,1.158-1.544,1.737
			c-0.386,0.579-0.579,0.965-0.772,1.351s-0.193,0.772-0.193,1.158c0,0.965,0.579,1.93,1.929,2.701
			c1.351,0.772,3.28,1.158,5.788,1.158c1.351,0,2.508-0.193,3.666-0.579c1.158-0.386,2.122-0.772,3.087-1.544
			s1.544-1.351,1.93-2.122c0.386-0.772,0.772-1.737,0.772-2.701c0-1.158-0.386-1.929-0.965-2.508
			c-0.579-0.579-1.737-0.965-3.087-0.965h-7.718V487.713z M972.223,480.381c0.772,0,1.544-0.193,2.122-0.386
			c0.772-0.193,1.351-0.579,1.93-1.158c0.579-0.579,0.965-1.158,1.351-1.929c0.386-0.772,0.386-1.544,0.386-2.701
			s-0.193-1.93-0.386-2.701c-0.386-0.772-0.772-1.351-1.351-1.929c-0.579-0.579-1.158-0.965-1.93-1.158
			c-0.772-0.193-1.544-0.386-2.315-0.386c-0.772,0-1.544,0.193-2.315,0.386c-0.772,0.193-1.351,0.579-1.929,1.158
			c-0.579,0.579-0.965,1.158-1.158,1.929c-0.386,0.772-0.386,1.737-0.386,2.701c0,1.929,0.579,3.473,1.737,4.438
			C968.943,479.802,970.486,480.381,972.223,480.381z"/>
		<path fill="#40403F" d="M995.569,468.611c-0.579-0.386-1.158-0.386-1.93-0.386s-1.544,0.193-2.508,0.772
			c-0.965,0.579-1.93,1.544-3.087,3.087v15.629h-0.965v-20.452h0.965v3.473c1.158-1.351,2.315-2.315,3.087-2.894
			c0.965-0.579,1.737-0.772,2.508-0.772s1.351,0.193,1.93,0.386V468.611z"/>
		<path fill="#40403F" d="M1011.198,486.17c-1.737,1.351-3.666,1.929-5.981,1.929c-3.28,0-5.017-1.544-5.017-4.438
			c0-0.772,0.193-1.544,0.579-2.315c0.386-0.579,0.965-1.351,1.737-1.737c0.772-0.579,1.929-0.965,3.28-1.544
			c1.351-0.386,3.087-0.965,5.21-1.351v-4.824c0-0.386,0-0.772-0.193-1.351c-0.193-0.386-0.386-0.772-0.579-1.158
			c-0.772-0.965-2.315-1.544-4.438-1.544c-0.965,0-1.93,0.193-2.894,0.579c-0.965,0.386-1.737,0.772-2.315,1.351v-1.158
			c0.579-0.579,1.351-0.965,2.315-1.158c0.965-0.386,1.929-0.386,3.087-0.386c1.93,0,3.473,0.386,4.631,1.351
			c0.965,0.772,1.544,2.122,1.544,3.666v3.666c0,0.965,0,1.929,0,3.087s0,2.122,0,3.087v3.859c0.579,0.579,1.158,0.965,1.544,1.158
			c0.386,0.193,0.965,0.193,1.544,0.193c0.193,0,0.386,0,0.579,0v0.965c-0.193,0-0.386,0-0.772,0c-0.579,0-1.158-0.193-1.93-0.386
			S1011.777,486.748,1011.198,486.17z M1011.005,477.68c-1.929,0.386-3.666,0.772-4.824,1.158c-1.351,0.386-2.315,0.772-2.894,1.351
			c-0.772,0.386-1.158,0.965-1.544,1.544c-0.193,0.579-0.386,1.158-0.386,1.929c0,2.315,1.351,3.28,3.859,3.28
			c1.158,0,2.122-0.193,3.087-0.386c0.965-0.386,1.93-0.772,2.701-1.351V477.68z"/>
		<path fill="#40403F" d="M1038.404,476.908c0,1.737-0.193,3.473-0.772,4.824s-1.158,2.508-1.929,3.473
			c-0.772,0.965-1.737,1.737-2.894,2.122s-2.315,0.772-3.666,0.772c-2.894,0-5.21-0.579-6.753-1.929v12.735h-0.965v-30.1
			c1.158-0.579,2.315-0.965,3.666-1.158c1.351-0.386,2.508-0.386,3.859-0.386c1.351,0,2.508,0.193,3.666,0.579
			c1.158,0.386,2.122,0.965,3.087,1.737s1.544,1.737,2.122,3.087C1038.404,474.014,1038.404,475.172,1038.404,476.908z
			 M1022.389,484.819c1.737,1.351,4.052,2.122,6.753,2.122c1.158,0,2.122-0.193,3.28-0.579c0.965-0.386,1.929-0.965,2.508-1.929
			c0.772-0.772,1.351-1.929,1.737-3.087c0.386-1.351,0.579-2.701,0.579-4.438c0-1.544-0.193-2.701-0.579-3.859
			c-0.386-1.158-0.965-1.93-1.737-2.701s-1.737-1.351-2.701-1.737s-2.122-0.579-3.473-0.579s-2.315,0.193-3.473,0.386
			c-0.965,0.193-2.122,0.579-2.894,0.965V484.819z"/>
		<path fill="#40403F" d="M1058.856,487.713v-15.436c0-1.351-0.386-2.508-1.158-3.087c-0.772-0.579-1.929-1.158-3.473-1.158
			c-1.351,0-2.701,0.193-4.052,0.772c-1.351,0.579-2.701,1.351-4.052,2.701v16.208h-0.965v-32.801l0.965-0.386v15.822
			c1.351-1.158,2.508-2.122,3.859-2.701c1.351-0.579,2.701-0.772,4.245-0.772c3.666,0,5.595,1.737,5.595,5.017v15.629h-0.965
			V487.713z"/>
	</g>
</g>
<g id="Layer_3">
	<g>
		<path fill="#40403F" d="M862.257,490.619c0,1.286-0.231,2.45-0.689,3.492c-0.459,1.042-1.095,1.914-1.906,2.618
			c-0.812,0.705-1.762,1.248-2.848,1.63c-1.088,0.383-2.26,0.575-3.515,0.575h-4.686v13.093h-1.056v-29.264h5.972
			c1.5,0,2.802,0.229,3.904,0.689c1.104,0.46,2.014,1.056,2.734,1.792c0.719,0.735,1.248,1.57,1.585,2.504
			C862.089,488.681,862.257,489.638,862.257,490.619z M848.612,497.923h4.457c2.481,0,4.44-0.644,5.881-1.93
			c1.438-1.285,2.16-3.077,2.16-5.374c0-2.113-0.683-3.783-2.045-5.007c-1.364-1.226-3.3-1.838-5.812-1.838h-4.639V497.923z"/>
		<path fill="#40403F" d="M883.344,512.027V496.59c0-1.377-0.361-2.426-1.08-3.146c-0.719-0.719-1.875-1.08-3.469-1.08
			c-1.347,0-2.702,0.26-4.065,0.781c-1.363,0.521-2.734,1.424-4.113,2.71v16.171h-1.011v-32.801l1.011-0.323V494.8
			c1.288-1.226,2.604-2.106,3.951-2.642c1.347-0.535,2.757-0.804,4.226-0.804c3.705,0,5.559,1.684,5.559,5.054v15.619H883.344z"/>
		<path fill="#40403F" d="M910.724,501.781c0,1.562-0.253,2.986-0.757,4.273c-0.506,1.286-1.203,2.389-2.09,3.308
			c-0.889,0.92-1.938,1.632-3.148,2.137c-1.21,0.505-2.519,0.757-3.929,0.757c-1.408,0-2.709-0.245-3.904-0.735
			c-1.195-0.49-2.229-1.194-3.101-2.113c-0.873-0.919-1.555-2.021-2.045-3.308c-0.49-1.286-0.736-2.726-0.736-4.319
			c0-1.53,0.253-2.94,0.76-4.226c0.504-1.286,1.202-2.389,2.089-3.308s1.936-1.63,3.148-2.136c1.209-0.505,2.518-0.759,3.928-0.759
			c1.408,0,2.71,0.246,3.905,0.735c1.195,0.491,2.228,1.195,3.101,2.114c0.873,0.919,1.554,2.021,2.044,3.308
			C910.478,498.796,910.724,500.22,910.724,501.781z M900.8,511.245c1.226,0,2.375-0.222,3.446-0.665
			c1.071-0.444,2.006-1.073,2.802-1.884c0.797-0.811,1.425-1.799,1.884-2.964c0.459-1.163,0.689-2.481,0.689-3.951
			c0-1.561-0.238-2.931-0.712-4.111c-0.475-1.178-1.111-2.158-1.906-2.94c-0.797-0.781-1.716-1.37-2.757-1.769
			c-1.042-0.398-2.144-0.597-3.308-0.597c-1.226,0-2.373,0.222-3.445,0.667c-1.073,0.444-2.007,1.073-2.802,1.884
			c-0.798,0.811-1.425,1.799-1.885,2.962c-0.459,1.165-0.688,2.467-0.688,3.905c0,1.562,0.237,2.941,0.712,4.135
			c0.474,1.195,1.11,2.182,1.906,2.962c0.796,0.781,1.715,1.371,2.757,1.769C898.534,511.047,899.637,511.245,900.8,511.245z"/>
		<path fill="#40403F" d="M925.793,510.787c-0.919,0.979-2.175,1.469-3.766,1.469c-1.288,0-2.344-0.306-3.17-0.919
			c-0.828-0.612-1.241-1.7-1.241-3.262v-15.527h-3.905v-0.965h3.905v-5.053l1.011-0.368v5.421h5.835v0.965h-5.835v15.298
			c0,1.286,0.29,2.175,0.873,2.665c0.581,0.49,1.424,0.735,2.528,0.735c0.796,0,1.53-0.16,2.205-0.483
			c0.672-0.321,1.195-0.726,1.561-1.217V510.787z"/>
		<path fill="#40403F" d="M949.222,501.781c0,1.562-0.252,2.986-0.759,4.273c-0.504,1.286-1.202,2.389-2.09,3.308
			c-0.889,0.92-1.937,1.632-3.146,2.137c-1.21,0.505-2.52,0.757-3.928,0.757c-1.409,0-2.711-0.245-3.906-0.735
			c-1.195-0.49-2.227-1.194-3.101-2.113c-0.872-0.919-1.554-2.021-2.044-3.308c-0.491-1.286-0.735-2.726-0.735-4.319
			c0-1.53,0.252-2.94,0.757-4.226c0.506-1.286,1.202-2.389,2.09-3.308c0.889-0.919,1.938-1.63,3.146-2.136
			c1.211-0.505,2.52-0.759,3.929-0.759s2.71,0.246,3.905,0.735c1.195,0.491,2.229,1.195,3.101,2.114
			c0.873,0.919,1.554,2.021,2.045,3.308C948.977,498.796,949.222,500.22,949.222,501.781z M939.299,511.245
			c1.224,0,2.372-0.222,3.445-0.665c1.073-0.444,2.006-1.073,2.802-1.884c0.796-0.811,1.424-1.799,1.884-2.964
			c0.46-1.163,0.689-2.481,0.689-3.951c0-1.561-0.238-2.931-0.712-4.111c-0.475-1.178-1.111-2.158-1.906-2.94
			c-0.798-0.781-1.715-1.37-2.757-1.769c-1.042-0.398-2.144-0.597-3.308-0.597c-1.226,0-2.373,0.222-3.446,0.667
			c-1.071,0.444-2.006,1.073-2.802,1.884c-0.796,0.811-1.424,1.799-1.883,2.962c-0.46,1.165-0.69,2.467-0.69,3.905
			c0,1.562,0.238,2.941,0.713,4.135c0.474,1.195,1.11,2.182,1.906,2.962c0.797,0.781,1.714,1.371,2.756,1.769
			C937.032,511.047,938.134,511.245,939.299,511.245z"/>
		<path fill="#40403F" d="M961.075,491.353c0.796,0,1.546,0.092,2.25,0.276c0.705,0.184,1.316,0.444,1.837,0.781l2.16-3.446h0.781
			v0.184c0,0.429-0.153,0.904-0.459,1.424c-0.308,0.521-0.92,1.286-1.837,2.297c0.764,0.613,1.345,1.41,1.744,2.389
			c0.399,0.981,0.597,2.068,0.597,3.262c0,1.011-0.167,1.945-0.504,2.802c-0.339,0.858-0.812,1.601-1.426,2.228
			c-0.612,0.628-1.338,1.118-2.181,1.47s-1.754,0.528-2.733,0.528c-0.858,0-1.625-0.106-2.297-0.321l-3.262,3.262
			c-0.215,0.214-0.352,0.406-0.413,0.573c-0.062,0.17-0.092,0.361-0.092,0.575c0,0.399,0.199,0.743,0.597,1.033
			c0.398,0.291,1.071,0.437,2.022,0.437h8.314c1.684,0,2.91,0.375,3.677,1.125c0.764,0.75,1.147,1.844,1.147,3.285
			c0,0.979-0.251,1.953-0.757,2.917c-0.504,0.965-1.209,1.822-2.112,2.573c-0.905,0.75-2,1.355-3.285,1.814
			c-1.288,0.46-2.711,0.689-4.274,0.689c-1.561,0-2.893-0.146-3.997-0.436c-1.101-0.292-1.997-0.667-2.688-1.126
			c-0.688-0.459-1.194-0.981-1.515-1.561c-0.323-0.583-0.483-1.165-0.483-1.746c0-0.49,0.084-0.972,0.252-1.447
			c0.168-0.475,0.46-0.965,0.873-1.47c0.413-0.505,0.957-1.057,1.63-1.654c0.674-0.597,1.531-1.278,2.573-2.044
			c-0.981-0.092-1.724-0.368-2.228-0.827c-0.506-0.46-0.759-0.981-0.759-1.562c0-0.429,0.137-0.873,0.413-1.332l3.446-3.4
			c-1.194-0.521-2.137-1.333-2.826-2.436c-0.688-1.103-1.033-2.419-1.033-3.95c0-1.042,0.168-1.998,0.505-2.872
			c0.337-0.873,0.804-1.63,1.401-2.274c0.597-0.643,1.316-1.141,2.159-1.493C959.137,491.53,960.064,491.353,961.075,491.353z
			 M958.318,512.072c-1.226,0.981-2.198,1.799-2.917,2.458c-0.72,0.658-1.264,1.233-1.632,1.722c-0.368,0.49-0.604,0.92-0.712,1.286
			c-0.107,0.368-0.16,0.736-0.16,1.103c0,1.042,0.627,1.945,1.883,2.71c1.257,0.766,3.186,1.149,5.789,1.149
			c1.316,0,2.55-0.184,3.698-0.552c1.149-0.367,2.153-0.865,3.01-1.493c0.858-0.627,1.522-1.363,1.997-2.205
			c0.475-0.842,0.712-1.754,0.712-2.733c0-1.073-0.313-1.915-0.941-2.526c-0.628-0.614-1.646-0.92-3.056-0.92H958.318z
			 M961.304,504.584c0.764,0,1.493-0.129,2.181-0.389c0.69-0.26,1.302-0.644,1.84-1.149c0.535-0.505,0.963-1.141,1.285-1.906
			c0.323-0.766,0.483-1.638,0.483-2.618c0-1.071-0.153-1.998-0.459-2.78c-0.308-0.781-0.736-1.424-1.288-1.929
			c-0.552-0.505-1.194-0.88-1.929-1.126c-0.735-0.245-1.516-0.367-2.342-0.367c-0.798,0-1.548,0.137-2.252,0.413
			c-0.705,0.276-1.318,0.674-1.838,1.195s-0.934,1.163-1.24,1.929c-0.306,0.766-0.459,1.654-0.459,2.665
			c0,1.929,0.566,3.422,1.699,4.479C958.118,504.056,959.558,504.584,961.304,504.584z"/>
		<path fill="#40403F" d="M984.688,492.961c-0.521-0.306-1.149-0.459-1.885-0.459c-0.764,0-1.615,0.268-2.549,0.804
			c-0.934,0.535-1.983,1.539-3.146,3.009v15.711h-1.011v-20.444h0.965l0.045,3.4c1.223-1.439,2.274-2.403,3.146-2.894
			c0.872-0.489,1.722-0.735,2.549-0.735c0.798,0,1.424,0.154,1.885,0.46V492.961z"/>
		<path fill="#40403F" d="M1000.214,510.372c-1.715,1.257-3.691,1.884-5.927,1.884c-3.337,0-5.007-1.454-5.007-4.364
			c0-0.858,0.184-1.616,0.552-2.274s0.972-1.264,1.816-1.814c0.841-0.552,1.952-1.049,3.33-1.493
			c1.378-0.444,3.091-0.88,5.146-1.309v-4.778c0-0.429-0.069-0.85-0.208-1.264s-0.33-0.773-0.573-1.08
			c-0.829-1.011-2.298-1.516-4.41-1.516c-1.013,0-1.992,0.177-2.941,0.528c-0.951,0.352-1.715,0.804-2.298,1.356v-1.195
			c0.552-0.521,1.309-0.934,2.274-1.24c0.965-0.306,1.983-0.46,3.056-0.46c1.99,0,3.507,0.429,4.549,1.286
			c1.039,0.858,1.562,2.068,1.562,3.629v3.584c0,0.95-0.01,1.969-0.024,3.056c-0.017,1.087-0.024,2.12-0.024,3.101v3.766
			c0.552,0.614,1.065,1.012,1.541,1.195c0.473,0.184,0.97,0.276,1.493,0.276c0.244,0,0.459-0.03,0.643-0.092l-0.093,1.011
			c-0.244,0.061-0.475,0.092-0.688,0.092c-0.614,0-1.226-0.13-1.837-0.391C1001.53,511.606,1000.888,511.108,1000.214,510.372z
			 M1000.123,502.012c-1.992,0.429-3.615,0.842-4.871,1.24c-1.257,0.399-2.243,0.827-2.962,1.286
			c-0.721,0.46-1.218,0.965-1.493,1.516c-0.277,0.552-0.413,1.165-0.413,1.838c0,2.236,1.316,3.353,3.951,3.353
			c1.07,0,2.126-0.153,3.168-0.459c1.042-0.306,1.914-0.75,2.621-1.333V502.012z"/>
		<path fill="#40403F" d="M1027.501,501.139c0,1.807-0.229,3.4-0.688,4.778c-0.459,1.378-1.097,2.542-1.906,3.492
			c-0.812,0.95-1.777,1.662-2.895,2.136c-1.118,0.475-2.351,0.712-3.698,0.712c-2.879,0-5.144-0.643-6.799-1.929v12.725h-1.011
			v-30.044c1.104-0.521,2.298-0.927,3.584-1.218c1.288-0.29,2.556-0.436,3.813-0.436c1.288,0,2.511,0.191,3.677,0.575
			c1.163,0.383,2.181,0.972,3.053,1.768c0.874,0.798,1.57,1.808,2.09,3.033C1027.241,497.954,1027.501,499.423,1027.501,501.139z
			 M1011.514,509.178c1.746,1.378,4.014,2.068,6.799,2.068c1.132,0,2.198-0.198,3.194-0.597c0.994-0.398,1.852-1.011,2.573-1.837
			c0.719-0.827,1.285-1.875,1.699-3.148c0.413-1.27,0.621-2.78,0.621-4.525c0-1.47-0.208-2.749-0.621-3.836
			c-0.413-1.087-0.996-1.998-1.746-2.734c-0.75-0.735-1.646-1.286-2.685-1.653c-1.042-0.368-2.191-0.552-3.447-0.552
			c-1.257,0-2.411,0.115-3.469,0.345c-1.056,0.229-2.028,0.543-2.917,0.941V509.178z"/>
		<path fill="#40403F" d="M1047.901,512.027V496.59c0-1.377-0.361-2.426-1.08-3.146c-0.721-0.719-1.878-1.08-3.469-1.08
			c-1.35,0-2.704,0.26-4.066,0.781c-1.364,0.521-2.733,1.424-4.112,2.71v16.171h-1.01v-32.801l1.01-0.323V494.8
			c1.285-1.226,2.602-2.106,3.951-2.642c1.347-0.535,2.755-0.804,4.226-0.804c3.705,0,5.559,1.684,5.559,5.054v15.619H1047.901z"/>
		<path fill="#40403F" d="M1064.853,512.027c-1.319,3.093-2.42,5.559-3.309,7.396c-0.889,1.837-1.653,3.2-2.298,4.089l-1.01-0.413
			c0.674-0.858,1.472-2.221,2.389-4.089c0.92-1.868,2.007-4.196,3.263-6.983l-8.959-20.352l1.01-0.184l6.661,15.115l1.746,4.226
			l1.701-4.226l6.293-15.023h1.104L1064.853,512.027z"/>
	</g>
	<g>
		<path fill="#005667" d="M736.934,453.681v-19.111h-22.252v19.111h-5.078v-42.566h5.078v18.711h22.252v-18.711h5.078v42.566
			H736.934z"/>
		<path fill="#005667" d="M767.873,451.742c-1.382,0.936-2.784,1.593-4.209,1.972c-1.426,0.378-2.83,0.568-4.211,0.568
			c-2.272,0-4.154-0.591-5.646-1.771c-1.493-1.18-2.238-2.929-2.238-5.246c0-2.85,1.236-5.122,3.709-6.816
			c2.473-1.693,6.448-2.962,11.927-3.809v-4.945c0-0.668-0.099-1.213-0.3-1.637c-0.201-0.423-0.479-0.79-0.836-1.103
			c-1.113-0.891-2.806-1.337-5.078-1.337c-1.694,0-3.308,0.312-4.845,0.936c-1.537,0.624-2.729,1.381-3.575,2.272v-4.477
			c0.979-0.979,2.283-1.726,3.91-2.238c1.626-0.512,3.329-0.769,5.111-0.769c3.251,0,5.747,0.735,7.485,2.205
			c1.737,1.47,2.606,3.675,2.606,6.616c0,0.178-0.012,0.68-0.033,1.503c-0.024,0.825-0.033,1.827-0.033,3.007
			c0,1.181-0.024,2.439-0.067,3.775c-0.045,1.337-0.067,2.606-0.067,3.809c0,1.203-0.012,2.25-0.033,3.141
			c-0.023,0.892-0.033,1.448-0.033,1.671c0.49,0.446,1.013,0.747,1.57,0.902c0.557,0.157,1.125,0.234,1.705,0.234
			c0.356,0,0.601-0.022,0.735-0.067l-0.467,3.942c-0.401,0.134-0.87,0.201-1.404,0.201c-1.025,0-2.028-0.19-3.007-0.568
			C769.566,453.336,768.675,452.678,767.873,451.742z M767.204,440.249c-2.094,0.357-3.842,0.735-5.245,1.136
			c-1.404,0.401-2.529,0.858-3.375,1.37c-0.847,0.512-1.448,1.08-1.804,1.704c-0.357,0.624-0.535,1.337-0.535,2.138
			c0,1.293,0.389,2.25,1.169,2.873c0.779,0.625,2.061,0.936,3.843,0.936c1.112,0,2.215-0.156,3.308-0.468
			c1.091-0.311,1.971-0.735,2.639-1.27V440.249z"/>
		<path fill="#005667" d="M798.543,428.488c-0.757-0.401-1.737-0.601-2.94-0.601c-1.248,0-2.585,0.29-4.01,0.868
			c-1.426,0.58-2.83,1.56-4.209,2.94v21.985h-4.477v-29.736h4.009l0.468,3.542c1.47-1.559,2.862-2.64,4.176-3.241
			c1.314-0.601,2.617-0.902,3.91-0.902c1.157,0,2.182,0.29,3.073,0.868V428.488z"/>
		<path fill="#005667" d="M819.993,451.742c-1.381,0.936-2.784,1.593-4.209,1.972c-1.426,0.378-2.83,0.568-4.209,0.568
			c-2.272,0-4.154-0.591-5.646-1.771c-1.493-1.18-2.239-2.929-2.239-5.246c0-2.85,1.236-5.122,3.708-6.816
			c2.473-1.693,6.449-2.962,11.928-3.809v-4.945c0-0.668-0.1-1.213-0.301-1.637c-0.201-0.423-0.479-0.79-0.835-1.103
			c-1.115-0.891-2.807-1.337-5.079-1.337c-1.693,0-3.308,0.312-4.844,0.936c-1.537,0.624-2.729,1.381-3.575,2.272v-4.477
			c0.979-0.979,2.283-1.726,3.908-2.238c1.626-0.512,3.33-0.769,5.112-0.769c3.251,0,5.747,0.735,7.484,2.205
			c1.738,1.47,2.606,3.675,2.606,6.616c0,0.178-0.012,0.68-0.033,1.503c-0.023,0.825-0.033,1.827-0.033,3.007
			c0,1.181-0.023,2.439-0.067,3.775c-0.044,1.337-0.067,2.606-0.067,3.809c0,1.203-0.011,2.25-0.033,3.141
			c-0.023,0.892-0.033,1.448-0.033,1.671c0.49,0.446,1.013,0.747,1.571,0.902c0.557,0.157,1.124,0.234,1.703,0.234
			c0.357,0,0.602-0.022,0.736-0.067l-0.468,3.942c-0.4,0.134-0.868,0.201-1.404,0.201c-1.025,0-2.027-0.19-3.007-0.568
			C821.686,453.336,820.796,452.678,819.993,451.742z M819.325,440.249c-2.094,0.357-3.843,0.735-5.245,1.136
			c-1.404,0.401-2.529,0.858-3.374,1.37c-0.847,0.512-1.449,1.08-1.805,1.704c-0.357,0.624-0.534,1.337-0.534,2.138
			c0,1.293,0.389,2.25,1.169,2.873c0.779,0.625,2.059,0.936,3.842,0.936c1.113,0,2.216-0.156,3.308-0.468
			c1.092-0.311,1.972-0.735,2.64-1.27V440.249z"/>
		<path fill="#005667" d="M835.027,453.681v-47.11l4.477-1.136v48.246H835.027z"/>
		<path fill="#005667" d="M874.318,451.342c-1.603,0.892-3.397,1.604-5.379,2.138c-1.983,0.535-4.109,0.802-6.381,0.802
			c-4.589,0-8.219-1.292-10.893-3.876c-2.673-2.583-4.009-6.259-4.009-11.026c0-2.449,0.377-4.654,1.136-6.616
			c0.756-1.96,1.814-3.641,3.174-5.045c1.358-1.403,2.962-2.483,4.811-3.241c1.848-0.757,3.842-1.136,5.98-1.136
			c1.426,0,2.74,0.156,3.943,0.468c1.203,0.312,2.249,0.713,3.14,1.203V406.57l4.477-1.136V451.342z M869.841,429.291
			c-0.668-0.445-1.659-0.836-2.973-1.169c-1.315-0.334-2.573-0.502-3.776-0.502c-1.515,0-2.93,0.234-4.243,0.702
			c-1.315,0.468-2.451,1.181-3.408,2.139c-0.959,0.958-1.705,2.172-2.238,3.641c-0.535,1.47-0.802,3.231-0.802,5.279
			c0,3.431,0.923,6.059,2.772,7.885c1.848,1.828,4.466,2.74,7.852,2.74c1.381,0,2.673-0.133,3.876-0.401
			c1.203-0.267,2.182-0.578,2.94-0.935V429.291z"/>
		<path fill="#005667" d="M901.916,453.681v-42.566h25.058v4.678h-19.98v14.033h17.975v4.677h-17.975v14.501h20.715v4.678H901.916z"
			/>
		<path fill="#005667" d="M942.076,413.052c0,0.935-0.29,1.715-0.87,2.339c-0.579,0.624-1.381,0.935-2.406,0.935
			c-1.025,0-1.816-0.323-2.372-0.969c-0.557-0.646-0.835-1.414-0.835-2.305c0-0.979,0.289-1.782,0.868-2.406
			c0.579-0.624,1.381-0.935,2.406-0.935c1.025,0,1.814,0.312,2.372,0.935C941.797,411.271,942.076,412.073,942.076,413.052z
			 M936.596,453.681v-29.736h4.477v29.736H936.596z"/>
		<path fill="#005667" d="M950.561,447.332c0.891,0.892,2.082,1.57,3.575,2.038c1.492,0.468,3.084,0.701,4.778,0.701
			c2.138,0,3.653-0.378,4.544-1.136c0.891-0.757,1.337-1.804,1.337-3.14c0-0.936-0.357-1.726-1.069-2.372
			c-0.713-0.645-1.594-1.236-2.64-1.771s-2.182-1.069-3.408-1.604s-2.362-1.158-3.408-1.871c-1.046-0.712-1.927-1.559-2.639-2.54
			c-0.713-0.979-1.07-2.227-1.07-3.742c0-1.337,0.257-2.528,0.769-3.575c0.511-1.046,1.236-1.938,2.172-2.673
			c0.935-0.735,2.038-1.303,3.308-1.704s2.661-0.601,4.176-0.601c1.559,0,2.996,0.156,4.311,0.468
			c1.313,0.312,2.415,0.78,3.308,1.404v4.811c-0.625-0.623-1.648-1.191-3.075-1.704c-1.426-0.511-2.896-0.768-4.41-0.768
			c-2.094,0-3.586,0.357-4.477,1.069c-0.891,0.713-1.337,1.737-1.337,3.073c0,0.847,0.356,1.56,1.069,2.139
			c0.713,0.579,1.592,1.125,2.64,1.637c1.046,0.512,2.182,1.036,3.408,1.57c1.224,0.535,2.36,1.181,3.408,1.938
			c1.046,0.758,1.927,1.66,2.64,2.706c0.712,1.047,1.069,2.35,1.069,3.909c0,2.54-0.914,4.622-2.74,6.248
			c-1.826,1.627-4.454,2.439-7.885,2.439c-1.871,0-3.552-0.212-5.044-0.635c-1.493-0.423-2.685-0.969-3.575-1.637L950.561,447.332z"
			/>
		<path fill="#005667" d="M1000.143,451.008c-1.203,1.114-2.663,1.938-4.377,2.472c-1.715,0.535-3.531,0.802-5.446,0.802
			c-2.272,0-4.322-0.379-6.148-1.136c-1.826-0.757-3.397-1.804-4.711-3.141c-1.314-1.336-2.328-2.928-3.04-4.777
			c-0.713-1.848-1.069-3.886-1.069-6.115c0-2.494,0.368-4.721,1.102-6.682c0.735-1.96,1.748-3.609,3.04-4.945
			c1.292-1.337,2.795-2.361,4.51-3.074c1.715-0.712,3.552-1.069,5.514-1.069c3.384,0,6.124,0.935,8.218,2.806
			c2.094,1.871,3.142,4.522,3.142,7.952c0,0.491-0.012,1.159-0.033,2.005c-0.024,0.846-0.079,1.582-0.167,2.205h-20.581v1.069
			c0,1.56,0.244,2.985,0.735,4.276c0.49,1.293,1.203,2.406,2.138,3.342c0.935,0.935,2.071,1.66,3.408,2.172
			c1.337,0.512,2.851,0.769,4.544,0.769c2.006,0,3.82-0.357,5.447-1.07c1.626-0.712,2.883-1.58,3.775-2.606V451.008z
			 M996.202,434.502V433.5c0-1.826-0.558-3.308-1.671-4.444c-1.113-1.136-2.94-1.704-5.479-1.704c-2.406,0-4.334,0.713-5.78,2.138
			c-1.448,1.426-2.351,3.097-2.707,5.012H996.202z"/>
		<path fill="#005667" d="M1029.077,453.681v-21.583c0-1.514-0.424-2.64-1.27-3.374c-0.847-0.735-2.205-1.103-4.076-1.103
			c-1.604,0-3.286,0.334-5.046,1.003c-1.761,0.668-3.286,1.537-4.577,2.606v22.452h-4.477v-29.736h4.01l0.467,3.274
			c1.738-1.425,3.508-2.427,5.313-3.007c1.804-0.578,3.641-0.868,5.513-0.868c2.628,0,4.721,0.658,6.281,1.971
			c1.559,1.315,2.339,3.532,2.339,6.649v21.717H1029.077z"/>
		<path fill="#005667" d="M1044.646,406.57l4.477-1.136v20.448c1.291-0.891,2.64-1.537,4.043-1.938
			c1.402-0.401,2.884-0.601,4.443-0.601c1.915,0,3.719,0.3,5.412,0.902c1.693,0.601,3.163,1.527,4.41,2.774
			c1.247,1.248,2.228,2.796,2.941,4.644c0.712,1.849,1.069,3.999,1.069,6.449c0,2.584-0.401,4.878-1.203,6.883
			c-0.803,2.005-1.905,3.698-3.307,5.078c-1.404,1.381-3.085,2.429-5.046,3.141c-1.961,0.712-4.076,1.069-6.348,1.069
			c-2.006,0-3.966-0.223-5.881-0.668c-1.916-0.445-3.587-1.136-5.012-2.071V406.57z M1049.123,448.669
			c0.757,0.401,1.714,0.724,2.874,0.969c1.157,0.245,2.339,0.367,3.542,0.367c1.559,0,3.017-0.222,4.377-0.668
			c1.358-0.445,2.54-1.136,3.542-2.072c1.002-0.935,1.781-2.16,2.339-3.675c0.555-1.514,0.835-3.342,0.835-5.48
			c0-3.518-0.902-6.148-2.707-7.885c-1.804-1.737-4.221-2.606-7.25-2.606c-1.337,0-2.685,0.191-4.043,0.568
			c-1.359,0.379-2.529,0.947-3.508,1.705V448.669z"/>
		<path fill="#005667" d="M1101.711,451.008c-1.203,1.114-2.663,1.938-4.377,2.472c-1.715,0.535-3.531,0.802-5.446,0.802
			c-2.272,0-4.322-0.379-6.148-1.136c-1.826-0.757-3.397-1.804-4.711-3.141c-1.314-1.336-2.328-2.928-3.04-4.777
			c-0.713-1.848-1.069-3.886-1.069-6.115c0-2.494,0.368-4.721,1.103-6.682c0.735-1.96,1.748-3.609,3.04-4.945
			c1.292-1.337,2.795-2.361,4.51-3.074c1.715-0.712,3.552-1.069,5.514-1.069c3.384,0,6.124,0.935,8.218,2.806
			c2.094,1.871,3.141,4.522,3.141,7.952c0,0.491-0.012,1.159-0.033,2.005c-0.024,0.846-0.079,1.582-0.167,2.205h-20.581v1.069
			c0,1.56,0.244,2.985,0.735,4.276c0.49,1.293,1.203,2.406,2.138,3.342c0.935,0.935,2.071,1.66,3.408,2.172
			c1.337,0.512,2.851,0.769,4.544,0.769c2.005,0,3.82-0.357,5.447-1.07c1.626-0.712,2.884-1.58,3.775-2.606V451.008z
			 M1097.769,434.502V433.5c0-1.826-0.558-3.308-1.671-4.444c-1.113-1.136-2.94-1.704-5.479-1.704c-2.406,0-4.334,0.713-5.78,2.138
			c-1.448,1.426-2.351,3.097-2.707,5.012H1097.769z"/>
		<path fill="#005667" d="M1126.836,428.488c-0.757-0.401-1.737-0.601-2.94-0.601c-1.248,0-2.584,0.29-4.01,0.868
			c-1.426,0.58-2.829,1.56-4.209,2.94v21.985h-4.477v-29.736h4.01l0.467,3.542c1.47-1.559,2.862-2.64,4.176-3.241
			c1.314-0.601,2.617-0.902,3.91-0.902c1.157,0,2.182,0.29,3.073,0.868V428.488z"/>
		<path fill="#005667" d="M1143.943,423.343c1.425,0,2.728,0.167,3.91,0.501c1.179,0.334,2.193,0.813,3.04,1.437l2.473-5.145h4.143
			c0.044,0.133,0.088,0.334,0.134,0.601c0.044,0.268,0.067,0.491,0.067,0.668c0,2.584-1.738,4.411-5.213,5.48
			c1.025,0.935,1.749,2.049,2.173,3.341c0.423,1.292,0.634,2.673,0.634,4.143c0,1.604-0.29,3.085-0.868,4.444
			c-0.579,1.359-1.37,2.517-2.372,3.475c-1.002,0.959-2.184,1.704-3.542,2.239c-1.359,0.535-2.818,0.802-4.377,0.802
			c-0.357,0-0.669-0.011-0.935-0.033c-0.268-0.022-0.602-0.078-1.003-0.167l-3.408,2.94c-0.446,0.357-0.746,0.668-0.902,0.935
			c-0.156,0.268-0.234,0.513-0.234,0.735c0,0.446,0.201,0.802,0.602,1.069c0.401,0.268,1.113,0.401,2.138,0.401h11.159
			c2.54,0,4.466,0.58,5.78,1.737c1.314,1.158,1.972,2.94,1.972,5.346c0,1.604-0.413,3.14-1.236,4.611
			c-0.825,1.47-1.983,2.762-3.475,3.876c-1.493,1.113-3.253,1.992-5.28,2.64c-2.027,0.645-4.243,0.968-6.649,0.968
			c-4.188,0-7.351-0.667-9.489-2.004c-2.138-1.335-3.207-3.029-3.207-5.078c0-0.758,0.122-1.481,0.368-2.172
			c0.244-0.691,0.645-1.393,1.203-2.105c0.557-0.713,1.291-1.426,2.205-2.139c0.913-0.713,2.038-1.493,3.374-2.339
			c-1.426-0.312-2.451-0.835-3.073-1.57c-0.625-0.735-0.937-1.57-0.937-2.505c0-0.757,0.223-1.514,0.669-2.272l5.011-4.009
			c-1.916-0.891-3.397-2.149-4.443-3.776c-1.046-1.626-1.57-3.642-1.57-6.047c0-1.559,0.277-3.018,0.835-4.377
			c0.557-1.358,1.337-2.528,2.339-3.508c1.002-0.979,2.182-1.748,3.542-2.305C1140.857,423.622,1142.339,423.343,1143.943,423.343z
			 M1140.401,455.351c-1.203,0.846-2.172,1.604-2.906,2.272c-0.736,0.668-1.315,1.27-1.738,1.804
			c-0.424,0.535-0.713,1.036-0.868,1.503c-0.156,0.468-0.234,0.924-0.234,1.37c0,1.203,0.668,2.172,2.004,2.907
			c1.337,0.733,3.564,1.101,6.682,1.101c1.782,0,3.385-0.201,4.811-0.6c1.425-0.401,2.628-0.948,3.609-1.638
			c0.979-0.691,1.738-1.482,2.272-2.372c0.535-0.892,0.802-1.804,0.802-2.74c0-2.406-1.335-3.609-4.009-3.609H1140.401z
			 M1144.21,441.519c1.871,0,3.451-0.635,4.745-1.904c1.291-1.27,1.938-3.041,1.938-5.313c0-2.406-0.658-4.199-1.971-5.379
			c-1.315-1.18-2.997-1.771-5.046-1.771c-1.916,0-3.508,0.635-4.778,1.905c-1.27,1.27-1.904,3.041-1.904,5.313
			c0,2.317,0.645,4.088,1.938,5.312C1140.422,440.907,1142.115,441.519,1144.21,441.519z"/>
		<path fill="#005667" d="M1186.775,451.008c-1.203,1.114-2.663,1.938-4.377,2.472c-1.715,0.535-3.531,0.802-5.446,0.802
			c-2.272,0-4.322-0.379-6.148-1.136c-1.826-0.757-3.397-1.804-4.711-3.141c-1.314-1.336-2.328-2.928-3.04-4.777
			c-0.713-1.848-1.069-3.886-1.069-6.115c0-2.494,0.368-4.721,1.103-6.682c0.735-1.96,1.748-3.609,3.04-4.945
			c1.292-1.337,2.795-2.361,4.51-3.074c1.715-0.712,3.552-1.069,5.514-1.069c3.384,0,6.124,0.935,8.218,2.806
			c2.094,1.871,3.142,4.522,3.142,7.952c0,0.491-0.012,1.159-0.033,2.005c-0.024,0.846-0.079,1.582-0.167,2.205h-20.581v1.069
			c0,1.56,0.244,2.985,0.735,4.276c0.49,1.293,1.203,2.406,2.138,3.342c0.935,0.935,2.071,1.66,3.408,2.172
			c1.337,0.512,2.851,0.769,4.544,0.769c2.005,0,3.82-0.357,5.447-1.07c1.626-0.712,2.884-1.58,3.775-2.606V451.008z
			 M1182.833,434.502V433.5c0-1.826-0.558-3.308-1.671-4.444c-1.113-1.136-2.94-1.704-5.479-1.704c-2.406,0-4.334,0.713-5.78,2.138
			c-1.448,1.426-2.351,3.097-2.707,5.012H1182.833z"/>
		<path fill="#005667" d="M1211.901,428.488c-0.757-0.401-1.737-0.601-2.94-0.601c-1.248,0-2.584,0.29-4.01,0.868
			c-1.426,0.58-2.828,1.56-4.209,2.94v21.985h-4.477v-29.736h4.01l0.467,3.542c1.47-1.559,2.862-2.64,4.176-3.241
			c1.314-0.601,2.617-0.902,3.91-0.902c1.157,0,2.182,0.29,3.073,0.868V428.488z"/>
	</g>
</g>
</svg>
