<?xml version="1.0" encoding="UTF-8" standalone="no"?>
<svg width="28px" height="45px" viewBox="0 0 28 45" version="1.1" xmlns="http://www.w3.org/2000/svg" xmlns:xlink="http://www.w3.org/1999/xlink" xmlns:sketch="http://www.bohemiancoding.com/sketch/ns">
    <!-- Generator: Sketch 3.4.4 (17249) - http://www.bohemiancoding.com/sketch -->
    <title>Marker</title>
    <desc>Created with Sketch.</desc>
    <defs></defs>
    <g id="Page-1" stroke="none" stroke-width="1" fill="none" fill-rule="evenodd" sketch:type="MSPage">
        <g id="Small-Icons-fromAI" sketch:type="MSLayerGroup" transform="translate(-406.000000, 0.000000)" fill="#005467">
            <g id="Icons" transform="translate(6.000000, 0.000000)" sketch:type="MSShapeGroup">
                <path d="M413.6,19.5 C410.3,19.5 407.7,16.9 407.7,13.6 C407.7,10.3 410.3,7.7 413.6,7.7 C416.9,7.7 419.5,10.3 419.5,13.6 C419.5,16.9 416.9,19.5 413.6,19.5 M413.6,0 C406.1,0 400,6.1 400,13.6 C400,21.1 413.1,34.4 413.1,44.5 L414.3,44.5 C414.3,34.5 427.2,20.5 427.2,13.6 C427.2,6.1 421.1,0 413.6,0" id="Marker"></path>
            </g>
        </g>
    </g>
</svg>