<?xml version="1.0" encoding="UTF-8" standalone="no"?>
<svg width="66px" height="54px" viewBox="0 0 66 54" version="1.1" xmlns="http://www.w3.org/2000/svg" xmlns:xlink="http://www.w3.org/1999/xlink" xmlns:sketch="http://www.bohemiancoding.com/sketch/ns">
    <!-- Generator: Sketch 3.4 (15575) - http://www.bohemiancoding.com/sketch -->
    <title>clogins-quotes</title>
    <desc>Created with Sketch.</desc>
    <defs></defs>
    <g id="Page-1" stroke="none" stroke-width="1" fill="none" fill-rule="evenodd" sketch:type="MSPage">
        <g id="Small-Icons" sketch:type="MSLayerGroup" transform="translate(-140.000000, -8.000000)" fill="#E8E8E8">
            <g id="Icons" transform="translate(6.000000, 6.000000)" sketch:type="MSShapeGroup">
                <path d="M169.4,55 C173.4,55 199.4,47.3 199.4,22.6 C199.4,15.1 194,2.1 184.3,2.1 C178.5,2.1 175,6.8 175,11.9 C175,16.8 179.9,20.3 181.1,21.2 C184.4,24.9 186,27 186,31.9 C186,41.7 174.4,48.7 169.2,50.1 C167.6,50.6 166.6,51 166.9,53.1 C167.3,55.4 168.2,55 169.4,55 M136.8,55 C140.8,55 166.8,47.3 166.8,22.6 C166.8,15.1 161.4,2.1 151.7,2.1 C145.9,2.1 142.4,6.8 142.4,11.9 C142.4,16.8 147.3,20.3 148.5,21.2 C151.8,24.9 153.4,27 153.4,31.9 C153.4,41.7 141.8,48.7 136.6,50.1 C135,50.6 134,51 134.3,53.1 C134.7,55.4 135.7,55 136.8,55" id="clogins-quotes"></path>
            </g>
        </g>
    </g>
</svg>