<?xml version="1.0" encoding="UTF-8" standalone="no"?>
<svg width="65px" height="65px" viewBox="0 0 65 65" version="1.1" xmlns="http://www.w3.org/2000/svg" xmlns:xlink="http://www.w3.org/1999/xlink" xmlns:sketch="http://www.bohemiancoding.com/sketch/ns">
    <!-- Generator: Sketch 3.4 (15575) - http://www.bohemiancoding.com/sketch -->
    <title>weather</title>
    <desc>Created with Sketch.</desc>
    <defs></defs>
    <g id="Page-1" stroke="none" stroke-width="1" fill="none" fill-rule="evenodd" sketch:type="MSPage">
        <g id="weather" sketch:type="MSLayerGroup" transform="translate(1.000000, 1.000000)">
            <circle id="Border" stroke="#005467" fill="#F5F5F5" sketch:type="MSShapeGroup" cx="31.3756098" cy="31.3756098" r="31.2195122"></circle>
            <path d="M45.2,31.2 L39.8,31.2 C39.6,29.6 39,28.2 38.1,27 L40.9,24.2 C41.2,23.9 41.2,23.4 40.9,23.1 C40.6,22.8 40.1,22.8 39.8,23.1 L37,25.9 C35.8,24.9 34.4,24.3 32.8,24.2 L32.8,18.8 C32.8,18.4 32.5,18 32,18 C31.6,18 31.2,18.3 31.2,18.8 L31.2,24.2 C29.6,24.4 28.2,25 27,25.9 L24.2,23.1 C23.9,22.8 23.4,22.8 23.1,23.1 C22.8,23.4 22.8,23.9 23.1,24.2 L25.9,27 C24.9,28.2 24.3,29.6 24.2,31.2 L18.8,31.2 C18.4,31.2 18,31.5 18,32 C18,32.4 18.3,32.8 18.8,32.8 L24.2,32.8 C24.4,34.4 25,35.8 25.9,37 L23.1,39.8 C22.8,40.1 22.8,40.6 23.1,40.9 C23.3,41.1 23.4,41.1 23.6,41.1 C23.8,41.1 24,41 24.1,40.9 L26.9,38.1 C28.1,39.1 29.5,39.7 31.1,39.8 L31.1,45.2 C31.1,45.6 31.4,46 31.9,46 C32.3,46 32.7,45.7 32.7,45.2 L32.7,39.8 C34.3,39.6 35.7,39 36.9,38.1 L39.7,40.9 C39.9,41.1 40,41.1 40.2,41.1 C40.4,41.1 40.6,41 40.7,40.9 C41,40.6 41,40.1 40.7,39.8 L37.9,37 C38.9,35.8 39.5,34.4 39.6,32.8 L45,32.8 C45.4,32.8 45.8,32.5 45.8,32 C46,31.5 45.6,31.2 45.2,31.2" id="Sunny-path" stroke="#005467" sketch:type="MSShapeGroup"></path>
            <path d="M41.3,28 C40.7,25.8 38.8,24.2 36.5,23.9 C37,22.8 38.2,22 39.5,22 C41.3,22 42.8,23.5 42.8,25.3 C42.8,26.4 42.2,27.4 41.3,28 M43.3,35.2 C43.3,37.2 41.6,38.9 39.6,38.9 L20.2,38.9 C18.2,38.9 16.5,37.2 16.5,35.2 C16.5,33.2 18.2,31.5 20.2,31.5 L22.1,31.5 L21.8,30.5 C21.6,29.9 21.5,29.4 21.5,28.8 C21.5,25.7 24.1,23.1 27.2,23.1 C29.3,23.1 31.2,24.3 32.2,26.1 L32.6,26.9 L33.3,26.3 C33.7,26 34.1,25.8 34.6,25.7 C35,25.6 35.4,25.5 35.8,25.5 L36.2,25.5 C37.9,25.7 39.3,26.9 39.8,28.6 C39.9,28.9 39.9,29.3 39.9,29.6 L39.9,30.2 C39.9,30.3 39.9,30.5 39.8,30.6 L39.6,31.4 L40.4,31.6 C42.1,31.9 43.3,33.4 43.3,35.2 M47.1,24.5 L44.3,24.5 C44.2,23.7 43.9,23.1 43.5,22.5 L44.9,21.1 C45.2,20.8 45.2,20.3 44.9,20 C44.6,19.7 44.1,19.7 43.8,20 L42.4,21.4 C41.8,21 41.1,20.7 40.4,20.6 L40.4,17.8 C40.4,17.4 40,17 39.6,17 C39.2,17 38.8,17.4 38.8,17.8 L38.8,20.6 C38,20.7 37.3,21 36.8,21.4 L35.4,20 C35.1,19.7 34.6,19.7 34.3,20 C34,20.3 34,20.8 34.3,21.1 L35.7,22.5 C35.4,23 35.1,23.5 35,24 C34.4,24.1 33.9,24.3 33.3,24.6 C31.9,22.6 29.7,21.5 27.3,21.5 C23.3,21.5 20,24.8 20,28.8 C20,29.2 20,29.6 20.1,30 C17.3,30.1 15,32.4 15,35.3 C15,38.2 17.4,40.6 20.3,40.6 L39.7,40.6 C42.6,40.6 45,38.2 45,35.3 C45,33.1 43.6,31.1 41.6,30.3 L41.6,29.8 C41.9,29.7 42.2,29.5 42.4,29.3 L43.8,30.7 C44,30.9 44.2,30.9 44.4,30.9 C44.6,30.9 44.8,30.8 45,30.7 C45.3,30.4 45.3,29.9 45,29.6 L43.6,28.2 C44,27.6 44.3,26.9 44.4,26.2 L47.2,26.2 C47.6,26.2 48,25.8 48,25.4 C48,25 47.6,24.5 47.1,24.5" id="Partly-Cloudy" fill="#005467" sketch:type="MSShapeGroup"></path>
            <path d="M40.8,40.8 L20.5,40.8 C17.4,40.8 15,38.3 15,35.3 C15,32.3 17.4,29.9 20.3,29.8 C20.2,29.4 20.2,29 20.2,28.6 C20.2,24.4 23.6,21 27.8,21 C30.3,21 32.6,22.2 34.1,24.3 C35,23.8 35.9,23.6 36.9,23.6 C40.2,23.6 42.9,26.3 42.9,29.6 L42.9,30.3 C45,31.1 46.5,33.2 46.5,35.5 C46.3,38.3 43.8,40.8 40.8,40.8 L40.8,40.8 Z M20.5,31.4 C18.4,31.4 16.6,33.1 16.6,35.3 C16.6,37.4 18.3,39.2 20.5,39.2 L40.8,39.2 C42.9,39.2 44.7,37.5 44.7,35.3 C44.7,33.5 43.4,31.9 41.6,31.5 L40.8,31.3 L41,30.5 C41.1,30.1 41.1,29.8 41.1,29.5 C41.1,27.1 39.2,25.2 36.8,25.2 C35.9,25.2 35,25.5 34.2,26.1 L33.4,26.7 L32.9,25.8 C31.9,23.8 29.9,22.6 27.6,22.6 C24.3,22.6 21.7,25.3 21.7,28.5 C21.7,29.1 21.8,29.7 22,30.3 L22.3,31.4 L20.5,31.4 L20.5,31.4 Z" id="Shape" fill="#005467" sketch:type="MSShapeGroup"></path>
            <g id="rainy" transform="translate(18.000000, 19.000000)" fill="#005467" sketch:type="MSShapeGroup">
                <path d="M23.7,8.1 L23.7,7.6 C23.7,4.9 21.5,2.7 18.8,2.7 C18,2.7 17.2,2.9 16.5,3.3 C15.3,1.6 13.4,0.6 11.3,0.6 C7.8,0.6 5,3.4 5,6.9 C5,7.2 5,7.6 5.1,7.9 C2.7,8 0.7,10 0.7,12.5 C0.7,15 2.8,17.1 5.3,17.1 L22.1,17.1 C24.6,17.1 26.7,15 26.7,12.5 C26.7,10.4 25.5,8.7 23.7,8.1 L23.7,8.1 Z M22.1,15.5 L5.3,15.5 C3.5,15.5 2.1,14.1 2.1,12.3 C2.1,10.5 3.5,9.1 5.3,9.1 L6.9,9.1 L6.6,8.2 C6.4,7.7 6.4,7.2 6.4,6.7 C6.4,4 8.6,1.8 11.3,1.8 C13.1,1.8 14.8,2.8 15.6,4.4 L16,5.1 L16.6,4.6 C17.2,4.1 18,3.9 18.7,3.9 C20.7,3.9 22.3,5.5 22.3,7.5 C22.3,7.8 22.3,8.1 22.2,8.4 L22,9.1 L22.7,9.2 C24.2,9.5 25.2,10.8 25.2,12.3 C25.3,14.1 23.9,15.5 22.1,15.5 L22.1,15.5 Z" id="Shape"></path>
                <path d="M6.3,18 C5.9,18 5.6,18.3 5.6,18.7 L5.6,23.1 C5.6,23.5 5.9,23.8 6.3,23.8 C6.7,23.8 7,23.5 7,23.1 L7,18.7 C7,18.3 6.7,18 6.3,18 L6.3,18 Z" id="Shape"></path>
                <path d="M12.3,18 C11.9,18 11.6,18.3 11.6,18.7 L11.6,23.1 C11.6,23.5 11.9,23.8 12.3,23.8 C12.7,23.8 13,23.5 13,23.1 L13,18.7 C13,18.3 12.7,18 12.3,18 L12.3,18 Z" id="Shape"></path>
                <path d="M15.3,18 C14.9,18 14.6,18.3 14.6,18.7 L14.6,25.4 C14.6,25.8 14.9,26.1 15.3,26.1 C15.7,26.1 16,25.8 16,25.4 L16,18.7 C16,18.3 15.7,18 15.3,18 L15.3,18 Z" id="Shape"></path>
                <path d="M9.3,18 C8.9,18 8.6,18.3 8.6,18.7 L8.6,25.4 C8.6,25.8 8.9,26.1 9.3,26.1 C9.7,26.1 10,25.8 10,25.4 L10,18.7 C10,18.3 9.7,18 9.3,18 L9.3,18 Z" id="Shape"></path>
                <path d="M18.3,18 C17.9,18 17.6,18.3 17.6,18.7 L17.6,23.1 C17.6,23.5 17.9,23.8 18.3,23.8 C18.7,23.8 19,23.5 19,23.1 L19,18.7 C19,18.3 18.7,18 18.3,18 L18.3,18 Z" id="Shape"></path>
                <path d="M21.1,18 C20.7,18 20.4,18.3 20.4,18.7 L20.4,20.9 C20.4,21.3 20.7,21.6 21.1,21.6 C21.5,21.6 21.8,21.3 21.8,20.9 L21.8,18.7 C21.8,18.3 21.5,18 21.1,18 L21.1,18 Z" id="Shape"></path>
            </g>
            <g id="thunder" transform="translate(19.000000, 18.000000)" fill="#005467" sketch:type="MSShapeGroup">
                <path d="M5.9,17.9 L5.9,17.9 C5.5,17.9 5.2,18.2 5.2,18.6 L5.2,23 C5.2,23.4 5.5,23.7 5.9,23.7 L5.9,23.7 C6.3,23.7 6.6,23.4 6.6,23 L6.6,18.6 C6.6,18.3 6.3,17.9 5.9,17.9 L5.9,17.9 Z" id="Shape"></path>
                <path d="M11.9,17.9 L11.9,17.9 C11.5,17.9 11.2,18.2 11.2,18.6 L11.2,23 C11.2,23.4 11.5,23.7 11.9,23.7 L11.9,23.7 C12.3,23.7 12.6,23.4 12.6,23 L12.6,18.6 C12.6,18.2 12.3,17.9 11.9,17.9 L11.9,17.9 Z" id="Shape"></path>
                <path d="M14.9,17.9 L14.9,17.9 C14.5,17.9 14.2,18.2 14.2,18.6 L14.2,25.3 C14.2,25.7 14.5,26 14.9,26 L14.9,26 C15.3,26 15.6,25.7 15.6,25.3 L15.6,18.6 C15.6,18.2 15.3,17.9 14.9,17.9 L14.9,17.9 Z" id="Shape"></path>
                <path d="M8.9,17.9 L8.9,17.9 C8.5,17.9 8.2,18.2 8.2,18.6 L8.2,25.3 C8.2,25.7 8.5,26 8.9,26 L8.9,26 C9.3,26 9.6,25.7 9.6,25.3 L9.6,18.6 C9.6,18.2 9.3,17.9 8.9,17.9 L8.9,17.9 Z" id="Shape"></path>
                <path d="M17.9,17.9 C17.5,17.9 17.2,18.2 17.2,18.6 L17.2,23 C17.2,23.4 17.5,23.7 17.9,23.7 L17.9,23.7 C18.3,23.7 18.6,23.4 18.6,23 L18.6,18.6 C18.6,18.2 18.3,17.9 17.9,17.9 L17.9,17.9 Z" id="Shape"></path>
                <path d="M20.7,17.9 L20.7,17.9 C20.3,17.9 20,18.2 20,18.6 L20,20.8 C20,21.2 20.3,21.5 20.7,21.5 L20.7,21.5 C21.1,21.5 21.4,21.2 21.4,20.8 L21.4,18.6 C21.4,18.2 21.1,17.9 20.7,17.9 L20.7,17.9 Z" id="Shape"></path>
                <path d="M23.3,8.2 L23.3,7.7 C23.3,5 21.1,2.8 18.4,2.8 C17.6,2.8 16.8,3 16.1,3.4 C14.9,1.7 13,0.7 10.9,0.7 C7.5,0.7 4.6,3.5 4.6,7 C4.6,7.3 4.6,7.7 4.7,8 C2.3,8.1 0.3,10.1 0.3,12.6 C0.3,13.8 0.8,15 1.6,15.8 C2.4,16.6 3.6,17.1 4.8,17.2 L21.6,17.3 L21.6,17.3 C24.1,17.3 26.2,15.3 26.2,12.7 C26.3,10.6 25.1,8.9 23.3,8.2 L23.3,8.2 Z M21.7,15.7 L21.7,16.4 L21.7,15.7 L4.9,15.6 C4,15.6 3.2,15.3 2.6,14.7 C2,14.1 1.7,13.3 1.7,12.4 C1.7,10.6 3.1,9.2 4.9,9.2 L6.5,9.2 L6.2,8.3 C6,7.8 6,7.3 6,6.8 C6,4.1 8.2,1.9 10.9,1.9 C12.7,1.9 14.4,2.9 15.2,4.5 L15.6,5.2 L16.2,4.7 C16.8,4.2 17.6,4 18.3,4 C20.3,4 21.8,5.6 21.8,7.6 C21.8,7.9 21.8,8.2 21.7,8.5 L21.5,9.2 L22.2,9.4 C23.7,9.7 24.7,11 24.7,12.5 C24.9,14.2 23.5,15.7 21.7,15.7 L21.7,15.7 Z" id="Shape"></path>
                <path d="M14.7,8.7 L14.7,8.7 L13.1,8.7 L14.1,6.9 C14.3,6.6 14.1,6.2 13.8,6 C13.5,5.8 13.1,6 12.9,6.3 L11.4,9.1 C11.3,9.3 11.3,9.6 11.4,9.8 C11.5,10 11.7,10.1 12,10.1 L12,10.1 L13.6,10.1 L12.4,12.3 C12.2,12.6 12.4,13 12.7,13.2 C12.8,13.3 12.9,13.3 13,13.3 C13.2,13.3 13.5,13.2 13.6,12.9 L15.3,9.7 C15.4,9.5 15.4,9.2 15.3,9 C15.2,8.8 14.9,8.7 14.7,8.7 L14.7,8.7 Z" id="Shape"></path>
            </g>
            <path d="M42.2,37.5 L39.2,35.8 C39.4,35.6 39.6,35.4 39.9,35.4 C40.4,35.3 40.8,35.6 40.8,35.7 C41.1,36 41.5,35.9 41.8,35.6 C42.1,35.3 42,34.8 41.7,34.6 C41.6,34.5 40.8,33.8 39.7,34 C39.1,34.1 38.5,34.5 38,35.1 L36.8,34.4 L36.9,34.2 C37.1,33.9 37,33.4 36.6,33.2 C36.3,33 35.8,33.1 35.6,33.5 L35.5,33.7 L33.2,32.4 L35.5,31.1 L35.6,31.3 C35.7,31.5 36,31.7 36.2,31.7 C36.3,31.7 36.4,31.7 36.6,31.6 C36.9,31.4 37.1,31 36.9,30.6 L36.8,30.4 L38,29.7 C38.5,30.3 39.1,30.7 39.7,30.8 L40.1,30.8 C41,30.8 41.7,30.3 41.8,30.2 C42.1,29.9 42.1,29.5 41.9,29.2 C41.6,28.9 41.2,28.9 40.9,29.1 C40.9,29.1 40.5,29.4 40,29.3 C39.7,29.3 39.5,29.1 39.3,28.9 L42.3,27.2 C42.6,27 42.8,26.6 42.6,26.2 C42.4,25.9 42,25.7 41.6,25.9 L38.6,27.6 C38.5,27.3 38.5,27 38.6,26.8 C38.8,26.4 39.2,26.2 39.3,26.2 C39.7,26.1 39.9,25.7 39.7,25.3 C39.6,24.9 39.2,24.7 38.8,24.9 C38.7,24.9 37.7,25.3 37.3,26.4 C37.1,27 37.1,27.7 37.4,28.4 L36.2,29.1 L36.1,28.9 C35.9,28.6 35.5,28.4 35.1,28.6 C34.8,28.8 34.6,29.2 34.8,29.6 L34.9,29.8 L32.6,31.1 L32.6,28.4 L32.8,28.4 C33.2,28.4 33.5,28.1 33.5,27.7 C33.5,27.3 33.2,27 32.8,27 L32.6,27 L32.6,25.7 C33.4,25.6 34,25.3 34.4,24.8 C35.1,23.9 35,22.9 34.9,22.7 C34.8,22.3 34.5,22.1 34.1,22.1 C33.7,22.2 33.5,22.5 33.5,22.9 C33.5,22.9 33.6,23.4 33.3,23.8 C33.1,24 32.9,24.1 32.6,24.2 L32.6,20.7 C32.6,20.3 32.3,20 31.9,20 C31.5,20 31.2,20.3 31.2,20.7 L31.2,24.2 C30.9,24.1 30.7,24 30.5,23.8 C30.2,23.4 30.3,22.9 30.3,22.9 C30.4,22.5 30.1,22.1 29.7,22.1 C29.3,22 28.9,22.3 28.9,22.7 C28.9,22.8 28.7,23.9 29.4,24.8 C29.8,25.3 30.4,25.6 31.2,25.7 L31.2,27 L30.9,27 C30.5,27 30.2,27.3 30.2,27.7 C30.2,28.1 30.5,28.4 30.9,28.4 L31.1,28.4 L31.1,31.1 L28.8,29.8 L28.9,29.6 C29.1,29.3 29,28.8 28.6,28.6 C28.3,28.4 27.8,28.5 27.6,28.9 L27.5,29.1 L26.3,28.4 C26.6,27.7 26.6,27 26.4,26.4 C26,25.3 25,25 24.9,24.9 C24.5,24.8 24.1,25 24,25.3 C23.9,25.7 24.1,26.1 24.4,26.2 C24.4,26.2 24.9,26.4 25.1,26.8 C25.2,27 25.2,27.3 25.1,27.6 L22.1,25.9 C21.8,25.7 21.3,25.8 21.1,26.2 C20.9,26.5 21,27 21.4,27.2 L24.4,28.9 C24.2,29.1 24,29.3 23.7,29.3 C23.2,29.4 22.8,29.1 22.8,29 C22.5,28.7 22.1,28.8 21.8,29.1 C21.5,29.4 21.6,29.9 21.9,30.1 C22,30.2 22.6,30.7 23.6,30.7 L24,30.7 C24.6,30.6 25.2,30.2 25.7,29.6 L26.9,30.3 L26.8,30.5 C26.6,30.8 26.7,31.3 27.1,31.5 C27.2,31.6 27.3,31.6 27.5,31.6 C27.7,31.6 28,31.5 28.1,31.2 L28.2,31 L30.5,32.3 L28.2,33.6 L28.1,33.4 C27.9,33.1 27.5,32.9 27.1,33.1 C26.8,33.3 26.6,33.7 26.8,34.1 L26.9,34.3 L25.7,35 C25.2,34.4 24.6,34 24,33.9 C22.9,33.7 22,34.4 22,34.5 C21.7,34.8 21.7,35.2 21.9,35.5 C22.2,35.8 22.6,35.8 22.9,35.6 C22.9,35.6 23.3,35.3 23.8,35.4 C24.1,35.4 24.3,35.6 24.5,35.8 L21.5,37.5 C21.2,37.7 21,38.1 21.2,38.5 C21.3,38.7 21.6,38.9 21.8,38.9 C21.9,38.9 22,38.9 22.2,38.8 L25.2,37.1 C25.3,37.4 25.3,37.7 25.2,37.9 C25,38.3 24.6,38.5 24.5,38.5 C24.1,38.6 23.9,39 24.1,39.4 C24.2,39.7 24.5,39.9 24.8,39.9 L25,39.9 C25.1,39.9 26.1,39.5 26.5,38.4 C26.7,37.8 26.7,37.1 26.4,36.4 L27.6,35.7 L27.7,35.9 C27.8,36.1 28.1,36.3 28.3,36.3 C28.4,36.3 28.5,36.3 28.7,36.2 C29,36 29.2,35.6 29,35.2 L28.9,35 L31.2,33.7 L31.2,36.4 L30.9,36.4 C30.5,36.4 30.2,36.7 30.2,37.1 C30.2,37.5 30.5,37.8 30.9,37.8 L31.1,37.8 L31.1,39.1 C30.3,39.2 29.7,39.5 29.3,40 C28.6,40.9 28.7,41.9 28.8,42.1 C28.9,42.4 29.2,42.7 29.5,42.7 L29.6,42.7 C30,42.6 30.2,42.3 30.2,41.9 C30.2,41.9 30.1,41.4 30.4,41 C30.6,40.8 30.8,40.7 31.1,40.6 L31.1,44.1 C31.1,44.5 31.4,44.8 31.8,44.8 C32.2,44.8 32.5,44.5 32.5,44.1 L32.5,40.6 C32.8,40.7 33,40.8 33.2,41 C33.5,41.4 33.4,41.9 33.4,41.9 C33.3,42.3 33.6,42.7 34,42.7 L34.1,42.7 C34.4,42.7 34.7,42.5 34.8,42.1 C34.8,42 35,40.9 34.3,40 C33.9,39.5 33.3,39.2 32.5,39.1 L32.5,37.8 L32.7,37.8 C33.1,37.8 33.4,37.5 33.4,37.1 C33.4,36.7 33.1,36.4 32.7,36.4 L32.5,36.4 L32.5,33.7 L34.8,35 L34.7,35.2 C34.5,35.5 34.6,36 35,36.2 C35.1,36.3 35.2,36.3 35.4,36.3 C35.6,36.3 35.9,36.2 36,35.9 L36.1,35.7 L37.3,36.4 C37,37.1 37,37.8 37.2,38.4 C37.6,39.5 38.6,39.8 38.7,39.9 L38.9,39.9 C39.2,39.9 39.5,39.7 39.6,39.4 C39.7,39 39.5,38.6 39.2,38.5 C39.2,38.5 38.7,38.3 38.5,37.9 C38.4,37.7 38.4,37.4 38.5,37.1 L41.5,38.8 C41.6,38.9 41.7,38.9 41.9,38.9 C42.1,38.9 42.4,38.8 42.5,38.5 C42.7,38.1 42.6,37.7 42.2,37.5 L42.2,37.5 Z" id="Shape" fill="#005467" sketch:type="MSShapeGroup"></path>
        </g>
    </g>
</svg>