<?xml version="1.0" encoding="UTF-8" standalone="no"?>
<svg width="320px" height="65px" viewBox="0 0 320 65" version="1.1" xmlns="http://www.w3.org/2000/svg" xmlns:xlink="http://www.w3.org/1999/xlink" xmlns:sketch="http://www.bohemiancoding.com/sketch/ns">
    <!-- Generator: Sketch 3.4 (15575) - http://www.bohemiancoding.com/sketch -->
    <title>weather</title>
    <desc>Created with Sketch.</desc>
    <defs></defs>
    <g id="Page-1" stroke="none" stroke-width="1" fill="none" fill-rule="evenodd" sketch:type="MSPage">
        <g id="weather" sketch:type="MSLayerGroup" transform="translate(1.000000, 1.000000)">
            <path d="M255,32.5 L0,32.5" id="Line" stroke="#005467" stroke-linecap="square" sketch:type="MSShapeGroup"></path>
            <circle id="Border" stroke="#005467" fill="#F5F5F5" sketch:type="MSShapeGroup" cx="286.37561" cy="31.3756098" r="31.2195122"></circle>
            <path d="M300.2,31.2 L294.8,31.2 C294.6,29.6 294,28.2 293.1,27 L295.9,24.2 C296.2,23.9 296.2,23.4 295.9,23.1 C295.6,22.8 295.1,22.8 294.8,23.1 L292,25.9 C290.8,24.9 289.4,24.3 287.8,24.2 L287.8,18.8 C287.8,18.4 287.5,18 287,18 C286.6,18 286.2,18.3 286.2,18.8 L286.2,24.2 C284.6,24.4 283.2,25 282,25.9 L279.2,23.1 C278.9,22.8 278.4,22.8 278.1,23.1 C277.8,23.4 277.8,23.9 278.1,24.2 L280.9,27 C279.9,28.2 279.3,29.6 279.2,31.2 L273.8,31.2 C273.4,31.2 273,31.5 273,32 C273,32.4 273.3,32.8 273.8,32.8 L279.2,32.8 C279.4,34.4 280,35.8 280.9,37 L278.1,39.8 C277.8,40.1 277.8,40.6 278.1,40.9 C278.3,41.1 278.4,41.1 278.6,41.1 C278.8,41.1 279,41 279.1,40.9 L281.9,38.1 C283.1,39.1 284.5,39.7 286.1,39.8 L286.1,45.2 C286.1,45.6 286.4,46 286.9,46 C287.3,46 287.7,45.7 287.7,45.2 L287.7,39.8 C289.3,39.6 290.7,39 291.9,38.1 L294.7,40.9 C294.9,41.1 295,41.1 295.2,41.1 C295.4,41.1 295.6,41 295.7,40.9 C296,40.6 296,40.1 295.7,39.8 L292.9,37 C293.9,35.8 294.5,34.4 294.6,32.8 L300,32.8 C300.4,32.8 300.8,32.5 300.8,32 C301,31.5 300.6,31.2 300.2,31.2" id="Sunny-path" stroke="#005467" sketch:type="MSShapeGroup"></path>
            <path d="M296.3,28 C295.7,25.8 293.8,24.2 291.5,23.9 C292,22.8 293.2,22 294.5,22 C296.3,22 297.8,23.5 297.8,25.3 C297.8,26.4 297.2,27.4 296.3,28 M298.3,35.2 C298.3,37.2 296.6,38.9 294.6,38.9 L275.2,38.9 C273.2,38.9 271.5,37.2 271.5,35.2 C271.5,33.2 273.2,31.5 275.2,31.5 L277.1,31.5 L276.8,30.5 C276.6,29.9 276.5,29.4 276.5,28.8 C276.5,25.7 279.1,23.1 282.2,23.1 C284.3,23.1 286.2,24.3 287.2,26.1 L287.6,26.9 L288.3,26.3 C288.7,26 289.1,25.8 289.6,25.7 C290,25.6 290.4,25.5 290.8,25.5 L291.2,25.5 C292.9,25.7 294.3,26.9 294.8,28.6 C294.9,28.9 294.9,29.3 294.9,29.6 L294.9,30.2 C294.9,30.3 294.9,30.5 294.8,30.6 L294.6,31.4 L295.4,31.6 C297.1,31.9 298.3,33.4 298.3,35.2 M302.1,24.5 L299.3,24.5 C299.2,23.7 298.9,23.1 298.5,22.5 L299.9,21.1 C300.2,20.8 300.2,20.3 299.9,20 C299.6,19.7 299.1,19.7 298.8,20 L297.4,21.4 C296.8,21 296.1,20.7 295.4,20.6 L295.4,17.8 C295.4,17.4 295,17 294.6,17 C294.2,17 293.8,17.4 293.8,17.8 L293.8,20.6 C293,20.7 292.3,21 291.8,21.4 L290.4,20 C290.1,19.7 289.6,19.7 289.3,20 C289,20.3 289,20.8 289.3,21.1 L290.7,22.5 C290.4,23 290.1,23.5 290,24 C289.4,24.1 288.9,24.3 288.3,24.6 C286.9,22.6 284.7,21.5 282.3,21.5 C278.3,21.5 275,24.8 275,28.8 C275,29.2 275,29.6 275.1,30 C272.3,30.1 270,32.4 270,35.3 C270,38.2 272.4,40.6 275.3,40.6 L294.7,40.6 C297.6,40.6 300,38.2 300,35.3 C300,33.1 298.6,31.1 296.6,30.3 L296.6,29.8 C296.9,29.7 297.2,29.5 297.4,29.3 L298.8,30.7 C299,30.9 299.2,30.9 299.4,30.9 C299.6,30.9 299.8,30.8 300,30.7 C300.3,30.4 300.3,29.9 300,29.6 L298.6,28.2 C299,27.6 299.3,26.9 299.4,26.2 L302.2,26.2 C302.6,26.2 303,25.8 303,25.4 C303,25 302.6,24.5 302.1,24.5" id="Partly-Cloudy" fill="#005467" sketch:type="MSShapeGroup"></path>
            <path d="M295.8,40.8 L275.5,40.8 C272.4,40.8 270,38.3 270,35.3 C270,32.3 272.4,29.9 275.3,29.8 C275.2,29.4 275.2,29 275.2,28.6 C275.2,24.4 278.6,21 282.8,21 C285.3,21 287.6,22.2 289.1,24.3 C290,23.8 290.9,23.6 291.9,23.6 C295.2,23.6 297.9,26.3 297.9,29.6 L297.9,30.3 C300,31.1 301.5,33.2 301.5,35.5 C301.3,38.3 298.8,40.8 295.8,40.8 L295.8,40.8 Z M275.5,31.4 C273.4,31.4 271.6,33.1 271.6,35.3 C271.6,37.4 273.3,39.2 275.5,39.2 L295.8,39.2 C297.9,39.2 299.7,37.5 299.7,35.3 C299.7,33.5 298.4,31.9 296.6,31.5 L295.8,31.3 L296,30.5 C296.1,30.1 296.1,29.8 296.1,29.5 C296.1,27.1 294.2,25.2 291.8,25.2 C290.9,25.2 290,25.5 289.2,26.1 L288.4,26.7 L287.9,25.8 C286.9,23.8 284.9,22.6 282.6,22.6 C279.3,22.6 276.7,25.3 276.7,28.5 C276.7,29.1 276.8,29.7 277,30.3 L277.3,31.4 L275.5,31.4 L275.5,31.4 Z" id="Shape" fill="#005467" sketch:type="MSShapeGroup"></path>
            <g id="rainy" transform="translate(273.000000, 19.000000)" fill="#005467" sketch:type="MSShapeGroup">
                <path d="M23.7,8.1 L23.7,7.6 C23.7,4.9 21.5,2.7 18.8,2.7 C18,2.7 17.2,2.9 16.5,3.3 C15.3,1.6 13.4,0.6 11.3,0.6 C7.8,0.6 5,3.4 5,6.9 C5,7.2 5,7.6 5.1,7.9 C2.7,8 0.7,10 0.7,12.5 C0.7,15 2.8,17.1 5.3,17.1 L22.1,17.1 C24.6,17.1 26.7,15 26.7,12.5 C26.7,10.4 25.5,8.7 23.7,8.1 L23.7,8.1 Z M22.1,15.5 L5.3,15.5 C3.5,15.5 2.1,14.1 2.1,12.3 C2.1,10.5 3.5,9.1 5.3,9.1 L6.9,9.1 L6.6,8.2 C6.4,7.7 6.4,7.2 6.4,6.7 C6.4,4 8.6,1.8 11.3,1.8 C13.1,1.8 14.8,2.8 15.6,4.4 L16,5.1 L16.6,4.6 C17.2,4.1 18,3.9 18.7,3.9 C20.7,3.9 22.3,5.5 22.3,7.5 C22.3,7.8 22.3,8.1 22.2,8.4 L22,9.1 L22.7,9.2 C24.2,9.5 25.2,10.8 25.2,12.3 C25.3,14.1 23.9,15.5 22.1,15.5 L22.1,15.5 Z" id="Shape"></path>
                <path d="M6.3,18 C5.9,18 5.6,18.3 5.6,18.7 L5.6,23.1 C5.6,23.5 5.9,23.8 6.3,23.8 C6.7,23.8 7,23.5 7,23.1 L7,18.7 C7,18.3 6.7,18 6.3,18 L6.3,18 Z" id="Shape"></path>
                <path d="M12.3,18 C11.9,18 11.6,18.3 11.6,18.7 L11.6,23.1 C11.6,23.5 11.9,23.8 12.3,23.8 C12.7,23.8 13,23.5 13,23.1 L13,18.7 C13,18.3 12.7,18 12.3,18 L12.3,18 Z" id="Shape"></path>
                <path d="M15.3,18 C14.9,18 14.6,18.3 14.6,18.7 L14.6,25.4 C14.6,25.8 14.9,26.1 15.3,26.1 C15.7,26.1 16,25.8 16,25.4 L16,18.7 C16,18.3 15.7,18 15.3,18 L15.3,18 Z" id="Shape"></path>
                <path d="M9.3,18 C8.9,18 8.6,18.3 8.6,18.7 L8.6,25.4 C8.6,25.8 8.9,26.1 9.3,26.1 C9.7,26.1 10,25.8 10,25.4 L10,18.7 C10,18.3 9.7,18 9.3,18 L9.3,18 Z" id="Shape"></path>
                <path d="M18.3,18 C17.9,18 17.6,18.3 17.6,18.7 L17.6,23.1 C17.6,23.5 17.9,23.8 18.3,23.8 C18.7,23.8 19,23.5 19,23.1 L19,18.7 C19,18.3 18.7,18 18.3,18 L18.3,18 Z" id="Shape"></path>
                <path d="M21.1,18 C20.7,18 20.4,18.3 20.4,18.7 L20.4,20.9 C20.4,21.3 20.7,21.6 21.1,21.6 C21.5,21.6 21.8,21.3 21.8,20.9 L21.8,18.7 C21.8,18.3 21.5,18 21.1,18 L21.1,18 Z" id="Shape"></path>
            </g>
            <g id="thunder" transform="translate(274.000000, 18.000000)" fill="#005467" sketch:type="MSShapeGroup">
                <path d="M5.9,17.9 L5.9,17.9 C5.5,17.9 5.2,18.2 5.2,18.6 L5.2,23 C5.2,23.4 5.5,23.7 5.9,23.7 L5.9,23.7 C6.3,23.7 6.6,23.4 6.6,23 L6.6,18.6 C6.6,18.3 6.3,17.9 5.9,17.9 L5.9,17.9 Z" id="Shape"></path>
                <path d="M11.9,17.9 L11.9,17.9 C11.5,17.9 11.2,18.2 11.2,18.6 L11.2,23 C11.2,23.4 11.5,23.7 11.9,23.7 L11.9,23.7 C12.3,23.7 12.6,23.4 12.6,23 L12.6,18.6 C12.6,18.2 12.3,17.9 11.9,17.9 L11.9,17.9 Z" id="Shape"></path>
                <path d="M14.9,17.9 L14.9,17.9 C14.5,17.9 14.2,18.2 14.2,18.6 L14.2,25.3 C14.2,25.7 14.5,26 14.9,26 L14.9,26 C15.3,26 15.6,25.7 15.6,25.3 L15.6,18.6 C15.6,18.2 15.3,17.9 14.9,17.9 L14.9,17.9 Z" id="Shape"></path>
                <path d="M8.9,17.9 L8.9,17.9 C8.5,17.9 8.2,18.2 8.2,18.6 L8.2,25.3 C8.2,25.7 8.5,26 8.9,26 L8.9,26 C9.3,26 9.6,25.7 9.6,25.3 L9.6,18.6 C9.6,18.2 9.3,17.9 8.9,17.9 L8.9,17.9 Z" id="Shape"></path>
                <path d="M17.9,17.9 C17.5,17.9 17.2,18.2 17.2,18.6 L17.2,23 C17.2,23.4 17.5,23.7 17.9,23.7 L17.9,23.7 C18.3,23.7 18.6,23.4 18.6,23 L18.6,18.6 C18.6,18.2 18.3,17.9 17.9,17.9 L17.9,17.9 Z" id="Shape"></path>
                <path d="M20.7,17.9 L20.7,17.9 C20.3,17.9 20,18.2 20,18.6 L20,20.8 C20,21.2 20.3,21.5 20.7,21.5 L20.7,21.5 C21.1,21.5 21.4,21.2 21.4,20.8 L21.4,18.6 C21.4,18.2 21.1,17.9 20.7,17.9 L20.7,17.9 Z" id="Shape"></path>
                <path d="M23.3,8.2 L23.3,7.7 C23.3,5 21.1,2.8 18.4,2.8 C17.6,2.8 16.8,3 16.1,3.4 C14.9,1.7 13,0.7 10.9,0.7 C7.5,0.7 4.6,3.5 4.6,7 C4.6,7.3 4.6,7.7 4.7,8 C2.3,8.1 0.3,10.1 0.3,12.6 C0.3,13.8 0.8,15 1.6,15.8 C2.4,16.6 3.6,17.1 4.8,17.2 L21.6,17.3 L21.6,17.3 C24.1,17.3 26.2,15.3 26.2,12.7 C26.3,10.6 25.1,8.9 23.3,8.2 L23.3,8.2 Z M21.7,15.7 L21.7,16.4 L21.7,15.7 L4.9,15.6 C4,15.6 3.2,15.3 2.6,14.7 C2,14.1 1.7,13.3 1.7,12.4 C1.7,10.6 3.1,9.2 4.9,9.2 L6.5,9.2 L6.2,8.3 C6,7.8 6,7.3 6,6.8 C6,4.1 8.2,1.9 10.9,1.9 C12.7,1.9 14.4,2.9 15.2,4.5 L15.6,5.2 L16.2,4.7 C16.8,4.2 17.6,4 18.3,4 C20.3,4 21.8,5.6 21.8,7.6 C21.8,7.9 21.8,8.2 21.7,8.5 L21.5,9.2 L22.2,9.4 C23.7,9.7 24.7,11 24.7,12.5 C24.9,14.2 23.5,15.7 21.7,15.7 L21.7,15.7 Z" id="Shape"></path>
                <path d="M14.7,8.7 L14.7,8.7 L13.1,8.7 L14.1,6.9 C14.3,6.6 14.1,6.2 13.8,6 C13.5,5.8 13.1,6 12.9,6.3 L11.4,9.1 C11.3,9.3 11.3,9.6 11.4,9.8 C11.5,10 11.7,10.1 12,10.1 L12,10.1 L13.6,10.1 L12.4,12.3 C12.2,12.6 12.4,13 12.7,13.2 C12.8,13.3 12.9,13.3 13,13.3 C13.2,13.3 13.5,13.2 13.6,12.9 L15.3,9.7 C15.4,9.5 15.4,9.2 15.3,9 C15.2,8.8 14.9,8.7 14.7,8.7 L14.7,8.7 Z" id="Shape"></path>
            </g>
            <path d="M297.2,37.5 L294.2,35.8 C294.4,35.6 294.6,35.4 294.9,35.4 C295.4,35.3 295.8,35.6 295.8,35.7 C296.1,36 296.5,35.9 296.8,35.6 C297.1,35.3 297,34.8 296.7,34.6 C296.6,34.5 295.8,33.8 294.7,34 C294.1,34.1 293.5,34.5 293,35.1 L291.8,34.4 L291.9,34.2 C292.1,33.9 292,33.4 291.6,33.2 C291.3,33 290.8,33.1 290.6,33.5 L290.5,33.7 L288.2,32.4 L290.5,31.1 L290.6,31.3 C290.7,31.5 291,31.7 291.2,31.7 C291.3,31.7 291.4,31.7 291.6,31.6 C291.9,31.4 292.1,31 291.9,30.6 L291.8,30.4 L293,29.7 C293.5,30.3 294.1,30.7 294.7,30.8 L295.1,30.8 C296,30.8 296.7,30.3 296.8,30.2 C297.1,29.9 297.1,29.5 296.9,29.2 C296.6,28.9 296.2,28.9 295.9,29.1 C295.9,29.1 295.5,29.4 295,29.3 C294.7,29.3 294.5,29.1 294.3,28.9 L297.3,27.2 C297.6,27 297.8,26.6 297.6,26.2 C297.4,25.9 297,25.7 296.6,25.9 L293.6,27.6 C293.5,27.3 293.5,27 293.6,26.8 C293.8,26.4 294.2,26.2 294.3,26.2 C294.7,26.1 294.9,25.7 294.7,25.3 C294.6,24.9 294.2,24.7 293.8,24.9 C293.7,24.9 292.7,25.3 292.3,26.4 C292.1,27 292.1,27.7 292.4,28.4 L291.2,29.1 L291.1,28.9 C290.9,28.6 290.5,28.4 290.1,28.6 C289.8,28.8 289.6,29.2 289.8,29.6 L289.9,29.8 L287.6,31.1 L287.6,28.4 L287.8,28.4 C288.2,28.4 288.5,28.1 288.5,27.7 C288.5,27.3 288.2,27 287.8,27 L287.6,27 L287.6,25.7 C288.4,25.6 289,25.3 289.4,24.8 C290.1,23.9 290,22.9 289.9,22.7 C289.8,22.3 289.5,22.1 289.1,22.1 C288.7,22.2 288.5,22.5 288.5,22.9 C288.5,22.9 288.6,23.4 288.3,23.8 C288.1,24 287.9,24.1 287.6,24.2 L287.6,20.7 C287.6,20.3 287.3,20 286.9,20 C286.5,20 286.2,20.3 286.2,20.7 L286.2,24.2 C285.9,24.1 285.7,24 285.5,23.8 C285.2,23.4 285.3,22.9 285.3,22.9 C285.4,22.5 285.1,22.1 284.7,22.1 C284.3,22 283.9,22.3 283.9,22.7 C283.9,22.8 283.7,23.9 284.4,24.8 C284.8,25.3 285.4,25.6 286.2,25.7 L286.2,27 L285.9,27 C285.5,27 285.2,27.3 285.2,27.7 C285.2,28.1 285.5,28.4 285.9,28.4 L286.1,28.4 L286.1,31.1 L283.8,29.8 L283.9,29.6 C284.1,29.3 284,28.8 283.6,28.6 C283.3,28.4 282.8,28.5 282.6,28.9 L282.5,29.1 L281.3,28.4 C281.6,27.7 281.6,27 281.4,26.4 C281,25.3 280,25 279.9,24.9 C279.5,24.8 279.1,25 279,25.3 C278.9,25.7 279.1,26.1 279.4,26.2 C279.4,26.2 279.9,26.4 280.1,26.8 C280.2,27 280.2,27.3 280.1,27.6 L277.1,25.9 C276.8,25.7 276.3,25.8 276.1,26.2 C275.9,26.5 276,27 276.4,27.2 L279.4,28.9 C279.2,29.1 279,29.3 278.7,29.3 C278.2,29.4 277.8,29.1 277.8,29 C277.5,28.7 277.1,28.8 276.8,29.1 C276.5,29.4 276.6,29.9 276.9,30.1 C277,30.2 277.6,30.7 278.6,30.7 L279,30.7 C279.6,30.6 280.2,30.2 280.7,29.6 L281.9,30.3 L281.8,30.5 C281.6,30.8 281.7,31.3 282.1,31.5 C282.2,31.6 282.3,31.6 282.5,31.6 C282.7,31.6 283,31.5 283.1,31.2 L283.2,31 L285.5,32.3 L283.2,33.6 L283.1,33.4 C282.9,33.1 282.5,32.9 282.1,33.1 C281.8,33.3 281.6,33.7 281.8,34.1 L281.9,34.3 L280.7,35 C280.2,34.4 279.6,34 279,33.9 C277.9,33.7 277,34.4 277,34.5 C276.7,34.8 276.7,35.2 276.9,35.5 C277.2,35.8 277.6,35.8 277.9,35.6 C277.9,35.6 278.3,35.3 278.8,35.4 C279.1,35.4 279.3,35.6 279.5,35.8 L276.5,37.5 C276.2,37.7 276,38.1 276.2,38.5 C276.3,38.7 276.6,38.9 276.8,38.9 C276.9,38.9 277,38.9 277.2,38.8 L280.2,37.1 C280.3,37.4 280.3,37.7 280.2,37.9 C280,38.3 279.6,38.5 279.5,38.5 C279.1,38.6 278.9,39 279.1,39.4 C279.2,39.7 279.5,39.9 279.8,39.9 L280,39.9 C280.1,39.9 281.1,39.5 281.5,38.4 C281.7,37.8 281.7,37.1 281.4,36.4 L282.6,35.7 L282.7,35.9 C282.8,36.1 283.1,36.3 283.3,36.3 C283.4,36.3 283.5,36.3 283.7,36.2 C284,36 284.2,35.6 284,35.2 L283.9,35 L286.2,33.7 L286.2,36.4 L285.9,36.4 C285.5,36.4 285.2,36.7 285.2,37.1 C285.2,37.5 285.5,37.8 285.9,37.8 L286.1,37.8 L286.1,39.1 C285.3,39.2 284.7,39.5 284.3,40 C283.6,40.9 283.7,41.9 283.8,42.1 C283.9,42.4 284.2,42.7 284.5,42.7 L284.6,42.7 C285,42.6 285.2,42.3 285.2,41.9 C285.2,41.9 285.1,41.4 285.4,41 C285.6,40.8 285.8,40.7 286.1,40.6 L286.1,44.1 C286.1,44.5 286.4,44.8 286.8,44.8 C287.2,44.8 287.5,44.5 287.5,44.1 L287.5,40.6 C287.8,40.7 288,40.8 288.2,41 C288.5,41.4 288.4,41.9 288.4,41.9 C288.3,42.3 288.6,42.7 289,42.7 L289.1,42.7 C289.4,42.7 289.7,42.5 289.8,42.1 C289.8,42 290,40.9 289.3,40 C288.9,39.5 288.3,39.2 287.5,39.1 L287.5,37.8 L287.7,37.8 C288.1,37.8 288.4,37.5 288.4,37.1 C288.4,36.7 288.1,36.4 287.7,36.4 L287.5,36.4 L287.5,33.7 L289.8,35 L289.7,35.2 C289.5,35.5 289.6,36 290,36.2 C290.1,36.3 290.2,36.3 290.4,36.3 C290.6,36.3 290.9,36.2 291,35.9 L291.1,35.7 L292.3,36.4 C292,37.1 292,37.8 292.2,38.4 C292.6,39.5 293.6,39.8 293.7,39.9 L293.9,39.9 C294.2,39.9 294.5,39.7 294.6,39.4 C294.7,39 294.5,38.6 294.2,38.5 C294.2,38.5 293.7,38.3 293.5,37.9 C293.4,37.7 293.4,37.4 293.5,37.1 L296.5,38.8 C296.6,38.9 296.7,38.9 296.9,38.9 C297.1,38.9 297.4,38.8 297.5,38.5 C297.7,38.1 297.6,37.7 297.2,37.5 L297.2,37.5 Z" id="Shape" fill="#005467" sketch:type="MSShapeGroup"></path>
        </g>
    </g>
</svg>