<svg version="1.1"
	 xmlns="http://www.w3.org/2000/svg" xmlns:xlink="http://www.w3.org/1999/xlink" x="0px" y="0px" viewBox="0 0 274 188">
<g id="binder" opacity="0.9">
	<g id="g2687" transform="translate(351.036,56.43)">
		<path id="path2689" fill="#797979" d="M-311.599,23.891h-5.994v21.725h5.608V42.8h0.064c0.397,1.143,1.1,2.022,2.392,2.54v-3.857
			c-1.614-0.184-2.457-0.87-2.457-2.773v-1.492c0-1.902,0.843-2.58,2.457-2.761v-3.802c-1.048,0.459-1.825,1.235-2.019,2.485h-0.051
			V23.891"/>
	</g>
	<g id="g2691" transform="translate(356.067,52.101)">
		<path id="path2693" fill="#797979" d="M-309.44,34.407h-1.775c-1.181,0-2.377,0.151-3.344,0.576v3.802
			c0.35-0.04,0.736-0.056,1.158-0.056h3.524c2.868,0,3.151,0.952,3.151,2.663v1.801c0,1.711-0.283,2.675-3.151,2.675h-3.524
			c-0.422,0-0.807-0.017-1.158-0.057v3.857c0.845,0.339,1.941,0.522,3.37,0.522h1.749c7.576,0,8.502-2.611,8.502-6.521v-2.753
			C-300.937,37.018-301.864,34.407-309.44,34.407"/>
	</g>
	<path id="path2695" fill="#797979" d="M65.24,80.321h-5.981v4.502h5.981V80.321z M65.24,86.74h-5.981v15.307h5.981V86.74z"/>
	<g id="g2697" transform="translate(381.501,52.0978)">
		<path id="path2699" fill="#797979" d="M-298.524,34.415v4.651c1.415,0.289,2.097,0.986,2.097,2.098v8.785h5.981v-8.785
			C-290.446,35.021-294.909,34.464-298.524,34.415"/>
	</g>
	<g id="g2701" transform="translate(380.934,52.101)">
		<path id="path2703" fill="#797979" d="M-298.767,34.407c-3.203,0-5.287,0.566-6.354,2.701h-0.064v-2.47h-5.981v15.307h5.981
			v-7.718c0-2.187,1.531-3.319,4.09-3.319h1.363c0.685,0,1.275,0.051,1.775,0.153v-4.651
			C-298.233,34.409-298.504,34.407-298.767,34.407"/>
	</g>
	<g id="g2705" transform="translate(404.973,56.43)">
		<path id="path2707" fill="#797979" d="M-288.45,23.891h-5.981v9.248h-0.064c-0.373-2.405-2.907-3.061-5.364-3.061h-1.775
			c-7.576,0-8.502,2.611-8.502,6.509v2.753c0,3.91,0.926,6.521,8.502,6.521h1.749c3.614,0,5.106-1.171,5.762-3.061h0.064v2.817
			h5.608V23.891 M-301.197,41.539c-2.868,0-3.151-0.965-3.151-2.675v-1.801c0-1.711,0.283-2.663,3.151-2.663h3.524
			c2.367,0,3.614,0.502,3.614,2.817v1.492c0,2.315-1.248,2.83-3.614,2.83H-301.197"/>
	</g>
	<g id="g2709" transform="translate(416.187,52.0914)">
		<path id="path2711" fill="#797979" d="M-283.637,34.431v3.677c1.642,0.186,2.109,0.717,2.109,2.071h-2.109v3.409h7.911v-2.573
			C-275.726,36.01-278.045,34.579-283.637,34.431 M-275.726,44.848h-5.608c0,0.786-0.117,1.534-2.302,1.711v3.64h0.026
			c4.335,0,7.885-0.849,7.885-4.682V44.848"/>
	</g>
	<g id="g2713" transform="translate(415.44,52.101)">
		<path id="path2715" fill="#797979" d="M-283.958,34.407h-4.168c-4.36,0-7.357,1.261-7.357,7.049v1.466
			c0,6.547,4.18,7.267,8.129,7.267h4.463v-3.642c-0.319,0.026-0.68,0.04-1.093,0.04h-1.839c-2.495,0-3.679-0.45-3.679-2.071v-0.939
			h6.611V40.17h-6.611c0-1.839,0.463-2.161,4.36-2.161c0.923,0,1.662,0.023,2.251,0.089v-3.676
			C-283.233,34.412-283.589,34.407-283.958,34.407"/>
	</g>
	<g id="g2717" transform="translate(432.171,52.101)">
		<path id="path2719" fill="#797979" d="M-276.777,34.407c-2.701,0-5.132,0.72-5.827,3.151h-0.051v-2.92h-5.608v15.307h5.981v-8.464
			c0-1.827,1.428-2.573,3.486-2.573c2.392,0,2.868,0.926,2.868,2.881h5.171c0.026-0.54,0.064-0.965,0.064-1.351
			C-270.693,36.208-272.404,34.407-276.777,34.407"/>
	</g>
	<g id="g2721" transform="translate(445.338,51.849)">
		<path id="path2723" fill="#797979" d="M-271.126,35.019h-4.309v5.518h-5.724v4.142h5.724v5.518h4.309v-5.518h5.724v-4.142h-5.724
			V35.019z"/>
	</g>
	<g id="g2725" transform="translate(456.534,52.101)">
		<path id="path2727" fill="#797979" d="M-266.321,34.407h-0.077c-4.36,0-7.357,1.261-7.357,7.049v1.466
			c0,6.164,3.706,7.163,7.435,7.259v-4.749c-0.899-0.337-1.453-1.043-1.453-2.33v-2.045c0-1.058,0.474-1.708,1.453-2.044V34.407"/>
	</g>
	<g id="g2729" transform="translate(461.187,52.101)">
		<path id="path2731" fill="#797979" d="M-264.324,34.407h-6.65v4.606c0.569-0.196,1.308-0.284,2.225-0.284h2.302
			c2.624,0,3.46,0.566,3.46,2.122h5.801v-1.376C-257.185,35.964-259.899,34.407-264.324,34.407 M-257.185,43.553h-5.801v0.36
			c0,1.415-1.518,1.775-3.203,1.775h-3.061c-0.653,0-1.239-0.074-1.724-0.256v4.749c0.232,0.006,0.463,0.009,0.695,0.009h6.11
			c3.434,0,6.984-1.171,6.984-5.287V43.553"/>
	</g>
	<path id="path2733" fill="#797979" d="M239.786,86.495h-8.104v4.283h8.104V86.495z"/>
	<g id="g2739" transform="translate(485.55,52.11)">
		<path id="path2741" fill="#797979" d="M-253.867,34.385H-263h-8.94c-3.061,0-6.573,1.029-6.573,6.071v3.653
			c0,5.042,3.512,6.058,6.573,6.058h8.94c3.048,0,6.573-1.016,6.573-6.058v-3.653c0-0.836,0.039-1.158-0.129-1.788h2.688V34.385
			 M-268.454,45.846c-2.74,0-4.077-0.656-4.077-2.843v-1.441c0-2.187,1.338-2.856,4.077-2.856h1.441
			c3.859,0,4.605,0.489,4.605,2.521v2.109c0,2.032-0.746,2.508-4.605,2.508H-268.454"/>
	</g>
	<g id="g2735" transform="translate(491.913,52.11)">
		<path id="path2737" fill="#797979" d="M-251.136,34.385h-0.99v4.283h0.939L-251.136,34.385z"/>
	</g>
</g>
</svg>
