<svg version="1.1" xmlns="http://www.w3.org/2000/svg" xmlns:xlink="http://www.w3.org/1999/xlink" x="0px" y="0px" viewBox="0 0 274 188">
<g id="cola" opacity="0.9">
	<path fill="#7A7979" d="M118.288,112.27c-6.003-3.789-14.149-4.454-27.288-0.882c-14.006,3.225-18.676,5.292-24.809,1.142
		c-2.356-2.039-3.2-5.321-2.57-10.049c1.463-7.707,5.417-15.125,12.44-23.352c3.92-4.28,7.555-7.953,12.357-9.428
		c3.68-0.925,3.336,1.908,2.89,2.313c-0.47,0-1.259,0.073-1.869,0.463c-0.495,0.376-1.854,1.591-1.927,3.225
		c-0.105,2.501,2.537,1.98,3.676,0.607c1.229-1.548,3.044-4.511,1.616-7.273c-0.598-0.984-1.632-1.663-2.916-1.894
		c-4.397-0.247-8.491,1.807-12.27,4.077c-8.264,5.625-14.875,13.419-18.616,21.95c-2.156,5.148-4.107,12.521-1.183,18.523
		c2.261,4.164,6.957,6.376,12.558,5.914c3.929-0.405,8.68-1.649,11.875-2.4c3.195-0.753,19.551-6.261,24.925,3.326
		c0,0,1.787-3.399,6.253-3.471c3.672-0.332,8.969,1.041,12.826,3.817C124.971,116.984,121.328,114.194,118.288,112.27"/>
	<path fill="#7A7979" d="M91.614,87.039c-0.009,0.029-0.987,2.227-0.987,2.227c-0.141,0.115-0.365,0.057-0.621,0l-0.439-0.073
		c-1.378-0.419-2.417-1.316-2.737-2.386c-0.442-2.082,1.373-3.716,2.173-4.309c0.768-0.521,1.961-0.795,2.654-0.26
		c0.427,0.492,0.589,1.128,0.589,1.822C92.246,85,91.95,86.055,91.614,87.039 M89.514,91.217c0,0-0.044,0.131-0.066,0.174
		c-0.006,0-2.222,3.542-2.222,3.542c-1.338,1.75-3.008,3.948-5.096,5.003c-0.619,0.203-1.474,0.333-1.91-0.201
		c-0.925-1.085-0.448-2.589-0.061-3.803l0.137-0.434c1.109-2.95,2.87-5.553,4.583-7.968c0.021-0.014,0.069-0.028,0.087-0.028
		c0.004,0.014,0.011,0.014,0.014,0.043c1.075,2.024,3.091,2.963,4.599,3.398c0.009,0,0.018,0.014,0.018,0.043
		C89.598,91.029,89.573,91.088,89.514,91.217 M117.243,88.889c0.991-1.344,3.877-4.945,4.581-5.552
		c2.366-2.039,3.311-1.142,3.393-0.506c-2.208,3.875-4.814,8.314-7.265,12.305c0.005-0.014-0.767,1.143-0.767,1.143
		c-1.082,1.619-2.172,3.007-3.949,3.975c-0.254,0.073-0.672,0.102-0.95-0.101c-0.334-0.217-0.467-0.578-0.429-0.954
		C111.964,97.955,113.256,94.153,117.243,88.889 M92.669,80.098c-3.059-1.966-9.208,1.793-14.132,8.242
		c-4.503,5.784-6.448,12.507-4.332,15.616c3.148,3.658,8.992-1.663,11.477-4.511l0.321-0.333c1.69-1.778,2.996-3.918,4.259-5.972
		c0,0,1.162-1.88,1.217-1.967c0.718-0.129,1.583-0.332,2.557-0.606c-0.014,0.043-3.728,6.159-3.349,9.195
		c0.118,0.927,0.028,4.31,3.4,5.336c4.493,0.738,8.082-2.675,11.247-5.711c0,0,0.54-0.506,0.845-0.795
		c-0.078,0.303-0.178,0.707-0.178,0.707c-1.316,4.483,0.458,5.424,1.567,5.771c3.352,0.955,7.357-3.817,7.37-3.817
		c-0.104,1.503-0.407,2.746,1.21,3.744c1.526,0.536,3.071-0.281,4.245-1.047c4.23-2.921,7.638-7.492,10.39-11.444h-1.756
		c-0.02,0-4.331,6.123-7.131,7.453c-0.005,0-0.514,0.257-0.808,0.054c-0.363-0.304-0.22-0.936,0.005-1.383
		c0.014-0.029,10.809-18.374,10.809-18.374h-5.097c0,0-0.557,0.883-0.602,0.941c-0.034-0.029-0.116-0.181-0.173-0.253
		c-3.157-4.28-10.309,2.303-15.693,9.937c-2.072,2.936-4.711,6.241-7.448,8.627c0,0-4.054,3.641-5.786,1.025
		c-0.633-1.099-0.438-2.706-0.081-3.761c2.017-5.625,5.492-10.73,9.446-13.81c1.116-0.853,2.33-1.099,2.932-0.738
		c0.574,0.333,0.666,1.157,0.303,1.721c-0.921-0.029-1.659,0.245-2.259,0.853c-1.181,1.214-1.592,2.386-1.216,3.485
		c1.825,2.545,5.465-2.487,5.289-5.553c-0.063-1.099-0.661-2.14-1.555-2.646c-1.331-0.781-3.361-0.579-4.675,0.044
		c-1.76,0.65-4.545,2.92-6.17,4.684c-2.046,2.213-5.556,4.671-6.654,4.396C92.823,88.267,95.788,82.325,92.669,80.098"/>
	<path fill="#7A7979" d="M169.417,71.957c-0.77,8.647-7.63,13.722-9.327,14.127c-1.029,0.202-2.784-0.246-1.217-3.875
		c2.308-4.888,6.247-9.038,10.474-11.163C169.45,71.407,169.447,71.638,169.417,71.957 M156.05,93.747
		c-0.491-1.041-1.658-1.706-2.901-1.634c-4.038,0.362-7.988,3.615-10.061,8.285c-1.088,2.401-1.682,4.382-2.072,7.534
		c1.256-1.417,3.817-3.745,6.723-5.017c0,0,0.396-3.022,2.412-5.712c0.763-1.114,2.29-2.906,4.005-2.43
		c1.498,0.492,0.971,4.556-1.02,8.488c-1.473,2.892-3.727,5.785-6.009,7.78c-2.016,1.677-5,3.702-7.611,2.14
		c-1.644-0.954-2.483-2.95-2.305-5.524c0.785-7.302,4.178-13.519,9.032-20.605c5.006-6.579,10.524-13.331,17.958-16.932
		c1.516-0.752,2.92-0.926,4.134-0.463c0,0-6.978,3.76-10.304,10.715c-0.846,1.764-2.023,4.15-0.838,6.261
		c0.619,1.099,1.719,1.186,2.604,1.128c4.077-0.926,6.711-4.656,8.864-8.069c1.248-2.588,2.357-5.162,2.357-8.025
		c0-0.347-0.019-0.809-0.049-1.157c1.948-1.012,5.942,0.781,5.942,0.781c3.122,1.013,9.768,6.002,12.01,6.955
		c1.094-1.243,2.891-3.122,3.903-4.063l-1.465-0.882c-2.345-1.402-4.824-2.733-7.264-4.048c-5.541-2.964-10.052-1.924-12.347-1.114
		c-0.903,0.318-1.727,0.593-1.727,0.593c-1.704-1.822-4.498-1.649-6.556-1.157c-7.404,2.082-14.277,7.158-21.647,15.964
		c-5.418,6.897-8.779,12.855-10.57,18.74c-1.381,3.961-1.8,9.789,1.57,13.245c2.865,2.934,6.664,2.298,9.347,1.243
		c5.813-2.805,11.038-8.849,13.641-15.805C156.434,98.895,157.132,95.974,156.05,93.747"/>
	<path fill="#7A7979" d="M210.11,73.056c-3.69,2.054-7.515,3.384-12.146,2.921c-1.283,1.417-2.532,2.878-3.684,4.381
		c6.499,1.62,13.389-1.981,17.232-5.407c4.064-3.456,6.149-7.808,6.149-7.808S214.614,70.555,210.11,73.056"/>
	<polygon fill="#7A7979" points="140.373,80.256 135.533,80.256 132.802,84.603 137.642,84.603 	"/>
	<path fill="#7A7979" d="M191.128,111.259c-0.002,0-0.499,0.433-0.499,0.433c-0.709,0.622-1.439,1.287-2.32,0.954
		c-0.244-0.086-0.415-0.404-0.456-0.651c-0.04-1.778,0.777-3.426,1.57-5.031l0.203-0.42c2.281-3.73,4.931-8.126,8.824-11.176
		c0.656-0.464,1.368-0.854,2.119-0.55c0.173,0.159,0.374,0.434,0.374,0.708c0,0.087-0.079,0.319-0.124,0.39
		c-1.087,1.722-2.123,3.529-3.13,5.264C195.722,104.607,193.68,108.149,191.128,111.259 M170.036,102.467
		c-0.149,0.102-2.779-0.766-3.287-3.152c-0.431-2.054,1.013-3.659,2.409-4.468c0.6-0.463,1.503-0.622,2.165-0.391
		c0.615,0.405,0.782,1.129,0.782,1.908c0,0.479-0.065,0.97-0.122,1.418c0,0-0.011,0.087-0.013,0.101
		C171.532,99.488,170.862,101.064,170.036,102.467 M159.99,112.17c-0.268-0.391-0.357-0.818-0.366-1.279
		c-0.051-2.836,3.062-7.913,5.26-10.679h0.004c0.921,1.976,3.007,3.246,4.266,3.781C167.59,107.406,162.228,114.714,159.99,112.17
		 M197.945,112.673c-0.52,0.347-1.252,0.08-0.978-0.715c0.681-2.024,3.388-6.15,3.388-6.15l7.541-13.104h-5.165
		c-0.246,0.395-0.771,1.302-0.771,1.302c-0.239-0.389-0.954-1.257-1.248-1.444c-1.262-0.782-3.113-0.412-4.391,0.296
		c-5.553,3.182-9.605,9.468-12.8,14.37c0,0-3.364,5.449-5.231,5.854c-1.458,0.116-1.307-1.808-1.244-2.256
		c0.563-3.24,1.872-6.32,3.191-9.11c2.682-1.822,5.743-4.208,8.525-6.825c6.037-5.654,11.127-12.06,11.87-13.491
		c0,0-0.805,0.159-1.756,0.187c-4.644,6.348-14.148,15.574-17.03,16.947c1.277-3.008,9.524-17.366,16.542-24.234l1.104-1.042
		c1.708-1.634,3.477-3.311,4.856-3.586c0.146-0.014,0.333,0,0.496,0.333c0.061,1.273-0.422,2.213-0.977,3.283l-0.777,1.561
		c0,0,1.101-0.202,1.824-0.434c0.839-1.547,1.767-3.282,1.425-5.349c-0.114-0.666-0.606-1.172-1.248-1.287
		c-2.093-0.391-4.375,1.127-6.211,2.356l-0.074,0.044c-9.438,7.244-17.407,17.684-24.374,31.942
		c-0.505,0.375-2.456,0.823-2.788,0.606c0.688-1.388,1.554-3.253,1.988-5.278c0.075-0.578,0.145-1.171,0.145-1.749
		c0-1.245-0.305-2.415-1.443-3.225c-1.334-0.651-2.983-0.347-4.095,0.145c-4.98,2.024-8.703,7.028-11.389,11.148
		c-1.444,2.618-2.885,5.422-3.284,8.632c-0.281,2.516,0.291,4.136,1.751,4.946c1.502,0.751,3.391-0.03,4.133-0.406
		c5.046-2.602,8.571-7.822,11.35-12.594c0.111-0.014,1.628-0.058,2.775-0.347c0.016,0,0.022,0,0.048,0.015
		c-0.066,0.216-0.659,1.952-0.659,1.952c-1.761,5.06-2.576,8.502-0.912,10.541c2.377,2.877,6.313-0.101,9.514-4.035
		c-0.687,4.714,1.806,5.452,3.707,5.09c2.183-0.578,4.616-2.863,5.745-4.034c-0.362,1.374-0.264,3.832,1.722,4.078
		c1.362,0.246,2.38-0.479,3.56-1.101c4.228-2.256,9.289-9.773,10.604-11.947h-1.723
		C203.312,107.325,200.935,110.952,197.945,112.673"/>
</g>
</svg>
