<svg version="1.1" xmlns="http://www.w3.org/2000/svg" xmlns:xlink="http://www.w3.org/1999/xlink" x="0px" y="0px" viewBox="0 0 274 188">
<g id="siemens">
	<path fill="#8A8A8A" d="M218.071,79.719v4.944c-2.562-0.967-4.842-1.456-6.838-1.456c-1.183,0-2.124,0.219-2.832,0.643
		c-0.708,0.427-1.069,0.952-1.069,1.572c0,0.825,0.799,1.559,2.408,2.215l4.649,2.263c3.759,1.792,5.623,4.171,5.623,7.159
		c0,2.485-0.989,4.467-2.985,5.934c-1.981,1.481-4.649,2.215-7.969,2.215c-1.533,0-2.908-0.066-4.131-0.205
		c-1.222-0.131-2.627-0.401-4.185-0.788v-5.174c2.857,0.967,5.459,1.456,7.801,1.456c2.796,0,4.186-0.81,4.186-2.445
		c0-0.814-0.569-1.471-1.726-1.985l-5.164-2.201c-1.904-0.861-3.32-1.904-4.247-3.141c-0.912-1.248-1.376-2.679-1.376-4.314
		c0-2.288,0.964-4.13,2.868-5.532c1.92-1.39,4.467-2.087,7.634-2.087c1.029,0,2.215,0.091,3.529,0.259
		C215.571,79.23,216.845,79.449,218.071,79.719z"/>
	<rect x="77.158" y="79.255" fill="#8A8A8A" width="7.572" height="25.489"/>
	<polygon fill="#8A8A8A" points="90.588,79.256 90.588,104.745 109.355,104.745 109.355,99.8 97.875,99.8 97.875,93.868
		107.632,93.868 107.632,89.62 97.875,89.62 97.875,83.968 109.125,83.968 109.125,79.256 	"/>
	<polygon fill="#8A8A8A" points="135.694,79.256 129.092,94.859 122.784,79.256 113.541,79.256 113.541,104.745 118.653,104.745
		118.653,87.934 125.706,104.979 130.07,104.979 137.405,87.934 137.405,104.745 144.474,104.745 144.474,79.256 	"/>
	<polygon fill="#8A8A8A" points="150.319,79.256 150.319,104.745 169.087,104.745 169.087,99.8 157.668,99.8 157.668,93.868
		167.425,93.868 167.425,89.62 157.668,89.62 157.668,83.968 168.856,83.968 168.856,79.256 	"/>
	<polygon fill="#8A8A8A" points="190.317,79.256 190.317,95.323 181.538,79.256 173.272,79.256 173.272,104.745 178.381,104.745
		178.381,88.397 187.394,104.745 195.425,104.745 195.425,79.256 	"/>
	<path fill="#8A8A8A" d="M71.831,79.719v4.944c-2.562-0.967-4.839-1.456-6.835-1.456c-1.186,0-2.123,0.219-2.831,0.643
		c-0.708,0.427-1.07,0.952-1.07,1.572c0,0.825,0.811,1.559,2.42,2.215l4.649,2.263c3.744,1.792,5.612,4.171,5.612,7.159
		c0,2.485-0.993,4.467-2.974,5.934c-1.996,1.481-4.649,2.215-7.98,2.215c-1.533,0-2.912-0.066-4.135-0.205
		c-1.222-0.131-2.613-0.401-4.182-0.788v-5.174c2.868,0.967,5.47,1.456,7.798,1.456c2.796,0,4.186-0.81,4.186-2.445
		c0-0.814-0.566-1.471-1.712-1.985l-5.163-2.201c-1.919-0.861-3.335-1.904-4.248-3.141c-0.926-1.248-1.379-2.679-1.379-4.314
		c0-2.288,0.956-4.13,2.872-5.532c1.905-1.39,4.455-2.087,7.623-2.087c1.04,0,2.211,0.091,3.539,0.259
		C69.335,79.23,70.609,79.449,71.831,79.719"/>
</g>
</svg>
