<svg version="1.1" xmlns="http://www.w3.org/2000/svg" xmlns:xlink="http://www.w3.org/1999/xlink" x="0px" y="0px" viewBox="0 0 274 188">
<g opacity="0.9">
	<path fill="#7A7979" d="M197.026,127.718c-1.032,0.016-7.782-0.217-7.782-7.908c0.028-7.667,6.709-7.77,7.742-7.764
		c1.039-0.006,7.717,0.097,7.729,7.764c0.019,7.691-6.737,7.924-7.77,7.908 M197.014,125.602c0.43,0,3.548,0.132,3.522-6.084
		c-0.021-5.77-3.054-5.598-3.55-5.598h0.009c-0.496,0-3.528-0.172-3.553,5.598c-0.029,6.216,3.089,6.084,3.516,6.084H197.014z"/>
	<path fill="#7A7979" d="M187.313,112.913v1.909c-0.785-0.336-1.233-0.581-2.069-0.807c-0.656-0.145-3.466-0.81-4.816,0.603
		c-0.565,0.571-0.734,1.62,0.396,2.436c1.592,1.03,3.868,1.507,5.736,3.032c1.227,0.968,1.623,2.107,1.312,3.849
		c-0.32,1.771-2.254,3.199-3.99,3.564c-2.528,0.508-5.368,0.27-7.623-0.681l0.016-1.881c2.069,0.866,5.287,1.968,7.284,0.217
		c0.552-0.506,0.885-1.219,0.596-1.96c-0.449-1.359-4.16-2.169-6.423-3.855c-2.248-1.378-2.044-3.745-1.259-5.048
		C178.589,111.12,183.954,111.996,187.313,112.913"/>
	<path fill="#7A7979" d="M174.351,112.913v1.909c-0.791-0.336-1.237-0.581-2.069-0.807c-0.65-0.145-3.472-0.81-4.812,0.603
		c-0.572,0.571-0.744,1.62,0.376,2.436c1.604,1.03,3.878,1.507,5.752,3.032c1.224,0.968,1.616,2.107,1.303,3.849
		c-0.314,1.771-2.258,3.199-3.984,3.564c-2.528,0.508-5.369,0.27-7.616-0.681l0.009-1.881c2.072,0.866,5.287,1.968,7.293,0.217
		c0.533-0.506,0.872-1.219,0.59-1.96c-0.462-1.359-4.166-2.169-6.427-3.855c-2.244-1.378-2.043-3.745-1.262-5.048
		C165.621,111.12,170.989,111.996,174.351,112.913"/>
	<path fill="#7A7979" d="M121.238,112.913v1.909c-0.797-0.336-1.237-0.581-2.078-0.807c-0.653-0.145-3.463-0.81-4.804,0.603
		c-0.574,0.571-0.744,1.62,0.386,2.436c1.589,1.03,3.871,1.507,5.739,3.032c1.228,0.968,1.62,2.107,1.31,3.849
		c-0.315,1.771-2.261,3.199-3.988,3.564c-2.524,0.508-5.371,0.27-7.622-0.681l0.009-1.881c2.079,0.866,5.293,1.968,7.296,0.217
		c0.543-0.506,0.876-1.219,0.584-1.96c-0.449-1.359-4.153-2.169-6.42-3.855c-2.245-1.378-2.037-3.745-1.265-5.048
		C112.507,111.12,117.879,111.996,121.238,112.913"/>
	<path fill="#7A7979" d="M102.11,125.929c2.047,0.204,4.549-0.11,6.546-0.163l0.009,1.698H97.828c0,0,0.339-0.351,0.339-0.942
		v-13.298c0-0.587-0.339-0.951-0.339-0.951h10.837l-0.009,1.698c-1.997-0.035-4.499-0.361-6.546-0.151c0,0-0.003,4.697-0.003,5.017
		c1.679,0.104,3.654,0.119,5.224-0.078v1.802c-1.542-0.145-3.56-0.173-5.224-0.085l0.003,0.578"/>
	<path fill="#7A7979" d="M155.285,125.929c2.047,0.204,4.543-0.11,6.549-0.163l0.003,1.698h-10.822c0,0,0.333-0.351,0.333-0.942
		v-13.298c0-0.587-0.333-0.951-0.333-0.951h10.822l-0.003,1.698c-2.006-0.035-4.502-0.361-6.549-0.151c0,0-0.006,4.697-0.006,5.017
		c1.682,0.104,3.657,0.119,5.236-0.078v1.802c-1.544-0.145-3.569-0.173-5.23-0.085v0.578"/>
	<path fill="#7A7979" d="M140.571,121.192v5.331c0.003,0.587,0.339,0.951,0.339,0.951l-4.627-0.01c0,0,0.332-0.351,0.336-0.941
		l-0.004-13.299c0-0.587-0.332-0.951-0.332-0.951h7.892c2.144,0.091,4.414,1.275,4.48,3.852c0.025,2.103-0.907,3.318-2.311,3.99
		c-0.266,0.126-0.248,0.095-0.339,0.157c0.995,2.314,1.896,4.019,3.096,6.251c0.245,0.587,0.728,0.941,0.728,0.941h-4.781
		c0,0,0.289-0.354-0.006-0.941c0,0-1.699-4.003-2.496-5.331 M140.546,114.188v5.127c1.306,0,2.888,0.172,3.796-0.876
		c0.772-1.027,0.64-2.349,0.128-3.287C143.563,113.623,140.546,114.188,140.546,114.188"/>
	<path fill="#7A7979" d="M127.586,126.523c0,0.587,0.336,0.948,0.336,0.948l-4.625-0.006c0,0,0.342-0.352,0.342-0.942v-13.299
		c0-0.587-0.342-0.951-0.342-0.951h7.645c1.918,0.069,3.409,0.951,4.04,2.81c0.477,1.629,0.415,3.742-0.747,5.067
		c-1.548,2.053-6.659,1.752-6.659,1.752 M127.57,114.207l-0.016,5.707c1.322,0.088,2.892,0.236,3.796-0.819
		c0.772-1.023,0.647-3.005,0.129-3.928C130.572,113.629,127.57,114.207,127.57,114.207"/>
	<path fill="#7A7979" d="M92.757,112.273c0,0,0.345,0.386,0.345,0.942v6.728c-2.009-2.38-3.789-5.068-5.861-7.488
		c-0.769-0.929-2.232-2.486-2.791-2.96c-3.632-3.557-9.607-5.19-15.166-3.228v0.226c1.905-0.414,4.376-0.267,6.803,0.713
		c1.821,0.669,4.414,2.694,5.914,4.549c1.94,2.21,6.072,7.896,6.072,7.896c2.373,3.082,4.467,5.886,6.891,8.806v-15.242
		c0.006-0.556,0.345-0.942,0.345-0.942"/>
	<path fill="#7A7979" d="M81.958,127.483c0,0-0.345-0.383-0.345-0.942v-6.731c2.006,2.38,3.792,5.071,5.864,7.491
		c0.769,0.926,2.223,2.486,2.788,2.964c3.635,3.556,9.6,5.189,15.166,3.221v-0.223c-1.905,0.408-4.379,0.27-6.803-0.719
		c-1.817-0.669-4.414-2.688-5.911-4.543c-1.944-2.213-6.075-7.896-6.075-7.896c-2.377-3.083-4.471-5.892-6.897-8.803v15.239
		c0,0.559-0.346,0.942-0.346,0.942"/>
	<path fill="#7A7979" d="M119.637,96.839h45.17v-45.17h-45.17V96.839z M124.149,60.754v-0.226c5.56-1.962,11.531-0.33,15.163,3.231
		c0.562,0.47,2.022,2.028,2.791,2.957c2.072,2.424,3.852,5.108,5.865,7.491v-6.731c0-0.556-0.349-0.942-0.349-0.942h2.553
		c0,0-0.337,0.386-0.346,0.942v15.241c-2.424-2.916-4.514-5.723-6.888-8.802c0,0-4.134-5.689-6.075-7.899
		c-1.497-1.856-4.093-3.877-5.911-4.546C128.522,60.487,126.054,60.343,124.149,60.754 M160.296,87.75
		c-5.566,1.965-11.534,0.333-15.166-3.224c-0.566-0.474-2.022-2.038-2.791-2.964c-2.069-2.42-3.856-5.111-5.862-7.49v6.73
		c0,0.562,0.346,0.945,0.346,0.945h-2.559c0,0,0.342-0.383,0.345-0.945V65.564c2.427,2.913,4.518,5.723,6.895,8.803
		c0,0,4.131,5.682,6.074,7.899c1.501,1.852,4.094,3.87,5.915,4.539c2.424,0.989,4.897,1.127,6.803,0.719V87.75z"/>
</g>
</svg>
