<svg version="1.1" xmlns="http://www.w3.org/2000/svg" xmlns:xlink="http://www.w3.org/1999/xlink" x="0px" y="0px" viewBox="0 0 274 188">
<g id="roche" opacity="0.9">
	<path fill="#7A7979" d="M159.9,86.169c-0.808-0.594-2.092-0.974-3.327-0.951c-1.355,0.024-2.639,0.452-3.542,1.165v-8.509h-4.207
		v27.76h4.207V91.136c0-0.998,0.856-2.115,2.424-2.186c0.69-0.024,1.664,0.285,2.163,1.022c0.523,0.76,0.499,1.806,0.499,2.923
		l-0.023,12.739h4.206V92.752C162.3,88.95,161.825,87.595,159.9,86.169"/>
	<path fill="#7A7979" d="M129.739,92.419c-0.594-5.918-3.969-7.201-6.726-7.201c-3.921,0-6.298,2.495-6.726,7.201
		c-0.047,0.38-0.095,1.07-0.119,3.28c-0.024,1.616,0.095,2.947,0.119,3.28c0.261,4.397,2.781,7.082,6.726,7.082
		s6.465-2.733,6.75-7.082c0.024-0.309,0.095-1.664,0.095-3.28C129.858,94.962,129.81,92.99,129.739,92.419 M125.675,95.699
		c0,2.71-0.095,3.47-0.119,3.708c-0.142,1.521-0.784,3.113-2.543,3.113c-1.735,0-2.448-1.711-2.519-3.185
		c-0.024,0-0.119-0.926-0.119-3.636c0-2.709,0.095-3.85,0.119-3.85c0-1.545,0.808-3.066,2.519-3.066
		c1.735,0,2.519,1.521,2.543,3.042C125.556,91.849,125.675,92.99,125.675,95.699"/>
	<path fill="#7A7979" d="M174.54,98.766c0,0,0,0.308-0.047,0.689c-0.12,0.974-0.5,3.066-2.544,3.066
		c-1.758,0-2.424-1.593-2.543-3.161c-0.023-0.452-0.095-0.951-0.095-2.662h9.388c0,0,0-1.403-0.024-2.234
		c0-0.333-0.023-0.88-0.094-2.044c-0.143-1.783-0.809-3.732-1.831-4.968c-1.164-1.473-2.828-2.234-4.801-2.234
		c-3.802,0-6.179,2.472-6.631,7.202c-0.047,0.427-0.119,1.022-0.119,3.28c0,1.616,0.096,2.971,0.119,3.279
		c0.238,4.326,2.805,7.083,6.631,7.083c3.803,0,6.346-2.686,6.632-7.296H174.54z M169.335,93.204
		c0.024-0.927,0.024-1.117,0.048-1.379c0.118-1.663,0.855-3.042,2.566-3.042c2.021-0.023,2.496,1.949,2.567,3.042
		c0.048,0.595,0.071,0.975,0.071,1.379H169.335z"/>
	<path fill="#7A7979" d="M172.9,60.31h-71.705l-29.09,33.797l29.114,33.583H172.9l28.996-33.464L172.9,60.31z M102.859,63.709
		h68.401l26.144,30.612l-26.144,30.184h-68.401L76.597,94.226L102.859,63.709z"/>
	<path fill="#7A7979" d="M113.673,103.899l-0.427-6.797c-0.191-3.043-0.975-4.849-2.567-5.776c1.14-0.689,2.614-2.377,2.59-5.918
		c0-5.371-3.351-7.273-7.296-7.32h-6.417v27.546h4.135l0.024-12.597h2.305c1.331,0,2.829,1.165,3.066,4.445l0.428,6.441
		c0.048,0.926,0.214,1.711,0.214,1.711h4.159C113.887,105.634,113.697,104.873,113.673,103.899 M103.715,81.653h1.973
		c2.162,0,3.351,1.141,3.398,3.185c0,0.166,0.024,0.333,0.024,0.642c0,0.38,0,0.499-0.024,0.665
		c-0.118,1.212-0.665,3.327-3.184,3.327h-2.187V81.653z"/>
	<path fill="#7A7979" d="M142.027,98.575c0,0.309-0.024,0.57-0.048,0.76c-0.118,1.545-0.641,3.185-2.543,3.185
		c-1.735,0-2.424-1.782-2.566-3.089c-0.072-0.785-0.048-1.403-0.072-3.732c-0.023-2.709,0.072-3.422,0.119-3.85
		c0.143-1.735,0.808-3.066,2.519-3.066c1.783-0.024,2.52,1.521,2.543,3.042c0,0.024,0.048,0.38,0.072,1.189h4.159
		c0-0.286-0.024-0.523-0.024-0.642c-0.475-5.752-3.993-7.154-6.75-7.154c-3.921,0-6.298,2.495-6.726,7.201
		c-0.047,0.381-0.095,1.07-0.118,3.28c-0.024,1.616,0.095,2.947,0.118,3.28c0.262,4.397,2.781,7.083,6.726,7.083
		c4.088,0.023,6.346-2.472,6.75-7.083c0-0.166,0.024-0.285,0.024-0.404H142.027z"/>
</g>
</svg>
