<svg version="1.1" xmlns="http://www.w3.org/2000/svg" xmlns:xlink="http://www.w3.org/1999/xlink" x="0px" y="0px" viewBox="0 0 274 188">
<g id="superfit" opacity="0.5">
	<path fill="#181716" d="M58.737,83.444c0.291-0.751,0.477-1.568,0.895-2.241c0.983-1.584,2.577-2.289,4.334-2.64
		c2.327-0.465,4.612-0.17,6.862,0.492c0.12,0.035,0.291,0.188,0.293,0.289c0.021,1.067,0.013,2.134,0.013,3.235
		c-0.922-0.286-1.779-0.585-2.653-0.816c-1.317-0.348-2.644-0.437-3.959,0.038c-0.03,0.011-0.062,0.016-0.091,0.029
		c-0.8,0.362-1.514,0.829-1.653,1.776c-0.137,0.936,0.437,1.564,1.131,2.026c1.13,0.751,2.307,1.431,3.474,2.126
		c1.279,0.762,2.554,1.525,3.605,2.604c0.959,0.984,1.453,2.152,1.498,3.528c0.045,1.389-0.15,2.716-0.95,3.89
		c-1.007,1.477-2.49,2.216-4.184,2.561c-2.917,0.596-5.786,0.292-8.615-0.558v-3.46c1.984,0.664,3.976,1.297,6.109,1.159
		c0.932-0.06,1.834-0.26,2.611-0.826c1.188-0.867,1.33-2.376,0.278-3.397c-0.454-0.44-0.979-0.819-1.512-1.165
		c-1.525-0.989-3.09-1.919-4.603-2.926c-1.058-0.704-1.993-1.56-2.488-2.777c-0.172-0.421-0.266-0.874-0.395-1.313V83.444z"/>
	<path fill="#FFFFFF" d="M58.737,85.078c0.129,0.439,0.223,0.892,0.395,1.313c0.495,1.217,1.43,2.073,2.488,2.777
		c1.513,1.007,3.078,1.937,4.603,2.926c0.533,0.346,1.058,0.725,1.512,1.166c1.052,1.02,0.91,2.529-0.278,3.396
		c-0.777,0.566-1.679,0.766-2.611,0.826c-2.133,0.138-4.125-0.495-6.109-1.159V85.078z"/>
	<path fill="#181716" d="M165.078,108.325c-0.92-0.184-0.952-0.171-0.918,0.195C164.462,108.456,164.77,108.391,165.078,108.325
		 M187.956,105.146c-0.008-0.065-0.017-0.131-0.025-0.197c-0.4-0.154-0.784-0.203-1.196,0.268
		C187.209,105.19,187.582,105.168,187.956,105.146 M189.595,105.523c0.368-0.856,0.368-0.856-0.182-0.882
		C189.477,104.952,189.536,105.238,189.595,105.523 M173.333,108.012c0.018-0.055,0.036-0.11,0.054-0.165
		c-0.227-0.12-0.464-0.348-0.679-0.329c-0.225,0.02-0.428,0.278-0.639,0.431c0.275,0.142,0.456,0.236,0.632,0.327
		c0.031-0.122,0.064-0.255,0.093-0.368C172.994,107.947,173.164,107.98,173.333,108.012 M169.36,108.235l-0.005,0.003
		c-0.066,0.003-0.133,0.006-0.199,0.009c0.152,0.095,0.303,0.19,0.455,0.286l-0.016,0.008c0.182-0.045,0.363-0.09,0.544-0.135
		c-0.002-0.054-0.005-0.108-0.007-0.162c-0.311-0.471-0.375-0.479-0.768-0.102C169.363,108.173,169.361,108.204,169.36,108.235
		 M200.888,106.402c-0.341,0.47-0.782,0.442-1.294,0.333c-0.408-0.087-0.846-0.056-1.269-0.038c-0.314,0.014-0.624,0.1-0.937,0.135
		c-0.052,0.005-0.138-0.139-0.167-0.126c-0.092,0.043-0.165,0.128-0.3,0.244c-0.093-0.139-0.173-0.257-0.205-0.305
		c-0.598,0.034-1.129,0.036-1.651,0.101c-0.515,0.065-1.016-0.066-1.538-0.006c-0.594,0.067-1.21-0.06-1.816-0.103
		c0-0.001-0.015-0.039-0.015-0.039l0.029,0.038h-0.29c-0.023,0.17-0.044,0.324-0.081,0.593c-0.195-0.102-0.381-0.15-0.495-0.268
		c-0.311-0.318-0.581-0.271-0.856,0.031c-0.018,0-0.035,0-0.053,0c-0.056-0.061-0.111-0.121-0.167-0.182h0.006
		c-0.113,0.027-0.231,0.089-0.338,0.075c-0.282-0.038-0.558-0.113-0.838-0.163c-0.093-0.017-0.204,0.022-0.284-0.014
		c-0.199-0.092-0.324-0.108-0.37,0.164c-0.022,0.126-0.128,0.237-0.164,0.301c-0.147,0.009-0.252,0.016-0.357,0.023
		c-0.429,0.02-0.582-0.708-1.224-0.342c-0.007,0.047-0.025,0.177-0.048,0.332c-0.189-0.081-0.348-0.149-0.509-0.218
		c-0.116,0.437-0.801,0.773-1.284,0.565c-0.257-0.111-0.442-0.143-0.708-0.059c-0.136,0.042-0.337-0.122-0.508-0.193
		c-0.136-0.311-0.148-0.315-0.806-0.228c0.188,0.187,0.322,0.321,0.456,0.455c-0.062-0.012-0.124-0.036-0.186-0.033
		c-0.564,0.024-0.564,0.026-0.753-0.434c-0.355,0.077-0.71,0.154-1.064,0.231c-0.047-0.158-0.094-0.316-0.159-0.537
		c-0.246,0.218-0.433,0.384-0.619,0.549c-0.018-0.025-0.037-0.051-0.055-0.076c0.018,0.024,0.035,0.048,0.052,0.072
		c-0.061-0.017-0.123-0.034-0.184-0.051c-0.038,0.008-0.077,0.015-0.115,0.022c-0.268-0.035-0.536-0.07-0.825-0.107
		c0,0,0.027-0.095,0.054-0.189c-0.027-0.021-0.053-0.042-0.08-0.062c-0.092,0.114-0.183,0.228-0.275,0.343
		c-0.243,0.053-0.486,0.105-0.684,0.148c-0.106-0.084-0.218-0.178-0.339-0.255c-0.01-0.006-0.092,0.102-0.141,0.157
		c0.091,0.071,0.213,0.125,0.265,0.217c0.056,0.1,0.047,0.237,0.066,0.358c-0.182-0.04-0.365-0.081-0.547-0.121
		c-0.26-0.024-0.52-0.048-0.834-0.077c-0.035,0.187-0.07,0.38-0.106,0.572c-0.19,0.09-0.381,0.181-0.572,0.271
		c-0.254,0.068-0.508,0.137-0.762,0.205c0.002-0.016,0.004-0.032,0.005-0.047c0.008,0.008,0.017,0.016,0.025,0.024
		c-0.174-0.021-0.349-0.042-0.574-0.069c-0.016,0.068-0.046,0.193-0.075,0.317c-0.037,0.006-0.089,0.024-0.094,0.016
		c-0.163-0.29-0.432-0.137-0.642-0.128c-0.423,0.017-0.821,0.147-1.268-0.04c-0.236-0.098-0.588,0.103-0.891,0.143
		c-0.401,0.052-0.808,0.127-1.207,0.103c-0.461-0.027-0.915-0.155-1.374-0.225c-0.054-0.009-0.121,0.065-0.182,0.101
		c0,0.001,0.013-0.013,0.013-0.013c-0.423,0.172-0.423,0.172-0.532,0.009c-0.173,0.07-0.319,0.123-0.46,0.187
		c-0.735,0.331-1.464-0.192-2.192-0.008c-0.129,0.032-0.227,0.19-0.328,0.28c-0.092,0-0.21-0.014-0.324,0.003
		c-0.173,0.025-0.422,0.161-0.5,0.092c-0.285-0.252-0.479-0.104-0.734,0.029c-0.117,0.061-0.324-0.005-0.473-0.06
		c-0.334-0.123-0.657-0.276-0.984-0.416c-0.025,0.05-0.05,0.1-0.075,0.15c0.172,0.118,0.344,0.236,0.606,0.416h-0.709
		c-0.007,0.03-0.035,0.151-0.039,0.166c-0.61,0.044-1.189,0.086-1.827,0.133c0.182,0.144,0.305,0.241,0.428,0.337
		c-0.009,0.029-0.017,0.058-0.026,0.087c-0.185-0.049-0.468-0.038-0.539-0.155c-0.374-0.618-0.884-0.114-1.295-0.128
		c-0.217-0.007-0.375,0.099-0.525-0.135c-0.018-0.029-0.112-0.01-0.171-0.014c0,0.001,0.018-0.009,0.018-0.009
		c-0.13,0.138-0.249,0.288-0.394,0.409c-0.093,0.077-0.27,0.188-0.329,0.152c-0.56-0.346-1.151-0.17-1.759-0.112v0.294
		c-0.241-0.257-1.588-0.024-1.857,0.257c-0.393-0.079-0.752-0.151-1.162-0.233c-0.048,0.034-0.165,0.184-0.261,0.171
		c-0.606-0.08-0.99,0.465-1.541,0.519c-0.152,0.015-0.343,0.087-0.449,0.023c-0.406-0.246-0.676-0.084-0.935,0.28
		c-0.034-0.112-0.056-0.185-0.071-0.235c-0.305,0.106-0.614,0.214-1.002,0.349c-0.448-0.455-1.066,0.02-1.671-0.057
		c-0.032,0.083-0.077,0.199-0.072,0.184c-0.415,0.08-0.796,0.094-1.126,0.231c-0.545,0.226-1.097,0.217-1.665,0.222
		c-0.337,0.003-0.673,0.109-1.001,0.217c-0.153,0.037-0.306,0.077-0.459,0.11c-0.344,0.074-0.689,0.14-1.032,0.218
		c-0.254,0.057-0.501,0.154-0.758,0.188c-0.777,0.104-1.562,0.162-2.336,0.287c-0.555,0.089-1.093,0.276-1.645,0.382
		c-0.641,0.123-1.298,0.172-1.935,0.313c-1.025,0.227-2.036,0.514-3.058,0.753c-0.911,0.214-1.828,0.404-2.745,0.588
		c-0.161,0.032-0.339-0.02-0.535-0.035c-0.117,0.269-0.276,0.427-0.715,0.35c-0.348-0.062-0.861,0.046-1.096,0.282
		c-0.368,0.369-0.722,0.094-1.067,0.175c-0.575,0.136-1.177,0.112-1.728,0.409c-0.386,0.207-0.793,0.433-1.279,0.384
		c-0.158-0.016-0.325,0.094-0.492,0.126c-0.421,0.081-0.852,0.12-1.263,0.232c-0.311,0.085-0.619,0.399-0.891,0.359
		c-0.649-0.096-1.115,0.379-1.729,0.4c-0.618,0.02-1.233,0.239-1.84,0.405c-0.644,0.177-1.27,0.416-1.915,0.588
		c-1.077,0.288-2.167,0.527-3.242,0.818c-0.869,0.236-1.727,0.511-2.585,0.784c-0.541,0.172-1.073,0.372-1.671,0.581
		c0.145,0.068,0.21,0.099,0.277,0.13c-0.023,0.028-0.048,0.067-0.055,0.064c-0.44-0.179-0.693,0.614-1.169,0.224
		c-0.031-0.026-0.038-0.082-0.072-0.16c-0.163,0.209-0.274,0.351-0.41,0.526c-0.058-0.091-0.104-0.164-0.149-0.237
		c-0.406,0.559-1.145,0.49-1.64,0.837c-0.704,0.494-1.589,0.375-2.288,0.828c-0.273,0.177-0.601,0.269-0.896,0.416
		c-0.669,0.333-1.361,0.632-1.992,1.027c-0.57,0.356-1.223,0.497-1.794,0.827c-0.438,0.253-0.889,0.493-1.289,0.799
		c-0.467,0.358-0.977,0.357-1.434,0.143c-0.838-0.393-1.649-0.856-2.434-1.349c-0.287-0.18-0.55-0.494-0.678-0.807
		c-0.173-0.424,0.134-0.782,0.463-0.998c1.13-0.738,2.28-1.447,3.434-2.146c0.57-0.345,1.154-0.672,1.755-0.958
		c0.793-0.379,1.621-0.685,2.412-1.069c0.695-0.339,1.347-0.766,2.042-1.107c0.358-0.176,0.772-0.233,1.15-0.376
		c1.413-0.535,2.818-1.093,4.234-1.622c0.829-0.309,1.676-0.571,2.508-0.872c0.356-0.129,0.685-0.333,1.044-0.447
		c0.735-0.233,1.486-0.412,2.222-0.64c1.442-0.446,2.874-0.926,4.32-1.357c0.392-0.116,0.901,0.02,1.218-0.179
		c0.621-0.391,1.32-0.331,1.966-0.531c1.103-0.342,2.226-0.62,3.334-0.947c1.481-0.437,3.002-0.709,4.478-1.171
		c0.896-0.28,1.836-0.42,2.753-0.637c1.527-0.361,3.043-0.78,4.58-1.087c1.737-0.347,3.495-0.592,5.241-0.892
		c0.559-0.096,1.109-0.244,1.668-0.34c1.043-0.178,2.089-0.34,3.135-0.501c1.512-0.232,3.023-0.461,4.536-0.684
		c1.338-0.197,2.677-0.396,4.018-0.573c1.182-0.157,2.367-0.301,3.553-0.421c2.006-0.202,4.013-0.393,6.022-0.563
		c0.707-0.059,1.422-0.019,2.131-0.064c1.687-0.105,3.372-0.247,5.059-0.347c1.129-0.068,2.261-0.083,3.391-0.132
		c1.168-0.051,2.334-0.132,3.502-0.165c0.416-0.012,0.836,0.111,1.254,0.113c0.632,0.002,1.265-0.068,1.897-0.069
		c0.243,0,0.485,0.128,0.732,0.151c0.138,0.013,0.285-0.1,0.428-0.101c0.573-0.003,1.146,0.026,1.718,0.022
		c0.429-0.003,0.872-0.113,1.282-0.035c0.274,0.052,0.616-0.189,0.84,0.153c0.026,0.039,0.176,0.049,0.224,0.013
		c0.475-0.358,0.956,0.006,1.43-0.028c0.11-0.008,0.216-0.06,0.326-0.078c0.085-0.015,0.184-0.035,0.257-0.005
		c0.071,0.03,0.116,0.12,0.173,0.184c0.055-0.059,0.109-0.167,0.165-0.169c0.284-0.006,0.568,0.014,0.851,0.03
		c0.016,0.001,0.041,0.072,0.042,0.072c0.731-0.366,1.422,0.127,2.144,0.129c0.683,0.002,1.374,0.079,2.066,0.038
		c0.074-0.004,0.156,0.122,0.154,0.12c-0.062,0.307-0.113,0.562-0.164,0.818c-0.41-0.063-0.316,0.189-0.288,0.509
		c0.699-0.366,1.333-0.144,1.824,0.03c0.3-0.107,0.472-0.168,0.643-0.23c0.125,0.105,0.251,0.209,0.38,0.317
		c0.005-0.019,0.445,0.305,0.223-0.157c0.065-0.027,0.161-0.096,0.191-0.074c0.213,0.153,0.413,0.324,0.633,0.503
		c-0.01-0.158-0.018-0.304-0.025-0.408h0.495c0.041,0.096,0.085,0.2,0.155,0.364c0.11-0.181,0.183-0.3,0.255-0.418
		c0.162,0.139,0.309,0.301,0.488,0.413c0.355,0.223,0.827,0.069,1.048-0.409c0.06,0.204,0.095,0.323,0.116,0.391
		c0.245-0.107,0.487-0.213,0.764-0.335c0.304,0.201,0.665,0.327,0.989-0.001c0.116,0.245,0.23,0.486,0.344,0.726V106.402z"/>
	<path fill="#181716" d="M118.05,89.369c-0.03-0.585-0.041-1.259-0.104-1.927c-0.138-1.468-0.366-2.915-1.129-4.219
		c-1.077-1.84-3.28-2.31-4.994-1.048c-1.024,0.753-1.575,1.834-1.958,3.004c-0.76,2.329-0.806,4.713-0.447,7.111
		c0.193,1.289,0.573,2.524,1.357,3.597c0.96,1.315,2.516,1.907,4.011,1.497c1.338-0.367,2.025-1.383,2.482-2.596
		C117.916,93.069,117.977,91.261,118.05,89.369 M109.189,97.308v12.348h-3.984V78.878h3.978v3.068
		c0.034,0.009,0.068,0.018,0.102,0.026c0.292-0.42,0.57-0.852,0.878-1.26c2.474-3.275,8.6-3.479,10.933,1.253
		c0.796,1.616,1.185,3.337,1.333,5.11c0.2,2.383,0.112,4.759-0.465,7.094c-0.464,1.875-1.218,3.602-2.703,4.916
		c-1.456,1.289-3.19,1.694-5.081,1.519c-2.155-0.2-3.733-1.292-4.777-3.176c-0.029-0.052-0.07-0.098-0.105-0.146
		C109.261,97.29,109.225,97.299,109.189,97.308"/>
	<path fill="#181716" d="M79.659,78.869h4.001v0.622c0,3.556-0.013,7.113,0.007,10.669c0.007,1.278,0.068,2.558,0.15,3.834
		c0.09,1.41,0.865,2.358,2.001,2.525c1.408,0.207,2.623-0.219,3.654-1.172c1.46-1.35,2.179-3.094,2.516-5.003
		c0.147-0.829,0.196-1.683,0.204-2.527c0.024-2.803,0.009-5.607,0.009-8.41v-0.539h4.009v21.25h-3.988v-4.385
		c-0.038-0.009-0.077-0.018-0.116-0.028c-0.109,0.235-0.216,0.47-0.328,0.704c-1.004,2.107-2.539,3.606-4.885,4.077
		c-1.856,0.372-3.643,0.196-5.16-1.086c-1.187-1.003-1.707-2.37-1.926-3.857c-0.109-0.74-0.14-1.497-0.142-2.247
		c-0.012-4.597-0.006-9.195-0.006-13.792V78.869z"/>
	<path fill="#181716" d="M141.969,85.212c0-0.218,0.021-0.379-0.004-0.534c-0.307-1.929-1.618-3.084-3.556-3.178
		c-1.483-0.071-2.741,0.371-3.688,1.543c-0.5,0.618-0.79,1.331-0.838,2.169H141.969z M133.732,87.895
		c-0.093,3.343,1.314,7.22,4.36,8.793c2.064,1.066,4.215,0.995,6.389,0.377c0.306-0.087,0.612-0.178,0.919-0.265
		c0.026-0.007,0.059,0.01,0.108,0.018v3.137c-0.98,0.18-1.956,0.398-2.944,0.534c-2.063,0.283-4.112,0.215-6.12-0.398
		c-2.86-0.874-4.813-2.74-5.81-5.534c-1.254-3.518-1.379-7.115-0.27-10.685c0.989-3.186,3.205-5.02,6.551-5.432
		c1.561-0.192,3.1-0.133,4.58,0.437c2.485,0.959,3.796,2.894,4.288,5.413c0.198,1.01,0.168,2.065,0.259,3.097
		c0.035,0.399-0.109,0.517-0.509,0.516c-3.731-0.014-7.462-0.008-11.194-0.008C134.136,87.895,133.933,87.895,133.732,87.895"/>
	<path fill="#181716" d="M174.778,72.488h-3.825v-3.099h3.809c0-0.839-0.041-1.608,0.01-2.371c0.068-1.033,0.114-2.082,0.337-3.086
		c0.457-2.063,1.87-3.347,3.775-4.074c2.117-0.808,4.301-0.808,6.527-0.318v3.153c-0.833-0.072-1.653-0.202-2.471-0.193
		c-0.595,0.007-1.216,0.118-1.775,0.321c-1.462,0.531-2.186,1.663-2.289,3.181c-0.066,0.972-0.033,1.951-0.07,2.926
		c-0.014,0.365,0.119,0.463,0.47,0.46c1.777-0.014,3.555,0.009,5.332-0.016c0.453-0.007,0.571,0.143,0.556,0.571
		c-0.03,0.828-0.009,1.657-0.009,2.542h-6.332V90.61h-4.045V72.488z"/>
	<path fill="#181716" d="M205.321,69.404c0-1.599,0.012-3.087-0.009-4.574c-0.005-0.362,0.093-0.579,0.411-0.768
		c1.085-0.644,2.151-1.32,3.226-1.982c0.104-0.064,0.217-0.116,0.379-0.203v7.504h5.935v3.083h-5.898
		c-0.013,0.198-0.03,0.35-0.03,0.502c-0.001,3.698-0.009,7.397,0.007,11.095c0.003,0.538,0.078,1.084,0.189,1.612
		c0.311,1.482,1.291,2.29,2.812,2.29c0.84,0,1.68-0.103,2.538-0.161v3.009c-1.412,0.297-2.825,0.392-4.247,0.268
		c-0.664-0.058-1.335-0.159-1.977-0.334c-2.17-0.59-3.331-2.136-3.334-4.391c-0.006-4.403-0.002-8.806-0.002-13.209v-0.64h-3.811
		v-3.101H205.321z"/>
	<path fill="#181716" d="M157.691,83.03c0.651-1.702,1.689-3.074,3.322-3.922c1.06-0.55,2.134-0.783,3.219-0.727v4.325
		c-0.566,0.063-1.156,0.082-1.726,0.2c-2.436,0.504-3.891,2.074-4.458,4.419c-0.297,1.23-0.426,2.522-0.456,3.79
		c-0.065,2.8-0.02,5.604-0.02,8.406v0.598h-3.96V78.876h3.953v4.12C157.607,83.007,157.649,83.019,157.691,83.03"/>
	<path fill="#181716" d="M195.306,90.623h-3.929c-0.012-0.175-0.033-0.343-0.033-0.511c-0.001-6.725,0.003-13.451-0.01-20.176
		c-0.001-0.441,0.123-0.577,0.564-0.563c1.008,0.03,2.017,0.017,3.026,0.005c0.3-0.004,0.425,0.079,0.424,0.404
		c-0.007,6.853-0.006,13.707-0.008,20.561C195.34,90.421,195.322,90.499,195.306,90.623"/>
	<rect x="191.136" y="60.02" fill="#181716" width="4.424" height="4.281"/>
	<path fill="#181716" d="M177.218,107.74c0.182,0.041,0.365,0.081,0.547,0.122c0.241-0.067,0.492-0.18,0.653,0.137
		c0.007,0.018,0.015,0.037,0.026,0.056c0.053-0.001,0.106-0.001,0.159-0.002c0.083-0.065,0.166-0.13,0.249-0.195
		c0.327,0.074,0.655,0.147,0.949,0.214c-0.169-0.547,0.496-0.141,0.484-0.323c0.221,0.027,0.42,0.051,0.619,0.076
		c-0.171,0.169-0.323,0.365-0.519,0.498c-0.114,0.078-0.296,0.068-0.448,0.078c-0.293,0.018-0.588,0.04-0.881,0.028
		c-0.591-0.024-1.182-0.069-1.772-0.113c-0.011-0.001-0.013-0.105-0.02-0.159C177.249,108.02,177.233,107.88,177.218,107.74"/>
	<path fill="#FFFFFF" d="M180.904,107.824c-0.199-0.024-0.398-0.049-0.619-0.076c0.012,0.182-0.653-0.224-0.484,0.323
		c-0.295-0.066-0.622-0.14-0.949-0.213c-0.047-0.046-0.093-0.091-0.14-0.137l0.017-0.008c-0.047-0.163-0.095-0.326-0.143-0.489
		l0.012,0.011c0.092-0.114,0.183-0.228,0.275-0.343c0.026,0.021,0.053,0.042,0.08,0.062c-0.027,0.095-0.054,0.189-0.054,0.189
		c0.288,0.038,0.557,0.073,0.825,0.107c0.01,0.023,0.02,0.045,0.031,0.068c0.028-0.03,0.056-0.059,0.083-0.089
		c0.062,0.017,0.123,0.033,0.185,0.05l0.002,0.004c0.187-0.165,0.373-0.33,0.62-0.548c0.065,0.221,0.112,0.379,0.159,0.537
		C180.838,107.456,180.871,107.64,180.904,107.824"/>
	<path fill="#FFFFFF" d="M194.833,105.334c-0.172,0.061-0.343,0.123-0.643,0.23c-0.491-0.174-1.125-0.397-1.824-0.031
		c-0.029-0.32-0.123-0.571,0.287-0.508c0.135-0.114,0.27-0.227,0.404-0.34c0.068,0.268,0.174,0.476,0.554,0.319
		c-0.076-0.102-0.133-0.179-0.193-0.26c0.331,0.046,0.647,0.09,0.962,0.134c0.081-0.096,0.163-0.191,0.244-0.286
		c0.062,0.084,0.153,0.159,0.178,0.252c0.036,0.133,0.023,0.278,0.031,0.418C194.833,105.286,194.833,105.31,194.833,105.334"/>
	<path fill="#181716" d="M195.624,104.447c0.042-0.06,0.104-0.177,0.123-0.17c0.392,0.138,0.779,0.247,1.199,0.09
		c0.045-0.017,0.139,0.144,0.228,0.182c0.148,0.063,0.31,0.094,0.489,0.145c-0.041-0.152-0.067-0.253-0.094-0.354
		c0.033-0.021,0.066-0.042,0.098-0.063c0.159,0.196,0.318,0.393,0.476,0.589c-0.54-0.071-0.811,0.092-1.003,0.618
		c-0.226-0.458-0.542-0.583-1.022-0.425c-0.074,0.025-0.173-0.026-0.26-0.042C195.78,104.827,195.702,104.637,195.624,104.447"/>
	<path fill="#FFFFFF" d="M195.858,105.016c0.087,0.016,0.186,0.067,0.26,0.043c0.48-0.158,0.796-0.034,1.022,0.424l-0.001-0.023
		c-0.072,0.119-0.144,0.237-0.255,0.419c-0.069-0.164-0.113-0.268-0.154-0.364h-0.495c0.006,0.103,0.015,0.25,0.025,0.407
		c-0.221-0.178-0.42-0.35-0.633-0.502c-0.031-0.022-0.126,0.047-0.192,0.074c0.222,0.462-0.218,0.138-0.223,0.156
		c-0.129-0.107-0.254-0.212-0.379-0.316c0-0.024,0-0.048,0-0.072c0.16-0.137,0.303-0.41,0.521-0.062
		C195.487,105.043,195.817,105.425,195.858,105.016"/>
	<path fill="#181716" d="M204.251,106.514c0.254-0.159,0.498-0.337,0.764-0.472c0.2-0.102,0.475-0.181,0.551,0.129
		c0.08,0.331,0.29,0.366,0.55,0.356c0.254-0.01,0.402,0.059,0.322,0.348c0,0.001,0.011-0.019,0.011-0.019
		c-0.067,0.124-0.134,0.249-0.201,0.374c-0.097-0.585-0.564-0.466-0.888-0.504c-0.245-0.028-0.541-0.015-0.691,0.245
		c-0.149-0.138-0.283-0.264-0.417-0.389C204.252,106.559,204.251,106.537,204.251,106.514"/>
	<path fill="#181716" d="M195.858,105.016c-0.041,0.409-0.371,0.027-0.504,0.184c-0.218-0.348-0.361-0.075-0.521,0.062
		c-0.008-0.14,0.005-0.285-0.031-0.418c-0.025-0.093-0.116-0.168-0.178-0.252c0.055-0.185,0.109-0.371,0.196-0.665
		c0.033,0.436,0.104,0.67,0.5,0.441c0.065-0.037,0.2,0.047,0.304,0.077C195.702,104.636,195.78,104.826,195.858,105.016"/>
	<path fill="#181716" d="M200.888,106.402v-0.156h0.556c-0.004,0.03,0.007-0.047,0.016-0.104h0.517
		c0.033,0.055,0.098,0.163,0.162,0.27l-0.008-0.01c0.145,0.159,0.29,0.319,0.511,0.562c-0.34-0.079-0.571-0.159-0.808-0.181
		c-0.225-0.021-0.456,0.019-0.631,0.029C201.109,106.69,200.999,106.546,200.888,106.402"/>
	<path fill="#181716" d="M194.38,104.878c-0.315-0.044-0.631-0.088-0.962-0.134c0.06,0.082,0.117,0.159,0.193,0.261
		c-0.38,0.157-0.486-0.051-0.554-0.32c0.057-0.076,0.117-0.149,0.168-0.229c0.049-0.076,0.087-0.159,0.151-0.28
		c0.202,0.021,0.472,0.049,0.783,0.081C194.224,104.444,194.302,104.661,194.38,104.878"/>
	<path fill="#181716" d="M177.218,107.74c0.015,0.14,0.031,0.28,0.046,0.417c-0.098,0.119-0.196,0.241-0.252,0.31
		c-0.236-0.049-0.435-0.09-0.634-0.131c-0.034-0.034-0.067-0.067-0.1-0.101c0.036-0.192,0.071-0.384,0.106-0.571
		C176.697,107.692,176.958,107.716,177.218,107.74"/>
	<path fill="#181716" d="M203.454,106.504c-0.45,0.081-0.908,0.267-1.324-0.102l0.009,0.01c0.01-0.125,0.02-0.249,0.028-0.353
		c0.141,0.076,0.277,0.21,0.406,0.204c0.156-0.007,0.306-0.132,0.419-0.187c0.152,0.139,0.316,0.289,0.481,0.439L203.454,106.504z"
		/>
	<path fill="#181716" d="M203.454,106.504l0.019,0.011c0.109-0.088,0.207-0.2,0.331-0.259c0.253-0.12,0.476-0.136,0.447,0.258
		c0,0.022,0,0.045,0,0.068c-0.203,0.065-0.403,0.158-0.612,0.184C203.515,106.781,203.24,106.783,203.454,106.504"/>
	<path fill="#FFFFFF" d="M182.807,107.508c-0.134-0.134-0.268-0.268-0.456-0.455c0.658-0.087,0.67-0.083,0.806,0.228
		C183.04,107.357,182.924,107.432,182.807,107.508"/>
	<path fill="#181716" d="M176.278,108.235c0.033,0.034,0.066,0.067,0.099,0.101c0.095,0.047,0.189,0.095,0.31,0.155
		c-0.343,0.47-0.663,0.167-0.981,0.015C175.897,108.416,176.087,108.325,176.278,108.235"/>
	<path fill="#FFFFFF" d="M174.974,108.688c-0.008-0.008-0.017-0.016-0.025-0.025c-0.002,0.016-0.003,0.032-0.005,0.048
		L174.974,108.688"/>
	<polyline fill="#FFFFFF" points="168.681,108.893 168.667,108.906 168.681,108.893 	"/>
	<polyline fill="#FFFFFF" points="158,109.857 157.982,109.866 158,109.857 	"/>
	<path fill="#181716" d="M189.95,106.992c0.018,0,0.036,0,0.054,0c-0.014,0.023-0.029,0.046-0.043,0.069
		C189.957,107.038,189.954,107.015,189.95,106.992"/>
	<polyline fill="#FFFFFF" points="206.449,106.856 206.438,106.876 206.449,106.856 	"/>
	<polyline fill="#181716" points="189.79,106.81 189.783,106.81 189.79,106.81 	"/>
	<polyline fill="#FFFFFF" points="191.725,106.636 191.696,106.598 191.711,106.637 191.725,106.636 	"/>
	<path fill="#FFFFFF" d="M173.334,108.012c-0.169-0.033-0.339-0.065-0.54-0.104c-0.028,0.113-0.061,0.245-0.092,0.368
		c-0.177-0.091-0.357-0.185-0.633-0.328c0.212-0.152,0.415-0.41,0.64-0.43c0.214-0.019,0.451,0.209,0.678,0.328
		C173.37,107.902,173.352,107.957,173.334,108.012"/>
	<path fill="#FFFFFF" d="M178.598,107.236l-0.012-0.012c-0.028,0.084-0.056,0.168-0.084,0.252c-0.054-0.002-0.108-0.005-0.161-0.007
		l-0.009,0.02c0.028,0.17,0.057,0.34,0.085,0.509c-0.16-0.316-0.411-0.203-0.652-0.137c-0.02-0.12-0.01-0.257-0.066-0.358
		c-0.052-0.092-0.174-0.146-0.265-0.216c0.048-0.056,0.131-0.164,0.141-0.158c0.121,0.078,0.232,0.172,0.339,0.256
		C178.113,107.342,178.355,107.289,178.598,107.236"/>
	<path fill="#FFFFFF" d="M189.596,105.523c-0.059-0.286-0.118-0.571-0.182-0.882C189.964,104.666,189.964,104.666,189.596,105.523"
		/>
	<path fill="#FFFFFF" d="M187.956,105.146c-0.374,0.022-0.747,0.043-1.221,0.071c0.412-0.471,0.796-0.422,1.196-0.268
		C187.939,105.015,187.948,105.08,187.956,105.146"/>
	<path fill="#FFFFFF" d="M165.079,108.326c-0.308,0.065-0.616,0.131-0.919,0.195C164.127,108.154,164.158,108.142,165.079,108.326"
		/>
	<path fill="#FFFFFF" d="M169.364,108.142c0.393-0.378,0.458-0.369,0.768,0.102c-0.067,0.006-0.135,0.013-0.203,0.02
		c0.07,0.047,0.141,0.095,0.211,0.142c-0.182,0.045-0.363,0.09-0.544,0.135c0.094-0.133,0.189-0.265,0.283-0.398
		c-0.04-0.031-0.08-0.062-0.12-0.093c-0.102,0.061-0.204,0.122-0.306,0.183l0.014,0.016
		C169.433,108.213,169.398,108.178,169.364,108.142"/>
	<path fill="#181716" d="M169.452,108.233c0.102-0.061,0.205-0.122,0.307-0.183c0.04,0.031,0.08,0.062,0.119,0.093
		c-0.094,0.133-0.188,0.265-0.283,0.398l0.016-0.009C169.558,108.433,169.505,108.333,169.452,108.233"/>
	<path fill="#FFFFFF" d="M169.452,108.233c0.053,0.1,0.106,0.2,0.159,0.299c-0.152-0.095-0.303-0.19-0.455-0.286
		c0.066-0.003,0.133-0.006,0.199-0.008l0.005-0.003c0.035,0.004,0.071,0.009,0.107,0.014L169.452,108.233z"/>
	<path fill="#181716" d="M170.14,108.406c-0.07-0.047-0.14-0.094-0.211-0.142c0.068-0.006,0.136-0.013,0.204-0.02
		C170.135,108.298,170.138,108.352,170.14,108.406"/>
	<path fill="#FFFFFF" d="M179.839,107.229c-0.028,0.03-0.056,0.059-0.084,0.089c-0.01-0.023-0.02-0.045-0.031-0.068
		C179.763,107.243,179.801,107.236,179.839,107.229"/>
	<path fill="#FFFFFF" d="M180.026,107.284c0,0-0.003-0.005-0.003-0.004c-0.017-0.024-0.034-0.048-0.051-0.071
		C179.99,107.234,180.008,107.259,180.026,107.284"/>
	<path fill="#181716" d="M169.355,108.238c-0.066,0.003-0.133,0.006-0.199,0.009C169.223,108.244,169.29,108.241,169.355,108.238"/>
	<path fill="#181716" d="M169.467,108.249c-0.036-0.005-0.071-0.009-0.107-0.014c0.002-0.031,0.003-0.062,0.004-0.093
		C169.398,108.178,169.433,108.213,169.467,108.249"/>
	<path fill="#FFFFFF" d="M118.05,89.369c-0.073,1.893-0.134,3.7-0.782,5.419c-0.457,1.213-1.144,2.23-2.482,2.596
		c-1.495,0.41-3.051-0.182-4.011-1.496c-0.784-1.074-1.164-2.309-1.357-3.597c-0.359-2.399-0.313-4.783,0.447-7.111
		c0.383-1.171,0.934-2.252,1.958-3.005c1.714-1.262,3.917-0.791,4.994,1.048c0.763,1.304,0.991,2.751,1.129,4.22
		C118.009,88.111,118.02,88.784,118.05,89.369"/>
	<path fill="#FFFFFF" d="M141.969,85.212h-8.086c0.048-0.838,0.338-1.551,0.838-2.169c0.947-1.172,2.206-1.614,3.688-1.543
		c1.938,0.094,3.25,1.249,3.557,3.178C141.99,84.833,141.969,84.994,141.969,85.212"/>
	<path fill="#181716" d="M178.418,107.998c-0.029-0.17-0.057-0.339-0.086-0.509c0.023,0.05,0.046,0.1,0.069,0.15
		c0.034-0.024,0.068-0.049,0.102-0.073l-0.008,0.01c0-0.037,0-0.074,0-0.112l0.007,0.011c0.028-0.084,0.057-0.167,0.085-0.251
		c0.048,0.163,0.095,0.326,0.143,0.488c-0.01-0.006-0.02-0.011-0.031-0.016c0.008-0.002,0.016-0.004,0.024-0.006
		c-0.003,0.01-0.007,0.021-0.01,0.031c0.046,0.046,0.093,0.091,0.139,0.137c-0.083,0.065-0.166,0.13-0.249,0.194
		c-0.053,0.001-0.106,0.001-0.159,0.002C178.434,108.035,178.425,108.017,178.418,107.998"/>
	<path fill="#FFFFFF" d="M178.444,108.054c0.053-0.001,0.106-0.001,0.159-0.001C178.55,108.053,178.497,108.053,178.444,108.054"/>
	<path fill="#FFFFFF" d="M178.503,107.567c-0.034,0.024-0.068,0.048-0.103,0.073c-0.022-0.05-0.045-0.1-0.068-0.15l0.009-0.02
		C178.395,107.502,178.449,107.535,178.503,107.567"/>
	<path fill="#181716" d="M178.503,107.567c-0.054-0.032-0.108-0.065-0.162-0.097c0.054,0.002,0.107,0.004,0.161,0.006l-0.008-0.011
		c0,0.037,0,0.075,0,0.112L178.503,107.567z"/>
	<path fill="#FFFFFF" d="M178.713,107.722c0.004-0.011,0.007-0.021,0.011-0.032c-0.008,0.002-0.016,0.005-0.024,0.007
		c0.01,0.005,0.02,0.01,0.03,0.016C178.73,107.714,178.713,107.722,178.713,107.722z"/>
	<path fill="#FFFFFF" d="M178.495,107.576c0-0.037,0-0.075,0-0.112C178.495,107.502,178.495,107.539,178.495,107.576"/>
</g>
</svg>
