<svg version="1.1" xmlns="http://www.w3.org/2000/svg" xmlns:xlink="http://www.w3.org/1999/xlink" x="0px" y="0px" viewBox="0 0 274 188">
<g id="marionnaud" opacity="0.8">
	<defs>
		<rect id="SVGID_3_" x="43.594" y="73.385" opacity="0.8" width="186.811" height="39.23"/>
	</defs>
	<clipPath id="SVGID_2_">
		<use xlink:href="#SVGID_3_"  overflow="visible"/>
	</clipPath>
	<path clip-path="url(#SVGID_2_)" fill="#595958" d="M70.643,73.781c-0.191-0.429-0.422-0.469-0.882-0.313l-1.339,0.468
		c-1.839,0.665-3.409,2.11-4.712,3.36c-6.169,6.055-15.172,21.522-19.732,33.162c-0.307,0.82-0.383,1.172-0.383,1.406
		c0,0.625,0.574,0.86,1.571,0.704c4.022-9.921,12.567-27.344,20.382-34.451l1.072-0.977h0.192v0.546c0,1.875-0.422,6.054-1.073,9.57
		c-0.843,4.569-2.069,10.039-2.452,11.875c-0.497,2.265-0.69,4.296-0.69,4.842c0,0.586,0.154,0.743,0.805,0.666
		c0.996-0.119,2.414-0.782,2.912-1.174c0.498-0.39,1.035-0.859,1.992-2.889c1.34-2.852,5.057-11.055,9.386-16.485l0.652-0.82h0.153
		l-0.153,1.055c-0.229,1.679-0.537,4.023-0.537,6.913c0,3.868,0.345,8.046,1.303,10.664c0.69,1.874,1.647,2.655,2.721,2.655
		c0.958,0,1.763-0.468,2.414-1.328c-1.648-2.382-2.567-7.694-2.567-12.616c0-2.734,0.115-5.117,0.383-7.187
		c0.077-0.586,0.306-2.109,0.306-2.891c0-0.468-0.076-0.82-0.536-0.742c-0.498,0.039-1.762,0.507-2.26,0.742
		c-1.418,0.625-2.261,1.484-4.214,4.024c-1.724,2.227-5.441,8.281-8.889,16.055h-0.153l1.035-4.142
		c2.336-9.295,3.678-15.507,3.678-19.568C71.027,74.991,70.721,74.015,70.643,73.781"/>
	<path clip-path="url(#SVGID_2_)" fill="#595958" d="M97.269,101.278c-1.111,0.157-1.954,0.274-2.873,0.274
		c-2.72,0-3.716-0.82-3.716-2.303c0-1.329,0.958-1.915,3.257-2.189l3.332-0.389V101.278z M93.86,88.389
		c-1.801,0-3.793,0.313-5.096,0.977v2.578c1.418-0.821,3.257-1.173,4.675-1.173c2.605,0,3.831,0.86,3.831,3.438v0.352l-4.406,0.547
		c-4.29,0.547-5.325,2.226-5.325,4.141c0,3.712,3.296,4.454,6.169,4.454c2.336,0,4.712-0.235,6.551-0.587v-8.984
		C100.258,91.163,98.84,88.389,93.86,88.389"/>
	<path clip-path="url(#SVGID_2_)" fill="#595958" d="M111.751,88.389c-3.141,0-5.248,0.743-6.743,1.446v13.632h2.988V91.318
		c1.112-0.351,2.222-0.547,3.372-0.547c1.264,0,2.106,0.157,3.026,0.352v-2.461C113.668,88.428,112.365,88.389,111.751,88.389"/>
	<rect x="118.302" y="88.662" clip-path="url(#SVGID_2_)" fill="#595958" width="2.989" height="14.805"/>
	<rect x="118.302" y="82.374" clip-path="url(#SVGID_2_)" fill="#595958" width="2.989" height="2.89"/>
	<path clip-path="url(#SVGID_2_)" fill="#595958" d="M133.744,101.318c-3.256,0-5.02-2.032-5.02-5.351
		c0-3.868,2.529-5.196,4.674-5.196c3.257,0,5.019,2.032,5.019,5.352C138.418,99.991,135.851,101.318,133.744,101.318
		 M133.782,88.389c-5.02,0-8.123,3.163-8.123,7.695c0,4.258,3.103,7.617,7.855,7.617c4.98,0,8.007-3.203,8.007-7.734
		C141.521,91.748,138.571,88.389,133.782,88.389"/>
	<path clip-path="url(#SVGID_2_)" fill="#595958" d="M151.979,88.389c-2.374,0-5.287,0.625-6.78,1.407v13.671h2.988v-12.11
		c1.109-0.351,2.145-0.586,3.256-0.586c2.605,0,4.406,0.704,4.406,4.103v8.593h2.988v-8.789
		C158.838,89.913,156.692,88.389,151.979,88.389"/>
	<path clip-path="url(#SVGID_2_)" fill="#595958" d="M170.294,88.389c-2.376,0-5.248,0.625-6.782,1.407v13.671h2.988v-12.11
		c1.111-0.351,2.185-0.586,3.294-0.586c2.605,0,4.369,0.704,4.369,4.103v8.593h2.988v-8.789
		C177.151,89.913,175.005,88.389,170.294,88.389"/>
	<path clip-path="url(#SVGID_2_)" fill="#595958" d="M190.751,101.278c-1.11,0.157-1.992,0.274-2.911,0.274
		c-2.682,0-3.717-0.82-3.717-2.303c0-1.329,0.958-1.915,3.256-2.189l3.371-0.389L190.751,101.278L190.751,101.278z M187.341,88.389
		c-1.801,0-3.794,0.313-5.095,0.977v2.578c1.418-0.821,3.256-1.173,4.674-1.173c2.605,0,3.831,0.86,3.831,3.438v0.352l-4.406,0.547
		c-4.291,0.547-5.325,2.226-5.325,4.141c0,3.712,3.295,4.454,6.169,4.454c2.337,0,4.713-0.235,6.552-0.587v-8.984
		C193.74,91.163,192.322,88.389,187.341,88.389"/>
	<path clip-path="url(#SVGID_2_)" fill="#595958" d="M205.004,103.702c2.605,0,5.172-0.625,6.782-0.977V88.662h-2.989v12.226
		c-1.109,0.274-2.184,0.431-3.256,0.431c-2.643,0-4.368-0.821-4.368-3.516v-9.141h-3.065v9.415
		C198.107,102.413,200.33,103.702,205.004,103.702"/>
	<path clip-path="url(#SVGID_2_)" fill="#595958" d="M227.417,100.889c-1.072,0.274-2.069,0.431-3.103,0.431
		c-3.219,0-5.709-1.446-5.709-5.313c0-4.492,3.104-5.234,5.518-5.234c1.226,0,2.298,0.234,3.294,0.624V100.889z M227.417,80.499
		v8.515c-0.919-0.39-2.069-0.625-3.563-0.625c-4.444,0-8.313,2.5-8.313,7.969c0,4.569,3.18,7.344,8.582,7.344
		c2.107,0,4.061-0.235,6.283-0.742V80.499H227.417z"/>
</g>
</svg>
