<svg version="1.1" xmlns="http://www.w3.org/2000/svg" xmlns:xlink="http://www.w3.org/1999/xlink" x="0px" y="0px" viewBox="0 0 274 188">
<g id="ikea" opacity="0.7">
	<rect x="54.475" y="62.394" fill="#D3D3D4" width="165.051" height="59.213"/>
	<path fill="#525151" d="M136.995,119.168c44.497,0,80.577-12.095,80.577-27.004c0-14.911-36.08-26.997-80.577-26.997
		c-44.495,0-80.572,12.087-80.572,26.997C56.423,107.072,92.5,119.168,136.995,119.168 M54.475,62.394h165.051v59.213H54.475V62.394
		z"/>
	<path fill="#525151" d="M117.884,101.258c0,0,0.285-0.247,0.324-0.4c0.106-0.498-0.072-0.981-0.072-0.981l-4.448-7.011V92.82
		l0.019,7.37l0.127,0.585l0.242,0.317h-14.063l0.232-0.317l0.121-0.627l-0.006-19.192l-0.122-0.556l-0.23-0.29h14.068l-0.236,0.309
		l-0.121,0.614l-0.008,6.878l5.095-6.667c0,0,0.106-0.261,0.106-0.637c0-0.237-0.232-0.623-0.232-0.623L132.681,80l-6.092,8.663
		l7.342,11.734l0.55,0.421l0.625,0.274h-17.222V101.258z"/>
	<polygon fill="#525151" points="92.206,100.247 92.33,100.903 92.559,101.296 78.504,101.258 78.669,100.858 78.719,100.19
		78.719,80.977 78.662,80.411 78.498,80.111 92.565,80.111 92.33,80.419 92.212,81.033 	"/>
	<polygon fill="#525151" points="159.245,87.853 159.884,87.736 160.276,87.507 160.265,93.438 159.853,93.198 159.245,93.078
		151.454,93.087 151.454,95.031 161.627,95.031 162.343,94.888 162.696,94.616 162.719,101.309 138.075,101.261 138.3,100.861
		138.399,100.191 138.399,80.977 138.295,80.31 138.057,79.904 162.62,79.95 162.639,86.389 162.239,86.219 161.571,86.172
		151.454,86.172 151.454,87.883 	"/>
	<path fill="#525151" d="M174.205,81.007c0,0,0.105-0.376,0.06-0.675c-0.041-0.293-0.236-0.405-0.236-0.405l19.063,0.005
		c0,0-0.196,0.107-0.237,0.407c-0.043,0.292,0.061,0.673,0.061,0.673l8.322,19.497l0.265,0.415l0.366,0.335l-15.054,0.026
		c0,0,0.231-0.487,0.207-0.689c-0.023-0.216-0.098-0.495-0.098-0.495l-0.978-2.739h-6.552l-1.072,2.739c0,0-0.102,0.024-0.102,0.234
		c0,0.411,0.247,0.757,0.247,0.757h-12.14c0,0,0.418-0.165,0.649-0.67c0.188-0.399,0.152-0.376,0.152-0.376L174.205,81.007z
		 M182.668,88.98l-1.654,3.72h3.313L182.668,88.98z"/>
</g>
</svg>
