<svg version="1.1" xmlns="http://www.w3.org/2000/svg" xmlns:xlink="http://www.w3.org/1999/xlink" x="0px" y="0px" viewBox="0 0 274 188">
<g id="hansaton">
	<path opacity="0.9" fill="#797979" d="M39.265,89.311c0-3.587,0.022-7.173-0.018-10.759c-0.009-0.77,0.193-1.042,0.977-0.981
		c0.857,0.068,1.727,0.069,2.584,0c0.812-0.066,0.98,0.264,0.968,1.007c-0.041,2.448,0.012,4.897-0.031,7.345
		c-0.014,0.782,0.169,1.081,1.02,1.065c2.792-0.053,5.587-0.056,8.379,0.002c0.867,0.018,1.023-0.3,1.01-1.072
		c-0.042-2.482,0.003-4.966-0.028-7.449c-0.008-0.649,0.149-0.939,0.856-0.896c0.893,0.055,1.795,0.051,2.688,0.001
		c0.673-0.037,0.888,0.187,0.881,0.869c-0.032,3.069-0.014,6.138-0.014,9.208c0,4.207-0.019,8.415,0.017,12.622
		c0.006,0.765-0.19,1.048-0.978,0.986c-0.857-0.067-1.726-0.055-2.584-0.003c-0.692,0.042-0.875-0.221-0.867-0.885
		c0.031-2.793-0.035-5.588,0.039-8.379c0.026-0.996-0.312-1.193-1.222-1.175c-2.723,0.054-5.449,0.053-8.172,0
		c-0.84-0.016-1.038,0.264-1.026,1.056c0.042,2.827,0.003,5.656,0.027,8.483c0.005,0.64-0.135,0.95-0.86,0.902
		c-0.927-0.061-1.864-0.055-2.792-0.002c-0.686,0.039-0.874-0.205-0.868-0.875C39.28,96.691,39.265,93.001,39.265,89.311z"/>
	<path opacity="0.9" fill="#797979" d="M127.066,100.16c-2.228,1.256-4.406,1.736-6.744,1.475c-2.333-0.26-3.782-1.652-4.072-3.962
		c-0.021-0.171-0.048-0.342-0.066-0.513c-0.432-4.09,1.187-6.057,5.289-6.538c1.516-0.178,3.029-0.154,4.544-0.15
		c0.555,0.001,0.856-0.125,0.786-0.744c-0.039-0.341-0.001-0.691-0.032-1.033c-0.143-1.577-0.565-2.079-2.128-2.281
		c-0.917-0.118-1.858-0.04-2.785-0.097c-0.841-0.051-1.424,0.163-1.439,1.129c-0.007,0.473-0.3,0.521-0.689,0.548
		c-2.347,0.166-2.346,0.174-2.346-2.186c0-2.129-0.006-2.161,2.066-2.532c2.521-0.452,5.054-0.701,7.594-0.101
		c2.472,0.584,3.742,2.004,3.898,4.549c0.261,4.271,0.074,8.55,0.129,12.825c0.007,0.548-0.204,0.725-0.733,0.702
		c-0.757-0.033-1.521-0.057-2.275,0.006C127.326,101.319,126.923,101.117,127.066,100.16z M124.468,93.123
		c-0.762,0.037-1.62-0.025-2.47,0.198c-0.975,0.256-1.515,0.821-1.693,1.831c-0.477,2.705,0.629,3.851,3.37,3.435
		c0.17-0.026,0.342-0.038,0.512-0.064c2.49-0.392,2.692-0.624,2.692-3.097C126.878,93.108,126.878,93.108,124.468,93.123z"/>
	<path opacity="0.9" fill="#797979" d="M85.79,84.595c1.461-0.723,2.947-1.424,4.606-1.667c1.15-0.169,2.271-0.088,3.383,0.177
		c1.861,0.443,2.823,1.73,3.212,3.526c0.213,0.984,0.241,1.982,0.239,2.984c-0.006,3.588-0.017,7.176,0.011,10.763
		c0.005,0.668-0.178,0.923-0.867,0.879c-0.824-0.053-1.659-0.06-2.482,0.002c-0.755,0.057-0.919-0.249-0.913-0.946
		c0.029-3.484,0.026-6.968,0.008-10.453c-0.016-3.223-1.003-3.969-4.187-3.215c-2.984,0.707-2.984,0.707-2.984,3.699
		c0,3.312-0.024,6.624,0.018,9.935c0.01,0.78-0.214,1.042-0.99,0.979c-0.788-0.064-1.589-0.057-2.378-0.001
		c-0.73,0.051-0.938-0.217-0.933-0.935c0.029-4.105,0.002-8.21,0.025-12.315c0.004-0.775-0.025-1.374-1.05-1.302
		c-0.599,0.042-0.524-0.48-0.468-0.821c0.141-0.864-0.525-2.281,0.366-2.498c1.531-0.373,3.22-0.166,4.836-0.085
		C86.004,83.338,85.429,84.119,85.79,84.595z"/>
	<path opacity="0.9" fill="#797979" d="M162.546,92.119c-0.059,1.465-0.027,2.777-0.327,4.064c-0.676,2.908-2.427,4.713-5.395,5.283
		c-1.643,0.315-3.284,0.338-4.921-0.008c-3.053-0.645-4.886-2.555-5.418-5.624c-0.356-2.055-0.336-4.136-0.124-6.184
		c0.45-4.363,2.914-6.559,7.384-6.808c1.04-0.058,2.071,0.033,3.084,0.235c3.26,0.653,5.285,2.952,5.573,6.31
		C162.483,90.347,162.504,91.312,162.546,92.119z M158.281,92.325c-0.018-1.064,0.054-2.129-0.199-3.183
		c-0.47-1.959-1.624-2.738-4.02-2.664c-2.015,0.062-3.127,0.97-3.412,2.885c-0.29,1.949-0.292,3.912,0,5.86
		c0.279,1.865,1.48,2.84,3.434,2.886c2.37,0.056,3.541-0.75,4.005-2.704C158.329,94.385,158.263,93.355,158.281,92.325z"/>
	<path opacity="0.9" fill="#797979" d="M170.17,84.652c1.583-0.781,3.063-1.484,4.73-1.723c1.119-0.16,2.207-0.088,3.279,0.158
		c2.138,0.492,3.365,2.017,3.442,4.682c0.123,4.27,0.057,8.546,0.085,12.82c0.003,0.49-0.177,0.703-0.663,0.653
		c-0.034-0.004-0.069,0.002-0.103,0c-1.095-0.052-2.487,0.443-3.202-0.188c-0.685-0.604-0.199-2.016-0.211-3.07
		c-0.032-2.757-0.005-5.515-0.023-8.272c-0.004-0.547-0.084-1.097-0.163-1.64c-0.152-1.044-0.793-1.54-1.829-1.613
		c-1.702-0.121-3.257,0.424-4.814,0.994c-0.561,0.205-0.404,0.654-0.405,1.036c-0.009,3.895-0.031,7.79,0.015,11.684
		c0.01,0.854-0.207,1.175-1.081,1.086c-0.716-0.073-1.451-0.066-2.169-0.001c-0.81,0.073-1.059-0.202-1.051-1.026
		c0.039-4.101,0.004-8.203,0.03-12.304c0.005-0.756-0.06-1.306-1.012-1.214c-0.395,0.038-0.497-0.204-0.539-0.575
		c-0.326-2.874-0.333-2.874,2.479-2.874c0.586,0,1.172,0,1.758,0C170.043,83.265,170.043,83.265,170.17,84.652z"/>
	<path opacity="0.9" fill="#797979" d="M106.914,101.715c-2.147-0.048-3.823-0.218-5.49-0.503c-0.61-0.104-0.899-0.336-0.859-1.011
		c0.058-0.962,0.041-1.931,0.006-2.895c-0.022-0.598,0.227-0.809,0.792-0.771c0.343,0.023,0.693,0.038,1.033-0.003
		c0.812-0.099,1.335,0.11,1.33,1.049c-0.004,0.601,0.328,0.799,0.925,0.796c1.137-0.006,2.274,0.089,3.409-0.046
		c0.851-0.102,1.533-0.447,1.722-1.37c0.191-0.932-0.185-1.656-1.003-2.067c-1.167-0.586-2.378-1.087-3.571-1.622
		c-0.912-0.409-1.82-0.824-2.654-1.383c-1.877-1.257-2.495-3.056-2.165-5.211c0.315-2.053,1.757-3.247,4.314-3.64
		c2.656-0.408,5.287-0.157,7.913,0.315c0.604,0.109,0.803,0.356,0.776,0.952c-0.043,0.929-0.024,1.861-0.008,2.792
		c0.007,0.432-0.149,0.637-0.598,0.618c-0.447-0.019-0.902-0.048-1.343,0.007c-0.723,0.091-1.118-0.166-1.16-0.909
		c-0.022-0.398-0.196-0.661-0.625-0.667c-1.306-0.02-2.614-0.164-3.916,0.105c-0.627,0.13-1.115,0.399-1.237,1.069
		c-0.12,0.661,0.082,1.235,0.619,1.654c0.742,0.58,1.623,0.898,2.474,1.269c1.42,0.618,2.86,1.187,4.186,2.01
		c1.927,1.196,2.442,2.985,2.165,5.087c-0.262,1.98-1.449,3.209-3.307,3.845C109.281,101.651,107.867,101.668,106.914,101.715z"/>
	<path opacity="0.9" fill="#797979" d="M136.111,92.536c0-1.654-0.031-3.309,0.015-4.962c0.019-0.694-0.192-1.044-0.905-1.025
		c-0.069,0.002-0.138-0.008-0.206-0.013c-2.407-0.176-2.389-0.175-2.246-2.605c0.033-0.552,0.235-0.744,0.749-0.689
		c0.034,0.004,0.069,0.004,0.103-0.001c0.804-0.097,1.877,0.389,2.346-0.237c0.387-0.516,0.13-1.52,0.142-2.309
		c0.012-0.792,0.036-1.587-0.007-2.377c-0.034-0.618,0.239-0.763,0.793-0.741c0.86,0.033,1.724,0.041,2.584-0.002
		c0.624-0.032,0.851,0.168,0.83,0.813c-0.043,1.343,0.014,2.688-0.025,4.031c-0.018,0.624,0.173,0.863,0.816,0.834
		c0.963-0.044,1.93,0.005,2.894-0.016c0.482-0.01,0.714,0.166,0.666,0.66c-0.007,0.068-0.001,0.138,0.001,0.207
		c0.07,2.561,0.07,2.561-2.485,2.561c-1.879,0-1.88,0-1.879,1.924c0.001,2.688-0.01,5.376,0.007,8.063
		c0.01,1.567,0.325,1.853,1.906,1.836c0.241-0.003,0.482-0.037,0.722-0.032c0.559,0.01,1.407-0.415,1.608,0.12
		c0.272,0.725,0.096,1.624,0.075,2.447c-0.006,0.229-0.263,0.304-0.465,0.342c-1.699,0.323-3.41,0.547-5.12,0.127
		c-1.87-0.46-2.772-1.709-2.894-3.891c-0.008-0.138-0.013-0.275-0.013-0.413c-0.001-1.551-0.001-3.101-0.001-4.652
		C136.118,92.536,136.115,92.536,136.111,92.536z"/>
	<path opacity="0.9" fill="#3A3A3A" d="M197.142,114.395c0.022-0.053,0.044-0.106,0.066-0.16c0.025,0.017,0.05,0.035,0.075,0.052
		c-0.049,0.033-0.097,0.067-0.145,0.102C197.14,114.39,197.142,114.395,197.142,114.395z"/>
	<path opacity="0.9" fill="none" d="M203.787,101.385c-0.877-0.057-1.841-0.107-2.777-0.374c-1.64-0.467-2.367-1.288-2.518-2.993
		c-0.314-3.535-0.589-7.075-0.883-10.612c-0.177-2.129-0.278-4.269-0.566-6.383c-0.315-2.317,0.547-3.955,2.509-5.092
		c2.744-1.59,5.759-2.246,8.878-2.427c1.68-0.097,2.518,0.768,2.41,2.473c-0.248,3.886-0.578,7.767-0.887,11.648
		c-0.235,2.954-0.699,5.908-0.682,8.86C209.295,100.736,206.739,101.282,203.787,101.385z"/>
	<path opacity="0.9" fill="#616161" d="M205.966,68.298c-9.489,1.721-16.088,7.27-19.274,16.34
		c-3.245,9.241-1.353,17.709,5.04,25.147c1.562,1.817,3.509,3.182,5.407,4.605l0.003,0.005c0.32-0.287,0.057-0.586-0.011-0.856
		c-0.949-3.754,1.064-7.424,4.749-8.579c2.134-0.669,4.284-0.599,6.42,0.007c1.848,0.524,1.965,0.847,1.246,2.615
		c-0.367,0.903-0.844,1.201-1.819,0.884c-1.375-0.447-2.783-0.462-4.133,0.174c-1.188,0.56-1.792,1.675-1.669,3.046
		c0.103,1.149,0.894,2.006,2.146,2.356c1.202,0.336,2.424,0.279,3.577-0.074c1.721-0.527,1.971-0.371,2.628,1.687
		c0.192,0.601,0.002,1.09-0.592,1.367c-0.544,0.254-1.096,0.491-1.892,0.846c0.491,0.045,0.713,0.071,0.936,0.085
		c13.287,0.808,24.885-8.945,26.379-22.181C236.985,79.128,222.414,65.315,205.966,68.298z M209.953,87.626
		c-0.235,2.954-0.699,5.908-0.682,8.86c0.024,4.249-2.532,4.796-5.483,4.898c-0.877-0.057-1.841-0.107-2.777-0.374
		c-1.64-0.467-2.367-1.288-2.518-2.993c-0.314-3.535-0.589-7.075-0.883-10.612c-0.177-2.129-0.278-4.269-0.566-6.383
		c-0.315-2.317,0.547-3.955,2.509-5.092c2.744-1.59,5.759-2.246,8.878-2.427c1.68-0.097,2.518,0.768,2.41,2.473
		C210.593,79.863,210.262,83.744,209.953,87.626z"/>
	<path opacity="0.9" fill="#797979" d="M76.686,87.778c-0.071-2.608-1.406-4.021-3.939-4.612c-2.503-0.584-5.003-0.346-7.489,0.1
		c-2.136,0.383-2.131,0.414-2.131,2.583c0,2.261-0.001,2.246,2.281,2.152c0.503-0.021,0.754-0.147,0.798-0.684
		c0.039-0.482,0.145-0.964,0.821-0.969c1.308-0.009,2.616-0.134,3.914,0.152c0.884,0.195,1.387,0.716,1.476,1.62
		c0.051,0.514,0.071,1.032,0.137,1.543c0.084,0.654-0.204,0.824-0.824,0.811c-1.618-0.034-3.235-0.015-4.851,0.177
		c-3.478,0.415-5.003,2.099-4.988,5.612c0.002,0.48,0.05,0.963,0.118,1.439c0.335,2.347,1.753,3.681,4.09,3.937
		c2.339,0.256,4.512-0.235,6.809-1.53c-0.329,1.137,0.233,1.172,0.909,1.143c0.757-0.033,1.517-0.026,2.275-0.002
		c0.477,0.015,0.676-0.149,0.673-0.649C76.739,96.326,76.802,92.05,76.686,87.778z M72.372,97.638
		c-1.262,0.863-2.801,1.141-4.343,1.006c-1.383-0.121-1.934-0.729-2.034-2.015c-0.155-1.977,0.331-2.893,1.722-3.295
		c0.878-0.254,1.775-0.179,2.667-0.214c1.683-0.007,2.12-0.009,2.214,0.953c0.031,0.32,0.025,0.748,0.014,1.318
		C72.596,96.153,73.034,97.186,72.372,97.638z"/>
</g>
</svg>
