<svg version="1.1" xmlns="http://www.w3.org/2000/svg" xmlns:xlink="http://www.w3.org/1999/xlink" x="0px" y="0px" viewBox="0 0 274 188">
<g id="vie" opacity="0.9">
	<polygon fill="#7A7979" points="166.281,90.388 163.06,81.947 165.107,81.947 167.384,88.599 167.407,88.599 169.697,81.947
		171.55,81.947 168.329,90.388 	"/>
	<path fill="#7A7979" d="M171.566,84.519h1.817v5.868h-1.817V84.519z M171.506,81.947h1.937v1.509h-1.937V81.947z"/>
	<path fill="#7A7979" d="M179.903,87.911h-3.985c-0.015,0.394,0.041,0.735,0.17,1.022c0.13,0.287,0.42,0.437,0.871,0.452
		c0.311,0.001,0.555-0.058,0.73-0.178c0.175-0.122,0.303-0.315,0.384-0.582h1.636c-0.096,0.714-0.396,1.216-0.902,1.508
		c-0.508,0.29-1.123,0.43-1.848,0.421c-1.033-0.007-1.78-0.277-2.241-0.813c-0.46-0.536-0.686-1.298-0.678-2.285
		c0.002-0.595,0.117-1.126,0.345-1.594c0.229-0.469,0.559-0.838,0.994-1.112c0.433-0.272,0.961-0.41,1.58-0.415
		c0.575-0.007,1.084,0.099,1.533,0.315c0.447,0.216,0.799,0.579,1.058,1.086c0.162,0.328,0.264,0.68,0.304,1.054
		C179.893,87.151,179.91,87.525,179.903,87.911 M175.918,86.742h2.107c0.01-0.333-0.057-0.62-0.201-0.861
		c-0.145-0.24-0.434-0.366-0.865-0.377c-0.408,0.011-0.683,0.137-0.825,0.377C175.991,86.122,175.92,86.409,175.918,86.742"/>
	<path fill="#7A7979" d="M182.194,84.518v0.678l0.025,0.036c0.184-0.272,0.427-0.488,0.728-0.646c0.3-0.159,0.68-0.24,1.136-0.243
		c0.211,0,0.457,0.048,0.739,0.144c0.282,0.095,0.541,0.239,0.78,0.43c0.237,0.19,0.397,0.427,0.48,0.712
		c0.048,0.185,0.08,0.361,0.097,0.53c0.016,0.166,0.025,0.301,0.025,0.405v3.823h-1.817v-3.531
		c-0.002-0.214-0.031-0.426-0.089-0.628c-0.06-0.205-0.167-0.375-0.324-0.508c-0.156-0.134-0.382-0.203-0.677-0.208
		c-0.294,0.003-0.544,0.121-0.75,0.353c-0.206,0.231-0.32,0.562-0.341,0.991v3.531h-1.816v-5.869H182.194z"/>
	<path fill="#7A7979" d="M188.943,84.518v0.678l0.025,0.036c0.183-0.272,0.427-0.488,0.727-0.646
		c0.302-0.159,0.679-0.24,1.136-0.243c0.213,0,0.458,0.048,0.74,0.144c0.281,0.095,0.541,0.239,0.778,0.43
		c0.239,0.19,0.4,0.427,0.482,0.712c0.046,0.185,0.079,0.361,0.097,0.53c0.017,0.166,0.025,0.301,0.023,0.405v3.823h-1.817v-3.531
		c0-0.214-0.029-0.426-0.089-0.628c-0.058-0.205-0.164-0.375-0.323-0.508c-0.156-0.134-0.382-0.203-0.677-0.208
		c-0.294,0.003-0.543,0.121-0.749,0.353c-0.208,0.231-0.32,0.562-0.341,0.991v3.531h-1.817v-5.869H188.943z"/>
	<path fill="#7A7979" d="M197.273,87.619c-0.221-0.01-0.481-0.001-0.778,0.025c-0.298,0.025-0.561,0.104-0.788,0.236
		c-0.228,0.133-0.346,0.354-0.36,0.662c0.005,0.251,0.089,0.452,0.253,0.606c0.161,0.153,0.372,0.232,0.631,0.237
		c0.33-0.01,0.569-0.11,0.717-0.305c0.149-0.193,0.243-0.425,0.279-0.696C197.263,88.114,197.28,87.858,197.273,87.619
		 M195.626,86.17h-1.744c0.009-0.366,0.089-0.668,0.235-0.907c0.147-0.237,0.343-0.422,0.589-0.554
		c0.251-0.138,0.531-0.236,0.838-0.293c0.306-0.056,0.624-0.083,0.954-0.081c0.417-0.007,0.823,0.053,1.215,0.176
		c0.394,0.126,0.719,0.347,0.976,0.666c0.258,0.322,0.393,0.772,0.401,1.356v3.203c0.007,0.144,0.02,0.266,0.038,0.365
		c0.018,0.1,0.033,0.192,0.048,0.278h-1.636c-0.04-0.274-0.059-0.534-0.061-0.783h-0.025c-0.206,0.336-0.465,0.58-0.778,0.734
		c-0.311,0.151-0.674,0.227-1.086,0.224c-0.581-0.002-1.054-0.155-1.42-0.459c-0.366-0.303-0.554-0.743-0.565-1.318
		c-0.005-0.144,0.024-0.33,0.09-0.563c0.065-0.23,0.192-0.465,0.38-0.702c0.186-0.237,0.461-0.435,0.825-0.594
		c0.371-0.148,0.767-0.24,1.188-0.28c0.418-0.039,0.814-0.051,1.185-0.036v-0.549c0.007-0.137-0.053-0.289-0.176-0.455
		c-0.124-0.165-0.343-0.254-0.66-0.269c-0.208,0.005-0.374,0.058-0.494,0.158c-0.123,0.099-0.208,0.215-0.256,0.345
		C195.638,85.962,195.618,86.074,195.626,86.17"/>
	<rect x="164.502" y="93.448" fill="#7A7979" width="1.878" height="8.442"/>
	<path fill="#7A7979" d="M169.084,96.021v0.678l0.023,0.034c0.185-0.272,0.429-0.486,0.729-0.644c0.3-0.16,0.681-0.241,1.136-0.245
		c0.212,0,0.458,0.05,0.74,0.146c0.28,0.095,0.541,0.239,0.778,0.428c0.239,0.192,0.399,0.429,0.482,0.713
		c0.048,0.186,0.079,0.362,0.095,0.529c0.018,0.168,0.027,0.303,0.025,0.407v3.822h-1.817v-3.53c0-0.214-0.029-0.426-0.089-0.63
		c-0.058-0.203-0.165-0.373-0.323-0.506c-0.155-0.134-0.382-0.205-0.678-0.209c-0.293,0.003-0.542,0.12-0.75,0.352
		c-0.206,0.233-0.32,0.563-0.339,0.993v3.53h-1.818v-5.868H169.084z"/>
	<path fill="#7A7979" d="M173.254,96.021h1.223v-1.157l1.817-0.632v1.789h1.369v1.169h-1.369v2.724
		c-0.008,0.379,0.038,0.638,0.139,0.779c0.102,0.142,0.305,0.21,0.611,0.203c0.195-0.006,0.388-0.018,0.582-0.034v1.027
		c-0.077,0.033-0.212,0.061-0.405,0.087c-0.193,0.027-0.388,0.048-0.587,0.065c-0.197,0.016-0.343,0.024-0.437,0.024
		c-0.467-0.001-0.826-0.079-1.075-0.232c-0.251-0.153-0.422-0.378-0.513-0.675c-0.094-0.295-0.137-0.656-0.132-1.081V97.19h-1.223
		V96.021z"/>
	<path fill="#7A7979" d="M183.71,99.415h-3.985c-0.015,0.394,0.043,0.734,0.172,1.021c0.13,0.288,0.418,0.438,0.87,0.451
		c0.312,0.002,0.554-0.057,0.731-0.178c0.174-0.12,0.303-0.315,0.384-0.582h1.635c-0.095,0.716-0.397,1.219-0.903,1.509
		c-0.507,0.292-1.121,0.43-1.847,0.422c-1.032-0.007-1.78-0.279-2.24-0.813c-0.461-0.536-0.686-1.298-0.678-2.287
		c0.002-0.593,0.117-1.124,0.344-1.593c0.228-0.468,0.559-0.839,0.995-1.111c0.433-0.272,0.959-0.41,1.579-0.417
		c0.576-0.005,1.085,0.099,1.532,0.317c0.448,0.216,0.801,0.577,1.06,1.086c0.161,0.328,0.262,0.678,0.303,1.052
		C183.702,98.655,183.718,99.029,183.71,99.415 M179.725,98.246h2.109c0.01-0.333-0.058-0.62-0.203-0.861
		c-0.145-0.241-0.432-0.367-0.864-0.379c-0.407,0.012-0.683,0.138-0.824,0.379C179.799,97.626,179.728,97.913,179.725,98.246"/>
	<path fill="#7A7979" d="M184.065,96.002h1.659l0.038,1.063h0.023c0.199-0.451,0.479-0.76,0.84-0.921
		c0.361-0.162,0.772-0.233,1.23-0.213v1.556h-0.786c-0.158,0.014-0.321,0.056-0.488,0.132c-0.167,0.076-0.298,0.177-0.396,0.3
		c-0.094,0.164-0.158,0.328-0.19,0.498c-0.032,0.17-0.049,0.351-0.052,0.543v2.911h-1.806l-0.011-4.7
		c-0.002-0.129-0.008-0.3-0.022-0.515C184.091,96.442,184.078,96.224,184.065,96.002"/>
	<path fill="#7A7979" d="M190.088,96.021v0.678l0.025,0.034c0.184-0.272,0.427-0.486,0.727-0.644
		c0.301-0.16,0.681-0.241,1.137-0.245c0.211,0,0.459,0.05,0.739,0.146c0.282,0.095,0.541,0.239,0.78,0.428
		c0.237,0.192,0.397,0.429,0.48,0.713c0.048,0.186,0.079,0.362,0.097,0.529c0.016,0.168,0.025,0.303,0.023,0.407v3.822h-1.815v-3.53
		c0-0.214-0.03-0.426-0.089-0.63c-0.06-0.203-0.167-0.373-0.323-0.506c-0.157-0.134-0.383-0.205-0.678-0.209
		c-0.294,0.003-0.542,0.12-0.75,0.352c-0.206,0.233-0.32,0.563-0.34,0.993v3.53h-1.817v-5.868H190.088z"/>
	<path fill="#7A7979" d="M198.43,99.123c-0.221-0.01-0.481-0.001-0.778,0.023c-0.297,0.027-0.56,0.106-0.788,0.238
		c-0.226,0.132-0.346,0.353-0.359,0.662c0.006,0.251,0.089,0.452,0.252,0.605c0.163,0.154,0.374,0.233,0.633,0.238
		c0.328-0.01,0.567-0.112,0.717-0.305c0.149-0.195,0.241-0.425,0.277-0.696C198.422,99.616,198.437,99.362,198.43,99.123
		 M196.785,97.674h-1.744c0.009-0.366,0.087-0.669,0.234-0.907c0.147-0.237,0.344-0.422,0.588-0.555
		c0.253-0.139,0.531-0.236,0.838-0.292c0.307-0.056,0.625-0.084,0.955-0.083c0.417-0.005,0.822,0.055,1.216,0.178
		c0.393,0.124,0.719,0.347,0.976,0.666c0.258,0.32,0.391,0.772,0.399,1.356v3.202c0.009,0.145,0.02,0.265,0.038,0.365
		c0.018,0.101,0.035,0.193,0.048,0.278h-1.636c-0.037-0.272-0.057-0.535-0.06-0.784h-0.023c-0.207,0.337-0.467,0.582-0.779,0.734
		c-0.313,0.153-0.674,0.228-1.086,0.226c-0.582-0.003-1.055-0.157-1.421-0.46c-0.367-0.303-0.555-0.742-0.566-1.317
		c-0.005-0.144,0.026-0.332,0.091-0.563c0.066-0.232,0.191-0.466,0.379-0.704c0.188-0.235,0.463-0.433,0.826-0.593
		c0.371-0.147,0.767-0.241,1.187-0.281c0.419-0.039,0.814-0.051,1.185-0.034v-0.549c0.007-0.139-0.052-0.29-0.176-0.455
		c-0.124-0.165-0.343-0.256-0.658-0.271c-0.209,0.005-0.374,0.06-0.496,0.159c-0.122,0.1-0.206,0.216-0.256,0.346
		C196.795,97.466,196.775,97.578,196.785,97.674"/>
	<path fill="#7A7979" d="M200.354,96.021h1.223v-1.157l1.817-0.632v1.789h1.369v1.169h-1.369v2.724
		c-0.008,0.379,0.038,0.638,0.139,0.779c0.1,0.142,0.305,0.21,0.611,0.203c0.195-0.006,0.388-0.018,0.582-0.034v1.027
		c-0.079,0.033-0.214,0.061-0.405,0.087c-0.193,0.027-0.388,0.048-0.586,0.065c-0.199,0.016-0.344,0.024-0.438,0.024
		c-0.468-0.001-0.826-0.079-1.075-0.232c-0.251-0.153-0.421-0.378-0.515-0.675c-0.092-0.295-0.135-0.656-0.13-1.081V97.19h-1.223
		V96.021z"/>
	<path fill="#7A7979" d="M205.19,96.022h1.817v5.87h-1.817V96.022z M205.129,93.45h1.938v1.509h-1.938V93.45z"/>
	<path fill="#7A7979" d="M214.034,98.956c-0.006,0.937-0.287,1.687-0.841,2.247c-0.552,0.561-1.33,0.848-2.331,0.863
		c-1.001-0.015-1.777-0.302-2.331-0.863c-0.553-0.56-0.835-1.31-0.841-2.247c0.006-0.938,0.288-1.688,0.841-2.249
		c0.554-0.56,1.33-0.847,2.331-0.862c1.001,0.015,1.779,0.302,2.331,0.862C213.747,97.268,214.028,98.018,214.034,98.956
		 M209.566,98.956c-0.003,0.318,0.025,0.625,0.089,0.918c0.063,0.294,0.188,0.536,0.376,0.728c0.188,0.189,0.465,0.288,0.831,0.295
		c0.368-0.007,0.643-0.106,0.831-0.295c0.188-0.192,0.313-0.434,0.378-0.728c0.062-0.293,0.092-0.6,0.087-0.918
		c0.005-0.318-0.025-0.625-0.087-0.92c-0.065-0.293-0.19-0.536-0.378-0.725c-0.188-0.192-0.463-0.289-0.831-0.297
		c-0.366,0.008-0.643,0.105-0.831,0.297c-0.188,0.189-0.313,0.432-0.376,0.725C209.591,98.331,209.563,98.638,209.566,98.956"/>
	<path fill="#7A7979" d="M216.51,96.021v0.678l0.023,0.034c0.185-0.272,0.427-0.486,0.729-0.644c0.302-0.16,0.679-0.241,1.138-0.245
		c0.21,0,0.456,0.05,0.738,0.146c0.281,0.095,0.541,0.239,0.778,0.428c0.239,0.192,0.4,0.429,0.482,0.713
		c0.046,0.186,0.079,0.362,0.095,0.529c0.019,0.168,0.027,0.303,0.025,0.407v3.822h-1.817v-3.53c0-0.214-0.029-0.426-0.089-0.63
		c-0.058-0.203-0.165-0.373-0.323-0.506c-0.156-0.134-0.382-0.205-0.678-0.209c-0.291,0.003-0.542,0.12-0.748,0.352
		c-0.208,0.233-0.32,0.563-0.341,0.993v3.53h-1.817v-5.868H216.51z"/>
	<path fill="#7A7979" d="M224.853,99.123c-0.223-0.01-0.482-0.001-0.778,0.023c-0.299,0.027-0.561,0.106-0.788,0.238
		c-0.228,0.132-0.348,0.353-0.36,0.662c0.005,0.251,0.089,0.452,0.253,0.605c0.161,0.154,0.372,0.233,0.631,0.238
		c0.33-0.01,0.569-0.112,0.717-0.305c0.149-0.195,0.241-0.425,0.279-0.696C224.843,99.616,224.858,99.362,224.853,99.123
		 M223.206,97.674h-1.744c0.009-0.366,0.087-0.669,0.235-0.907c0.147-0.237,0.343-0.422,0.589-0.555
		c0.25-0.139,0.529-0.236,0.838-0.292c0.306-0.056,0.624-0.084,0.954-0.083c0.417-0.005,0.823,0.055,1.215,0.178
		c0.394,0.124,0.719,0.347,0.976,0.666c0.258,0.32,0.391,0.772,0.401,1.356v3.202c0.007,0.145,0.02,0.265,0.038,0.365
		c0.018,0.101,0.033,0.193,0.046,0.278h-1.634c-0.04-0.272-0.059-0.535-0.061-0.784h-0.025c-0.206,0.337-0.465,0.582-0.778,0.734
		c-0.312,0.153-0.674,0.228-1.086,0.226c-0.581-0.003-1.054-0.157-1.42-0.46c-0.366-0.303-0.556-0.742-0.567-1.317
		c-0.003-0.144,0.026-0.332,0.091-0.563c0.065-0.232,0.192-0.466,0.38-0.704c0.187-0.235,0.462-0.433,0.825-0.593
		c0.372-0.147,0.768-0.241,1.187-0.281c0.42-0.039,0.816-0.051,1.187-0.034v-0.549c0.005-0.139-0.055-0.29-0.176-0.455
		c-0.124-0.165-0.343-0.256-0.66-0.271c-0.208,0.005-0.373,0.06-0.496,0.159c-0.121,0.1-0.206,0.216-0.256,0.346
		C223.218,97.466,223.196,97.578,223.206,97.674"/>
	<rect x="227.539" y="93.448" fill="#7A7979" width="1.817" height="8.442"/>
	<path fill="#7A7979" d="M164.877,113.393h-1.793l3.161-8.442h2.229l3.04,8.442h-1.889l-0.63-1.789h-3.464L164.877,113.393z
		 M166.016,110.201h2.506l-1.199-3.601h-0.024L166.016,110.201z"/>
	<path fill="#7A7979" d="M171.788,107.525h1.817v5.868h-1.817V107.525z M171.727,104.951h1.937v1.509h-1.937V104.951z"/>
	<path fill="#7A7979" d="M174.388,107.507h1.659l0.036,1.065h0.025c0.198-0.454,0.478-0.76,0.839-0.922
		c0.361-0.163,0.771-0.234,1.232-0.212v1.554h-0.789c-0.158,0.013-0.32,0.057-0.486,0.133c-0.168,0.076-0.3,0.175-0.397,0.298
		c-0.094,0.164-0.157,0.33-0.19,0.5c-0.031,0.169-0.049,0.349-0.053,0.542v2.908h-1.803l-0.014-4.696
		c0-0.13-0.008-0.302-0.021-0.514C174.414,107.949,174.4,107.731,174.388,107.507"/>
	<path fill="#7A7979" d="M180.197,107.525l0.036,0.677h0.023c0.176-0.25,0.412-0.453,0.704-0.611c0.29-0.157,0.597-0.238,0.92-0.243
		c0.63,0.009,1.156,0.162,1.576,0.457c0.422,0.294,0.739,0.676,0.951,1.146c0.212,0.47,0.319,0.973,0.319,1.507
		c0,0.513-0.094,1.006-0.284,1.477c-0.188,0.472-0.476,0.857-0.862,1.163c-0.388,0.303-0.877,0.46-1.471,0.469
		c-0.397,0.002-0.755-0.079-1.076-0.244c-0.32-0.163-0.579-0.417-0.777-0.761h-0.023v3.075h-1.817v-6.943
		c-0.008-0.391-0.028-0.78-0.061-1.169H180.197z M180.233,110.458c-0.003,0.279,0.038,0.565,0.12,0.862
		c0.083,0.297,0.221,0.547,0.413,0.755c0.191,0.207,0.45,0.315,0.774,0.323c0.383-0.006,0.668-0.107,0.856-0.303
		c0.188-0.194,0.311-0.438,0.371-0.734c0.059-0.295,0.087-0.595,0.081-0.903c0.006-0.307-0.022-0.609-0.081-0.904
		c-0.06-0.293-0.183-0.539-0.371-0.733c-0.188-0.195-0.473-0.295-0.856-0.304c-0.324,0.01-0.583,0.118-0.774,0.324
		c-0.192,0.207-0.33,0.46-0.413,0.756C180.271,109.892,180.23,110.181,180.233,110.458"/>
	<path fill="#7A7979" d="M191.443,110.458c-0.008,0.938-0.288,1.687-0.841,2.249c-0.554,0.559-1.33,0.847-2.331,0.86
		c-1.002-0.013-1.779-0.301-2.333-0.86c-0.552-0.562-0.833-1.311-0.841-2.249c0.008-0.937,0.289-1.687,0.841-2.247
		c0.554-0.561,1.331-0.848,2.333-0.863c1.001,0.015,1.777,0.302,2.331,0.863C191.155,108.771,191.435,109.521,191.443,110.458
		 M186.975,110.458c-0.005,0.318,0.025,0.625,0.087,0.918c0.065,0.295,0.19,0.538,0.376,0.727c0.188,0.192,0.465,0.289,0.833,0.295
		c0.366-0.006,0.643-0.103,0.831-0.295c0.186-0.189,0.311-0.432,0.376-0.727c0.064-0.293,0.092-0.6,0.087-0.918
		c0.005-0.318-0.023-0.625-0.087-0.918c-0.065-0.294-0.19-0.538-0.376-0.728c-0.188-0.189-0.465-0.288-0.831-0.295
		c-0.368,0.007-0.645,0.106-0.833,0.295c-0.186,0.19-0.311,0.434-0.376,0.728C187,109.833,186.97,110.14,186.975,110.458"/>
	<path fill="#7A7979" d="M191.959,107.507h1.66l0.037,1.065h0.023c0.199-0.454,0.479-0.76,0.84-0.922
		c0.361-0.163,0.772-0.234,1.232-0.212v1.554h-0.788c-0.158,0.013-0.32,0.057-0.486,0.133c-0.169,0.076-0.3,0.175-0.398,0.298
		c-0.094,0.164-0.156,0.33-0.19,0.5c-0.031,0.169-0.049,0.349-0.052,0.542v2.908h-1.804l-0.013-4.696
		c-0.002-0.13-0.008-0.302-0.022-0.514C191.985,107.949,191.972,107.731,191.959,107.507"/>
	<path fill="#7A7979" d="M195.443,107.525h1.223v-1.157l1.817-0.633v1.79h1.369v1.169h-1.369v2.724
		c-0.008,0.377,0.038,0.638,0.139,0.78c0.1,0.142,0.305,0.209,0.611,0.201c0.195-0.005,0.388-0.017,0.582-0.035v1.029
		c-0.077,0.031-0.212,0.061-0.405,0.087c-0.193,0.027-0.388,0.048-0.587,0.063c-0.198,0.016-0.343,0.025-0.437,0.025
		c-0.468,0-0.826-0.078-1.075-0.231c-0.251-0.155-0.422-0.379-0.515-0.674c-0.092-0.296-0.135-0.657-0.13-1.082v-2.887h-1.223
		V107.525z"/>
	<polygon fill="#7A7979" points="65.939,65.767 54.703,65.767 53.867,64.38 65.077,64.38 	"/>
	<polygon fill="#7A7979" points="65.972,65.784 54.675,65.784 53.834,64.363 65.105,64.363 	"/>
	<polygon fill="#7A7979" points="56.218,68.214 67.481,68.214 68.709,70.207 57.473,70.207 	"/>
	<polygon fill="#7A7979" points="56.186,68.197 67.507,68.197 68.741,70.224 57.447,70.224 	"/>
	<polygon fill="#7A7979" points="51.959,91.296 46.342,82.366 44.644,82.366 50.157,91.296 	"/>
	<polygon fill="#7A7979" points="51.176,82.367 56.82,91.297 54.468,91.297 48.929,82.367 	"/>
	<polygon fill="#7A7979" points="57.42,82.367 62.882,91.297 58.988,91.297 53.344,82.367 	"/>
	<polygon fill="#7A7979" points="63.743,82.34 69.335,91.296 64.684,91.296 59.197,82.366 	"/>
	<path fill="#7A7979" d="M98.286,92.482c0.096-0.173,0.053-0.379,0.02-0.564c-0.02-0.109-0.402-0.567-0.622-0.572
		c-4.755-0.101-9.691-0.049-14.501-0.049c-1.907-2.978-3.762-5.905-5.696-8.93c6.638,0.025,13.451,0.026,20.067,0.043
		c1.617,0.003,4.888,0.432,7.108,2.176c3.043,2.396,4.568,7.111,2.717,10.343c-4.966,8.662-7.134,12.461-10.87,18.616H84.595
		c-6.252-10.415-13.274-20.761-19.544-31.178c3.554,0,7.627-0.013,11.183-0.013c4.755,7.592,9.418,15.345,14.214,22.916
		C93.18,100.562,95.9,96.767,98.286,92.482"/>
	<polygon fill="#7A7979" points="109.939,82.114 119.554,82.114 119.554,113.593 109.965,113.569 	"/>
	<path fill="#7A7979" d="M139.569,102.949c2.389-3.682,4.712-7.536,6.813-11.444c0.042-0.077-0.33-0.493-0.545-0.498
		c-3.134-0.071-6.293-0.539-9.383,0.403c-3.582,1.091-5.569,4.956-4.337,8.387c0.869,2.422,2.636,4.453,5.308,4.464
		c11.603,0.05,13.013,0.101,19.231,0c-1.513,3.151-3.459,6.038-5.173,9.08c-6.01,0.051-14.161,0.252-17.924-0.605
		c-9.271-2.112-14.947-13.104-10.069-21.582c2.511-4.363,6.534-7.993,11.741-8.839c6.044-0.981,11.19-0.353,16.774-0.353
		c4.121,0,7.392,5.092,5.697,8.475c-1.515,3.027-4.547,8.224-7.055,12.613C147.025,102.896,143.175,103.05,139.569,102.949"/>
	<path fill="#7A7979" d="M58.622,72.048l11.236,0.025l2.115,3.38l-11.208,0.026L58.622,72.048z M61.888,77.321h11.236l2.351,3.809
		l-11.196,0.013L61.888,77.321z"/>
</g>
</svg>
