<svg version="1.1" xmlns="http://www.w3.org/2000/svg" xmlns:xlink="http://www.w3.org/1999/xlink" x="0px" y="0px" viewBox="0 0 274 188">
<g id="vienna-hotels" transform="translate(19.852664,-373.53408)" opacity="0.7">
	<path id="path224" fill="#393939" d="M85.304,424.319l23.319,35.044l23.256-35.044h-14.884l-8.488,12.099l-7.963-12.063
		L85.304,424.319L85.304,424.319z M135.985,424.319l-7.848,11.828h13.515l7.848-11.828H135.985z M125.799,439.668l-15.12,22.784
		l6.769,10.171l21.866-32.954H125.799L125.799,439.668z M165.834,482.296c-2.709,0-4.819,2.122-4.819,4.776
		c0,2.653,2.109,4.777,4.819,4.777c2.709,0,4.818-2.124,4.818-4.777C170.652,484.418,168.544,482.296,165.834,482.296z
		 M79.968,482.547l-3.128,9.051h1.313l0.88-2.625h3.045l0.991,2.625h2.821l-3.38-9.051H79.968z M142.44,482.547l-3.129,9.051h1.313
		l0.88-2.625h3.044l0.992,2.625h2.821l-3.38-9.051H142.44z M184.102,482.547l-3.129,9.051h1.312l0.881-2.625h3.044l0.992,2.625
		h2.821l-3.38-9.051H184.102L184.102,482.547z M37.036,482.547l3.883,9.302h0.028l3.924-9.302h-1.229l-1.955,4.61l-1.941-4.61
		H37.036z M46.072,482.547v9.05h2.542v-9.05H46.072z M51.03,482.547v9.051h5.922v-1.229h-3.38v-2.807h3.044v-1.229h-3.044v-2.557
		h3.213v-1.229H51.03z M58.74,482.547v9.05h1.341v-6.648h0.028l4.386,6.648h1.466v-9.05H64.62v4.567h-0.028l-3.017-4.567H58.74z
		 M68.306,482.547v9.05h1.341v-6.648h0.028l4.386,6.648h1.466v-9.05h-1.341v4.567h-0.028l-3.017-4.567H68.306z M91.462,482.547v9.05
		h2.542v-9.05H91.462z M96.364,482.547v9.05h1.341v-6.648h0.028l4.386,6.648h1.466v-9.05h-1.341v4.567h-0.028l-3.018-4.567H96.364
		L96.364,482.547z M104.926,482.547v1.229h2.444v7.821h2.543v-7.821h2.444v-1.229H104.926z M113.753,482.547v9.051h5.921v-1.229
		h-3.379v-2.807h3.044v-1.229h-3.044v-2.557h3.213v-1.229H113.753z M121.406,482.547v9.051h2.543v-7.961h0.949
		c0.935,0,1.648,0.643,1.648,1.662c0,1.48-0.978,1.69-2.165,1.69h-0.278l2.248,4.609h2.878l-2.193-3.869
		c1.215-0.294,2.138-1.172,2.138-2.472c0-1.69-1.704-2.71-3.213-2.71H121.406z M130.777,482.547v9.05h1.341v-6.648h0.028
		l4.385,6.648h1.466v-9.05h-1.341v4.567h-0.028l-3.017-4.567H130.777z M147.888,482.547v1.229h2.445v7.821h2.541v-7.821h2.444
		v-1.229H147.888z M156.672,482.547v9.05h2.542v-9.05H156.672z M172.44,482.547v9.05h1.341v-6.648h0.029l4.385,6.648h1.466v-9.05
		h-1.341v4.567h-0.028l-3.016-4.567H172.44L172.44,482.547z M191.379,482.547v9.05h5.88v-1.229h-3.338v-7.822H191.379
		L191.379,482.547z M165.834,483.386c1.745,0,2.052,2.304,2.052,3.687c0,1.383-0.307,3.687-2.052,3.687
		c-1.746,0-2.054-2.304-2.054-3.687C163.781,485.689,164.088,483.386,165.834,483.386z M80.485,484.6h0.028l1.159,3.143h-2.221
		L80.485,484.6z M142.957,484.6h0.027l1.16,3.143h-2.221L142.957,484.6z M184.62,484.6h0.027l1.159,3.143h-2.219L184.62,484.6z"/>
	<path id="path314" fill="#202020" d="M113.974,497.451c-0.752,0-1.423,0.589-1.423,1.351c0,0.391,0.33,0.752,0.568,1.071
		c-0.947,0.68-1.474,1.206-1.474,2.423c0,1.381,1.165,2.452,2.506,2.452c0.772,0,1.35-0.175,1.886-0.629l0.329,0.443h1.186
		l-0.948-1.299c0.124-0.309,0.206-0.7,0.206-1.154c0-0.382-0.092-0.783-0.206-1.115h-0.494c0.062,0.341,0.134,0.732,0.134,1.103
		c0,0.165-0.011,0.341-0.083,0.496l-1.732-2.506c0.454-0.329,0.939-0.753,0.939-1.382
		C115.367,497.895,114.717,497.451,113.974,497.451z M113.79,497.885c0.381,0,0.69,0.247,0.69,0.629c0,0.299-0.329,0.66-0.587,0.793
		l-0.649-0.948C113.212,498.06,113.562,497.885,113.79,497.885z M75.21,497.885v6.679h1.258v-3.216h2.742v3.216h1.258v-6.679h-1.258
		v2.937h-2.742v-2.937H75.21z M121.807,497.885v6.679h1.257v-6.35h0.68c1.226,0,1.587,0.752,1.587,1.494
		c0,1.001-0.721,1.433-1.835,1.433h-0.081l1.823,3.423h1.382l-1.772-3.123c0.998-0.124,1.741-0.567,1.741-1.588
		c0-1.072-0.681-1.968-1.897-1.968H121.807z M105.245,498.454c-1.11,0-1.908,0.789-1.908,1.742c0,2.129,2.789,1.313,2.789,3.037
		c0,0.615-0.551,1.027-1.065,1.027c-0.586,0-0.917-0.266-1.229-0.761l-0.412,0.303c0.412,0.688,1.064,0.926,1.871,0.926
		c1.001,0,1.955-0.724,1.955-1.816c0-2.146-2.789-1.559-2.789-2.953c0-0.57,0.358-1.037,0.973-1.037c0.633,0,0.991,0.367,1.22,0.844
		l0.385-0.247C106.722,498.858,105.98,498.454,105.245,498.454z M134.978,498.454c-1.111,0-1.909,0.789-1.909,1.742
		c0,2.129,2.789,1.313,2.789,3.037c0,0.615-0.551,1.027-1.065,1.027c-0.586,0-0.918-0.266-1.229-0.761l-0.412,0.303
		c0.412,0.688,1.063,0.926,1.87,0.926c1.001,0,1.955-0.724,1.955-1.816c0-2.146-2.789-1.559-2.789-2.953
		c0-0.57,0.358-1.037,0.971-1.037c0.634,0,0.992,0.367,1.221,0.844l0.386-0.247C136.454,498.858,135.71,498.454,134.978,498.454z
		 M157.06,498.454c-1.111,0-1.909,0.789-1.909,1.742c0,2.129,2.789,1.313,2.789,3.037c0,0.615-0.551,1.027-1.065,1.027
		c-0.587,0-0.917-0.266-1.229-0.761l-0.413,0.303c0.413,0.688,1.065,0.926,1.872,0.926c1.001,0,1.955-0.724,1.955-1.816
		c0-2.146-2.789-1.559-2.789-2.953c0-0.57,0.358-1.037,0.972-1.037c0.634,0,0.992,0.367,1.221,0.844l0.386-0.247
		C158.537,498.858,157.794,498.454,157.06,498.454z M84.933,498.455c-1.715,0-2.946,1.385-2.946,3.137s1.23,3.137,2.946,3.137
		c1.725,0,2.954-1.385,2.954-3.137S86.659,498.455,84.933,498.455z M141.032,498.455c-1.715,0-2.945,1.385-2.945,3.137
		s1.23,3.137,2.945,3.137c1.724,0,2.955-1.385,2.955-3.137S142.756,498.455,141.032,498.455z M88.75,498.619v0.386h1.184v5.56h1.119
		v-5.56h1.183v-0.386H88.75L88.75,498.619z M93.594,498.619v5.945h3.551v-0.385h-2.431v-2.496h2.257v-0.385h-2.257v-2.294h2.395
		v-0.386H93.594z M98.805,498.619v5.945h3.504v-0.468h-2.384v-5.478H98.805z M128.124,498.619v5.945h3.551v-0.385h-2.431v-2.496
		h2.257v-0.385h-2.257v-2.294h2.395v-0.386H128.124z M145.362,498.619v5.945h1.119v-5.652h0.605c1.093,0,1.413,0.67,1.413,1.331
		c0,0.89-0.641,1.274-1.632,1.274h-0.075l1.624,3.046h1.23l-1.577-2.78c0.889-0.11,1.549-0.503,1.549-1.413
		c0-0.953-0.605-1.752-1.688-1.752H145.362z M150.5,498.619v0.386h1.182v5.56h1.119v-5.56h1.185v-0.386H150.5z M84.933,498.839
		c1.432,0,1.752,1.597,1.752,2.753c0,1.156-0.32,2.753-1.752,2.753s-1.743-1.597-1.743-2.753
		C83.19,500.436,83.502,498.839,84.933,498.839z M141.032,498.839c1.432,0,1.752,1.597,1.752,2.753c0,1.156-0.321,2.753-1.752,2.753
		s-1.743-1.597-1.743-2.753C139.289,500.436,139.6,498.839,141.032,498.839z M113.613,500.576l2.114,3.133
		c-0.454,0.289-0.795,0.443-1.371,0.443c-0.939,0-1.702-0.772-1.702-1.783C112.655,501.523,113.067,500.966,113.613,500.576z"/>
</g>
</svg>
