<svg version="1.1" xmlns="http://www.w3.org/2000/svg" xmlns:xlink="http://www.w3.org/1999/xlink" x="0px" y="0px" viewBox="0 0 274 188">
<g id="omv" opacity="0.6">
	<path fill="#4D4D4C" d="M101.76,56.497c-8.835,0-16.005,7.17-16.005,16.005s7.17,16.006,16.005,16.006s16.005-7.171,16.005-16.006
		c0-6.889-4.358-12.768-10.468-15.022l-6.66,11.934h-1.966L105.7,56.98C104.44,56.661,103.118,56.497,101.76,56.497"/>
	<polygon fill="#4D4D4C" points="120.574,57.339 133.77,57.339 126.75,69.413 128.716,69.413 135.456,57.339 144.16,57.339
		137.141,69.413 139.105,69.413 145.844,57.339 150.618,57.339 150.618,87.665 120.574,87.665 	"/>
	<polygon fill="#4D4D4C" points="153.146,57.339 175.048,57.339 168.028,69.413 169.994,69.413 176.733,57.339 188.245,57.339
		170.555,87.384 	"/>
	<rect x="86.036" y="93" fill="#AFAFB0" width="102.209" height="1.685"/>
	<path fill="#181716" d="M100.918,104.512c5.115,0,9.266,4.655,9.266,10.39s-4.151,10.389-9.266,10.389
		c-5.115,0-9.266-4.654-9.266-10.389S95.803,104.512,100.918,104.512 M100.918,100.239c-7.75,0-14.04,6.56-14.04,14.636
		c0,8.077,6.29,14.628,14.04,14.628s14.04-6.551,14.04-14.628C114.958,106.799,108.668,100.239,100.918,100.239"/>
	<polygon fill="#181716" points="121.697,128.942 121.697,101.143 127.875,101.143 135.456,121.922 143.318,101.143
		149.496,101.143 149.496,128.942 145.284,128.942 145.284,106.759 137.141,128.942 134.052,128.942 125.909,106.759
		125.909,128.942 	"/>
	<polygon fill="#181716" points="168.589,128.942 155.672,101.143 161.008,101.143 170.835,122.203 180.663,101.143
		185.717,101.143 172.52,128.942 	"/>
</g>
</svg>
