<svg version="1.1" xmlns="http://www.w3.org/2000/svg" xmlns:xlink="http://www.w3.org/1999/xlink" x="0px" y="0px" viewBox="0 0 274 188">
<g id="oebb" opacity="0.9">
	<polygon fill="#7A7979" points="91.672,86.839 102.104,86.839 114.917,72.807 104.788,72.807 	"/>
	<path fill="#7A7979" d="M144.199,106.485h-9.761V96.173h11.409c1.709,0,4.759,0,4.759,4.698
		C150.606,106.485,146.945,106.485,144.199,106.485 M134.438,79.823h10.129c2.684,0,5.065,1.037,5.065,4.637
		c0,3.355-2.075,4.698-5.737,4.698h-9.457V79.823z M154.023,91.781c2.623-2.257,3.662-5.919,3.662-8.297
		c0-1.708-0.673-10.676-14.765-10.676h-16.901v40.694h18.548c2.378,0,7.075-0.244,9.76-2.627c3.722-3.351,4.392-6.648,4.392-8.659
		C158.719,97.152,156.401,93.855,154.023,91.781"/>
	<path fill="#7A7979" d="M185.624,106.485h-9.761V96.173h11.469c1.65,0,4.76,0,4.76,4.698
		C192.092,106.485,188.311,106.485,185.624,106.485 M175.863,79.823h10.128c2.686,0,5.003,1.037,5.003,4.637
		c0,3.355-2.013,4.698-5.675,4.698h-9.456V79.823z M195.447,91.781c2.991-2.257,3.662-5.919,3.662-8.297
		c0-1.708-0.673-10.676-14.825-10.676h-16.838v40.694h18.545c2.319,0,7.078-0.244,9.699-2.627c3.784-3.292,4.454-6.648,4.454-8.659
		C200.145,97.152,197.765,93.855,195.447,91.781"/>
	<path fill="#7A7979" d="M102.469,72.44c-2.135-0.671-4.331-1.038-6.65-1.038c-12.14,0-21.963,9.579-21.963,21.719
		c0,11.656,9.823,21.476,21.963,21.476c11.836,0,21.658-9.82,21.658-21.476c0-5.551-2.013-10.554-5.43-14.396l-5.795,6.161
		c1.768,2.257,2.866,5.124,2.866,8.235c0,7.078-6.1,13.12-13.3,13.12c-7.504,0-13.544-6.042-13.544-13.12
		c0-7.441,6.04-13.36,13.544-13.36L102.469,72.44z"/>
</g>
</svg>
