<svg version="1.1" xmlns="http://www.w3.org/2000/svg" xmlns:xlink="http://www.w3.org/1999/xlink" x="0px" y="0px" viewBox="0 0 274 188">
<g id="rbm" opacity="0.95">
	<path fill="#FFFFFF" d="M71.963,115.694c0.197,0.005,0.223,0.177,0.289,0.303c0.466,0.868,1.314,1.324,2.204,1.181
		c0.952-0.154,1.615-0.838,1.782-1.837c0.035-0.212,0.057-0.423,0.056-0.637c-0.001-4.055,0.003-8.111-0.002-12.167
		c-0.001-0.517,0.057-0.59,0.579-0.591c2.248-0.006,4.495-0.002,6.743-0.003c0.101,0,0.202-0.006,0.302,0.001
		c0.27,0.019,0.321-0.073,0.222-0.331c-0.531-1.384-0.34-2.632,0.739-3.699c0.026-0.025,0.051-0.052,0.05-0.097
		c-0.122-0.04-0.248-0.017-0.372-0.017c-2.486-0.001-4.973-0.001-7.459-0.001c-0.138,0-0.276-0.001-0.414-0.009
		c-0.24-0.014-0.364-0.139-0.378-0.38c-0.009-0.15-0.009-0.301-0.009-0.452c0-2.975-0.004-5.951,0.004-8.927
		c0.001-0.628-0.029-1.255-0.072-1.88c-0.054-0.808-0.714-1.589-1.502-1.794c-0.893-0.232-1.816,0.125-2.309,0.869
		c-0.13,0.197-0.154,0.492-0.454,0.554v-4.747c0.033-0.028,0.069-0.051,0.107-0.071c0.763-0.08,1.53-0.019,2.294-0.035
		c0.49-0.01,0.505-0.017,0.505-0.51c0.001-3.365,0.001-6.729,0.001-10.095c0-0.113-0.002-0.227,0.001-0.339
		c0.015-0.427,0.084-0.501,0.515-0.508c0.477-0.008,0.955-0.022,1.431,0.005c1.543,0.089,2.377,1.633,1.566,2.912
		c-0.406,0.64-1.069,0.84-1.781,0.903c-0.538,0.047-0.54,0.038-0.54,0.592c0,0.728,0.004,1.456-0.002,2.184
		c-0.002,0.273,0.062,0.52,0.211,0.748c0.844,1.278,1.666,2.571,2.498,3.856c0.096,0.147,0.217,0.243,0.397,0.244
		c0.965,0.008,1.93,0.011,2.891-0.001c0.053-0.174-0.07-0.254-0.136-0.348c-1.096-1.561-2.177-3.134-3.29-4.685
		c-0.434-0.603-0.423-0.62,0.239-0.913c1.462-0.646,2.355-1.747,2.497-3.355c0.183-2.07-1.179-3.807-3.171-4.243
		c-0.343-0.076-0.693-0.105-1.047-0.104c-1.52,0.006-3.038,0.004-4.558,0.002c-0.174,0-0.352,0.018-0.523-0.035
		c-0.038-0.019-0.074-0.043-0.107-0.071"/>
	<path fill="#FFFFFF" d="M139.253,66.263c0.018,0.124-0.074,0.184-0.153,0.237c-0.361,0.242-0.472,0.599-0.483,1.008
		c-0.008,0.288-0.006,0.578-0.006,0.866c0,3.741,0,7.483-0.001,11.224c-0.001,0.29,0.014,0.578,0.073,0.861
		c0.084,0.409,0.329,0.628,0.718,0.637c0.336,0.009,0.643-0.227,0.751-0.577c0.059-0.196,0.045-0.398,0.045-0.598
		c0-3.303-0.001-6.604,0.004-9.907c0-0.226-0.105-0.551,0.147-0.646c0.218-0.083,0.372,0.206,0.527,0.36
		c1.326,1.319,2.647,2.644,3.971,3.966c0.595,0.594,0.951,0.594,1.556-0.01c1.281-1.277,2.555-2.558,3.839-3.832
		c0.161-0.16,0.313-0.457,0.567-0.35c0.236,0.1,0.121,0.411,0.116,0.62c-0.079,3.189-0.008,6.377-0.032,9.565
		c-0.001,0.239,0.001,0.478,0.041,0.714c0.075,0.429,0.374,0.706,0.755,0.706c0.363,0,0.66-0.263,0.754-0.67
		c0.045-0.198,0.035-0.399,0.035-0.6c0.001-3.905-0.007-7.809,0.008-11.714c0.003-0.651-0.022-1.256-0.613-1.671
		c-0.02-0.071-0.008-0.134,0.038-0.191"/>
	<path fill="#999999" d="M71.963,85.779c0.107-0.028,0.105-0.132,0.137-0.208c0.455-1.045,1.458-1.586,2.529-1.361
		c1.018,0.213,1.732,1.106,1.735,2.212c0.009,3.591,0.009,7.182,0.013,10.774c0,0.477,0,0.477,0.491,0.477
		c2.725,0,5.45,0,8.176,0.001c0.06,0,0.118,0.007,0.245,0.015c-1.49,1.243-1.638,2.707-0.851,4.345
		c-0.129,0.065-0.267,0.03-0.399,0.03c-2.423,0.003-4.847,0.008-7.271-0.005c-0.303-0.001-0.399,0.061-0.398,0.385
		c0.012,4.157,0.009,8.314,0.007,12.471c-0.001,1.105-0.517,1.912-1.431,2.257c-1.113,0.42-2.356-0.11-2.821-1.199
		c-0.042-0.099-0.036-0.228-0.161-0.279V85.779z"/>
	<path fill="#999999" d="M151.906,66.43c0.499,0.198,0.676,0.58,0.676,1.096c-0.006,4.194-0.003,8.387-0.004,12.581
		c0,0.076,0.003,0.151-0.004,0.226c-0.05,0.553-0.432,0.931-0.914,0.909c-0.491-0.021-0.839-0.406-0.84-0.969
		c-0.004-3.327-0.002-6.655-0.002-9.982c0-0.257,0-0.514,0-0.787c-0.175,0.041-0.239,0.158-0.323,0.242
		c-1.36,1.356-2.718,2.716-4.077,4.074c-0.598,0.597-1.011,0.599-1.6,0.01c-1.481-1.482-2.963-2.965-4.465-4.468
		c-0.089,0.146-0.054,0.284-0.054,0.411c-0.002,3.415-0.002,6.83-0.002,10.245c0,0.101,0.004,0.202-0.001,0.302
		c-0.024,0.523-0.386,0.909-0.861,0.922c-0.481,0.014-0.849-0.347-0.89-0.88c-0.012-0.162-0.011-0.327-0.011-0.489
		c-0.001-4.056,0.01-8.112-0.011-12.167c-0.003-0.641,0.103-1.157,0.732-1.443h0.226c0.377,0.051,0.658,0.256,0.921,0.522
		c1.628,1.641,3.263,3.271,4.898,4.904c0.322,0.322,0.324,0.322,0.646-0.001c1.643-1.643,3.285-3.286,4.928-4.926
		c0.242-0.242,0.491-0.478,0.878-0.42C151.816,66.352,151.873,66.368,151.906,66.43"/>
	<path fill="#FFFFFF" d="M151.906,66.43c-0.394-0.057-0.691,0.098-0.967,0.377c-1.685,1.699-3.387,3.382-5.067,5.087
		c-0.23,0.233-0.333,0.202-0.543-0.011c-1.622-1.64-3.258-3.264-4.885-4.898c-0.288-0.288-0.569-0.581-0.965-0.722h12.433
		C151.91,66.319,151.908,66.375,151.906,66.43"/>
	<path fill="#999999" d="M150.48,95.775c0-3.177,0-6.354,0-9.531c0-1.327,0.91-2.319,2.139-2.337
		c1.291-0.017,2.242,0.941,2.274,2.293c0.003,0.1,0.001,0.201,0.001,0.302c0,6.253,0.012,12.507-0.007,18.76
		c-0.007,2.296-0.47,4.511-1.454,6.597c-1.553,3.29-4.131,5.149-7.764,5.507c-5.464,0.538-10.122-2.948-11.174-8.333
		c-0.687-3.518-1.356-7.041-2.108-10.545c-0.569-2.652-1.594-5.126-3.364-7.227c-2.079-2.469-4.75-4.013-7.833-4.871
		c-2.056-0.573-4.149-0.852-6.288-0.7c-2.932,0.208-5.56,1.236-7.935,2.942c-1.106,0.794-2.098,1.714-2.984,2.748
		c-0.189,0.22-0.382,0.432-0.634,0.584c-0.342,0.207-0.664,0.192-0.977-0.052c-0.313-0.243-0.422-0.588-0.296-0.971
		c0.145-0.444,0.471-0.767,0.762-1.109c2.474-2.905,5.623-4.696,9.321-5.504c4.365-0.955,8.693-0.705,12.901,0.786
		c2.722,0.965,5.161,2.46,7.162,4.585c2.108,2.241,3.375,4.932,4.088,7.893c0.801,3.325,1.555,6.662,2.336,9.993
		c0.171,0.733,0.392,1.454,0.712,2.137c0.893,1.904,2.451,2.877,4.486,3.19c0.76,0.117,1.501,0.036,2.241-0.115
		c1.705-0.351,2.747-1.473,3.424-2.995c0.65-1.464,0.943-3.02,0.961-4.609C150.506,102.053,150.48,98.914,150.48,95.775"/>
	<path fill="#999999" d="M182.656,100.322c0-3.49-0.015-6.982,0.005-10.472c0.013-2.205,0.92-3.904,2.976-4.869
		c0.863-0.405,1.789-0.569,2.741-0.569c3.804-0.002,7.609-0.002,11.413-0.001c0.945,0.001,1.631,0.443,1.951,1.252
		c0.342,0.863,0.137,1.793-0.528,2.417c-0.4,0.375-0.881,0.502-1.417,0.499c-1.18-0.005-2.36,0-3.541-0.001
		c-2.486-0.003-4.972-0.004-7.458-0.011c-1.217-0.003-1.784,0.55-1.784,1.76c-0.001,2.297,0.006,4.596-0.007,6.894
		c-0.003,0.333,0.069,0.442,0.427,0.441c3.992-0.014,7.986,0.016,11.978-0.023c1.408-0.014,2.239,1.124,2.235,2.18
		c-0.006,1.309-0.913,2.224-2.23,2.224c-3.992,0.001-7.986,0.005-11.978-0.008c-0.341-0.001-0.436,0.082-0.434,0.43
		c0.016,2.661,0.009,5.324,0.009,7.986c0,1.05,0.431,1.627,1.449,1.914c0.595,0.168,1.204,0.24,1.822,0.24
		c3.214,0,6.429-0.002,9.643,0.001c1.043,0.002,1.824,0.653,2.056,1.694c0.219,0.977-0.269,2.008-1.151,2.431
		c-0.264,0.127-0.545,0.182-0.838,0.181c-3.34-0.005-6.681,0.03-10.02-0.026c-2.066-0.035-4-0.584-5.561-2.038
		c-1.156-1.077-1.758-2.423-1.759-4.016C182.654,107.328,182.656,103.825,182.656,100.322"/>
	<path fill="#999999" d="M165.592,116.975c-2.399,0-4.371,0.011-6.342-0.005c-0.904-0.007-1.595-0.424-1.993-1.245
		c-0.389-0.805-0.303-1.59,0.23-2.305c0.49-0.66,1.19-0.879,1.985-0.879c3.768,0.003,7.535,0.008,11.302-0.002
		c1.343-0.003,2.555-0.368,3.471-1.425c1.553-1.792,1.738-5.041,0.369-6.767c-0.852-1.074-2.049-1.538-3.352-1.761
		c-1.309-0.224-2.631-0.077-3.947-0.107c-0.907-0.02-1.805-0.088-2.684-0.317c-3.461-0.903-5.485-3.207-6.377-6.587
		c-0.51-1.933-0.436-3.864,0.249-5.739c1.06-2.901,3.247-4.52,6.166-5.258c0.832-0.211,1.68-0.291,2.536-0.292
		c2.41-0.001,4.821-0.003,7.233,0.001c1.032,0.002,1.842,0.517,2.187,1.371c0.573,1.421-0.388,2.95-1.919,3.052
		c-0.137,0.009-0.276,0.009-0.413,0.009c-2.5,0-4.999-0.026-7.497,0.01c-1.542,0.022-3.506,0.734-4.152,2.629
		c-0.331,0.97-0.383,1.963-0.151,2.966c0.133,0.577,0.331,1.129,0.627,1.646c0.889,1.545,2.331,2.048,3.999,2.089
		c1.067,0.025,2.136-0.016,3.203,0.009c2.006,0.048,3.894,0.549,5.604,1.619c2.259,1.412,3.542,3.481,3.909,6.095
		c0.391,2.783-0.178,5.376-1.822,7.677c-1.508,2.11-3.639,3.188-6.183,3.433C169.612,117.104,167.385,116.92,165.592,116.975"/>
	<path fill="#787878" d="M105.121,108.165c-0.042,0.062-0.096,0.118-0.125,0.185c-0.269,0.619-0.707,0.958-1.412,0.864
		c-0.106-0.014-0.196,0.033-0.284,0.08c-0.693,0.361-1.431,0.602-2.171,0.838c-0.739,0.234-1.224,0.067-1.608-0.618
		c-0.197-0.351-0.386-0.644-0.859-0.546c-0.128,0.026-0.24-0.054-0.311-0.173c-0.178-0.302-0.366-0.599-0.533-0.908
		c-0.113-0.206-0.065-0.375,0.19-0.414c0.334-0.051,0.67-0.111,1.005-0.116c0.33-0.006,0.6,0.147,0.778,0.447
		c0.146,0.248,0.299,0.495,0.469,0.727c0.349,0.475,0.603,0.556,1.167,0.401c0.073-0.02,0.145-0.039,0.216-0.066
		c0.984-0.36,1.189-0.872,0.425-1.777c-0.17-0.202-0.39-0.347-0.62-0.482c-0.68-0.398-1.326-0.832-1.5-1.685
		c-0.025-0.126-0.098-0.212-0.235-0.177c-0.164,0.041-0.145,0.154-0.114,0.295c0.131,0.602-0.019,0.788-0.632,0.782
		c-0.952-0.01-1.904-0.157-2.856,0.004c-0.36,0.062-0.72,0.106-1.086,0.08c-0.581-0.04-0.887-0.356-0.916-0.934
		c-0.023-0.493,0.032-0.976,0.145-1.456c0.033-0.141,0.081-0.321-0.133-0.368c-0.217-0.048-0.276,0.107-0.307,0.283
		c-0.069,0.407-0.151,0.814-0.21,1.222c-0.2,1.394-1.002,2.233-2.391,2.535c-0.655,0.142-1.324,0.107-1.981,0.214
		c-0.764,0.123-1.447,0.404-1.972,0.998c-0.083,0.094-0.168,0.189-0.228,0.297c-0.068,0.125-0.214,0.296-0.091,0.402
		c0.168,0.144,0.246-0.098,0.34-0.186c0.728-0.687,1.594-1.025,2.587-1.055c0.501-0.016,1.002-0.001,1.505-0.038
		c0.867-0.064,1.516-0.476,1.999-1.179c0.114-0.165,0.225-0.333,0.347-0.492c0.068-0.089,0.089-0.279,0.258-0.2
		c0.149,0.069,0.311,0.221,0.214,0.387c-0.368,0.625-0.447,1.47-1.301,1.739c-0.163,0.051-0.322,0.148-0.458,0.255
		c-0.517,0.407-1.098,0.452-1.713,0.333c-0.333-0.065-0.667-0.12-1.007-0.118c-0.382,0.002-0.724,0.111-0.981,0.398
		c-0.275,0.31-0.637,0.478-0.988,0.671c-0.269,0.147-0.547,0.192-0.834,0.091c-0.381-0.132-0.66-0.02-0.856,0.323
		c-0.031,0.054-0.065,0.108-0.097,0.161c-0.408,0.676-0.749,0.82-1.538,0.651c-0.552-0.117-0.552-0.117-0.41-0.681
		c0.1-0.396,0.208-0.779,0.709-0.85c0.136-0.019,0.244-0.14,0.313-0.258c0.216-0.375,0.552-0.602,0.914-0.81
		c0.387-0.221,0.621-0.557,0.757-0.987c0.272-0.863,0.285-0.855,1.177-0.909c0.502-0.029,0.89-0.316,1.269-0.604
		c0.154-0.118,0.155-0.314,0.077-0.485c-0.341-0.745-0.493-1.524-0.45-2.342c0.014-0.268-0.086-0.353-0.364-0.281
		c-0.699,0.178-1.401,0.261-2.114,0.031c-1.814-0.586-2.397-2.701-1.128-4.12c0.437-0.489,0.941-0.904,1.444-1.32
		c0.175-0.145,0.448-0.274,0.328-0.567c-0.11-0.267-0.393-0.253-0.625-0.238c-0.57,0.037-1.063-0.117-1.493-0.493
		c-0.549-0.479-0.787-1.246-0.579-1.83c0.077-0.215,0.162-0.29,0.365-0.125c0.58,0.472,1.252,0.714,1.992,0.812
		c0.321,0.042,0.63,0.154,0.919,0.316c0.705,0.394,0.93,1.25,0.499,1.938c-0.202,0.324-0.477,0.58-0.774,0.815
		c-0.414,0.327-0.817,0.665-1.184,1.047c-0.583,0.606-0.75,1.436-0.4,2.065c0.375,0.675,1.092,0.977,1.936,0.797
		c0.864-0.186,1.602-0.636,2.293-1.166c0.718-0.55,1.419-1.129,2.349-1.288c0.358-0.061,0.724-0.072,1.082-0.133
		c0.691-0.118,1.264-0.46,1.751-0.96c0.643-0.664,1.417-1.022,2.357-0.967c0.36,0.021,0.641-0.156,0.855-0.405
		c0.615-0.72,1.421-1.09,2.305-1.339c0.692-0.196,1.349-0.473,1.938-0.892c1.173-0.834,2.365-0.742,3.456,0.079
		c1.797,1.351,3.529,2.786,4.788,4.695c0.248,0.376,0.498,0.749,0.67,1.169c0.185,0.209,0.23,0.472,0.253,0.731
		c0.113,1.313,0.5,2.555,0.939,3.787c0.025,0.072,0.047,0.153,0.103,0.2c0.529,0.449,0.786,1.098,1.203,1.628
		c0.21,0.266,0.451,0.504,0.758,0.667c0.144,0.076,0.312,0.167,0.256,0.366c-0.057,0.205-0.258,0.17-0.414,0.169
		c-0.829-0.004-1.32-0.53-1.725-1.161c-0.229-0.357-0.429-0.73-0.866-1.002c0.286,0.43,0.503,0.817,0.649,1.227
		c0.19,0.539,0.56,0.877,1.036,1.138c0.142,0.078,0.291,0.146,0.42,0.249c0.079,0.064,0.165,0.13,0.138,0.247
		c-0.03,0.128-0.134,0.175-0.251,0.194c-0.188,0.028-0.375,0.019-0.563-0.01c-0.654-0.099-1.212-0.38-1.68-0.853
		c-0.347-0.351-0.393-0.349-0.79-0.057c-0.438,0.32-0.888,0.524-1.465,0.426c-0.474-0.081-0.943,0.049-1.398,0.22
		c-0.33,0.124-0.654,0.329-1.038,0.209c-0.297-0.005-0.666,0.057-0.79-0.282c-0.136-0.374-0.287-0.795,0.048-1.171
		c0.04-0.046,0.075-0.101,0.104-0.155c0.036-0.069,0.147-0.124,0.059-0.223c-0.062-0.069-0.132-0.033-0.206-0.01
		c-0.281,0.087-0.305-0.066-0.24-0.276c0.048-0.157,0.119-0.316,0.248-0.413c0.449-0.34,0.677-0.812,0.839-1.329
		c-0.018-0.119,0.131-0.266-0.061-0.356c-0.513,0.096-1.047,0.082-1.537,0.297c-0.089,0.039-0.195,0.057-0.292,0.057
		c-0.183-0.001-0.409,0.074-0.528-0.105c-0.12-0.183,0.088-0.316,0.164-0.462c0.275-0.523,0.396-1.078,0.347-1.667
		c-0.011-0.127,0.008-0.315-0.182-0.321c-0.209-0.006-0.198,0.19-0.221,0.333c-0.017,0.111-0.018,0.224-0.026,0.337
		c0.013,0.109,0.029,0.218-0.061,0.307c-0.067,0.09-0.082,0.193-0.079,0.301l0.001-0.002c-0.171,0.368-0.279,0.781-0.696,0.972
		c-0.135,0.158-0.337,0.15-0.513,0.203c-0.405,0.12-0.444,0.198-0.252,0.586c0.138,0.281,0.287,0.56,0.456,0.821
		c0.408,0.634,0.686,1.28,0.364,2.049c0.555-0.548,0.608-0.86,0.289-1.508c-0.2-0.404-0.408-0.805-0.602-1.212
		c-0.066-0.139-0.207-0.3-0.05-0.445c0.156-0.146,0.354-0.177,0.542-0.025c0.172,0.098,0.387,0.145,0.446,0.377
		c0.186,0.215,0.33,0.449,0.334,0.744c0.086,0.148,0.163,0.301,0.258,0.443c0.266,0.4,0.239,0.806,0.039,1.219
		C105.228,108.089,105.189,108.135,105.121,108.165"/>
	<path fill="#999999" d="M108.129,95.727c-0.127-0.124-0.254-0.248-0.382-0.371c0.076-0.205,0.271-0.248,0.44-0.323
		c2.078-0.922,4.259-1.477,6.5-1.821c1.403-0.216,2.803-0.406,4.227-0.351c0.247,0.01,0.49,0.031,0.695,0.069
		c-0.165-0.053-0.376-0.064-0.586-0.066c-2.159-0.02-4.311,0.032-6.438,0.468c-1.084,0.222-2.155,0.478-3.186,0.884
		c-0.233,0.092-0.468,0.184-0.718,0.219c-0.087,0.013-0.194,0.013-0.233-0.078c-0.043-0.104,0.056-0.158,0.128-0.201
		c0.314-0.186,0.637-0.354,0.973-0.493c1.238-0.514,2.486-1.008,3.8-1.301c0.222-0.026,0.427-0.152,0.545-0.146
		c-0.128-0.001-0.344,0.119-0.576,0.15c-1.581,0.4-3.172,0.766-4.622,1.558c-0.385,0.211-0.818,0.319-1.231,0.467
		c-0.107,0.038-0.24,0.08-0.305-0.043c-0.049-0.096,0.039-0.19,0.108-0.262c0.263-0.28,0.618-0.469,0.839-0.829
		c-0.161-0.11-0.32-0.051-0.473-0.034c-0.113,0.012-0.251,0.048-0.314-0.061c-0.076-0.134,0.047-0.235,0.137-0.317
		c0.554-0.504,1.192-0.878,1.876-1.173c1.714-0.735,3.525-1.056,5.367-1.254c0.737-0.08,1.481-0.12,2.214-0.115
		c0.809,0.006,1.627,0.023,2.438,0.126c1.5,0.19,2.974,0.463,4.398,0.987c1.286,0.474,2.469,1.122,3.474,2.06
		c0.506,0.472,0.908,1.037,1.247,1.643c0.03,0.054,0.061,0.111,0.079,0.17c0.028,0.094,0.092,0.206-0.019,0.271
		c-0.086,0.051-0.16-0.035-0.225-0.092c-0.037-0.033-0.067-0.075-0.1-0.113c-1.181-1.352-2.558-2.435-4.247-3.091
		c-0.189-0.073-0.368-0.161-0.495-0.328c-0.105-0.138-0.263-0.186-0.417-0.241c-0.71-0.256-1.454-0.362-2.141-0.509
		c-0.098-0.008-0.047,0.08-0.059,0.031c-0.004-0.016,0.007-0.024,0.031-0.021c0.454,0.046,0.88,0.197,1.302,0.355
		c1.506,0.565,2.987,1.181,4.297,2.14c0.233,0.17,0.453,0.358,0.633,0.585c0.102,0.127,0.224,0.286,0.101,0.44
		c-0.138,0.17-0.293,0.032-0.431-0.049c-0.08-0.057-0.166-0.104-0.26-0.167c0.077,0.061,0.15,0.101,0.221,0.145
		c0.423,0.264,0.772,0.6,1.021,1.033c0.073,0.127,0.175,0.288,0.035,0.412c-0.146,0.13-0.285-0.013-0.397-0.099
		c-0.556-0.431-1.105-0.865-1.683-1.268c-0.896-0.623-1.913-0.924-2.95-1.182c-0.376-0.093-0.751-0.189-1.128-0.271
		c-0.277-0.076-0.557-0.14-0.824-0.246c0.248,0.102,0.508,0.168,0.768,0.234c1.105,0.272,2.217,0.519,3.239,1.051
		c0.981,0.508,1.796,1.216,2.561,2.003c0.792,0.813,1.401,1.734,1.796,2.793c0.544,1.461,0.599,2.95,0.198,4.456
		c-0.002,0.008-0.021,0.011-0.032,0.017c-0.189-0.11-0.129-0.296-0.141-0.459c-0.014-0.181,0.016-0.364-0.03-0.544
		c-0.128-0.871-0.397-1.679-0.997-2.356c-0.297-0.335-0.654-0.581-1.035-0.802c-0.091-0.052-0.183-0.104-0.28-0.143
		c-0.033-0.012-0.066-0.026-0.097-0.039c-0.262-0.097-0.525-0.191-0.798-0.256c-0.105-0.022-0.207-0.061-0.315-0.07
		c-0.165-0.026-0.328-0.071-0.493-0.094c-0.112-0.025-0.223-0.047-0.338-0.051c-0.442,0.039-0.874-0.063-1.314-0.081
		c-1.019-0.043-2.002,0.124-2.964,0.437c-0.86,0.28-1.733,0.518-2.592,0.797c-0.227,0.074-0.462,0.126-0.703,0.121
		c-0.136-0.003-0.292-0.001-0.339-0.171c-0.043-0.157,0.059-0.263,0.173-0.347c0.204-0.148,0.415-0.292,0.653-0.37
		c1.177-0.386,2.309-0.917,3.55-1.094c0.448-0.065,0.899-0.084,1.345-0.161c0.381-0.067,0.711-0.223,1.081-0.448
		c-0.324-0.094-0.602-0.105-0.88-0.056c-0.729,0.128-1.472,0.166-2.191,0.356c-0.184,0.048-0.374,0.051-0.562,0.022
		c-0.087-0.014-0.166-0.038-0.203-0.14c-0.111-0.315-0.313-0.447-0.614-0.336c-0.919,0.339-1.867,0.141-2.8,0.184
		c-0.139,0.007-0.294-0.021-0.344-0.177c-0.053-0.169,0.061-0.289,0.19-0.374c0.821-0.54,1.741-0.828,2.689-1.04
		c0.075-0.016,0.172-0.027,0.219,0.025c0.209,0.236,0.456,0.155,0.696,0.093c0.691-0.182,1.38-0.375,2.089-0.373
		c0.037-0.026,0.038-0.027,0.015-0.024c-0.131,0.018-0.335,0.102-0.367-0.046c-0.039-0.18,0.187-0.195,0.324-0.226
		c0.256-0.059,0.511-0.126,0.756-0.182c-0.218-0.063-0.427-0.188-0.69-0.161c-0.249,0.025-0.5,0.033-0.747,0.078
		c-0.26,0.047-0.521,0.084-0.78,0.134c-2.862,0.551-5.606,1.473-8.282,2.613c-0.352,0.149-0.674,0.397-1.082,0.4
		c-0.359,0.244-0.594,0.096-0.793-0.233c-0.088-0.145-0.218-0.263-0.329-0.394c-0.038-0.001-0.047-0.019-0.03-0.052
		c-0.469-0.71-1.12-1.233-1.786-1.742C108.167,95.791,108.14,95.767,108.129,95.727"/>
	<path fill="#FFFFFF" d="M111.147,98.217c1.814-0.893,3.706-1.586,5.634-2.183c1.535-0.475,3.09-0.859,4.681-1.095
		c0.527-0.078,1.034-0.091,1.525,0.174c-0.383,0.278-0.876,0.266-1.32,0.448c0.195,0.008,0.39,0.017,0.585,0.026
		c-0.911,0.151-1.798,0.398-2.699,0.585c-0.076,0.015-0.42,0.271-0.326-0.173c0.013-0.064-0.125-0.037-0.187-0.023
		c-0.921,0.209-1.809,0.508-2.626,0.992c-0.113,0.068-0.279,0.141-0.238,0.302c0.038,0.147,0.207,0.115,0.327,0.113
		c0.984-0.018,1.987,0.164,2.935-0.262c0.095-0.042,0.218-0.103,0.233,0.095c0.003,0.027,0.081,0.076,0.115,0.069
		c0.554-0.107,0.323,0.151,0.127,0.387c0.305,0.039,0.552,0.009,0.812-0.04c0.907-0.174,1.812-0.375,2.743-0.352
		c0.152,0.003,0.328,0.004,0.508,0.144c-0.414,0.265-0.813,0.494-1.288,0.576c-0.639,0.112-1.291,0.118-1.928,0.256
		c-0.724,0.157-1.405,0.443-2.1,0.677c-0.492,0.166-1.002,0.312-1.449,0.599c-0.13,0.084-0.297,0.151-0.237,0.331
		c0.058,0.172,0.243,0.104,0.36,0.081c0.921-0.186,1.82-0.462,2.702-0.776c1.571-0.561,3.167-0.734,4.811-0.464
		c0.065,0.231-0.091,0.4-0.162,0.594c-0.18,0.361-0.373,0.714-0.59,1.055c-0.224,0.331-0.443,0.666-0.689,0.98
		c-0.242,0.29-0.48,0.584-0.758,0.841c-0.237,0.223-0.458,0.461-0.694,0.685c-0.312,0.241-0.617,0.488-0.901,0.761
		c-0.192,0.195-0.405,0.369-0.567,0.59c-0.135,0.186-0.068,0.297,0.161,0.31c0.2,0.012,0.375-0.146,0.581-0.078
		c0.028,0.025,0.041,0.056,0.041,0.094c-0.188,0.363-0.557,0.539-0.836,0.808c-0.313,0.199-0.617,0.41-0.924,0.618
		c-0.571,0.297-1.136,0.605-1.728,0.857c-0.619,0.278-1.263,0.486-1.915,0.665c-0.196,0.053-0.337,0.11-0.3,0.376
		c0.04,0.285-0.16,0.466-0.399,0.576c-0.219,0.101-0.358,0.229-0.423,0.48c-0.078,0.306-0.329,0.468-0.639,0.503
		c-0.872,0.1-1.656-0.161-2.387-0.615c-0.075-0.046-0.14-0.106-0.215-0.151c-0.095-0.057-0.213-0.164-0.302-0.07
		c-0.103,0.11,0.019,0.234,0.086,0.329c0.09,0.129,0.251,0.156,0.389,0.212c0.402,0.161,0.806,0.288,1.152,0.597
		c0.334,0.297,0.818,0.272,1.256,0.301c0.637,0.041,1.277-0.03,1.914,0.023c0.077,0.034,0.163,0.063,0.116,0.177
		c-0.086,0.103-0.208,0.133-0.328,0.17c-1.425,0.44-2.89,0.657-4.374,0.654c-1.492-0.002-2.944-0.28-4.308-0.922
		c-0.139-0.066-0.322-0.096-0.33-0.308c0.038-0.223,0.28-0.506-0.181-0.581c-0.067-0.011-0.11-0.104-0.087-0.182
		c0.021-0.073,0.098-0.073,0.154-0.058c0.126,0.032,0.242,0.043,0.336-0.068c0.335-0.101,0.678-0.182,1.003-0.308
		c0.565-0.218,1.135-0.285,1.733-0.191c0.418,0.066,0.747-0.159,1.059-0.398c0.516-0.396,0.516-0.4,0.999,0.069
		c0.569,0.551,1.249,0.818,2.037,0.824c0.107,0.001,0.25,0.039,0.294-0.1c0.046-0.148-0.1-0.175-0.193-0.231
		c-0.257-0.154-0.519-0.303-0.768-0.469c-0.301-0.2-0.505-0.469-0.621-0.822c-0.18-0.546-0.484-1.033-0.878-1.578
		c0.601,0.188,0.885,0.575,1.124,0.995c0.208,0.365,0.448,0.694,0.78,0.953c0.341,0.266,0.726,0.387,1.159,0.347
		c0.087-0.008,0.183-0.003,0.199-0.123c0.012-0.097-0.066-0.137-0.13-0.162c-0.663-0.267-1.017-0.828-1.354-1.407
		c-0.183-0.315-0.373-0.624-0.681-0.84c-0.129-0.092-0.181-0.238-0.231-0.38c-0.446-1.254-0.836-2.519-0.947-3.856
		c-0.019-0.234-0.097-0.464-0.148-0.696c0.436-0.198,0.066-0.546,0.135-0.818c0.044-0.172-0.184-0.161-0.341-0.144
		c-0.173,0.019-0.29-0.174-0.248-0.254C111.167,98.975,110.965,98.568,111.147,98.217"/>
	<path fill="#999999" d="M112.998,117.737c-4.89-0.078-10.055-1.934-14.414-5.892c-1.544-1.402-2.828-3.017-3.871-4.822
		c-0.229-0.396-0.113-0.601,0.338-0.63c0.86-0.056,1.705-0.29,2.581-0.185c0.46,0.055,0.925,0.064,1.389,0.034
		c0.186-0.012,0.658,0.493,0.622,0.673c-0.023,0.118-0.115,0.088-0.209,0.075c-0.525-0.074-1.051-0.054-1.57,0.049
		c-0.595,0.12-0.726,0.37-0.507,0.941c0.135,0.352,0.325,0.675,0.523,0.996c0.189,0.307,0.446,0.474,0.803,0.459
		c0.182-0.007,0.266,0.08,0.348,0.223c0.183,0.319,0.417,0.594,0.725,0.804c0.351,0.238,0.727,0.327,1.144,0.214
		c0.156-0.042,0.333-0.047,0.471-0.124c0.655-0.365,1.096-0.144,1.639,0.345c3.337,3.014,7.269,4.613,11.777,4.733
		c4.086,0.109,7.802-1.063,11.133-3.395c1.815-1.272,3.198-2.959,4.226-4.927c0.123-0.236,0.262-0.458,0.468-0.63
		c0.276-0.231,0.583-0.283,0.911-0.124c0.338,0.163,0.505,0.436,0.484,0.818c-0.014,0.256-0.108,0.487-0.221,0.712
		c-1.582,3.151-4.013,5.449-7.119,7.06C121.31,116.884,117.735,117.735,112.998,117.737"/>
	<path fill="#787878" d="M72.04,81.028c0.001-4.617,0.002-9.232,0.002-13.849c1.845-0.003,3.692-0.045,5.536,0.002
		c1.909,0.048,3.595,1.576,3.869,3.407c0.305,2.032-0.813,3.891-2.745,4.565c-0.106,0.037-0.214,0.07-0.363,0.118
		c1.34,1.91,2.671,3.805,4,5.698c-0.054,0.124-0.156,0.073-0.232,0.073c-0.979,0.004-1.958-0.004-2.938,0.008
		c-0.22,0.003-0.337-0.08-0.45-0.256c-0.86-1.34-1.726-2.676-2.599-4.01c-0.123-0.188-0.17-0.375-0.168-0.597
		c0.009-0.841,0.031-1.684-0.008-2.523c-0.018-0.412,0.131-0.511,0.495-0.483c0.406,0.031,0.802-0.045,1.166-0.234
		c0.743-0.384,1.137-1.184,0.965-1.942c-0.176-0.781-0.879-1.386-1.695-1.421c-0.564-0.024-1.129,0-1.694-0.007
		c-0.16-0.003-0.234,0.044-0.218,0.212c0.009,0.088,0.001,0.175,0.001,0.264c0,3.528-0.004,7.056,0.008,10.585
		c0.001,0.329-0.073,0.428-0.41,0.415C73.722,81.022,72.881,81.033,72.04,81.028"/>
	<path fill="#999999" d="M106.776,109.815c1.054,0.62,2.213,0.913,3.412,1.046c2.025,0.226,3.994-0.076,5.925-0.686
		c0.072-0.125,0.204-0.151,0.323-0.201c0.524-0.169,1.034-0.383,1.541-0.598c0.64-0.287,1.268-0.603,1.871-0.963
		c0.314-0.18,0.614-0.38,0.898-0.604c0.116-0.107,0.25-0.188,0.385-0.267c0.235-0.181,0.468-0.364,0.739-0.609
		c-0.256,0.091-0.463,0.117-0.675,0.116c-0.409-0.058-0.519-0.256-0.319-0.601c0.119-0.205,0.276-0.386,0.443-0.556
		c0.29-0.177,0.491-0.464,0.777-0.648c0.219-0.212,0.482-0.373,0.689-0.598c0.26-0.27,0.588-0.466,0.83-0.755
		c0.302-0.349,0.626-0.679,0.904-1.049c0.343-0.391,0.62-0.827,0.899-1.264c0.159-0.21,0.257-0.453,0.379-0.683
		c0.169-0.294,0.294-0.611,0.445-0.915c0.103-0.201,0.16-0.421,0.278-0.612c0.068-0.11,0.118-0.267,0.307-0.181
		c0.023,0.007,0.046,0.014,0.071,0.021c0.143,0.365-0.137,0.645-0.192,0.97c-0.116,0.343-0.247,0.679-0.362,0.924
		c0.151-0.231,0.151-0.231,0.311-0.037c-0.017,0.184-0.129,0.328-0.199,0.49c-0.092,0.187-0.213,0.355-0.326,0.528
		c-0.128,0.177-0.235,0.371-0.384,0.533c-0.134,0.146-0.235,0.321-0.383,0.455c-0.124,0.108-0.209,0.248-0.309,0.376
		c-0.134,0.143-0.283,0.273-0.382,0.447c-0.158,0.176-0.307,0.361-0.427,0.566c-0.223,0.3-0.477,0.584-0.311,1.011
		c0.045,0.116-0.052,0.238-0.089,0.357c-0.024,0.08-0.081,0.176,0.022,0.234c0.088,0.048,0.166-0.015,0.237-0.068
		c0.12-0.09,0.195-0.23,0.33-0.304c0.137-0.062,0.265-0.141,0.396-0.216c0.102-0.051,0.196-0.118,0.294-0.176
		c0.163-0.073,0.294-0.196,0.439-0.296c0.149-0.098,0.269-0.226,0.381-0.363c0.135-0.185,0.257-0.378,0.379-0.572
		c0.112-0.144,0.189-0.312,0.289-0.463c0.087-0.126,0.149-0.267,0.235-0.394c0.062-0.092,0.115-0.187,0.169-0.282
		c0.181-0.344,0.233-0.697,0.161-1.088c-0.111-0.615-0.128-1.241-0.116-1.866c0.002-0.108-0.091-0.181-0.084-0.281
		c0.009-0.14-0.111-0.343,0.165-0.363c1.254,0.626,1.869,1.691,2.084,3.03c0.008,0.049,0.014,0.099,0.021,0.147
		c0.007,0.527,0.081,1.055-0.029,1.579c-0.075,0.191-0.085,0.402-0.189,0.584c-0.384,1.886-1.447,3.386-2.699,4.785
		c-1.929,2.158-4.327,3.54-7.089,4.329c-0.058,0.016-0.123,0.015-0.185,0.022c-0.046-0.048-0.173-0.009-0.148-0.135
		c1.749-0.519,3.394-1.256,4.892-2.308c1.324-0.931,2.425-2.083,3.407-3.359c0.093-0.122,0.227-0.235,0.202-0.465
		c-0.682,0.547-1.061,1.314-1.646,1.898c-0.031,0.035-0.062,0.034-0.092,0c0.078-0.14,0.101-0.252-0.121-0.185
		c-0.081,0.024-0.148,0.092-0.221,0.141c-0.798,0.542-1.596,1.084-2.394,1.626c-0.54,0.363-1.102,0.687-1.678,0.988
		c-1.5,0.787-3.062,1.383-4.757,1.576c-1.243,0.168-2.489,0.237-3.738,0.083c-0.872-0.107-1.685-0.423-2.499-0.744
		c0.361-0.049,0.694,0.186,1.112,0.111c-0.658-0.258-1.269-0.498-1.88-0.737c-0.021-0.019-0.028-0.036-0.018-0.052
		c0.008-0.015,0.017-0.023,0.025-0.023c0.346,0.028,0.692,0.056,1.037,0.085c0.87,0.087,1.724,0.336,2.611,0.263
		c0.219,0.001,0.44,0.035,0.657-0.031c0.39-0.101,0.792-0.059,1.188-0.085c0.138,0.013,0.264-0.039,0.395-0.068
		c0.6-0.025,1.162-0.227,1.734-0.379c0.189-0.011,0.357-0.116,0.548-0.119c0.107-0.037,0.217-0.065,0.247-0.072
		c-0.03,0.015-0.149,0.029-0.258,0.07c-0.228,0.025-0.441,0.116-0.666,0.151c-0.484,0.137-0.965,0.286-1.468,0.34
		c-0.148-0.015-0.285,0.043-0.427,0.07c-0.196,0.013-0.392-0.002-0.587,0.014c-0.317,0-0.632,0.019-0.948,0.025
		c-0.681,0.017-1.354-0.074-2.029-0.142c-0.134-0.02-0.278-0.01-0.382-0.123c-0.874-0.144-1.755-0.266-2.582-0.601
		c-0.751-0.304-1.5-0.619-2.025-1.282c0.013-0.051,0.252,0.019,0.074-0.137c-0.427-0.301-0.881-0.564-1.268-0.92
		c-0.093-0.086-0.305-0.147-0.141-0.342c0.165-0.197,0.212,0.061,0.317,0.093c0.069,0.021,0.126,0.075,0.189,0.114
		c0.043,0.001,0.073,0.023,0.088,0.064C106.097,109.465,106.42,109.666,106.776,109.815"/>
	<path fill="#999999" d="M107.983,93.09c0.108-0.006,0.253-0.042,0.312,0.074c0.067,0.132-0.087,0.191-0.159,0.26
		c-0.314,0.301-0.637,0.59-0.938,0.915c0.603-0.171,1.194-0.353,1.747-0.639c1.382-0.714,2.864-1.105,4.386-1.368
		c0.079-0.025,0.094,0.008,0.074,0.077c-1.694,0.49-3.349,1.083-4.905,1.953c3.632-1.392,7.385-1.805,11.331-1.488
		c-0.262,0.153-0.45,0.067-0.62,0.061c-1.76-0.062-3.482,0.229-5.209,0.512c-1.797,0.294-3.538,0.773-5.225,1.452
		c-0.348,0.14-0.686,0.305-1.029,0.458c-0.46-0.347-0.915-0.7-1.38-1.04c-0.502-0.366-1.05-0.633-1.675-0.72
		c-0.086-0.012-0.322,0.026-0.183-0.194c0.599-0.944,1.249-1.847,2.112-2.576c0.228-0.173,0.477-0.324,0.612-0.591
		c1.027-0.943,2.264-1.508,3.554-1.973c1.857-0.669,3.75-1.184,5.742-1.186c1.345-0.001,2.67,0.18,3.954,0.601
		c0.01,0.072-0.037,0.097-0.095,0.112c-0.055-0.005-0.111-0.016-0.167-0.015c-0.231-0.065-0.468-0.102-0.703-0.15
		c-0.147,0.041-0.275-0.08-0.388-0.063c0.113-0.004,0.243,0.104,0.391,0.065c0.232,0.053,0.468,0.088,0.698,0.15
		c0.156,0.021,0.311,0.048,0.466,0.078c0.127-0.018,0.231,0.042,0.338,0.096c0.019-0.005,0.038-0.009,0.058-0.014
		c0.225,0.036,0.381,0.245,0.619,0.247c0.676,0.14,1.252,0.506,1.819,0.862c2.394,1.503,4.172,3.552,5.266,6.162
		c1.137,2.709,1.365,5.499,0.636,8.357c-0.015-0.004-0.03-0.008-0.045-0.013c0.103-0.692,0.187-1.385,0.159-2.087
		c-0.073-1.864-0.752-3.468-2.006-4.845c-0.918-1.008-1.928-1.891-3.196-2.432c-0.899-0.384-1.842-0.631-2.786-0.875
		c-0.018-0.068-0.005-0.104,0.075-0.076c1.97,0.271,3.782,0.913,5.299,2.25c0.206,0.182,0.43,0.343,0.647,0.509
		c0.054,0.042,0.114,0.126,0.191,0.056c0.069-0.062,0.017-0.138-0.014-0.206c-0.236-0.504-0.661-0.836-1.076-1.176
		c-0.018-0.068-0.004-0.104,0.075-0.076c0.136,0.048,0.328,0.196,0.402,0.09c0.117-0.164-0.073-0.311-0.188-0.438
		c-0.452-0.5-1.019-0.85-1.602-1.166c-1.382-0.746-2.818-1.363-4.332-1.789c-0.105-0.029-0.208-0.069-0.303-0.133
		c0.919,0.008,1.882,0.096,2.619,0.581c1.026,0.674,2.217,1.042,3.16,1.854c0.705,0.605,1.369,1.241,1.989,1.936
		c-0.04-0.32-0.345-0.843-0.717-1.299c-1.054-1.29-2.43-2.103-3.962-2.682c-1.507-0.571-3.072-0.869-4.67-1.025
		c-1.886-0.185-3.763-0.123-5.636,0.15c-1.629,0.237-3.218,0.606-4.694,1.362"/>
	<path fill="#999999" d="M92.61,91.808c0-1.82-0.007-3.642,0.002-5.462c0.006-1.083,0.813-2.008,1.847-2.151
		c1.147-0.157,2.15,0.473,2.475,1.554c0.073,0.243,0.09,0.492,0.09,0.743c0,3.252-0.004,6.505,0.005,9.757
		c0.001,0.354-0.025,0.565-0.476,0.571c-0.486,0.007-0.901,0.283-1.28,0.584c-0.128,0.101-0.264,0.197-0.372,0.317
		c-0.586,0.658-1.324,0.959-2.194,0.998c-0.865,0.038-1.629,0.381-2.333,0.864c-0.559,0.383-1.105,0.785-1.667,1.163
		c-0.387,0.26-0.806,0.465-1.276,0.527c-0.474,0.064-0.915-0.023-1.205-0.441c-0.288-0.413-0.23-0.855-0.01-1.284
		c0.152-0.295,0.394-0.514,0.648-0.723c0.405-0.336,0.815-0.669,1.203-1.024c0.13-0.12,0.257-0.13,0.407-0.13
		c1.269,0.001,2.536-0.007,3.805,0.007c0.263,0.003,0.338-0.069,0.336-0.334C92.605,95.5,92.61,93.654,92.61,91.808"/>
	<path fill="#999999" d="M154.637,73.769c0-1.557-0.001-3.114,0-4.671c0.001-1.655,0.967-2.62,2.62-2.621c2.486,0,4.972,0,7.458,0
		c0.713,0,1.074,0.288,1.074,0.855c0,0.575-0.366,0.878-1.064,0.878c-2.398,0-4.796-0.001-7.194,0c-0.175,0-0.353-0.002-0.526,0.018
		c-0.394,0.046-0.594,0.246-0.598,0.64c-0.01,1.143,0.003,2.285-0.008,3.428c-0.003,0.317,0.206,0.257,0.381,0.257
		c1.532,0.001,3.064-0.003,4.596-0.005c1.129,0,2.26-0.009,3.389,0.005c0.743,0.01,1.149,0.688,0.801,1.303
		c-0.198,0.35-0.522,0.439-0.895,0.438c-1.143-0.002-2.285-0.001-3.428-0.001c-1.52,0-3.038,0.006-4.558-0.008
		c-0.246-0.002-0.288,0.072-0.287,0.295c0.007,1.319-0.004,2.637-0.003,3.955c0,0.649,0.17,0.817,0.877,0.823
		c1.156,0.011,2.31,0.004,3.466,0.004c1.381,0,2.762-0.001,4.144,0c0.571,0.001,0.941,0.326,0.958,0.834
		c0.017,0.504-0.388,0.897-0.952,0.897c-2.637,0.004-5.273,0.012-7.91-0.002c-1.38-0.008-2.328-1.017-2.337-2.464
		C154.628,77.008,154.637,75.389,154.637,73.769"/>
	<path fill="#999999" d="M193.924,69.157c-0.934,1.781-1.835,3.501-2.736,5.222c-1.063,2.032-2.124,4.066-3.188,6.098
		c-0.267,0.512-0.76,0.693-1.223,0.458c-0.452-0.229-0.598-0.753-0.331-1.266c2.218-4.244,4.44-8.484,6.658-12.727
		c0.177-0.339,0.425-0.555,0.822-0.56c0.416-0.005,0.665,0.229,0.847,0.579c2.224,4.255,4.451,8.506,6.677,12.761
		c0.277,0.53,0.241,0.927-0.099,1.233c-0.452,0.406-1.095,0.259-1.409-0.337c-0.719-1.363-1.43-2.732-2.144-4.097
		c-1.214-2.322-2.427-4.644-3.643-6.965C194.093,69.437,194.02,69.322,193.924,69.157"/>
	<path fill="#787878" d="M125.777,75.599c0,0.753-0.025,1.508,0.006,2.26c0.051,1.26-0.536,2.161-1.538,2.833
		c-1.739,1.165-4.32,1.053-5.927-0.249c-0.797-0.646-1.215-1.475-1.209-2.516c0.009-1.67,0.011-3.34-0.005-5.009
		c-0.003-0.307,0.091-0.381,0.381-0.373c0.69,0.019,1.381,0.017,2.071,0c0.259-0.006,0.339,0.064,0.337,0.332
		c-0.013,1.507-0.007,3.013-0.006,4.52c0.001,0.973,0.64,1.657,1.556,1.665c0.932,0.008,1.595-0.683,1.596-1.665
		c0.001-1.481,0.012-2.963-0.009-4.444c-0.005-0.345,0.103-0.42,0.423-0.408c0.665,0.023,1.331,0.019,1.996,0.001
		c0.269-0.007,0.338,0.085,0.334,0.343C125.768,73.791,125.777,74.696,125.777,75.599"/>
	<path fill="#787878" d="M131.977,73.786c0-2.308,0.006-4.618-0.007-6.926c-0.002-0.317,0.088-0.401,0.397-0.39
		c0.677,0.023,1.355,0.021,2.032,0c0.289-0.009,0.38,0.066,0.378,0.367c-0.01,2.723-0.005,5.445-0.004,8.167
		c0,1.908-0.006,3.815,0.007,5.722c0.002,0.297-0.081,0.385-0.378,0.375c-0.678-0.022-1.356-0.024-2.033,0.001
		c-0.312,0.012-0.401-0.075-0.399-0.39C131.983,78.404,131.977,76.095,131.977,73.786"/>
	<path fill="#787878" d="M127.284,73.76c0-2.296,0.009-4.591-0.009-6.888c-0.003-0.351,0.109-0.413,0.424-0.402
		c0.664,0.023,1.33,0.026,1.994-0.001c0.323-0.013,0.387,0.091,0.386,0.396c-0.01,4.341-0.007,8.682-0.007,13.022
		c0,0.314-0.006,0.627,0.003,0.941c0.006,0.181-0.031,0.274-0.244,0.271c-0.765-0.011-1.531-0.015-2.296,0.001
		c-0.286,0.006-0.251-0.163-0.251-0.34C127.284,78.427,127.284,76.093,127.284,73.76"/>
	<path fill="#999999" d="M183.108,73.801c0-2.122,0-4.243,0-6.364c0-0.606,0.323-0.98,0.842-0.98c0.566,0,0.89,0.352,0.89,0.974
		c0.001,4.229,0.001,8.46,0,12.69c0,0.619-0.338,0.994-0.881,0.986c-0.523-0.007-0.85-0.381-0.851-0.98
		C183.107,78.018,183.108,75.909,183.108,73.801"/>
	<path fill="#FFFFFF" d="M104.127,105.226c-0.088-0.001-0.176-0.01-0.263-0.002c-0.225,0.021-0.351,0.083-0.203,0.349
		c0.244,0.437,0.426,0.912,0.692,1.333c0.395,0.625,0.078,1.305-0.519,1.759c-0.066-0.176,0.029-0.319,0.076-0.462
		c0.151-0.464,0.146-0.889-0.141-1.321c-0.29-0.437-0.523-0.913-0.77-1.377c-0.198-0.369-0.128-0.522,0.271-0.621
		c0.206-0.051,0.416-0.085,0.624-0.127C104.026,104.886,104.322,104.934,104.127,105.226"/>
	<path fill="#787878" d="M101.103,108.546c-0.22,0.049-0.33-0.102-0.406-0.283c-0.12-0.289-0.235-0.57-0.496-0.777
		c-0.163-0.13-0.069-0.247,0.113-0.261c0.336-0.027,0.674-0.04,1.011-0.056c0.145-0.007,0.233,0.07,0.271,0.207
		c0.065,0.229,0.119,0.46,0.248,0.665c0.08,0.128-0.002,0.212-0.101,0.28C101.556,108.449,101.356,108.549,101.103,108.546"/>
	<path fill="#787878" d="M83.203,110.772c-0.108-0.028-0.204-0.057-0.301-0.08c-0.306-0.071-0.492-0.174-0.217-0.509
		c0.128-0.156,0.121-0.376,0.126-0.576c0.003-0.139,0-0.283,0.094-0.391c0.125-0.142,0.24-0.385,0.472-0.25
		c0.225,0.13,0.477,0.287,0.344,0.647c-0.117,0.315-0.202,0.641-0.288,0.966C83.397,110.714,83.367,110.826,83.203,110.772"/>
	<path fill="#999999" d="M114.532,112.393c0.2-0.006,0.4-0.012,0.6-0.018c0.118-0.077,0.262,0.008,0.381-0.062
		c0.514-0.03,0.988-0.251,1.495-0.319c0.077-0.025,0.161-0.071,0.163,0.072c-0.595,0.154-1.176,0.368-1.799,0.389
		c-0.117,0.079-0.26-0.007-0.379,0.063c-0.38,0.031-0.76,0.062-1.142,0.093c-0.216,0.084-0.451-0.025-0.667,0.063
		c-0.909,0.075-1.781-0.111-2.643-0.366c0.198-0.006,0.396-0.011,0.595-0.017c0.119-0.057,0.253,0.008,0.372-0.045
		c0.685,0.048,1.369,0.097,2.054,0.145C113.885,112.437,114.208,112.431,114.532,112.393"/>
	<path fill="#999999" d="M116.502,113.586c0.909-0.211,1.819-0.409,2.692-0.755c0.696-0.275,1.379-0.578,2.052-0.903
		c0.137-0.043,0.176,0.065,0.229,0.15c-0.992,0.709-2.144,1.005-3.306,1.269c-0.453,0.103-0.909,0.187-1.364,0.274
		C116.703,113.64,116.587,113.723,116.502,113.586"/>
	<path fill="#787878" d="M84.371,108.917c-0.313,0.015-0.484-0.082-0.541-0.274c-0.052-0.178-0.019-0.365,0.175-0.487
		c0.211-0.132,0.412-0.28,0.611-0.432c0.17-0.129,0.307-0.104,0.462,0.037c0.161,0.145,0.123,0.273,0.022,0.423
		C84.885,108.5,84.71,108.858,84.371,108.917"/>
	<path fill="#999999" d="M105.2,105.819c-0.075-0.249-0.03-0.386,0.277-0.4c0.281-0.013,0.56-0.096,0.858-0.152
		c-0.091,0.444-0.435,0.653-0.674,0.941c-0.089,0.106-0.164,0.04-0.216-0.024c-0.093-0.115-0.166-0.244-0.248-0.368L105.2,105.819z"
		/>
	<path fill="#999999" d="M121.474,112.078c-0.117,0.011-0.152-0.102-0.229-0.15c0.563-0.305,1.091-0.673,1.691-0.907
		C122.497,111.439,122,111.779,121.474,112.078"/>
	<path fill="#FFFFFF" d="M104.906,106.348c-0.157-0.227-0.266-0.477-0.334-0.744c0.078,0.014,0.209-0.091,0.228,0.018
		c0.046,0.279,0.243,0.183,0.4,0.197l-0.002-0.004C105.194,106.044,105.063,106.204,104.906,106.348"/>
	<path fill="#FFFFFF" d="M108.129,95.727c0.027,0.023,0.053,0.046,0.081,0.07c-0.019,0.09,0.043,0.209-0.07,0.264
		c-0.069,0.033-0.117-0.032-0.136-0.09C107.967,95.855,107.968,95.747,108.129,95.727"/>
	<path fill="#FFFFFF" d="M107.002,104.71c0.092-0.027,0.239-0.075,0.262,0.005c0.044,0.15-0.127,0.235-0.202,0.351
		C106.961,104.961,107.017,104.83,107.002,104.71"/>
	<path fill="#FFFFFF" d="M109.995,97.538c0.021,0.011,0.032,0.028,0.03,0.052c-0.013,0.034-0.031,0.069-0.039,0.104
		c-0.02,0.086,0.072,0.216-0.082,0.245c-0.066,0.012-0.093-0.068-0.122-0.123c-0.069-0.131,0.02-0.177,0.115-0.223
		C109.932,97.577,109.963,97.556,109.995,97.538"/>
	<path fill="#FFFFFF" d="M105.121,108.165c0.027-0.051,0.055-0.104,0.083-0.155c0.07,0.07,0.244,0.107,0.138,0.24
		C105.25,108.366,105.174,108.251,105.121,108.165"/>
	<path fill="#FFFFFF" d="M104.667,103.487c-0.003-0.107-0.008-0.214,0.06-0.308C104.849,103.309,104.886,103.423,104.667,103.487"/>
	<path fill="#FFFFFF" d="M105.806,109.21c-0.029-0.021-0.058-0.042-0.088-0.064c0.011-0.058,0.02-0.152,0.097-0.117
		C105.903,109.069,105.869,109.151,105.806,109.21"/>
	<path fill="#FFFFFF" d="M105.876,108.665c-0.044,0.034-0.079,0.074-0.09,0.068c-0.037-0.019-0.067-0.054-0.099-0.084
		c0.022-0.023,0.052-0.071,0.067-0.067C105.793,108.595,105.825,108.628,105.876,108.665"/>
	<path fill="#FFFFFF" d="M105.965,108.171c-0.032,0.012-0.067,0.036-0.096,0.032c-0.041-0.006-0.053-0.052-0.024-0.08
		c0.022-0.02,0.066-0.019,0.099-0.021C105.949,108.102,105.956,108.14,105.965,108.171"/>
	<path fill="#FFFFFF" d="M104.589,103.787c0.071,0.011,0.15,0.008,0.17,0.1c0.002,0.01-0.028,0.038-0.044,0.039
		c-0.1,0.007-0.115-0.066-0.125-0.141L104.589,103.787z"/>
	<path fill="#FFFCFC" d="M109.42,103.317c-0.147-0.162-0.078-0.328-0.006-0.487c0.123-0.273,0.253-0.544,0.381-0.815
		c0.134-0.284,0.376-0.302,0.54-0.099c0.357,0.445,0.772,0.86,0.952,1.424c0.081,0.256,0.074,0.521-0.013,0.779
		c-0.035,0.105-0.07,0.232-0.214,0.224c-0.165-0.009-0.141-0.15-0.141-0.256c0-0.431-0.189-0.766-0.491-1.057
		c-0.306-0.292-0.458-0.288-0.743,0.032C109.606,103.152,109.564,103.285,109.42,103.317"/>
	<path fill="#FCFAFC" d="M105.538,99.741c-0.213-0.29-0.194-0.539-0.259-0.759c-0.109-0.371-0.205-0.743-0.444-1.062
		c-0.117-0.157-0.199-0.361-0.007-0.499c0.196-0.14,0.354,0.016,0.47,0.172C105.772,98.231,105.739,98.927,105.538,99.741"/>
	<path fill="#FCFAFC" d="M109.404,107.179c-0.117-0.02-0.313,0.058-0.306-0.191c0.007-0.256,0.496-0.68,0.769-0.677
		c0.241,0.001,0.239,0.164,0.236,0.335C110.098,107.041,109.922,107.178,109.404,107.179"/>
	<path fill="#999999" d="M126.594,100.172c0.116-0.316,0.248-0.626,0.301-0.962c0.095,0.017,0.184,0.043,0.248,0.122
		c-0.22,0.342,0.001,0.688,0.017,1.025c0.03,0.643,0.062,1.29,0.172,1.93c0.044,0.259-0.117,0.525-0.286,0.748
		c-0.133-0.077-0.2-0.207-0.199-0.344c0.003-0.802-0.226-1.583-0.194-2.386C126.656,100.25,126.626,100.211,126.594,100.172"/>
	<path fill="#999999" d="M124.627,99.251c0.074-0.183,0.147-0.366,0.221-0.549c0.113-0.047,0.213,0.004,0.315,0.041
		c0.142,0.066,0.19,0.198,0.204,0.333c0.064,0.584,0.122,1.169,0.192,1.752c-0.214,0.087-0.387,0.269-0.636,0.275
		c-0.151-0.07-0.161-0.237-0.16-0.347C124.767,100.249,124.608,99.759,124.627,99.251"/>
	<path fill="#999999" d="M125.478,100.85c0.092-0.211-0.098-0.368-0.113-0.573c-0.037-0.511,0.014-1.044-0.203-1.533
		c0.185-0.023,0.353,0.048,0.526,0.089c0.045,0.043,0.094,0.094,0.094,0.155c0.002,0.647,0.227,1.288,0.06,1.939
		c-0.083,0.25-0.165,0.498-0.375,0.677c-0.213,0.012-0.225-0.141-0.24-0.291C125.256,101.129,125.274,100.939,125.478,100.85"/>
	<path fill="#999999" d="M125.842,100.928c-0.039-0.541-0.095-1.081-0.108-1.622c-0.004-0.162-0.084-0.312-0.044-0.473
		c0.101,0.024,0.203,0.049,0.305,0.075c0.309,0.315,0.264,0.724,0.299,1.113C126.175,100.34,126.062,100.659,125.842,100.928"/>
	<path fill="#999999" d="M126.293,100.021c-0.196-0.345-0.115-0.765-0.3-1.113c0.288,0.057,0.573,0.129,0.83,0.28
		c-0.257,0.076-0.259,0.334-0.361,0.516C126.404,99.808,126.398,99.94,126.293,100.021"/>
	<path fill="#999999" d="M118.004,109.442c-0.508,0.261-1.031,0.482-1.591,0.607c-0.143,0.078-0.308-0.003-0.452,0.062
		c-0.827,0.023-1.655,0.079-2.476-0.062c-0.359-0.062-0.754-0.054-0.948-0.483c-0.04-0.091-0.241-0.111-0.369-0.16
		c-0.199-0.076-0.406-0.132-0.597-0.226c-0.185-0.091-0.521-0.04-0.44-0.427c0.007-0.034-0.126-0.098-0.186-0.141
		c0.213-0.283,0.386-0.24,0.598-0.064c0.642,0.532,1.403,0.76,2.225,0.801c0.598,0.029,0.803-0.126,0.912-0.708
		c0.036-0.191,0.183-0.184,0.303-0.23c0.5-0.194,0.601-0.421,0.372-0.893c0.832-0.192,1.627-0.484,2.42-0.779
		c0.103,0.127,0.203,0.256,0.215,0.43c0.042,0.574,0.137,1.143,0.119,1.721C118.103,109.084,117.936,109.239,118.004,109.442"/>
	<path fill="#999999" d="M118.004,109.442c-0.133-0.181-0.001-0.362,0.005-0.542c0.019-0.607-0.11-1.202-0.114-1.805
		c-0.001-0.145-0.213-0.196-0.12-0.356c0.575-0.293,1.15-0.586,1.723-0.878c-0.004,0.455,0.186,0.876,0.24,1.315
		c0.053,0.43,0.077,0.864,0.153,1.293C119.3,108.866,118.671,109.189,118.004,109.442"/>
	<path fill="#999999" d="M119.892,108.468c-0.263-0.302-0.222-0.675-0.228-1.032c-0.006-0.3-0.023-0.578-0.225-0.837
		c-0.185-0.236,0.088-0.486,0.059-0.739c0.295-0.193,0.591-0.385,0.886-0.578c0.209-0.008,0.182,0.173,0.208,0.286
		c0.115,0.489,0.12,0.993,0.144,1.49c0.014,0.271,0.161,0.532,0.06,0.81C120.525,108.113,120.223,108.313,119.892,108.468"/>
	<path fill="#999999" d="M122.146,105.29c-0.259,0.196-0.445,0.48-0.747,0.625c-0.239-0.438-0.202-0.906-0.155-1.375
		c-0.003-0.021-0.004-0.043-0.003-0.065c-0.315-0.251-0.369-0.566-0.229-0.929c0.267-0.283,0.579-0.515,0.886-0.75
		c0.13-0.034,0.159,0.063,0.156,0.147c-0.017,0.581,0.172,1.132,0.228,1.703C122.305,104.879,122.287,105.096,122.146,105.29"/>
	<path fill="#999999" d="M122.146,105.29c0.134-0.539-0.016-1.064-0.131-1.574c-0.069-0.31,0.011-0.626-0.117-0.919
		c0.233-0.225,0.466-0.449,0.7-0.674c0.214,0.112,0.257,0.332,0.337,0.53c-0.227,0.341-0.089,0.754-0.219,1.115
		c-0.041,0.114,0.067,0.146,0.134,0.198c0.304,0.252,0.117,0.491-0.021,0.732C122.645,104.947,122.381,105.102,122.146,105.29"/>
	<path fill="#999999" d="M116.374,100.376c-0.72,0.448-1.399,0.869-2.077,1.293c-0.542,0.338-1.08,0.684-1.627,1.016
		c-0.088,0.053-0.237,0.24-0.291,0.081c-0.064-0.187-0.272-0.455,0.025-0.632c0.236-0.14,0.497-0.238,0.745-0.357
		c0.959-0.463,1.882-1.001,2.88-1.383C116.119,100.359,116.207,100.29,116.374,100.376"/>
	<path fill="#999999" d="M121.243,104.541c0.051,0.458,0.103,0.916,0.155,1.375c-0.132,0.164-0.265,0.327-0.394,0.493
		c-0.102,0.131-0.188,0.279-0.122,0.446c0.067,0.168,0.241,0.068,0.361,0.11c0.23,0.247,0.08,0.452-0.075,0.657
		c-0.124,0.083-0.248,0.165-0.372,0.249c-0.232-0.544-0.165-1.127-0.225-1.693c-0.032-0.308-0.046-0.611-0.187-0.893
		C120.672,105.036,120.957,104.788,121.243,104.541"/>
	<path fill="#999999" d="M124.627,99.251c0.165,0.418,0.218,0.859,0.211,1.3c-0.004,0.187,0.053,0.349,0.071,0.523
		c-0.137,0.275-0.374,0.326-0.751,0.16c-0.172-0.175-0.295-0.372-0.137-0.612c0.074-0.111-0.086-0.206,0.012-0.3
		C124.231,99.965,124.428,99.608,124.627,99.251"/>
	<path fill="#999999" d="M124.032,100.323c-0.008,0.11,0.156,0.178,0.044,0.33c-0.128,0.171-0.039,0.344,0.11,0.479
		c-0.178,0.313-0.379,0.602-0.732,0.742c-0.368-0.135-0.205-0.366-0.106-0.585C123.576,100.966,123.804,100.645,124.032,100.323"/>
	<path fill="#999999" d="M121.012,103.547c-0.005,0.33,0.049,0.644,0.228,0.929c-0.219,0.043-0.436,0.112-0.657,0.123
		c-0.314,0.015-0.396-0.132-0.224-0.389C120.533,103.95,120.752,103.726,121.012,103.547"/>
	<path fill="#999999" d="M123.349,101.289c0.041,0.182-0.195,0.435,0.14,0.54c-0.045,0.394-0.336,0.608-0.614,0.829
		c-0.093-0.177-0.185-0.355-0.277-0.533C122.847,101.845,123.098,101.567,123.349,101.289"/>
	<path fill="#787878" d="M111.378,78.626c-0.764,0.022-1.531-0.004-2.296,0.013c-0.257,0.005-0.312-0.086-0.31-0.324
		c0.01-1.406,0.005-2.812,0.005-4.217c0-1.355,0.011-2.711-0.009-4.066c-0.004-0.325,0.095-0.402,0.4-0.384
		c0.463,0.026,0.928,0.003,1.393,0.007c0.847,0.007,1.486,0.609,1.502,1.41c0.015,0.842-0.582,1.47-1.44,1.516
		c-0.025,0.001-0.05-0.002-0.076,0.001c-0.294,0.03-0.697-0.139-0.856,0.073c-0.146,0.195-0.048,0.577-0.05,0.876
		c-0.004,0.427,0.01,0.853-0.006,1.28c-0.007,0.213,0.054,0.281,0.271,0.274c0.477-0.016,0.954-0.011,1.431-0.003
		c1.034,0.017,1.783,0.744,1.797,1.736C113.149,77.854,112.445,78.594,111.378,78.626 M114.001,73.623
		c-0.282-0.135-0.148-0.22-0.018-0.359c1.932-2.067,0.839-5.375-1.663-5.839c-0.457-0.085-0.915-0.164-1.38-0.167
		c-1.594-0.011-3.19-0.004-4.784-0.021c-0.281-0.004-0.356,0.069-0.355,0.352c0.013,2.185,0.007,4.371,0.007,6.555
		c0,2.185,0.006,4.371-0.006,6.556c-0.002,0.294,0.071,0.377,0.373,0.375c1.871-0.012,3.742-0.001,5.613-0.001
		c0.377,0,0.751-0.039,1.12-0.121c1.645-0.364,2.997-1.727,3.208-3.263C116.387,75.719,115.658,74.418,114.001,73.623"/>
	<path fill="#999999" d="M126.369,104.091c-0.069,0.237-0.227,0.416-0.378,0.601c-0.13-0.108-0.127-0.265-0.14-0.409
		c-0.052-0.568-0.131-1.132-0.163-1.702c0.126-0.174,0.253-0.35,0.379-0.525c0.123-0.009,0.136,0.093,0.158,0.169
		C126.4,102.837,126.457,103.459,126.369,104.091"/>
	<path fill="#999999" d="M125.006,103.408c0.078-0.144,0.146-0.295,0.304-0.375c0.143-0.029,0.177,0.082,0.185,0.173
		c0.03,0.378,0.133,0.74,0.223,1.107c0.062,0.254,0.018,0.514-0.104,0.754c-0.151,0.098-0.271,0.245-0.452,0.3
		C125.041,104.719,124.941,104.07,125.006,103.408"/>
	<path fill="#999999" d="M126.369,104.091c-0.157-0.459-0.028-0.945-0.139-1.413c-0.049-0.21-0.106-0.416-0.163-0.623
		c0.101-0.175,0.202-0.351,0.302-0.527c0.105-0.065,0.182-0.015,0.197,0.083c0.103,0.673,0.322,1.339,0.105,2.028
		C126.571,103.791,126.549,103.993,126.369,104.091"/>
	<path fill="#999999" d="M125.614,105.067c0.08-0.469-0.028-0.925-0.145-1.368c-0.058-0.221,0.073-0.489-0.158-0.667
		c0.126-0.15,0.251-0.301,0.377-0.452c0.203,0.102,0.12,0.311,0.141,0.46c0.077,0.547,0.112,1.1,0.162,1.652
		C125.895,104.847,125.771,104.973,125.614,105.067"/>
	<path fill="#999999" d="M124.483,105.745c-0.122,0.122-0.246,0.242-0.366,0.366c-0.125,0.13-0.287,0.127-0.409,0.047
		c-0.12-0.078-0.005-0.208,0.029-0.305c0.073-0.208,0.106-0.376,0.037-0.625c-0.085-0.305,0.215-0.582,0.414-0.836
		c0.183-0.093,0.193,0.047,0.197,0.159C124.401,104.951,124.455,105.347,124.483,105.745"/>
	<path fill="#999999" d="M124.483,105.745c-0.267-0.359-0.116-0.788-0.188-1.179c-0.016-0.093,0.013-0.164-0.107-0.173
		c0.123-0.197,0.236-0.402,0.439-0.534c0.089-0.021,0.16,0.024,0.169,0.1c0.063,0.519,0.187,1.039,0.066,1.566
		C124.747,105.618,124.646,105.734,124.483,105.745"/>
	<path fill="#999999" d="M124.862,105.524c-0.087-0.508-0.11-1.021-0.12-1.535c-0.002-0.073-0.059-0.102-0.115-0.131
		c0.054-0.211,0.221-0.327,0.379-0.451c0.102,0.649,0.205,1.298,0.155,1.959C125.061,105.418,124.99,105.525,124.862,105.524"/>
	<path fill="#999999" d="M126.594,100.172c0.065,0.01,0.144,0.035,0.136,0.102c-0.054,0.459,0.096,0.9,0.122,1.351
		c0.027,0.466,0.031,0.954,0.194,1.41c-0.05,0.076-0.101,0.15-0.151,0.226c-0.212-0.143-0.158-0.38-0.183-0.578
		c-0.045-0.369-0.037-0.748-0.156-1.102c-0.065-0.19,0.087-0.334,0.038-0.505c-0.012-0.104-0.053-0.142-0.126-0.042
		c-0.091,0.123-0.17,0.254-0.301,0.353C126.31,100.981,126.452,100.576,126.594,100.172"/>
	<path fill="#999999" d="M122.829,104.699c-0.015-0.229,0.252-0.459-0.003-0.687c0.149-0.271,0.329-0.506,0.667-0.548
		c0.13,0.13,0.168,0.291,0.158,0.469C123.438,104.254,123.11,104.452,122.829,104.699"/>
	<path fill="#999999" d="M126.594,101.076c0.073,0.523,0.171,1.045,0.206,1.57c0.013,0.213,0.063,0.41,0.096,0.615
		c-0.076,0.126-0.106,0.278-0.226,0.377c0.034-0.69-0.12-1.362-0.183-2.044c-0.002-0.025-0.078-0.044-0.119-0.066
		C126.444,101.377,126.518,101.227,126.594,101.076"/>
	<path fill="#999999" d="M123.651,103.933c-0.114-0.122-0.117-0.282-0.146-0.434c0.287-0.352,0.645-0.607,1.071-0.765
		c0.031,0.054,0.024,0.106-0.012,0.155C124.313,103.284,123.986,103.612,123.651,103.933"/>
	<path fill="#999999" d="M124.564,102.89c-0.006-0.062-0.012-0.123-0.018-0.185c-0.06-0.122,0.019-0.215,0.074-0.309
		c0.181-0.311,0.364-0.62,0.513-0.948c0.033-0.074,0.061-0.171,0.18-0.148c-0.004,0.13,0.014,0.248,0.155,0.305
		C125.231,102.079,124.94,102.514,124.564,102.89"/>
	<path fill="#999999" d="M121.168,107.62c0.072-0.214,0.169-0.425,0.075-0.657c0.262-0.007,0.514-0.073,0.832-0.182
		C121.805,107.171,121.476,107.385,121.168,107.62"/>
	<path fill="#999999" d="M117.171,112.067c-0.054-0.024-0.108-0.048-0.162-0.072c0.217-0.116,0.454-0.144,0.694-0.159
		c0.017,0.019,0.023,0.038,0.017,0.056c-0.007,0.019-0.013,0.028-0.019,0.028C117.524,111.969,117.347,112.018,117.171,112.067"/>
	<path fill="#999999" d="M114.532,112.393c-0.324,0.098-0.646,0.102-0.969-0.003C113.885,112.391,114.209,112.392,114.532,112.393"
		/>
	<path fill="#999999" d="M113.184,112.674c0.211-0.143,0.446-0.034,0.668-0.063C113.637,112.717,113.408,112.672,113.184,112.674"/>
	<path fill="#999999" d="M117.7,111.92c0.001-0.028,0.001-0.056,0.002-0.085c0.093-0.082,0.198-0.076,0.38-0.022
		C117.914,111.861,117.807,111.89,117.7,111.92"/>
	<path fill="#999999" d="M114.993,112.518c0.112-0.11,0.251-0.05,0.379-0.063C115.258,112.552,115.123,112.52,114.993,112.518"/>
	<path fill="#999999" d="M115.513,112.314c-0.113,0.11-0.252,0.05-0.381,0.062C115.247,112.282,115.383,112.313,115.513,112.314"/>
	<path fill="#FFFCFA" d="M108.283,89.774c1.809-0.94,3.753-1.401,5.771-1.606c-1.884,0.594-3.84,0.948-5.679,1.692
		C108.289,89.893,108.271,89.848,108.283,89.774"/>
	<path fill="#999999" d="M179.301,76.068c-0.462,1.982-2.013,3.259-4.047,3.298c-1.871,0.035-3.742,0.001-5.612,0.016
		c-0.302,0.002-0.281-0.15-0.281-0.349c0.002-1.745,0.001-3.49,0.001-5.235c0-1.758,0.001-3.515-0.001-5.273
		c0-0.186-0.016-0.341,0.26-0.339c2.046,0.015,4.094-0.031,6.138,0.036c1.896,0.063,3.259,1.301,3.62,3.176
		C179.679,72.957,179.661,74.521,179.301,76.068 M181.078,70.985c-0.491-2.614-2.736-4.517-5.388-4.536
		c-2.334-0.017-4.668-0.006-7.003-0.002c-0.797,0.001-1.09,0.303-1.09,1.094c0,2.07,0,4.142,0,6.212
		c0,2.096-0.001,4.192,0.001,6.288c0,0.753,0.319,1.066,1.079,1.066c2.195,0,4.393,0.029,6.588-0.008
		c2.395-0.04,4.899-1.434,5.66-4.334C181.428,74.855,181.442,72.922,181.078,70.985"/>
	<path fill="#787878" d="M98.695,78.25c-0.561,0.611-1.316,0.816-2.046,0.556c-0.78-0.277-1.364-1.081-1.401-1.925
		c-0.003-0.063,0-0.126,0-0.189c0.004-0.688,0.25-1.273,0.767-1.729c0.853-0.755,2.104-0.601,2.811,0.338
		C99.482,76.172,99.426,77.454,98.695,78.25 M102.029,77.465c0-3.577-0.004-7.155,0.007-10.732c0.001-0.314-0.079-0.402-0.392-0.39
		c-0.652,0.025-1.306,0.024-1.958,0c-0.331-0.012-0.445,0.065-0.442,0.425c0.019,2.121,0.01,4.242,0.01,6.446
		c-0.134-0.115-0.205-0.181-0.281-0.24c-1.301-0.997-2.715-1.215-4.197-0.494c-2.632,1.279-3.286,5.041-1.293,7.284
		c1.278,1.439,3.207,1.801,4.846,0.915c0.317-0.171,0.588-0.406,0.926-0.659c0,0.283,0.012,0.505-0.004,0.725
		c-0.017,0.237,0.049,0.333,0.31,0.327c0.715-0.014,1.431-0.012,2.146,0.008c0.269,0.008,0.333-0.08,0.33-0.338
		C102.021,79.65,102.029,78.558,102.029,77.465"/>
	<path fill="#787878" d="M84.92,75.417c0.106-0.744,0.851-1.377,1.644-1.381c0.802-0.004,1.57,0.638,1.673,1.393
		c0.025,0.182,0.004,0.277-0.22,0.27c-0.487-0.016-0.975-0.005-1.463-0.005c-0.463,0-0.926-0.011-1.388,0.005
		C84.94,75.706,84.891,75.626,84.92,75.417 M85.292,77.304c0.891-0.001,1.783-0.023,2.674-0.023h2.071
		c1.008,0,1.026,0.022,0.985-0.976c-0.051-1.265-0.463-2.376-1.457-3.214c-1.483-1.248-3.792-1.368-5.454-0.311
		c-1.688,1.073-2.503,3.137-2.008,5.08c0.613,2.409,2.921,3.884,5.375,3.444c1.276-0.229,2.339-0.792,3.106-1.866
		c0.165-0.233,0.195-0.352-0.119-0.478c-0.534-0.214-1.054-0.466-1.569-0.722c-0.251-0.125-0.387-0.149-0.591,0.131
		c-0.468,0.643-1.148,0.87-1.93,0.707c-0.721-0.15-1.214-0.588-1.424-1.306C84.834,77.367,84.878,77.304,85.292,77.304"/>
	<path fill="#FCFFFF" d="M125.312,101.3c-0.256,0.468-0.511,0.937-0.767,1.405c-0.29,0.338-0.68,0.548-1.04,0.795
		c-0.278,0.103-0.461,0.331-0.679,0.512c-0.209-0.01-0.352-0.047-0.202-0.308c0.084-0.145,0.133-0.291,0.036-0.489
		c-0.101-0.207,0.144-0.367,0.214-0.558c0.205-0.276,0.409-0.553,0.614-0.829c0.268-0.197,0.404-0.525,0.697-0.697
		c0.263,0.258,0.492,0.092,0.722-0.057c0.209-0.029,0.323-0.296,0.571-0.225C125.429,101.002,125.306,101.128,125.312,101.3"/>
</g>
</svg>
