<svg version="1.1" xmlns="http://www.w3.org/2000/svg" xmlns:xlink="http://www.w3.org/1999/xlink" x="0px" y="0px" viewBox="0 0 274 188">
<g id="knapp" opacity="0.5">
	<defs>
		<rect id="SVGID_1_" x="59.525" y="68.315" opacity="0.5" width="154.949" height="49.37"/>
	</defs>
	<clipPath id="SVGID_2_">
		<use xlink:href="#SVGID_1_"  overflow="visible"/>
	</clipPath>
	<polygon clip-path="url(#SVGID_2_)" points="59.684,107.025 59.684,78.947 63.4,78.947 63.4,92.871 77.343,78.947 82.38,78.947
		70.601,90.324 82.897,107.025 77.994,107.025 67.996,92.814 63.4,97.296 63.4,107.025 	"/>
	<polygon clip-path="url(#SVGID_2_)" points="91.381,107.025 91.381,78.947 95.192,78.947 109.94,100.992 109.94,78.947
		113.502,78.947 113.502,107.025 109.691,107.025 94.944,84.961 94.944,107.025 	"/>
	<path clip-path="url(#SVGID_2_)" d="M165.15,92.297h7.259c2.4,0,4.105-0.447,5.114-1.341c1.008-0.894,1.512-2.151,1.513-3.773
		c0-1.174-0.3-2.177-0.9-3.007c-0.588-0.843-1.367-1.398-2.337-1.666c-0.626-0.166-1.781-0.248-3.466-0.249h-7.183V92.297z
		 M161.435,107.025V78.947h10.591c1.864,0,3.288,0.09,4.271,0.268c1.379,0.23,2.534,0.671,3.467,1.322
		c0.932,0.639,1.679,1.539,2.241,2.701c0.574,1.162,0.862,2.438,0.862,3.83c0,2.388-0.761,4.412-2.28,6.072
		c-1.519,1.646-4.265,2.47-8.235,2.47h-7.202v11.415H161.435z"/>
	<path clip-path="url(#SVGID_2_)" d="M196.733,92.297h7.258c2.401,0,4.105-0.447,5.114-1.341s1.513-2.151,1.513-3.773
		c0-1.174-0.3-2.177-0.9-3.007c-0.588-0.843-1.366-1.398-2.336-1.666c-0.626-0.166-1.782-0.248-3.467-0.249h-7.182V92.297z
		 M193.017,107.025V78.947h10.592c1.863,0,3.287,0.09,4.27,0.268c1.379,0.23,2.534,0.671,3.467,1.322
		c0.932,0.639,1.679,1.539,2.241,2.701c0.575,1.162,0.862,2.438,0.862,3.83c0,2.388-0.76,4.412-2.279,6.072
		c-1.52,1.646-4.265,2.47-8.236,2.47h-7.201v11.415H193.017z"/>
	<polygon clip-path="url(#SVGID_2_)" fill="#C7C7C7" points="150.485,105.436 123.855,105.436 137.17,82.374 	"/>
	<path clip-path="url(#SVGID_2_)" d="M137.17,85.643c1.992,3.45,8.492,14.709,10.485,18.159h-20.969
		C128.678,100.352,135.178,89.093,137.17,85.643 M135.755,81.557l-14.73,25.513h32.291L137.17,79.105L135.755,81.557z"/>
	<rect x="59.543" y="110.33" clip-path="url(#SVGID_2_)" fill="#888888" width="154.932" height="7.355"/>
	<rect x="59.525" y="68.315" clip-path="url(#SVGID_2_)" fill="#888888" width="154.932" height="7.354"/>
</g>
</svg>
