<svg version="1.1" xmlns="http://www.w3.org/2000/svg" xmlns:xlink="http://www.w3.org/1999/xlink" x="0px" y="0px" viewBox="0 0 274 188">
<g id="getty" opacity="0.9">
	<path fill="#7B7979" d="M75.559,93.388v-1.912c0-4.707-2.865-9.037-8.026-8.999c-5.346,0-8.548,3.95-8.548,10.162
		c0,6.224,3.202,10.192,8.32,10.192c3.804,0,6.447-1.208,8.254-4.003l-3.395-2.116c-1.172,1.359-2.198,2.342-4.405,2.342
		c-2.202,0-4.032-1.591-4.105-5.666H75.559z M63.654,90.242c0.073-2.713,1.523-4.303,3.806-4.303c2.278,0,3.725,1.59,3.801,4.303
		H63.654z"/>
	<path fill="#7B7979" d="M103.2,105.668c0.719,0.152,1.286,0.152,1.965,0.152c1.622,0,2.531-0.453,3.099-1.55
		c0.45-0.941,0.754-1.508,0.754-2.303c0-0.717-0.377-1.55-0.6-2.342l-5.256-16.778h4.724l3.251,12.089h0.073l3.362-12.089h4.687
		l-6.201,19.687c-2.076,5.619-3.736,7.119-7.589,7.119c-1.135,0-1.702-0.079-2.269-0.152V105.668z"/>
	<path fill="#7B7979" d="M78.906,98.294c0,2.798,1.357,4.538,4.818,4.538c1.283,0,2.418-0.155,3.704-0.302v-3.856
		c-0.678,0.155-1.435,0.38-2.154,0.38c-1.173,0-1.699-0.307-1.699-1.362V86.617h8.774v11.677c0,2.798,1.356,4.538,4.82,4.538
		c1.284,0,2.421-0.155,3.707-0.302v-3.856c-0.684,0.155-1.435,0.38-2.16,0.38c-1.169,0-1.693-0.304-1.693-1.362V86.617h3.853v-3.771
		h-3.853v-6.499h-4.674v6.499h-8.774v-6.499h-4.669V98.294z"/>
	<rect x="122.986" y="82.814" fill="#7B7979" width="2.266" height="19.629"/>
	<rect x="122.987" y="76.42" fill="#7B7979" width="2.266" height="3.327"/>
	<path fill="#7B7979" d="M130.186,102.442V82.813h2.263v2.95c2.008-2.113,3.485-3.341,6.549-3.341c2.189,0,4.192,1.383,4.762,3.569
		c1.777-2.078,3.663-3.569,6.508-3.569c3.438,0,5.177,1.868,5.177,5.309v14.711h-2.271V87.5c0-2.19-1.208-3.289-3.397-3.289
		c-1.743,0-4.623,1.853-5.833,3.751v14.48h-2.263V87.5c0-2.19-1.21-3.289-3.411-3.289c-1.737,0-4.611,1.853-5.821,3.751v14.48
		H130.186z"/>
	<path fill="#7B7979" d="M174.201,102.441c-0.231-1.307-0.304-2.584-0.304-3.572V88.581c0-4.368-2.117-6.16-6.59-6.16
		c-3.18,0-5.61,1.272-7.311,4.458l1.508,0.907c1.442-2.278,3.383-3.573,5.725-3.573c3.376,0,4.516,1.331,4.516,3.953v1.362
		c-8.226,1.816-12.618,2.801-12.618,8.166c0,3.271,2.345,5.142,5.415,5.142c3.031,0,4.812-0.901,7.162-2.742l0.304,2.347H174.201z
		 M171.631,97.79c-1.97,2.006-4.59,3.248-6.706,3.248c-2.052,0-3.526-1.204-3.526-3.356c0-2.494,1.207-4.344,10.232-6.309V97.79z"/>
	<path fill="#7B7979" d="M212.736,92.692c0-6.087-2.535-10.27-7.864-10.27c-4.985,0-8.087,4.11-8.087,10.197
		c0,6.943,3.245,10.218,8.394,10.218c3.739,0,5.665-1.31,7.779-4.792l-1.844-0.988c-1.971,3.11-3.216,3.982-5.748,3.982
		c-4.461,0-6.315-3.865-6.315-8.347H212.736z M199.051,90.903c0.041-2.622,1.74-6.727,5.751-6.689
		c3.435,0.038,5.21,2.622,5.663,6.689H199.051z"/>
	<path fill="#7B7979" d="M217.044,97.707c1.859,2.652,3.526,3.333,6.098,3.333c2.503,0,4.394-1.626,4.394-3.754
		c0-5.724-11.583-2.496-11.583-9.51c0-3.713,2.915-5.356,6.242-5.356c3.295,0.002,5.38,1.275,6.774,3.537l-1.734,1.214
		c-1.327-1.819-2.771-2.959-5.116-2.959c-2.195,0-3.903,1.061-3.903,3.453c0,4.812,11.589,1.967,11.589,9.621
		c0,3.532-3.257,5.552-6.814,5.552c-3.029,0-5.757-1.199-7.605-3.956L217.044,97.707z"/>
	<path fill="#7B7979" d="M39.926,103.645c-0.096,0.31-0.208,0.822-0.179,1.427c0.15,3.092,3.447,4.554,8.724,4.554
		c6.26,0,9.089-3.019,9.089-5.814c0-7.85-12.904-3.541-12.904-6.713c0-1.14,1.622-1.213,3.657-1.213
		c4.921,0,7.406-2.637,7.406-6.347c0-1.514-0.451-2.649-1.053-3.482c0.714-0.456,1.927-0.456,3.017-0.456v-3.146
		c-2.227-0.076-3.701,0.524-4.604,1.728c-1.205-1.052-3.169-1.728-4.83-1.728c-5.102,0-7.742,3.389-7.742,6.83
		c0,2.382,1.284,3.888,2.91,5.206c-0.875,0.261-3.061,1.696-3.061,3.582c0,2.555,3.443,3.543,7.753,3.809
		c3.499,0.219,5.209,1.102,5.209,2.459c0,0.883-1.084,2.108-4.093,2.192c-4.882,0.135-5.411-1.312-5.101-2.809L39.926,103.645z
		 M51.509,89.27c0,1.819-1.439,3.251-3.213,3.251c-2,0-3.394-1.432-3.394-3.251c0-1.81,1.394-3.254,3.394-3.254
		C50.07,86.016,51.509,87.46,51.509,89.27"/>
	<path fill="#7A7979" d="M181.128,89.285c0-3.052,1.921-5.013,5.086-5.013c3.164,0,5.082,1.584,5.082,5.013
		c0,3.389-1.918,4.897-5.082,4.897C183.461,94.182,181.128,92.674,181.128,89.285 M195.293,82.091c-1.544,0-2.98,0.602-4.105,1.733
		c-1.249-0.833-2.675-1.359-4.558-1.359c-4.748,0-7.765,2.751-7.765,7.046c0,2.031,1.058,3.917,2.83,5.122
		c-1.432,0.304-2.938,1.654-2.938,3.318c0,1.655,1.166,2.26,2.599,2.558v0.073c-2.754,1.02-3.432,2.455-3.432,4.143
		c0,2.338,1.81,4.636,8.554,4.636c6.739,0,8.931-2.447,8.931-5.309c0-3.207-2.455-5.089-8.332-5.089c-5.306,0-6.06-0.565-6.06-1.691
		c0-0.718,0.561-1.432,1.804-1.888c0.979,0.336,1.923,0.605,3.166,0.605c4.142,0,7.569-2.032,7.569-6.856
		c0-1.882-0.523-3.049-1.389-4.104c0.787-0.79,2.105-0.906,3.126-0.906V82.091z M185.987,100.997c5.879,0,7.156,1.584,7.156,3.201
		c0,2.041-2.111,3.354-7.007,3.354c-4.07,0-5.952-1.313-5.952-3.242C180.184,102.62,181.54,100.997,185.987,100.997"/>
	<path fill="#7B7979" d="M231.896,80.871c0.362,0,0.766,0.021,0.766-0.459c0-0.389-0.313-0.444-0.599-0.444h-0.597v0.903H231.896z
		 M231.466,82.403h-0.374l0.003-2.745h1.049c0.614,0,0.889,0.269,0.889,0.76c0,0.485-0.316,0.696-0.632,0.766l0.763,1.219h-0.424
		l-0.745-1.219h-0.526L231.466,82.403z M233.887,81.029c0-1.117-0.828-2-1.933-2c-1.11,0.003-1.941,0.886-1.941,2.003
		c0,1.111,0.831,1.994,1.941,1.994C233.059,83.023,233.887,82.14,233.887,81.029 M234.258,81.029c0,1.269-1.032,2.307-2.304,2.307
		c-1.28,0-2.309-1.038-2.309-2.304c0-1.272,1.029-2.313,2.309-2.313C233.226,78.719,234.258,79.757,234.258,81.029"/>
</g>
</svg>
