<svg version="1.1" xmlns="http://www.w3.org/2000/svg" xmlns:xlink="http://www.w3.org/1999/xlink" x="0px" y="0px" viewBox="0 0 274 188">
<g opacity="0.9">
	<path fill="#7A7979" d="M108.29,103.942c3.505-1.135,5.553-2.129,7.84-4.355c1.179-1.145,2.722-2.698,3.239-4.463
		c0.876-2.991-2.155-6.479-3.679-8.089c-1.932-2.04-4.749-3.742-7.38-5.599c-3.5-2.476-6.902-5.063-6.589-10.975
		c0.069-1.317,1.102-3.388,1.691-4.305c1.834-2.848,4.465-4.251,7.91-5.811c1.399-0.63,2.974-1.054,4.641-1.373
		c1.53-0.293,3.733-0.564,5.317-0.549c1.437,0.012,2.907,0.323,3.957,0.616c2.126,1.193,2.629,1.089,2.332,4.146
		c-0.818,2.298-2.181,3.802-4.456,5.012c-1.38,0.735-2.273,1.133-3.805,1.584c-0.736,0.218-1.505,0.619-2.414,0.792
		c-1.359,0.258-1.715,0.153-3.821,0.096c-0.282-0.188-0.13-0.673-0.13-0.673l-1.48-0.915l0.463-0.944
		c1.216,0.073,2.164,0.13,4.6-0.596c2.171-0.647,3.516-1.304,5.381-2.685c1.098-0.814,1.57-0.392,1.379-1.565
		c-0.235-1.438-1.563-1.442-3.208-1.496c-2.57-0.085-4.122,0.392-5.608,1.019c-1.485,0.627-3.093,1.046-4.077,1.905
		c-0.451,0.07-0.91,0.592-1.473,0.557c-0.415,0.515-0.725,1.054-1.472,1.255c-0.244,1-0.987,1.837-1.47,2.512
		c-0.509,0.706,0.018,1.873,0.277,3.595c0.26,1.721,1.719,2.97,2.889,4.295c2.013,1.283,3.501,2.689,5.442,4.127
		c0.593,0.44,1.264,0.793,1.856,1.231c1.105,0.816,1.953,2.123,2.875,3.166c0.643,0.724,1.466,1.488,1.949,2.751
		c0.135,0.349,0.478,0.915,0.566,1.18c0.449,1.33,0.766,3.482,0.737,5.099c-0.108,6.204-6.623,10.67-9.966,12.173
		c-1.636,0.738-6.235,2.198-7.949,2.49c-1.713,0.295-5.933,1.136-9.891,0.627c-3.81-0.49-10.774-2.274-13.01-5.349
		c-1.004-1.378-2.554-3.351-3.119-5.629c-0.061-1.666-0.67-4.291-0.148-5.773c0.96-5.369,4.868-9.138,9.175-11.548
		c0.754-0.726,1.639-1.06,2.911-1.334c1.593-0.342,3.079-1.382,5.448-1.156c-0.092,0.478-0.118,1.015-0.095,1.601
		c-2.081,0.432-3.784,1.219-5.165,2.314c-1.262,0.73-3.421,2.855-4.171,3.819c-0.75,0.961-1.798,2.754-2.186,3.436
		c-0.718,1.289-0.817,2.221-1.182,4.719c-0.009,0.345,0.33,2.589,0.871,3.507c2.044,4.557,5.246,7.191,10.704,8.097
		c0.885,0.135,1.552,0.068,1.984,0.069C102.764,106.024,104.785,105.076,108.29,103.942"/>
	<path fill="#7A7979" d="M206.91,113.796l4.161,1.748l-1.507,0.163l1.507,1.086c0,0-10.943-2.881-11.744-3.035
		c-0.676-0.13-2.599-0.58-1.818-0.696c-1.041,0.075-3.255-0.735-4.608-0.349c-2.089-0.338-4.813-1.075-6.797-0.851
		c-3.835-0.473-12.294-0.955-12.679-0.851c-0.331,0.09-4.061-0.201-6.269,0.417c-0.257,0.07-0.635,0.345-0.922,0.373
		c-0.546,0.05-1.046-0.265-1.586-0.232c-0.402,0.026-0.801,0.318-1.185,0.356c-0.99,0.1-1.821-0.442-2.82-0.436
		c-0.377,0.003-0.728,0.312-1.096,0.361c-0.445,0.059-0.886-0.122-1.329-0.101c-0.475,0.024-0.977,0.285-1.452,0.336
		c-2.74,0.29-5.713-0.331-8.275-0.183c-0.509,0.03-1.05,0.329-1.541,0.329c-0.417,0-0.774-0.28-1.222-0.317
		c-0.798-0.061-1.727,0.467-2.621,0.47c-0.268,0.001-0.63-0.197-0.879-0.179c-0.276,0.025-0.553,0.282-0.821,0.273
		c-0.486-0.018-4.087-0.136-4.989-0.046c-1.416,0.144-2.935,0.098-4.207,0.239c-0.604,0.066-1.165,0.385-1.727,0.427
		c-3.393,0.241-5.48,0.369-9.165,0.973c-1.261,0.206-2.477,0.634-3.718,0.831c-3.01,0.48-5.738,0.644-8.653,1.235
		c-2.062,0.421-4.113,0.775-5.966,1.108c-0.716,0.126-1.427,0.529-2.09,0.509c-0.322-0.009-0.664-0.212-0.967-0.184
		c-0.458,0.04-0.847,0.453-1.292,0.568c-0.384,0.102-0.767-0.047-1.248,0.018c-2.068,0.281-4.516,1.042-6.977,1.476
		c-1.102,0.192-2.249,0.535-3.364,0.857c-1.198,0.346-2.428,0.877-3.364,0.858c-0.915-0.018-1.652,0.101-2.534,0.476
		c-0.534,0.112,0.063-0.427-0.327-0.358c-3.832,0.727-7.216,2.015-10.683,3.306c-3.394,1.268-10.87,3.461-10.988,2.621
		c-0.118-0.839,1.902-1.265,2.813-1.791c0.999-0.579,1.866-1.17,2.884-1.563c2.144-0.828,4.409-1.388,6.648-1.835
		c4.399-0.877,8.874-2.227,13.296-3.668c4.342-1.414,8.911-2.437,13.465-3.541c4.526-1.1,9.12-2.232,13.696-3.083
		c9.432-1.749,16.403-2.614,26.219-3.982c4.817-0.673,12.284-1.181,17.164-1.521c10.231-0.714,20.57-0.143,31.168,1.476
		c5.528,0.089,12.536,1.876,17.541,3.67c2.639,0.946,10.814,4.24,10.814,4.24L206.91,113.796z"/>
	<path fill="#7A7979" d="M180.581,102.529c-0.511,0-1.481,0.249-1.593,0.198l-0.68-0.003l-0.265-0.144
		c0.123-0.377,1.177-1.033,2.845-1.617c0.245-0.085,0.655-0.279,0.956-0.421l0.216-0.103c1.649-0.765,4.266-2.359,6.11-4.053
		l0.031-0.028l0.013-0.037c0.138-0.361,0.344-0.654,0.542-0.936c0.152-0.217,0.276-0.394,0.383-0.592l0.012-0.022l0.006-0.028
		c0.427-2.659-1.481-4.216-2.892-5.95c-0.834-1.027-1.696-2.085-2.179-3.381l-0.151-0.405l-0.189,0.391
		c-0.468,0.959-0.922,1.964-1.321,2.852c-1.338,2.962-2.64,5.724-4.707,8.174c-0.168,0.195-0.389,0.328-0.545,0.512
		c-0.28,0.331-0.619,0.161-0.752,0.546l-0.108,0.124l-0.04,0.03c-1.014,0.803-1.593,1.397-2.54,1.565
		c-0.672,0.117-2.326,0.255-2.326,0.255c-0.325-0.165-0.278-0.313-0.946-0.511c-0.174-0.051-0.535-0.255-0.535-0.255
		c-1.071,0.853-2.156,1.092-3.913,1.092c-1.142,0-2.118-0.289-2.826-0.84c-2.32-1.804-2.66-5.953-1.995-9.043
		c0.473-2.203,1.767-4.86,2.709-6.798l0.118-0.244c0.068-0.142,0.124-0.279,0.181-0.412c0.084-0.212,0.161-0.395,0.264-0.577
		c0.087-0.149,0.203-0.28,0.311-0.407c0.113-0.127,0.227-0.258,0.3-0.401l0.014-0.024l0.003-0.026l0.003-0.144l0.075-0.385
		c0.41-0.675,1.516-1.921,1.927-2.105c0.219-0.1,0.451-0.15,0.686-0.15c0.283,0,0.526,0.07,0.722,0.127l0.043,0.012l0.052,0.015
		l0.034,0.037c0.178,0.189,0.212,0.486,0.241,0.746c0.017,0.148,0.03,0.274,0.062,0.381l0.028,0.098l-0.078,0.068
		c-1.049,0.917-1.805,2.476-1.881,3.877l-0.003,0.08l-0.071,0.048c-0.484,0.329-0.853,1.021-0.922,1.156l-0.051,0.1l0.079,0.084
		c0.113,0.123,0.245,0.321,0.07,0.639c-0.365,0.651-0.99,2.333-1.303,3.703c-0.961,4.194-0.479,6.778,1.474,7.898l0.143,0.082
		l0.1-0.124c1.259-1.568,2.112-2.817,2.818-4.859c0.285-0.825,1.11-3.065,1.296-3.4c0.11-0.195,0.078-1.222,0.113-1.403
		c0.166-0.866,0.905-2.292,1.304-3.197c0.27-0.61,0.374-0.422,0.552-0.962c0.18-0.536,0.283-0.883,0.377-1.455
		c0.154-0.938,0.828-1.522,1.404-2.404l0.036-0.055l0.065-0.02c0.351-0.105,0.176,0.22,0.318-0.151
		c0.192-0.512,0.769-1.019,1.322-1.325l0.195-0.09l0.046-0.018l0.05,0.006c0.653,0.094,0.688,0.596,0.672,1.147
		c-0.007,0.195-0.36,0.628-0.323,0.778c0.117,0.474-0.189,0.948-0.194,1.467l-0.002,0.061c-0.003,0.256-0.006,0.521-0.03,0.79
		c-0.12,1.526-0.487,2.305-0.844,3.945c-0.103,0.481-0.206,0.957-0.301,1.425c-0.141,0.69-0.506,1.731-0.71,2.375
		c-0.199,0.621-0.587,1.983-0.619,2.133c-0.046,0.198-0.692,1.537-0.731,1.68c-0.16,0.584-0.424,1.13-0.681,1.658
		c-0.11,0.227-0.214,0.445-0.31,0.66l-0.452,0.536l0.619-0.093l0.366-0.038l0.066-0.011c0.186-0.031,0.523-0.118,0.834-0.316
		c0.218-0.14,0.514-0.337,0.714-0.433l0.035-0.02l0.024-0.027c2.973-3.579,4.436-6.798,6.417-11.067
		c1.335-2.877,1.858-4.26,3.602-7.064l0.046-0.071l0.089-0.011c0.171-0.023,0.339-0.049,0.502-0.073
		c0.386-0.061,0.75-0.119,1.119-0.119c0.389,0,0.728,0.067,1.035,0.206l0.115,0.053l-0.012,0.117
		c-0.131,1.207-0.131,1.402-0.484,2.24c-0.216,0.512,0.052,0.112-0.126,0.716l-0.017,0.06l0.028,0.056
		c0.285,0.586,0.092,1.165-0.093,1.727c-0.127,0.383-0.245,0.738-0.212,1.077c0.03,0.28,0.691,1.409,1.528,2.502
		c0.31,0.403,0.627,0.76,0.935,1.106c0.695,0.787,1.921,1.439,2.387,2.556l0.012,0.032l0.025,0.025
		c0.141,0.139,0.275,0.259,0.48,0.308l0.078,0.02l0.036,0.068c0.345,0.629,0.465,1.145,0.618,1.796
		c0.055,0.227,0.115,0.48,0.189,0.765c0.415,1.567,0.236,3.341-0.454,4.521c-0.892,1.519-2.153,2.531-4.05,3.305l-0.172,0.071
		c-0.54,0.222-1.121,0.776-1.968,0.925c-1.059,0.186-2.045,0.832-2.51,0.832c-0.161,0-0.366,0.102-0.566,0.212l-0.035,0.019
		c-0.761,0.261-0.284,0.281-1.466,0.281L180.581,102.529z"/>
	<path fill="#7A7979" d="M150.521,100.578l-0.047-0.015c-1.501-0.462-1.789-2.181-1.973-4.056
		c-0.622-6.381-0.169-12.227,1.242-16.038l0.029-0.08l0.087-0.025c0.152-0.045,0.291-0.068,0.426-0.068
		c0.3,0,0.521,0.113,0.736,0.221l0.204,0.1l0.136,0.06l-0.036,0.136l-0.035,0.122c-0.21,0.744-0.604,2.13,0.26,2.359l0.134,0.036
		v0.127c0,0.293,0.025,0.569,0.049,0.839c0.035,0.398,0.074,0.812,0.037,1.289l0.013,0.002l0.285,0.12l0.055,0.191
		c0.099,0.66,0.066,1.293,0.038,1.905c-0.031,0.611-0.06,1.188,0.047,1.734l0.159,0.387c0.082,0.161,0.167,0.327,0.193,0.519
		c0.09,0.638,0.02,1.277-0.047,1.896c-0.078,0.717-0.157,1.452,0.004,2.202c0.443-0.886,0.836-2.013,0.999-2.885l0.005-0.022
		l0.011-0.02c0.552-1.098,1.063-2.242,1.606-3.453c1.906-4.253,3.877-8.652,7.685-11.355l0.05-0.035h0.062h0.703h0.262l-0.09,0.227
		c-0.161,0.418-0.009,0.619,0.203,0.897l0.131,0.175l0.046,0.067l-0.024,0.077c-0.324,0.961-0.868,1.728-1.394,2.468
		c-0.503,0.709-1.025,1.443-1.335,2.339c-0.246,0.494-0.493,0.96-0.742,1.425c-0.431,0.811-0.875,1.649-1.257,2.519
		c0.068,0.243,0.022,0.728-0.142,0.998c-0.118,0.192-0.27,0.25-0.388,0.261c0.009,0.9-0.517,1.783-0.988,2.568l-0.191,0.324
		c-0.378,0.913-0.697,1.909-1.003,2.873c-0.653,2.048-1.329,4.166-2.711,5.707l-0.361,0.139l-0.159-0.021l-0.04,0.061
		c-0.12,0.178-0.243,0.363-0.439,0.5l-0.038,0.026l-0.049,0.008c-0.564,0.066-0.988,0.073-1.36,0.082
		c-0.379,0.006-0.676,0.013-0.999,0.077L150.521,100.578z"/>
	<path fill="#7A7979" d="M140.751,101.694l-0.265-0.175c-0.416-0.281-0.962-0.47-1.489-0.653l-0.403-0.142l-0.084-0.03l-0.024-0.078
		c-0.618-1.835-0.552-4.332-0.214-6.12c-0.517,0.516-1.394,2.205-1.926,2.821c-1.934,2.239-4.128,4.777-7.735,4.777
		c-0.407,0-0.829-0.034-1.255-0.098c-1.089-0.166-1.716-0.819-2.314-1.53c-0.515-0.614-0.816-1.7-0.918-2.446
		c-0.369-2.738,0.424-6.489,1.045-7.858c-0.412-0.046-0.822-0.151-1.064-0.447c-0.208-0.247-0.262-0.587-0.168-1.035l0.019-0.097
		l0.103-0.032c0.335-0.103,0.662-0.228,0.979-0.347c0.418-0.161,0.85-0.324,1.321-0.449c1.548-3.258,3.189-6.424,5.85-8.584
		c0.72-0.584,2.627-1.397,4.576-1.397c0.636,0,1.276,0.104,1.906,0.31c0.585,0.305,0.989,0.837,1.138,1.471
		c0.162,0.685,0.002,1.402-0.434,1.965c-2.096,4.037-5.168,5.753-10.021,7.643l-0.183,0.384c-1.173,2.46-3.182,7.605-0.52,9.754
		c1.952-0.11,3.154-0.776,4.644-2.588c0.449-0.545,1.089-1.265,1.544-1.927c0.125-0.181,0.251-0.364,0.378-0.544
		c1.708-2.448,3.79-6.29,5.196-8.825c0.589-1.066,1.059-1.955,1.667-3.171l0.009-0.018l0.013-0.014
		c1.795-2.148,4.511-5.39,8.831-5.849c0.312-0.034,0.642-0.05,0.977-0.05c0.866,0,1.663,0.108,2.329,0.213l0.074,0.012l0.042,0.055
		c0.216,0.267,0.563,0.474,0.899,0.674c0.592,0.351,1.261,0.749,1.249,1.547l-0.004,0.2l-0.212-0.036
		c-0.421-0.07-0.76-0.23-1.086-0.385c-0.376-0.179-0.729-0.347-1.164-0.347l-0.082,0.002c-0.289,0.013-0.553,0.129-0.834,0.252
		c-0.198,0.087-0.403,0.177-0.625,0.231l-0.401,0.096c-0.83,0.2-1.613,0.388-2.37,0.784c-0.272,0.144-0.523,0.319-0.764,0.491
		c-0.372,0.262-0.725,0.509-1.147,0.646c-0.311,0.403-0.674,0.795-1.028,1.172c-0.602,0.649-1.226,1.318-1.649,2.101
		c-0.891,1.644-1.328,3.717-1.749,5.719c-0.137,0.653-0.28,1.329-0.437,1.98l-0.042,0.186l-0.196-0.062l-0.236-0.131
		c-0.351,1.473-0.506,3.178-0.656,4.833c-0.118,1.289-0.237,2.619-0.45,3.801l-0.003,0.018l-0.007,0.019
		c-0.077,0.176-0.191,0.308-0.301,0.434c-0.151,0.172-0.279,0.324-0.302,0.574L140.751,101.694z M137.043,80.123
		c-2.39-0.02-4.498,2.454-5.978,5.572C133.599,84.409,135.821,82.485,137.043,80.123"/>
	<path fill="#7A7979" d="M104.649,109.155c-1.713,0.293-5.933,1.135-9.893,0.627c-3.811-0.491-10.775-2.275-13.011-5.35
		c-1.004-1.379-2.553-3.35-3.119-5.631c-0.063-1.666-0.67-4.291-0.15-5.773c0.963-5.371,4.87-9.14,9.179-11.55
		c0.753-0.725,1.637-1.06,2.91-1.334c1.594-0.343,3.079-1.383,5.448-1.156c-0.091,0.479-0.117,1.016-0.094,1.602
		c-2.081,0.431-3.784,1.218-5.165,2.313c-1.263,0.731-3.422,2.855-4.173,3.819c-0.749,0.963-1.798,2.756-2.185,3.438
		c-0.719,1.289-0.818,2.221-1.182,4.718c-0.009,0.346,0.329,2.591,0.87,3.508c2.046,4.557,5.246,7.191,10.706,8.099
		c0.857-0.13,1.135,0.288,1.971,0.176c-1.03-0.646-1.995-0.895-2.868-1.671c-1.978-1.762-3.868-5.519-3.985-8.65
		c-0.263-6.878,3.953-11.973,9.015-13.525c0.049,0.311,0.255,1.85,0.402,2.068c-0.417,0.198-0.31,1.126-0.756,1.296
		c0.139,1.096-1.703,1.313-1.503,2.465c-1.291,1.685-1.882,2.388-2.692,4.527c0.027,0.233-0.267,0.948-0.447,0.984
		c0.148,1.409-0.214,2.917,0.297,4.083c1.228,5.039,6.54,7.696,14.061,5.707c2.981-0.788,5.555-2.129,7.843-4.354
		c1.177-1.147,2.719-2.7,3.238-4.465c0.877-2.991-2.155-6.48-3.679-8.091c-1.932-2.039-4.75-3.741-7.38-5.599
		c-3.502-2.475-6.904-5.064-6.592-10.975c0.07-1.318,1.104-3.39,1.693-4.306c1.833-2.848,4.464-4.253,7.911-5.813
		c1.397-0.631,2.974-1.054,4.641-1.373c1.435-0.274,3.461-0.53,5.015-0.548h0.338c1.425,0.016,2.881,0.325,3.92,0.616
		c2.128,1.191,2.632,1.088,2.334,4.145c-0.817,2.3-2.181,3.804-4.455,5.013c-1.382,0.735-2.276,1.134-3.807,1.585
		c-0.737,0.217-1.505,0.618-2.415,0.79c-1.357,0.259-1.714,0.152-3.82,0.096c-0.284-0.186-0.13-0.671-0.13-0.671l-1.481-0.917
		l0.464-0.942c1.216,0.072,2.164,0.129,4.6-0.596c2.172-0.647,3.517-1.306,5.381-2.687c1.098-0.812,1.571-0.39,1.38-1.562
		c-0.236-1.441-1.563-1.445-3.209-1.499c-2.57-0.085-4.122,0.393-5.608,1.019c-1.486,0.629-3.095,1.047-4.079,1.905
		c-0.451,0.072-0.91,0.592-1.471,0.559c-0.417,0.514-0.726,1.054-1.472,1.255c-0.246,0.999-0.987,1.836-1.472,2.51
		c-0.51,0.708,0.018,1.875,0.277,3.597c0.26,1.722,1.721,2.969,2.889,4.295c2.014,1.283,3.501,2.69,5.442,4.127
		c0.595,0.439,1.266,0.795,1.856,1.233c1.106,0.816,1.954,2.123,2.879,3.166c0.64,0.723,1.466,1.488,1.947,2.75
		c0.136,0.351,0.478,0.916,0.566,1.182c0.448,1.33,0.766,3.482,0.737,5.099c-0.108,6.206-6.623,10.672-9.966,12.174
		C110.962,107.401,106.363,108.861,104.649,109.155"/>
</g>
</svg>
