<svg version="1.1" xmlns="http://www.w3.org/2000/svg" xmlns:xlink="http://www.w3.org/1999/xlink" x="0px" y="0px" viewBox="0 0 274 188">
<g opacity="0.9">
	<path fill="#7A7979" d="M158.795,64.29c0,0-4.109-5.311-8.518-5.311c0,0-5.111,0-9.62,6.413c0,0-4.409,6.113-7.416,17.036
		c0,0-3.106-10.923-7.515-17.036c0,0-4.51-6.413-9.52-6.413c0,0-4.51,0-8.619,5.311c0,0-3.908,5.211-6.914,14.631
		c0,0-6.414,19.942-6.414,48.101h9.721c0,0,0-26.155,3.607-44.694c0,0,1.604-8.718,3.808-13.529c0,0,2.305-4.91,4.811-4.91
		c0,0,2.405,0,4.709,4.51c0,0,2.205,4.509,3.808,12.526c0,0,3.608,17.136,3.608,41.287h9.72c0,0,0-24.151,3.608-41.287
		c0,0,1.704-8.017,3.808-12.526c0,0,2.305-4.51,4.81-4.51c0,0,2.405,0,4.71,4.91c0,0,2.205,4.811,3.908,13.529
		c0,0,3.508,18.539,3.508,44.694h9.72c0,0,0-28.159-6.413-48.101C165.71,78.921,162.703,69.501,158.795,64.29"/>
	<path fill="#7A7979" d="M177.197,120.208c0.024-0.002,0.038,0,0.038,0c0.902,0,1.503,0.601,1.503,0.601
		c0.601,0.601,0.602,1.503,0.601,1.503l-0.601,1.603c-0.601,0.602-1.503,0.602-1.503,0.602l-1.403-0.602
		c-0.601-0.601-0.601-1.603-0.601-1.603c0-0.902,0.601-1.503,0.601-1.503C176.358,120.283,177.036,120.216,177.197,120.208
		 M177.235,119.907c-1.002,0-1.704,0.701-1.704,0.701c-0.801,0.702-0.801,1.704-0.801,1.704c0,1.102,0.801,1.804,0.801,1.804
		c0.702,0.801,1.704,0.801,1.704,0.801c1.102,0,1.804-0.801,1.804-0.801c0.701-0.702,0.701-1.804,0.701-1.804
		c0-1.002-0.701-1.704-0.701-1.704C178.337,119.907,177.235,119.907,177.235,119.907"/>
	<path fill="#7A7979" d="M176.734,121.311h0.601c0.601,0,0.601,0.401,0.601,0.401l-0.2,0.401l-0.501,0.1h-0.501V121.311z
		 M176.333,120.91v2.906h0.401v-1.202h0.501l0.802,1.202h0.501l-0.902-1.303c0.801,0,0.802-0.801,0.802-0.801
		c-0.001-0.802-1.003-0.802-1.003-0.802H176.333z"/>
</g>
</svg>
