<?xml version="1.0" encoding="UTF-8" standalone="no"?>
<svg width="342px" height="298px" viewBox="0 0 342 298" version="1.1" xmlns="http://www.w3.org/2000/svg" xmlns:xlink="http://www.w3.org/1999/xlink" xmlns:sketch="http://www.bohemiancoding.com/sketch/ns">
    <!-- Generator: Sketch 3.4 (15575) - http://www.bohemiancoding.com/sketch -->
    <title>Beratung</title>
    <desc>Created with Sketch.</desc>
    <defs></defs>
    <g id="Page-1" stroke="none" stroke-width="1" fill="none" fill-rule="evenodd" sketch:type="MSPage">
        <g id="Services-Icons" sketch:type="MSLayerGroup" transform="translate(-48.000000, -19.000000)">
            <g id="Beratung" transform="translate(48.000000, 19.000000)" sketch:type="MSShapeGroup">
                <path d="M20.1,179.1 L69.3,124.9 L125.2,185.1" id="Shape" stroke="#DEDEDE" stroke-width="5.086"></path>
                <path d="M110.8,169 L129.4,148.6 L154.9,175.7" id="Shape" stroke="#DEDEDE" stroke-width="5.086"></path>
                <path d="M105.7,111.6 C112,111.6 117.1,106.5 117.1,100.2 C117.1,93.9 112,88.8 105.7,88.8 C99.4,88.8 94.3,93.9 94.3,100.2 C94.3,106.5 99.4,111.6 105.7,111.6" id="Shape" fill="#DEDEDE"></path>
                <circle id="Oval" stroke="#DEDEDE" stroke-width="5.086" cx="105.7" cy="100.2" r="11.4"></circle>
                <path d="M57,278.7 C50.2,277.9 18.1,289.6 24.8,284.6 C35,277 43.5,269.3 41.8,263.4 C37.6,252.4 29.3,230.3 26.7,212.8 C24.1,195.3 22.8,173.8 22.8,148.5 C22.8,123.2 24.1,101.7 26.7,84.2 C29.3,66.7 33.3,52.4 38.8,41.4 C44.3,30.4 51.2,22.4 59.6,17.4 C68,12.4 77.9,9.8 89.5,9.8 C101,9.8 111,12.3 119.4,17.4 C127.8,22.4 134.7,30.4 140.2,41.4 C145.7,52.4 149.7,66.7 152.3,84.2 C154.9,101.8 156.2,123 156.2,148.1 C156.2,173.4 154.9,194.9 152.3,212.4 C149.7,230 145.7,244.2 140.2,255.2 C134.7,266.2 127.8,274.2 119.4,279.2 C111,284.2 101.1,286.8 89.5,286.8 C77.8,286.8 65.5,282.2 57,278.7 M122.2,288.6 C131.7,283.4 139.7,274.9 146.2,263.2 C152.7,251.5 157.6,236.2 160.9,217.4 C164.2,198.6 165.9,175.5 165.9,148 C165.9,120.8 164.2,97.9 160.9,79.1 C157.6,60.3 152.7,45.1 146.2,33.3 C139.7,21.6 131.7,13.1 122.2,7.9 C112.7,2.7 101.7,0.1 89.3,0.1 C76.9,0.1 65.9,2.7 56.4,7.9 C46.9,13.1 38.9,21.6 32.4,33.3 C25.9,45.1 21,60.3 17.7,79.1 C14.4,97.9 12.7,121 12.7,148.5 C12.7,175.7 14.4,198.7 17.7,217.6 C21,236.5 25.9,251.8 32.4,263.4 C34.1,266.4 7.7,288.9 5.2,290.6 C1.5,293.1 0.4,295.5 1,296.5 C4.1,301 50.2,288 56.4,288.6 C65.4,293.1 76.9,296.4 89.3,296.4 C101.7,296.4 112.7,293.8 122.2,288.6" id="Shape" fill="#005467"></path>
                <path d="M282,3.8 L224.3,6 L224.3,13.7 L282,13.7 L282,282 L223.4,283.8 L223.4,291.5 L341.5,291.5 L341.5,283.8 L291.8,282 L291.8,3.8 L282,3.8 Z" id="Shape" fill="#005467"></path>
            </g>
        </g>
    </g>
</svg>