<?xml version="1.0" encoding="UTF-8" standalone="no"?>
<svg width="304px" height="347px" viewBox="0 0 304 347" version="1.1" xmlns="http://www.w3.org/2000/svg" xmlns:xlink="http://www.w3.org/1999/xlink" xmlns:sketch="http://www.bohemiancoding.com/sketch/ns">
    <!-- Generator: Sketch 3.4 (15575) - http://www.bohemiancoding.com/sketch -->
    <title>Casting</title>
    <desc>Created with Sketch.</desc>
    <defs></defs>
    <g id="Page-1" stroke="none" stroke-width="1" fill="none" fill-rule="evenodd" sketch:type="MSPage">
        <g id="Services-Icons" sketch:type="MSLayerGroup" transform="translate(-596.000000, -416.000000)">
            <g id="Casting" transform="translate(597.000000, 417.000000)" sketch:type="MSShapeGroup">
                <path d="M2.3,75.5 C2.3,75.5 -0.1,76.4 0.8,78.8 L102.1,342.8 C102.1,342.8 103,345.2 105.4,344.2 L299.7,269.6 C299.7,269.6 302.1,268.7 301.2,266.3 L199.9,2.3 C199.9,2.3 199,-0.1 196.6,0.8 L2.3,75.5 L2.3,75.5 Z" id="Shape" stroke="#DBDBDB" stroke-width="3"></path>
                <path d="M24.1,48.3 C24.1,48.3 21.6,48.7 22,51.2 L69.9,330 C69.9,330 70.3,332.5 72.8,332.1 L277.9,296.9 C277.9,296.9 280.4,296.5 280,294 L232.1,15.3 C232.1,15.3 231.7,12.8 229.2,13.2 L24.1,48.3 L24.1,48.3 Z" id="Shape" stroke="#DBDBDB" stroke-width="3" fill="#FFFFFF"></path>
                <path d="M46.9,28.6 C46.9,28.6 44.4,28.6 44.4,31.1 L44.4,314 C44.4,314 44.4,316.5 46.9,316.5 L255,316.5 C255,316.5 257.5,316.5 257.5,314 L257.5,31.2 C257.5,31.2 257.5,28.7 255,28.7 L46.9,28.7 L46.9,28.6 Z" id="Shape" stroke="#DBDBDB" stroke-width="3" fill="#FFFFFF"></path>
                <g id="Group" transform="translate(125.000000, 234.000000)" fill="#005467">
                    <path d="M11.8,44 C10,44 8.4,43.6 7,42.9 C5.6,42.1 4.4,40.9 3.5,39.2 C2.5,37.5 1.8,35.3 1.3,32.5 C0.8,29.7 0.6,26.3 0.6,22.3 C0.6,18.3 0.8,14.9 1.3,12.1 C1.8,9.3 2.5,7.1 3.5,5.4 C4.5,3.7 5.6,2.4 7,1.7 C8.4,0.9 10,0.6 11.8,0.6 C13.6,0.6 15.2,1 16.6,1.7 C18,2.5 19.2,3.7 20.1,5.4 C21.1,7.1 21.8,9.4 22.3,12.1 C22.8,14.9 23,18.2 23,22.2 C23,26.2 22.8,29.6 22.3,32.4 C21.8,35.2 21.1,37.4 20.1,39.1 C19.1,40.8 18,42.1 16.6,42.8 C15.3,43.6 13.6,44 11.8,44 L11.8,44 Z M11.8,42.6 C13.5,42.6 15,42.2 16.2,41.5 C17.4,40.8 18.4,39.6 19.3,38 C20.1,36.4 20.7,34.3 21.1,31.7 C21.5,29.1 21.7,26 21.7,22.2 C21.7,18.5 21.5,15.4 21.1,12.8 C20.7,10.2 20.1,8.1 19.3,6.5 C18.5,4.9 17.5,3.7 16.2,3 C15,2.3 13.5,1.9 11.8,1.9 C10.1,1.9 8.6,2.3 7.4,3 C6.2,3.7 5.2,4.9 4.3,6.5 C3.5,8.1 2.9,10.2 2.5,12.8 C2.1,15.4 1.9,18.5 1.9,22.3 C1.9,26 2.1,29.2 2.5,31.8 C2.9,34.4 3.5,36.5 4.3,38.1 C5.1,39.7 6.1,40.9 7.4,41.6 C8.7,42.2 10.1,42.6 11.8,42.6 L11.8,42.6 Z" id="Shape"></path>
                    <path d="M35.3,2.1 L32.6,19 C38.1,19.4 42.5,20.7 45.6,22.9 C48.8,25.1 50.4,28.2 50.4,32.3 C50.4,34.2 50.1,35.9 49.4,37.4 C48.8,38.9 47.9,40.1 46.8,41.1 C45.7,42.1 44.4,42.8 43,43.3 C41.6,43.8 40.1,44 38.5,44 C36.8,44 35.1,43.7 33.5,43.2 C31.9,42.7 30.6,41.9 29.6,41 L29.6,39.3 C30.8,40.4 32.2,41.2 33.8,41.8 C35.4,42.4 37,42.6 38.6,42.6 C40,42.6 41.4,42.4 42.7,42 C44,41.6 45.1,40.9 46,40.1 C46.9,39.2 47.7,38.2 48.2,36.9 C48.8,35.6 49,34.1 49,32.3 C49,30.3 48.6,28.6 47.7,27.1 C46.8,25.7 45.6,24.5 44,23.5 C42.5,22.5 40.6,21.8 38.5,21.3 C36.4,20.8 34,20.4 31.5,20.3 L31.5,18.6 L34.3,0.8 L50.3,0.8 L50.2,2.1 L35.3,2.1 L35.3,2.1 Z" id="Shape"></path>
                </g>
                <path d="M107.2,101.9 C107.2,101.9 111.6,67.4 151,68.3 C171.1,69.1 177,79.2 177,79.2 C177,79.2 194.7,73.3 204.8,144 C207.3,168.1 203.1,174.3 193,186 C180.4,185.2 177,185.2 177,185.2 L171.1,168.1 C171.1,168.1 180.4,161.7 186.2,134.8 C186.2,134.8 178.6,137.3 174.4,94.4 C174.4,94.4 151.7,113.7 106.7,120.5 C106.7,120.5 104.6,129.8 102.9,134 C101.2,138.2 90.3,160.9 102.5,179.4 C102.5,179.4 105.4,185.3 113,185.3 C120.6,185.3 128.1,184.5 128.1,184.5 L134,170.2 C134,170.2 120.5,160.9 113.8,142.4" id="Shape" stroke="#005467" stroke-width="3"></path>
            </g>
        </g>
    </g>
</svg>