<?xml version="1.0" encoding="UTF-8" standalone="no"?>
<svg width="356px" height="267px" viewBox="0 0 356 267" version="1.1" xmlns="http://www.w3.org/2000/svg" xmlns:xlink="http://www.w3.org/1999/xlink" xmlns:sketch="http://www.bohemiancoding.com/sketch/ns">
    <!-- Generator: Sketch 3.4 (15575) - http://www.bohemiancoding.com/sketch -->
    <title>Location</title>
    <desc>Created with Sketch.</desc>
    <defs></defs>
    <g id="Page-1" stroke="none" stroke-width="1" fill="none" fill-rule="evenodd" sketch:type="MSPage">
        <g id="Services-Icons" sketch:type="MSLayerGroup" transform="translate(-41.000000, -453.000000)">
            <g id="Location" transform="translate(43.000000, 455.000000)" sketch:type="MSShapeGroup">
                <path d="M188.9,133.2 L188.9,174.7 L184.2,174.7 L184.2,133.2 L126.6,133.2 L126.6,128 C133.2,116 139,105.7 143.9,96.9 C148.8,88.2 152.9,80.6 156.2,74.2 C159.5,67.8 162.2,62.5 164.4,58.2 C166.5,53.9 168.2,50.1 169.6,47 C170.9,43.9 171.9,41.1 172.6,38.8 C173.2,36.5 173.8,34.1 174.4,31.7 L179.3,31.7 C178.5,35.6 177.3,39.5 175.9,43.5 C174.5,47.5 172.2,52.8 168.9,59.4 C165.6,66.1 161.1,74.8 155.1,85.6 C149.2,96.4 141.3,110.8 131.4,128.6 L184.4,128.6 L184.8,88.7 L189,88.7 L189,128.6 L204.7,128.6 L204.3,133.1 L188.9,133.1 L188.9,133.2 Z" id="Shape" fill="#005467"></path>
                <g id="Group" transform="translate(84.000000, 205.000000)" fill="#005467">
                    <path d="M18.3,27.7 L3.9,7.5 L1.6,4.2 L1.6,27.7 L0.8,27.7 L0.8,3.3 L1.9,3.3 L15.9,23 L18.2,26.4 L18.2,3.3 L19,3.3 L19,27.7 L18.3,27.7 L18.3,27.7 Z" id="Shape"></path>
                    <path d="M38.7,25.5 C37.3,27.1 35.4,27.9 33,27.9 C31.8,27.9 30.7,27.7 29.7,27.2 C28.7,26.8 27.9,26.2 27.2,25.4 C26.5,24.6 26,23.8 25.6,22.8 C25.2,21.8 25.1,20.7 25.1,19.6 C25.1,18.1 25.3,16.8 25.7,15.7 C26.1,14.6 26.6,13.6 27.3,12.8 C28,12 28.8,11.4 29.8,11 C30.8,10.6 31.8,10.4 32.9,10.4 C34.6,10.4 36,10.8 37.1,11.6 C38.2,12.4 38.7,13.6 38.7,15.2 L38.7,15.8 L38.7,16.6 L26.3,16.6 C26.2,16.9 26.2,17.3 26.1,17.9 C26,18.5 26,19 26,19.5 C26,20.7 26.2,21.7 26.5,22.6 C26.9,23.5 27.3,24.3 28,24.9 C28.6,25.6 29.4,26.1 30.2,26.4 C31,26.7 32,26.9 33,26.9 C34.2,26.9 35.3,26.7 36.3,26.2 C37.3,25.7 38.1,25 38.7,24.2 L38.7,25.5 L38.7,25.5 Z M37.8,15.9 L37.8,15.2 C37.8,14.1 37.4,13.2 36.6,12.4 C35.8,11.6 34.5,11.2 32.7,11.2 C31.1,11.2 29.7,11.6 28.7,12.5 C27.6,13.4 26.9,14.5 26.5,15.8 L37.8,15.8 L37.8,15.9 Z" id="Shape"></path>
                    <path d="M45.1,10.6 L45.1,23.6 C45.1,24.7 45.4,25.5 46,26.1 C46.6,26.7 47.5,27 48.8,27 C49.8,27 50.8,26.8 51.9,26.4 C53,26 54.2,25.2 55.3,24.2 L55.3,10.7 L56.1,10.7 L56.1,27.8 L55.3,27.8 L55.3,25.2 C54.2,26.2 53.1,26.9 52,27.4 C50.9,27.9 49.8,28.1 48.7,28.1 C45.7,28.1 44.1,26.7 44.1,23.9 L44.1,10.9 L45.1,10.9 L45.1,10.6 Z" id="Shape"></path>
                    <path d="M63.6,0.3 L64.4,0 L64.4,12.5 C65.2,11.8 66.1,11.2 67.1,10.9 C68.1,10.6 69.1,10.4 70.2,10.4 C71.2,10.4 72.2,10.6 73.1,10.9 C74,11.2 74.8,11.7 75.5,12.4 C76.2,13.1 76.7,13.9 77.1,14.9 C77.5,15.9 77.7,17.2 77.7,18.6 C77.7,20.3 77.5,21.7 77,22.9 C76.5,24.1 75.9,25 75.1,25.8 C74.3,26.5 73.3,27.1 72.2,27.4 C71.1,27.7 69.9,27.9 68.6,27.9 C68.3,27.9 67.9,27.9 67.4,27.8 C67,27.8 66.5,27.7 66.1,27.6 C65.7,27.5 65.2,27.4 64.8,27.3 C64.4,27.2 63.9,27 63.6,26.9 L63.6,0.3 L63.6,0.3 Z M64.4,26.3 C64.9,26.5 65.6,26.7 66.4,26.9 C67.2,27 68,27.1 68.6,27.1 C69.8,27.1 70.8,27 71.8,26.7 C72.8,26.4 73.7,26 74.4,25.3 C75.1,24.6 75.7,23.8 76.1,22.7 C76.5,21.6 76.7,20.3 76.7,18.7 C76.7,16.2 76.1,14.4 74.8,13.2 C73.6,12 71.9,11.4 69.9,11.4 C68.9,11.4 67.9,11.6 67,11.9 C66.1,12.2 65.2,12.8 64.3,13.6 L64.3,26.3 L64.4,26.3 Z" id="Shape"></path>
                    <path d="M90.2,26.3 C88.8,27.3 87.1,27.9 85.2,27.9 C82.4,27.9 81,26.7 81,24.3 C81,23.6 81.2,23 81.5,22.4 C81.8,21.9 82.3,21.3 83,20.9 C83.7,20.4 84.6,20 85.8,19.7 C87,19.4 88.4,19 90.1,18.6 L90.1,14.6 C90.1,14.2 90,13.9 89.9,13.5 C89.8,13.2 89.6,12.9 89.4,12.6 C88.7,11.8 87.5,11.3 85.7,11.3 C84.9,11.3 84,11.4 83.2,11.7 C82.4,12 81.8,12.4 81.3,12.8 L81.3,11.8 C81.8,11.4 82.4,11 83.2,10.8 C84,10.5 84.9,10.4 85.8,10.4 C87.5,10.4 88.7,10.8 89.6,11.5 C90.5,12.2 90.9,13.2 90.9,14.5 L90.9,17.5 L90.9,20.1 L90.9,22.7 L90.9,25.8 C91.4,26.3 91.8,26.6 92.2,26.8 C92.6,27 93,27 93.4,27 C93.6,27 93.8,27 93.9,26.9 L93.8,27.7 C93.6,27.8 93.4,27.8 93.2,27.8 C92.7,27.8 92.2,27.7 91.7,27.5 C91.3,27.3 90.8,26.9 90.2,26.3 L90.2,26.3 Z M90.1,19.3 C88.4,19.7 87.1,20 86,20.3 C85,20.6 84.1,21 83.5,21.4 C82.9,21.8 82.5,22.2 82.3,22.7 C82.1,23.2 82,23.7 82,24.2 C82,26.1 83.1,27 85.3,27 C86.2,27 87.1,26.9 87.9,26.6 C88.8,26.3 89.5,26 90.1,25.5 L90.1,19.3 L90.1,19.3 Z" id="Shape"></path>
                    <path d="M99.3,10.6 L99.3,23.6 C99.3,24.7 99.6,25.5 100.2,26.1 C100.8,26.7 101.7,27 103,27 C104,27 105,26.8 106.1,26.4 C107.2,26 108.4,25.2 109.5,24.2 L109.5,10.7 L110.3,10.7 L110.3,27.8 L109.5,27.8 L109.5,25.2 C108.4,26.2 107.3,26.9 106.2,27.4 C105.1,27.9 104,28.1 102.9,28.1 C99.9,28.1 98.3,26.7 98.3,23.9 L98.3,10.9 L99.3,10.9 L99.3,10.6 Z" id="Shape"></path>
                    <path d="M122.1,10.4 C122.8,10.4 123.4,10.5 124,10.6 C124.6,10.8 125.1,11 125.5,11.3 L127.3,8.4 L128,8.4 L128,8.6 C128,9 127.9,9.4 127.6,9.8 C127.3,10.2 126.8,10.9 126.1,11.7 C126.7,12.2 127.2,12.9 127.6,13.7 C127.9,14.5 128.1,15.4 128.1,16.4 C128.1,17.2 128,18 127.7,18.7 C127.4,19.4 127,20 126.5,20.6 C126,21.1 125.4,21.5 124.7,21.8 C124,22.1 123.2,22.2 122.4,22.2 C121.7,22.2 121,22.1 120.5,21.9 L117.8,24.6 C117.6,24.8 117.5,24.9 117.5,25.1 C117.4,25.2 117.4,25.4 117.4,25.6 C117.4,25.9 117.6,26.2 117.9,26.5 C118.2,26.7 118.8,26.9 119.6,26.9 L126.5,26.9 C127.9,26.9 128.9,27.2 129.6,27.8 C130.2,28.4 130.6,29.3 130.6,30.5 C130.6,31.3 130.4,32.1 130,32.9 C129.6,33.7 129,34.4 128.2,35 C127.4,35.6 126.5,36.1 125.5,36.5 C124.4,36.9 123.2,37.1 121.9,37.1 C120.6,37.1 119.5,37 118.6,36.7 C117.7,36.5 116.9,36.1 116.4,35.8 C115.8,35.4 115.4,35 115.1,34.5 C114.8,34 114.7,33.5 114.7,33 C114.7,32.6 114.8,32.2 114.9,31.8 C115,31.4 115.3,31 115.6,30.6 C115.9,30.2 116.4,29.7 117,29.2 C117.6,28.7 118.3,28.1 119.1,27.5 C118.3,27.4 117.7,27.2 117.2,26.8 C116.8,26.4 116.6,26 116.6,25.5 C116.6,25.1 116.7,24.8 116.9,24.4 L119.8,21.6 C118.8,21.2 118,20.5 117.4,19.6 C116.8,18.7 116.5,17.6 116.5,16.3 C116.5,15.4 116.6,14.6 116.9,13.9 C117.2,13.2 117.6,12.5 118.1,12 C118.6,11.5 119.2,11 119.9,10.8 C120.4,10.6 121.2,10.4 122.1,10.4 L122.1,10.4 Z M119.8,27.7 C118.8,28.5 118,29.2 117.4,29.8 C116.8,30.3 116.3,30.8 116,31.2 C115.7,31.6 115.5,32 115.4,32.3 C115.3,32.6 115.3,32.9 115.3,33.2 C115.3,34.1 115.8,34.8 116.9,35.5 C117.9,36.1 119.6,36.5 121.7,36.5 C122.8,36.5 123.8,36.3 124.8,36 C125.8,35.7 126.6,35.3 127.3,34.8 C128,34.3 128.6,33.7 129,33 C129.4,32.3 129.6,31.5 129.6,30.7 C129.6,29.8 129.3,29.1 128.8,28.6 C128.3,28.1 127.4,27.8 126.2,27.8 L119.8,27.8 L119.8,27.7 Z M122.2,21.5 C122.8,21.5 123.4,21.4 124,21.2 C124.6,21 125.1,20.7 125.5,20.2 C125.9,19.8 126.3,19.2 126.6,18.6 C126.9,18 127,17.2 127,16.4 C127,15.5 126.9,14.7 126.6,14.1 C126.3,13.4 126,12.9 125.5,12.5 C125,12.1 124.5,11.8 123.9,11.6 C123.3,11.4 122.6,11.3 121.9,11.3 C121.2,11.3 120.6,11.4 120,11.6 C119.4,11.8 118.9,12.2 118.5,12.6 C118.1,13 117.7,13.6 117.5,14.2 C117.3,14.8 117.1,15.6 117.1,16.4 C117.1,18 117.6,19.3 118.5,20.1 C119.4,20.9 120.8,21.5 122.2,21.5 L122.2,21.5 Z" id="Shape"></path>
                    <path d="M141.5,26.3 C140.1,27.3 138.4,27.9 136.5,27.9 C133.7,27.9 132.3,26.7 132.3,24.3 C132.3,23.6 132.5,23 132.8,22.4 C133.1,21.9 133.6,21.3 134.3,20.9 C135,20.4 135.9,20 137.1,19.7 C138.3,19.4 139.7,19 141.4,18.6 L141.4,14.6 C141.4,14.2 141.3,13.9 141.2,13.5 C141.1,13.2 140.9,12.9 140.7,12.6 C140,11.8 138.8,11.3 137,11.3 C136.2,11.3 135.3,11.4 134.5,11.7 C133.7,12 133.1,12.4 132.6,12.8 L132.6,11.8 C133.1,11.4 133.7,11 134.5,10.8 C135.3,10.5 136.2,10.4 137.1,10.4 C138.8,10.4 140,10.8 140.9,11.5 C141.8,12.2 142.2,13.2 142.2,14.5 L142.2,17.5 L142.2,20.1 L142.2,22.7 L142.2,25.8 C142.7,26.3 143.1,26.6 143.5,26.8 C143.9,27 144.3,27 144.7,27 C144.9,27 145.1,27 145.2,26.9 L145.1,27.7 C144.9,27.8 144.7,27.8 144.5,27.8 C144,27.8 143.5,27.7 143,27.5 C142.6,27.3 142,26.9 141.5,26.3 L141.5,26.3 Z M141.4,19.3 C139.7,19.7 138.4,20 137.3,20.3 C136.3,20.6 135.4,21 134.8,21.4 C134.2,21.8 133.8,22.2 133.6,22.7 C133.4,23.2 133.3,23.7 133.3,24.2 C133.3,26.1 134.4,27 136.6,27 C137.5,27 138.4,26.9 139.2,26.6 C140.1,26.3 140.8,26 141.4,25.5 L141.4,19.3 L141.4,19.3 Z" id="Shape"></path>
                    <path d="M148.2,25.6 C148.8,26.1 149.6,26.4 150.4,26.7 C151.2,27 152.2,27.1 153.2,27.1 C154.7,27.1 155.9,26.8 156.6,26.2 C157.3,25.6 157.7,24.8 157.7,23.7 C157.7,23 157.5,22.4 157,21.8 C156.6,21.3 156,20.8 155.3,20.4 C154.6,20 153.9,19.6 153.2,19.2 C152.5,18.8 151.7,18.4 151.1,18 C150.4,17.6 149.9,17.1 149.4,16.5 C149,16 148.7,15.3 148.7,14.5 C148.7,13.8 148.8,13.2 149.1,12.7 C149.4,12.2 149.8,11.7 150.3,11.4 C150.8,11.1 151.4,10.8 152,10.6 C152.7,10.4 153.4,10.4 154.1,10.4 C154.9,10.4 155.7,10.5 156.5,10.7 C157.3,10.9 157.9,11.2 158.3,11.5 L158.3,12.5 C157.9,12.2 157.4,11.9 156.6,11.6 C155.8,11.3 155,11.2 154.1,11.2 C151.1,11.2 149.6,12.3 149.6,14.5 C149.6,15.1 149.8,15.7 150.3,16.2 C150.7,16.7 151.3,17.1 152,17.5 C152.7,17.9 153.4,18.3 154.1,18.7 C154.8,19.1 155.6,19.5 156.2,19.9 C156.9,20.4 157.4,20.9 157.9,21.5 C158.3,22.1 158.6,22.8 158.6,23.6 C158.6,25 158.1,26 157.2,26.7 C156.2,27.4 154.9,27.8 153.3,27.8 C152.2,27.8 151.2,27.7 150.3,27.4 C149.4,27.1 148.7,26.8 148.2,26.5 L148.2,25.6 L148.2,25.6 Z" id="Shape"></path>
                    <path d="M163,25.6 C163.6,26.1 164.4,26.4 165.2,26.7 C166,27 167,27.1 168,27.1 C169.5,27.1 170.7,26.8 171.4,26.2 C172.1,25.6 172.5,24.8 172.5,23.7 C172.5,23 172.3,22.4 171.8,21.8 C171.4,21.3 170.8,20.8 170.1,20.4 C169.4,20 168.7,19.6 168,19.2 C167.3,18.8 166.5,18.4 165.9,18 C165.2,17.6 164.7,17.1 164.2,16.5 C163.8,16 163.5,15.3 163.5,14.5 C163.5,13.8 163.6,13.2 163.9,12.7 C164.2,12.2 164.6,11.7 165.1,11.4 C165.6,11.1 166.2,10.8 166.8,10.6 C167.5,10.4 168.2,10.4 168.9,10.4 C169.7,10.4 170.5,10.5 171.3,10.7 C172.1,10.9 172.7,11.2 173.1,11.5 L173.1,12.5 C172.7,12.2 172.2,11.9 171.4,11.6 C170.6,11.3 169.8,11.2 168.9,11.2 C165.9,11.2 164.4,12.3 164.4,14.5 C164.4,15.1 164.6,15.7 165.1,16.2 C165.5,16.7 166.1,17.1 166.8,17.5 C167.5,17.9 168.2,18.3 168.9,18.7 C169.6,19.1 170.4,19.5 171,19.9 C171.7,20.4 172.2,20.9 172.7,21.5 C173.1,22.1 173.4,22.8 173.4,23.6 C173.4,25 172.9,26 172,26.7 C171,27.4 169.7,27.8 168.1,27.8 C167,27.8 166,27.7 165.1,27.4 C164.2,27.1 163.5,26.8 163,26.5 L163,25.6 L163,25.6 Z" id="Shape"></path>
                    <path d="M191,25.5 C189.6,27.1 187.7,27.9 185.3,27.9 C184.1,27.9 183,27.7 182,27.2 C181,26.8 180.2,26.2 179.5,25.4 C178.8,24.6 178.3,23.8 177.9,22.8 C177.5,21.8 177.4,20.7 177.4,19.6 C177.4,18.1 177.6,16.8 178,15.7 C178.4,14.6 178.9,13.6 179.6,12.8 C180.3,12 181.1,11.4 182.1,11 C183.1,10.6 184.1,10.4 185.2,10.4 C186.9,10.4 188.3,10.8 189.4,11.6 C190.5,12.4 191,13.6 191,15.2 L191,15.8 L191,16.6 L178.6,16.6 C178.5,16.9 178.5,17.3 178.4,17.9 C178.3,18.5 178.3,19 178.3,19.5 C178.3,20.7 178.5,21.7 178.8,22.6 C179.2,23.5 179.6,24.3 180.3,24.9 C180.9,25.6 181.7,26.1 182.5,26.4 C183.3,26.7 184.3,26.9 185.3,26.9 C186.5,26.9 187.6,26.7 188.6,26.2 C189.6,25.7 190.4,25 191,24.2 L191,25.5 L191,25.5 Z M190.2,15.9 L190.2,15.2 C190.2,14.1 189.8,13.2 189,12.4 C188.2,11.6 186.9,11.2 185.1,11.2 C183.5,11.2 182.1,11.6 181.1,12.5 C180,13.4 179.3,14.5 178.9,15.8 L190.2,15.8 L190.2,15.9 Z" id="Shape"></path>
                </g>
                <path d="M18.1,0.5 C18.1,0.5 18.1,17.9 0.7,17.9 L0.7,245.2 C0.7,245.2 18.1,245.2 18.1,262.6 L333.9,262.6 C333.9,262.6 333.9,245.2 351.3,245.2 L351.3,17.9 C351.3,17.9 333.9,17.9 333.9,0.5 L18.1,0.5 L18.1,0.5 Z" id="Shape" stroke="#005467" stroke-width="4.717"></path>
            </g>
        </g>
    </g>
</svg>