<?xml version="1.0" encoding="UTF-8" standalone="no"?>
<svg width="352px" height="298px" viewBox="0 0 352 298" version="1.1" xmlns="http://www.w3.org/2000/svg" xmlns:xlink="http://www.w3.org/1999/xlink" xmlns:sketch="http://www.bohemiancoding.com/sketch/ns">
    <!-- Generator: Sketch 3.4 (15575) - http://www.bohemiancoding.com/sketch -->
    <title>Make-up</title>
    <desc>Created with Sketch.</desc>
    <defs></defs>
    <g id="Page-1" stroke="none" stroke-width="1" fill="none" fill-rule="evenodd" sketch:type="MSPage">
        <g id="Services-Icons" sketch:type="MSLayerGroup" transform="translate(-1079.000000, -439.000000)">
            <g id="Make-up" transform="translate(1079.000000, 439.000000)" sketch:type="MSShapeGroup">
                <path d="M258.8,283.7 C251.6,280.9 245.3,276.8 239.8,271.2 C234.3,265.7 229.9,258.7 226.8,250.2 C223.6,241.7 222,232 222,220.9 C222,211 223.6,201.9 226.8,193.8 C230,185.6 234.3,178.6 239.8,172.8 C245.3,167 251.7,162.5 259,159.4 C266.3,156.3 274,154.8 282,154.8 C290.5,154.8 298.5,156.2 305.8,159 C313.1,161.8 319.4,165.9 324.8,171.5 C330.2,177 334.4,184 337.4,192.3 C340.4,200.6 341.9,210.3 341.9,221.4 C341.9,232.5 340.2,242.2 336.9,250.5 C333.6,258.8 329.1,265.8 323.5,271.3 C317.8,276.8 311.4,281 304.1,283.8 C296.8,286.6 289.3,288 281.6,288 C273.5,287.8 266,286.4 258.8,283.7 M261.7,96.1 C283.5,67.2 312,41.8 347.3,19.9 L341.5,12.9 C297.4,42.4 264.8,73.6 243.9,106.6 C222.9,139.6 212.5,176.6 212.5,217.8 C212.5,229.8 214.2,240.6 217.5,250.4 C220.8,260.2 225.5,268.5 231.6,275.4 C237.7,282.3 244.9,287.6 253.3,291.4 C261.7,295.2 271.1,297.1 281.6,297.1 C290.4,297.1 299,295.4 307.5,292.1 C315.9,288.7 323.4,283.9 329.8,277.4 C336.3,271 341.5,263 345.5,253.5 C349.5,244 351.5,233.3 351.5,221.3 C351.5,209 349.6,198.2 345.9,188.7 C342.2,179.2 337.3,171.3 331.2,165.1 C325.1,158.8 318,154 309.9,150.7 C301.8,147.3 293.4,145.7 284.9,145.7 C270.6,145.7 258.2,149.1 247.7,155.8 C237.2,162.5 228.8,173 222.5,187.3 C226.8,155.3 239.9,125 261.7,96.1" id="Shape" fill="#005467"></path>
                <path d="M64,280.2 C56.2,275.5 49.7,268 44.6,257.5 C39.5,247 35.7,233.4 33.3,216.6 C30.9,199.8 29.7,179.4 29.7,155.2 C29.7,131 30.9,110.5 33.3,93.8 C35.7,77 39.5,63.4 44.6,52.9 C49.7,42.4 56.2,34.8 64,30 C71.8,25.2 81.2,22.8 92,22.8 C102.8,22.8 112.1,25.2 120,30 C127.8,34.8 134.3,42.5 139.4,52.9 C144.5,63.4 148.3,77 150.7,93.8 C153.1,110.6 154.3,130.9 154.3,154.8 C154.3,179 153.1,199.5 150.7,216.2 C148.3,233 144.5,246.6 139.4,257.1 C134.3,267.6 127.8,275.2 120,280 C112.2,284.8 102.8,287.2 92,287.2 C81.2,287.2 71.9,284.9 64,280.2 M122.8,289 C131.7,284 139.2,276 145.3,264.7 C151.4,253.5 156,238.9 159.1,221 C162.2,203.1 163.8,181 163.8,154.8 C163.8,128.9 162.2,106.9 159.1,89 C156,71.1 151.4,56.5 145.3,45.3 C139.2,34.1 131.7,26 122.8,21 C113.9,16 103.6,13.6 92,13.6 C80.4,13.6 70.1,16.1 61.2,21 C52.3,26 44.8,34 38.7,45.3 C32.6,56.5 28,71 24.9,89 C21.8,106.9 20.2,129 20.2,155.2 C20.2,181.1 21.8,203.1 24.9,221.2 C28,239.3 32.6,253.8 38.7,264.9 C44.8,276 52.3,284 61.2,288.9 C70.1,293.9 80.4,296.3 92,296.3 C103.6,296.4 113.9,293.9 122.8,289" id="Shape" fill="#B4B4B4"></path>
                <path d="M64.2,121.8 L104.7,77.1 L163.2,12.5 C163.2,12.5 167.1,8.5 163,4.6 L160.9,2.6 C160.9,2.6 156.8,-1.3 152.8,2.7 L44.9,103.5 C52.7,107.1 59.9,114.6 64.2,121.8" id="Shape" fill="#DEDEDE"></path>
                <path d="M64.5,122 L36.2,167 C36.2,167 33.8,166.5 30.3,165.2 C29.5,164.9 35.4,151 34.4,150.6 C33.5,150.2 25.7,163.2 24.8,162.7 C16,158.2 4.7,149.5 0.8,133.5 L45.5,102.9 C59.5,110.2 64.5,122 64.5,122" id="Shape" fill="#005467"></path>
            </g>
        </g>
    </g>
</svg>