<?xml version="1.0" encoding="UTF-8" standalone="no"?>
<svg width="361px" height="316px" viewBox="0 0 361 316" version="1.1" xmlns="http://www.w3.org/2000/svg" xmlns:xlink="http://www.w3.org/1999/xlink" xmlns:sketch="http://www.bohemiancoding.com/sketch/ns">
    <!-- Generator: Sketch 3.4 (15575) - http://www.bohemiancoding.com/sketch -->
    <title>Moodboards</title>
    <desc>Created with Sketch.</desc>
    <defs></defs>
    <g id="Page-1" stroke="none" stroke-width="1" fill="none" fill-rule="evenodd" sketch:type="MSPage">
        <g id="Services-Icons" sketch:type="MSLayerGroup" transform="translate(-563.000000, -12.000000)">
            <g id="Moodboards" transform="translate(565.000000, 14.000000)" sketch:type="MSShapeGroup">
                <g id="Group" transform="translate(189.000000, 146.000000)">
                    <path d="M14.3,129.8 C38.6,103.3 58.5,80.7 74.1,62.1 C89.7,43.5 102,27.2 111.1,13.2 C113.7,9.1 116.1,5.2 118.3,1.3 C115,1.5 111.3,0.4 108.1,0.9 C105.4,5.5 102.4,10.3 99.1,15.3 C89.5,29.6 77,45.8 61.5,64 C46,82.2 27,103.6 4.3,128.1 L4.3,138.3 L147.5,138.3 L148.3,129.8 L14.3,129.8 L14.3,129.8 Z" id="Shape" fill="#005467"></path>
                    <rect id="Rectangle-path" stroke="#C0C0C0" stroke-width="2.352" x="0.3" y="1.3" width="162.3" height="164.6"></rect>
                </g>
                <g id="Group" transform="translate(48.000000, 175.000000)">
                    <path d="M97.1,0.2 C96.5,12.7 95.5,23.8 94.1,33.6 C91.7,49.8 88,63 82.9,73.2 C77.8,83.4 71.4,90.8 63.7,95.4 C56,100.1 46.8,102.4 36.1,102.4 C25.4,102.4 16.2,100.1 8.5,95.6 C6,94.1 3.6,92.4 1.3,90.3 C0.9,89.9 0.5,89.6 0.1,89.2 C0.4,92.9 2.2,97.1 0.9,101.2 C1.1,101.3 1.2,101.4 1.4,101.5 C2.8,102.4 4.2,103.3 5.6,104.1 C14.4,108.9 24.5,111.3 36,111.3 C47.5,111.3 57.6,108.9 66.4,104.1 C75.2,99.3 82.6,91.5 88.6,80.6 C94.6,69.7 99.1,55.6 102.2,38.3 C104.2,27.2 105.5,14.6 106.2,0.2 L106.2,0 L97.1,0.2 L97.1,0.2 Z" id="Shape" fill="#005467"></path>
                    <rect id="Rectangle-path" stroke="#C0C0C0" stroke-width="2.352" x="1" y="0.5" width="116" height="137.2"></rect>
                </g>
                <g id="Group" transform="translate(185.000000, 0.000000)">
                    <path d="M133.9,121.6 C137.4,110.6 139.1,99.3 139.1,87.7 C139.1,75 137.2,63.9 133.3,54.5 C129.4,45 124.2,37.2 117.7,31 C111.2,24.8 103.5,20.1 94.7,17 C85.9,13.9 76.6,12.3 66.7,12.3 C50.7,12.3 37.8,15.5 28.1,22 C18.4,28.5 11.8,36.3 8.3,45.3 L15.1,50 C19.1,40.4 25.6,33.1 34.5,28.2 C43.4,23.3 53.9,20.8 65.9,20.8 C74.7,20.8 83,22.1 90.7,24.6 C98.4,27.1 105.2,31.1 111.1,36.5 C117,41.9 121.6,48.8 124.9,57.2 C128.2,65.7 129.9,75.8 129.9,87.7 C129.9,99.3 127.8,110.8 123.7,122.4 C123.1,124 122.5,125.6 121.9,127.2 C125.3,127.8 128.3,127.9 131.7,127.9 C132.5,125.8 133.2,123.7 133.9,121.6 L133.9,121.6 Z" id="Shape" fill="#005467"></path>
                    <rect id="Rectangle-path" stroke="#C0C0C0" stroke-width="2.352" x="0.4" y="0" width="171.7" height="127.8"></rect>
                </g>
                <g id="Group" transform="translate(0.000000, 2.000000)">
                    <path d="M154.7,131.8 C154.2,113.2 152.7,97.1 150.3,83.4 C147.2,66 142.7,51.9 136.7,41.1 C130.7,30.2 123.3,22.4 114.5,17.6 C105.7,12.8 95.6,10.4 84.1,10.4 C72.6,10.4 62.5,12.8 53.7,17.6 C44.9,22.4 37.5,30.2 31.5,41.1 C25.5,52 21,66.1 17.9,83.4 C15.5,97 14,113.1 13.5,131.7 C13.5,131.8 22.7,131.8 22.7,131.7 C23.1,115 24.3,100.5 26.1,88.1 C28.5,71.9 32.2,58.7 37.3,48.5 C42.4,38.3 48.8,30.9 56.5,26.3 C64.2,21.6 73.4,19.3 84.1,19.3 C94.8,19.3 104,21.6 111.7,26.3 C119.4,31 125.8,38.4 130.9,48.5 C136,58.7 139.7,71.9 142.1,88.1 C144,100.7 145.1,115.3 145.5,132 C148.5,132 154.7,131.9 154.7,131.8 L154.7,131.8 Z" id="Shape" fill="#005467"></path>
                    <rect id="Rectangle-path" stroke="#C0C0C0" stroke-width="2.352" x="0" y="0.3" width="165.1" height="131.7"></rect>
                </g>
            </g>
        </g>
    </g>
</svg>