<?xml version="1.0" encoding="UTF-8" standalone="no"?>
<svg width="359px" height="341px" viewBox="0 0 359 341" version="1.1" xmlns="http://www.w3.org/2000/svg" xmlns:xlink="http://www.w3.org/1999/xlink" xmlns:sketch="http://www.bohemiancoding.com/sketch/ns">
    <!-- Generator: Sketch 3.4 (15575) - http://www.bohemiancoding.com/sketch -->
    <title>Planung</title>
    <desc>Created with Sketch.</desc>
    <defs></defs>
    <g id="Page-1" stroke="none" stroke-width="1" fill="none" fill-rule="evenodd" sketch:type="MSPage">
        <g id="Services-Icons" sketch:type="MSLayerGroup" transform="translate(-1080.000000, 2.000000)">
            <g id="Planung" transform="translate(1082.000000, 0.000000)" sketch:type="MSShapeGroup">
                <g id="Group" transform="translate(100.000000, 292.000000)" fill="#005467">
                    <path d="M22.5,26.5 L22.5,1.4 L21.5,4 L12.4,24.9 L11.3,24.9 L2.1,4 L1.1,1.4 L1.1,26.5 L0.2,26.5 L0.2,0.4 L1.6,0.4 L9.5,18.3 L11.9,23.9 L14.4,18.3 L22.2,0.4 L23.6,0.4 L23.6,26.5 L22.5,26.5 L22.5,26.5 Z" id="Shape"></path>
                    <path d="M42.7,26.7 C41,26.7 39.4,26.4 37.9,25.8 C36.4,25.2 35.1,24.4 33.9,23.3 C32.7,22.2 31.9,20.9 31.2,19.3 C30.6,17.7 30.2,16 30.2,14.1 C30.2,11.9 30.5,9.9 31.2,8.2 C31.9,6.5 32.8,5 34,3.9 C35.2,2.7 36.5,1.8 38.1,1.2 C39.7,0.6 41.3,0.3 43,0.3 C44.7,0.3 46.3,0.6 47.8,1.2 C49.3,1.8 50.6,2.6 51.8,3.7 C52.9,4.8 53.8,6.1 54.5,7.7 C55.1,9.3 55.5,11 55.5,12.9 C55.5,15.1 55.2,17.1 54.5,18.8 C53.8,20.5 52.9,22 51.7,23.1 C50.5,24.3 49.2,25.2 47.6,25.8 C46,26.4 44.4,26.7 42.7,26.7 L42.7,26.7 Z M42.7,25.7 C44.3,25.7 45.8,25.4 47.3,24.9 C48.7,24.4 50,23.6 51.1,22.5 C52.2,21.4 53.1,20.1 53.7,18.5 C54.3,16.9 54.6,15 54.6,12.8 C54.6,11 54.3,9.3 53.7,7.9 C53.1,6.5 52.3,5.2 51.2,4.2 C50.2,3.2 49,2.4 47.6,1.9 C46.2,1.4 44.7,1.1 43.2,1.1 C41.6,1.1 40.1,1.4 38.6,1.9 C37.2,2.4 35.9,3.2 34.8,4.3 C33.7,5.4 32.8,6.7 32.2,8.3 C31.6,9.9 31.3,11.8 31.3,14 C31.3,15.9 31.6,17.5 32.2,19 C32.8,20.5 33.6,21.7 34.7,22.7 C35.7,23.7 36.9,24.5 38.3,25 C39.6,25.5 41.1,25.7 42.7,25.7 L42.7,25.7 Z" id="Shape"></path>
                    <path d="M81,26.5 L65.7,5 L63.3,1.5 L63.3,26.6 L62.4,26.6 L62.4,0.5 L63.5,0.5 L78.5,21.6 L81,25.2 L81,0.5 L81.9,0.5 L81.9,26.6 L81,26.6 L81,26.5 Z" id="Shape"></path>
                    <path d="M98.4,1.3 L98.4,26.5 L97.5,26.5 L97.5,1.3 L88.5,1.3 L88.5,0.4 L107.4,0.4 L107.4,1.3 L98.4,1.3 L98.4,1.3 Z" id="Shape"></path>
                    <path d="M125.4,15.9 L114,15.9 L109.7,26.5 L108.7,26.5 L119.2,0.4 L120.1,0.4 L130.5,26.5 L129.5,26.5 L125.4,15.9 L125.4,15.9 Z M114.4,15 L125.1,15 L120.7,3.9 L119.8,1.4 L118.9,3.9 L114.4,15 L114.4,15 Z" id="Shape"></path>
                    <path d="M155.9,25.2 C154.9,25.7 153.7,26.1 152.3,26.3 C150.9,26.5 149.4,26.7 147.9,26.7 C145.8,26.7 143.9,26.4 142.2,25.8 C140.5,25.2 139,24.4 137.8,23.3 C136.6,22.2 135.6,20.8 134.9,19.2 C134.2,17.6 133.9,15.8 133.9,13.7 C133.9,11.5 134.3,9.6 135,7.9 C135.7,6.2 136.7,4.8 137.9,3.6 C139.1,2.4 140.6,1.6 142.3,1 C144,0.4 145.8,0.1 147.7,0.1 C149.2,0.1 150.6,0.3 152,0.6 C153.4,0.9 154.6,1.4 155.5,2 L155.5,3.1 C154.6,2.4 153.4,1.9 152,1.5 C150.6,1.1 149.2,0.9 147.7,0.9 C146,0.9 144.4,1.2 142.8,1.7 C141.2,2.2 139.9,3 138.7,4 C137.5,5.1 136.6,6.4 135.9,8 C135.2,9.6 134.8,11.5 134.8,13.6 C134.8,15.6 135.1,17.4 135.8,18.9 C136.5,20.4 137.4,21.6 138.6,22.6 C139.8,23.6 141.2,24.3 142.7,24.8 C144.3,25.3 146,25.5 147.8,25.5 C148.4,25.5 149.1,25.5 149.8,25.4 C150.5,25.3 151.1,25.3 151.8,25.2 C152.5,25.1 153,25 153.6,24.8 C154.1,24.7 154.6,24.5 155,24.3 L155,15.6 L155.9,15.6 L155.9,25.2 L155.9,25.2 Z" id="Shape"></path>
                </g>
                <g id="Group" transform="translate(56.000000, 33.000000)" fill="#005467">
                    <path d="M54.5,209.2 C45.8,209.2 38.1,207.4 31.4,203.7 C24.7,200 19.1,194.1 14.5,186 C9.9,177.8 6.5,167.1 4.1,153.8 C1.8,140.5 0.6,124.3 0.6,105.1 C0.6,85.8 1.8,69.5 4.1,56.3 C6.4,43.1 9.9,32.3 14.5,24.1 C19.1,15.8 24.7,9.9 31.4,6.2 C38.1,2.5 45.8,0.7 54.5,0.7 C63.2,0.7 70.9,2.5 77.6,6.2 C84.3,9.9 89.9,15.8 94.5,24.1 C99.1,32.4 102.5,43.1 104.9,56.3 C107.2,69.5 108.4,85.7 108.4,104.8 C108.4,124.1 107.2,140.4 104.9,153.6 C102.6,166.8 99.1,177.6 94.5,185.8 C89.9,194.1 84.3,200 77.6,203.7 C71,207.4 63.3,209.2 54.5,209.2 L54.5,209.2 Z M54.5,202.4 C62.6,202.4 69.6,200.6 75.5,197.1 C81.4,193.6 86.3,187.9 90.1,180.2 C94,172.5 96.8,162.4 98.6,150.1 C100.4,137.7 101.3,122.7 101.3,104.8 C101.3,87.2 100.4,72.2 98.6,59.8 C96.8,47.4 93.9,37.4 90.1,29.7 C86.2,22 81.4,16.3 75.5,12.8 C69.6,9.3 62.6,7.5 54.5,7.5 C46.4,7.5 39.4,9.3 33.5,12.8 C27.6,16.3 22.7,22 18.9,29.7 C15,37.4 12.2,47.5 10.4,59.8 C8.6,72.2 7.7,87.3 7.7,105.1 C7.7,122.9 8.6,138 10.4,150.4 C12.2,162.8 15.1,172.8 18.9,180.5 C22.8,188.2 27.6,193.8 33.5,197.3 C39.4,200.7 46.4,202.4 54.5,202.4 L54.5,202.4 Z" id="Shape"></path>
                    <path d="M234.2,151.8 C234.2,161.3 232.7,169.5 229.6,176.6 C226.6,183.7 222.4,189.7 217.3,194.5 C212.1,199.3 206.1,203 199.2,205.5 C192.3,208 185,209.2 177.3,209.2 C169,209.2 161,207.9 153.2,205.3 C145.5,202.7 139.2,199.3 134.3,195 L134.3,186.9 C140,192.1 146.6,196 154.2,198.7 C161.8,201.4 169.5,202.7 177.2,202.7 C184.1,202.7 190.6,201.7 196.7,199.6 C202.8,197.6 208.1,194.4 212.5,190.3 C217,186.1 220.5,180.8 223.2,174.5 C225.8,168.2 227.2,160.6 227.2,151.8 C227.2,137 222.5,125.4 213,117.2 C203.6,108.9 190.9,104.8 175.1,104.8 L152.6,104.8 L152.6,98.4 L175.1,98.4 C190.9,98.4 202.8,94.3 210.6,86 C218.4,77.7 222.3,66.6 222.3,52.6 C222.3,37.6 218.1,26.2 209.8,18.6 C201.5,11 191.1,7.2 178.7,7.2 C170.8,7.2 163.2,8.8 156,11.9 C148.8,15 143.6,20.2 140.3,27.5 L135.1,24 C137.9,16.9 143.3,11.3 151.1,7.1 C158.9,2.9 168.1,0.8 178.7,0.8 C186,0.8 192.7,2 198.8,4.3 C204.9,6.7 210.2,10.1 214.8,14.5 C219.4,18.9 222.9,24.3 225.5,30.8 C228,37.2 229.3,44.6 229.3,52.7 C229.3,64.5 226.4,74.8 220.5,83.6 C214.6,92.4 205,98.3 191.6,101.3 C204.4,103.7 214.7,109.1 222.5,117.6 C230.3,126 234.2,137.4 234.2,151.8 L234.2,151.8 Z" id="Shape"></path>
                </g>
                <path d="M1.5,273.7 L352.9,273.7" id="Shape" stroke="#C0C0C0" stroke-width="1.747"></path>
                <path d="M12.4,0.3 C12.4,0.3 0.7,0.3 0.7,12 L0.7,325.2 C0.7,325.2 0.7,336.9 12.4,336.9 L343,336.9 C343,336.9 354.7,336.9 354.7,325.2 L354.7,12 C354.7,12 354.7,0.3 343,0.3 L12.4,0.3 L12.4,0.3 Z" id="Shape" stroke="#C0C0C0" stroke-width="4"></path>
            </g>
        </g>
    </g>
</svg>