<?xml version="1.0" encoding="UTF-8" standalone="no"?>
<svg width="443px" height="339px" viewBox="0 0 443 339" version="1.1" xmlns="http://www.w3.org/2000/svg" xmlns:xlink="http://www.w3.org/1999/xlink" xmlns:sketch="http://www.bohemiancoding.com/sketch/ns">
    <!-- Generator: Sketch 3.4 (15575) - http://www.bohemiancoding.com/sketch -->
    <title>Post</title>
    <desc>Created with Sketch.</desc>
    <defs></defs>
    <g id="Page-1" stroke="none" stroke-width="1" fill="none" fill-rule="evenodd" sketch:type="MSPage">
        <g id="Services-Icons" sketch:type="MSLayerGroup" transform="translate(-529.000000, -838.000000)">
            <g id="Post" transform="translate(531.000000, 840.000000)" sketch:type="MSShapeGroup">
                <g id="standfuss_1_" transform="translate(164.000000, 285.000000)">
                    <path d="M93.6,31.1 C88,25.9 88.6,19 88.6,19 L88,0.9 C87.6,1.3 61.9,0.9 55.9,0.8 L55.9,0.8 L55.4,0.8 L54.9,0.8 L54.9,0.8 C49.9,0.9 23.7,1.4 23.3,0.9 L23.1,19 C23.1,19 23.4,25.9 17.8,31.1 C11.5,36.9 0.9,46.4 0.9,46.4 L0.9,51.4 L55.4,51.4 L56.4,51.4 L109.9,51.4 L109.9,46.4 C110,46.3 99.9,36.9 93.6,31.1 L93.6,31.1 Z" id="Shape" fill="#C0C0C0"></path>
                    <rect id="Rectangle-path" fill="#E6E6E6" x="1.2" y="46.3" width="109" height="4.7"></rect>
                </g>
                <path d="M395.9,246 L395.9,39.5" id="Shape" stroke="#C0C0C0" stroke-width="1.783"></path>
                <rect id="Rectangle-path" fill="#005467" x="383.4" y="86.8" width="25" height="5.6"></rect>
                <path d="M87.2,235.3 C81.2,231.8 76.2,226.1 72.3,218.2 C68.4,210.3 65.5,200.1 63.6,187.5 C61.7,174.9 60.8,159.6 60.8,141.4 C60.8,123.3 61.7,107.9 63.6,95.3 C65.5,82.7 68.3,72.5 72.3,64.6 C76.2,56.7 81.2,51 87.2,47.4 C93.2,43.8 100.3,42 108.6,42 C116.9,42 124,43.8 130,47.4 C136,51 140.9,56.7 144.9,64.6 C148.8,72.5 151.7,82.7 153.6,95.3 C155.5,107.9 156.4,123.1 156.4,141 C156.4,159.1 155.5,174.5 153.6,187.1 C151.7,199.7 148.8,209.9 144.9,217.8 C141,225.7 136,231.4 130,235 C124,238.6 116.9,240.4 108.6,240.4 C100.3,240.6 93.1,238.8 87.2,235.3 M132.1,241.9 C138.9,238.2 144.6,232.1 149.3,223.7 C153.9,215.3 157.5,204.4 159.8,190.9 C162.2,177.5 163.4,160.9 163.4,141.2 C163.4,121.7 162.2,105.3 159.8,91.9 C157.4,78.5 153.9,67.5 149.3,59.1 C144.7,50.7 138.9,44.6 132.1,40.9 C125.3,37.2 117.4,35.3 108.6,35.3 C99.7,35.3 91.9,37.2 85.1,40.9 C78.3,44.6 72.6,50.7 67.9,59.1 C63.3,67.5 59.7,78.4 57.4,91.9 C55,105.3 53.8,121.9 53.8,141.6 C53.8,161.1 55,177.6 57.4,191.1 C59.8,204.7 63.3,215.6 67.9,223.9 C72.5,232.2 78.3,238.2 85.1,241.9 C91.9,245.6 99.8,247.5 108.6,247.5 C117.4,247.5 125.3,245.6 132.1,241.9" id="Shape" fill="#005467"></path>
                <path d="M219.9,124.5 C214.9,121 210.7,117.2 207,113 C203.4,108.9 200.5,104.3 198.5,99.2 C196.4,94.2 195.4,88.3 195.4,81.5 C195.4,74.3 196.6,68.2 199.1,63.3 C201.6,58.4 204.8,54.3 208.9,51.2 C212.9,48 217.5,45.7 222.5,44.3 C227.6,42.9 232.6,42.2 237.5,42.2 C242.5,42.2 247.4,42.8 252.4,44 C257.4,45.2 261.8,47.3 265.7,50.2 C269.6,53.2 272.8,57 275.2,61.8 C277.6,66.6 278.8,72.6 278.8,79.8 C278.8,85.5 278,90.6 276.3,95.2 C274.6,99.8 272.1,104.2 268.6,108.5 C265.1,112.8 260.6,117 255.3,121.3 C249.9,125.6 243.5,130.2 236.1,135.2 C230.2,131.6 224.8,128 219.9,124.5 M253.5,154.7 C259.2,158.9 264.1,163.2 268.2,167.8 C272.3,172.4 275.6,177.3 278,182.6 C280.4,187.8 281.6,193.6 281.6,200 C281.6,207.4 280.2,213.7 277.4,218.9 C274.6,224 271.1,228.2 266.9,231.5 C262.7,234.8 257.9,237.1 252.6,238.5 C247.3,239.9 242.2,240.6 237.3,240.6 C231.7,240.6 226.2,240 220.9,238.8 C215.5,237.6 210.7,235.5 206.5,232.4 C202.3,229.3 198.9,225.4 196.4,220.4 C193.9,215.5 192.7,209.2 192.7,201.5 C192.7,190.4 196.1,180.2 202.9,171 C209.7,161.8 220.6,152.2 235.4,142.1 C241.8,146.4 247.8,150.5 253.5,154.7 M262.2,123.7 C267.9,119 272.5,114.3 276,109.6 C279.5,104.9 282,100.1 283.6,95.3 C285.1,90.5 285.9,85.2 285.9,79.6 C285.9,71.7 284.5,65 281.7,59.3 C278.9,53.6 275.2,49 270.5,45.5 C265.9,42 260.6,39.4 254.9,37.8 C249.1,36.2 243.3,35.3 237.6,35.3 C231.4,35.3 225.4,36.3 219.5,38.3 C213.6,40.3 208.3,43.2 203.7,47 C199.1,50.8 195.3,55.6 192.5,61.4 C189.7,67.2 188.3,73.9 188.3,81.6 C188.3,88.8 189.4,95.2 191.6,100.8 C193.8,106.4 196.8,111.4 200.6,115.9 C204.4,120.4 208.9,124.5 213.9,128.2 C219,131.9 224.4,135.5 230.2,139 C214.3,149.3 202.9,159.5 196,169.7 C189.1,179.9 185.6,190.5 185.6,201.7 C185.6,210 187,217.1 189.9,222.8 C192.8,228.6 196.6,233.3 201.4,237.1 C206.1,240.8 211.7,243.5 218,245.1 C224.3,246.7 230.8,247.6 237.4,247.6 C244,247.6 250.4,246.6 256.6,244.5 C262.8,242.4 268.3,239.4 273,235.3 C277.7,231.3 281.6,226.2 284.5,220.2 C287.4,214.2 288.8,207.4 288.8,199.7 C288.8,192.7 287.6,186.4 285.1,180.7 C282.6,175 279.3,169.8 275,165 C270.8,160.2 265.8,155.7 260,151.6 C254.2,147.4 248,143.2 241.4,138.8 C249.5,133.4 256.5,128.4 262.2,123.7" id="Shape" fill="#005467"></path>
                <path d="M11.3,0.1 C11.3,0.1 0.4,0.1 0.4,11 L0.4,274.7 C0.4,274.7 0.4,285.6 11.3,285.6 L428.6,285.6 C428.6,285.6 439.5,285.6 439.5,274.7 L439.5,11 C439.5,11 439.5,0.1 428.6,0.1 L11.3,0.1 L11.3,0.1 Z" id="Shape" stroke="#C0C0C0" stroke-width="2.844"></path>
            </g>
        </g>
    </g>
</svg>