<?xml version="1.0" encoding="UTF-8" standalone="no"?>
<svg width="443px" height="292px" viewBox="0 0 443 292" version="1.1" xmlns="http://www.w3.org/2000/svg" xmlns:xlink="http://www.w3.org/1999/xlink" xmlns:sketch="http://www.bohemiancoding.com/sketch/ns">
    <!-- Generator: Sketch 3.4 (15575) - http://www.bohemiancoding.com/sketch -->
    <title>Shooting</title>
    <desc>Created with Sketch.</desc>
    <defs></defs>
    <g id="Page-1" stroke="none" stroke-width="1" fill="none" fill-rule="evenodd" sketch:type="MSPage">
        <g id="Services-Icons" sketch:type="MSLayerGroup" transform="translate(1.000000, -860.000000)">
            <g id="Shooting" transform="translate(0.000000, 862.000000)" sketch:type="MSShapeGroup">
                <g id="Group" transform="translate(97.000000, 40.000000)" fill="#7A7979">
                    <path d="M57.6,219.2 C48.4,219.2 40.3,217.3 33.3,213.4 C26.3,209.6 20.3,203.4 15.5,194.8 C10.7,186.2 7.1,174.9 4.6,160.9 C2.1,146.9 0.9,129.9 0.9,109.8 C0.9,89.5 2.1,72.4 4.6,58.5 C7,44.6 10.7,33.3 15.5,24.6 C20.3,15.9 26.2,9.7 33.3,5.8 C40.3,2 48.4,-5.68434189e-14 57.6,-5.68434189e-14 C66.8,-5.68434189e-14 74.9,1.9 81.9,5.8 C88.9,9.6 94.9,15.9 99.7,24.6 C104.5,33.3 108.1,44.6 110.6,58.5 C113,72.4 114.3,89.4 114.3,109.5 C114.3,129.8 113.1,146.9 110.6,160.8 C108.1,174.7 104.5,186 99.7,194.7 C94.9,203.4 89,209.7 81.9,213.5 C74.9,217.3 66.7,219.2 57.6,219.2 L57.6,219.2 Z M57.6,212.1 C66.1,212.1 73.5,210.2 79.7,206.5 C85.9,202.8 91,196.9 95.1,188.7 C99.1,180.6 102.1,170 104.1,157 C106,144 107,128.2 107,109.4 C107,90.9 106,75.2 104.1,62.2 C102.2,49.2 99.2,38.7 95.1,30.5 C91,22.4 85.9,16.5 79.7,12.7 C73.5,9 66.2,7.1 57.6,7.1 C49.1,7.1 41.7,9 35.5,12.7 C29.3,16.4 24.2,22.3 20.1,30.5 C16,38.6 13.1,49.2 11.1,62.2 C9.2,75.2 8.2,91 8.2,109.8 C8.2,128.5 9.2,144.4 11.1,157.4 C13,170.4 16,180.9 20.1,189.1 C24.1,197.2 29.3,203.1 35.5,206.7 C41.7,210.3 49,212.1 57.6,212.1 L57.6,212.1 Z" id="Shape"></path>
                    <path d="M157.1,217.5 C157.7,213 158.7,208.2 160,203.3 C161.3,198.3 163.2,192.4 165.8,185.4 C168.4,178.4 171.8,170 176.2,160.2 C180.6,150.4 186.2,138.5 193.2,124.5 C200.1,110.5 208.6,94.1 218.5,75.2 C228.4,56.4 240.3,34.2 254.2,8.7 L142.6,8.7 L143.2,1.9 L261.2,1.9 L261.2,10 C248,34.4 236.6,55.7 227,74 C217.4,92.3 209.2,108.3 202.4,121.9 C195.6,135.6 189.9,147.2 185.4,156.9 C180.9,166.6 177.3,175.1 174.5,182.3 C171.7,189.5 169.6,195.9 168.1,201.4 C166.6,206.9 165.4,212.3 164.6,217.5 L157.1,217.5 L157.1,217.5 Z" id="Shape"></path>
                </g>
                <g id="Group" transform="translate(94.000000, 73.000000)" stroke="#005467" stroke-width="1.062">
                    <circle id="Oval" fill="#005467" cx="126.1" cy="6.5" r="1.6"></circle>
                    <circle id="Oval" fill="#005467" cx="126.1" cy="133.9" r="1.6"></circle>
                    <circle id="Oval" fill="#005467" cx="197.2" cy="103.1" r="1.6"></circle>
                    <circle id="Oval" fill="#005467" cx="54.9" cy="103.1" r="1.6"></circle>
                    <circle id="Oval" fill="#005467" cx="197.2" cy="36.2" r="1.6"></circle>
                    <circle id="Oval" fill="#005467" cx="54.9" cy="36.2" r="1.6"></circle>
                    <circle id="Oval" fill="#005467" cx="245" cy="70.2" r="1.6"></circle>
                    <circle id="Oval" fill="#005467" cx="7.2" cy="70.2" r="1.6"></circle>
                    <circle id="Oval" fill="#005467" cx="125.5" cy="70.2" r="1.6"></circle>
                    <rect id="Rectangle-path" x="114.4" y="59.6" width="22.3" height="21.2"></rect>
                    <rect id="Rectangle-path" x="117.6" y="0.1" width="17" height="12.7"></rect>
                    <rect id="Rectangle-path" x="117.6" y="127.5" width="17" height="12.7"></rect>
                    <rect id="Rectangle-path" x="190.9" y="94.6" width="12.7" height="17"></rect>
                    <rect id="Rectangle-path" x="48.6" y="94.6" width="12.7" height="17"></rect>
                    <rect id="Rectangle-path" x="190.9" y="27.7" width="12.7" height="17"></rect>
                    <rect id="Rectangle-path" x="48.6" y="27.7" width="12.7" height="17"></rect>
                    <rect id="Rectangle-path" x="238.6" y="61.7" width="12.7" height="17"></rect>
                    <rect id="Rectangle-path" x="0.8" y="61.7" width="12.7" height="17"></rect>
                </g>
                <circle id="Oval" stroke="#005467" stroke-width="2.124" cx="220.1" cy="143.2" r="39.3"></circle>
                <rect id="Rectangle-path" stroke="#005467" stroke-width="2.876" x="0.6" y="0.2" width="439" height="288.3"></rect>
            </g>
        </g>
    </g>
</svg>