<?xml version="1.0" encoding="UTF-8" standalone="no"?>
<svg width="441px" height="300px" viewBox="0 0 441 300" version="1.1" xmlns="http://www.w3.org/2000/svg" xmlns:xlink="http://www.w3.org/1999/xlink" xmlns:sketch="http://www.bohemiancoding.com/sketch/ns">
    <!-- Generator: Sketch 3.4 (15575) - http://www.bohemiancoding.com/sketch -->
    <title>Weiterverarbeitung</title>
    <desc>Created with Sketch.</desc>
    <defs></defs>
    <g id="Page-1" stroke="none" stroke-width="1" fill="none" fill-rule="evenodd" sketch:type="MSPage">
        <g id="Services-Icons" sketch:type="MSLayerGroup" transform="translate(-1045.000000, -854.000000)">
            <g id="Weiterverarbeitung" transform="translate(1046.000000, 856.000000)" sketch:type="MSShapeGroup">
                <path d="M438.4,287 L426.1,296.5 L237.1,296.5 L218.3,286.6 L201.3,296.5 L12.5,296.5 L0.2,287" id="Shape" stroke="#C0C0C0" stroke-width="1.041"></path>
                <path d="M218.3,15.3 L218.3,271.8" id="Shape" stroke="#C0C0C0" stroke-width="1.041"></path>
                <path d="M344.2,60.2 C348.9,62 353,64.7 356.6,68.4 C360.2,72 363,76.6 365.1,82.1 C367.2,87.6 368.2,94 368.2,101.3 C368.2,108 367.2,113.9 365.1,119.2 C363,124.4 360.2,129 356.6,132.8 C353,136.6 348.8,139.5 344,141.5 C339.2,143.5 334.2,144.5 329,144.5 C323.4,144.5 318.2,143.6 313.5,141.8 C308.7,140 304.6,137.3 301.1,133.6 C297.6,130 294.8,125.4 292.9,120 C290.9,114.6 289.9,108.2 289.9,101 C289.9,93.8 291,87.4 293.1,82 C295.3,76.6 298.2,72 301.9,68.4 C305.6,64.8 309.8,62.1 314.5,60.2 C319.2,58.4 324.1,57.5 329.4,57.5 C334.5,57.5 339.5,58.4 344.2,60.2 M342.3,182.8 C328.1,201.7 309.4,218.3 286.3,232.6 L290.1,237.2 C318.9,217.9 340.2,197.5 353.9,176 C367.6,154.4 374.4,130.2 374.4,103.3 C374.4,95.5 373.3,88.4 371.2,82 C369,75.6 366,70.2 362,65.7 C358,61.2 353.3,57.7 347.7,55.3 C342.1,52.8 336,51.6 329.3,51.6 C323.5,51.6 317.9,52.7 312.4,54.9 C306.9,57.1 302,60.3 297.8,64.5 C293.6,68.7 290.1,73.9 287.5,80.1 C284.9,86.3 283.6,93.3 283.6,101.1 C283.6,109.1 284.8,116.2 287.2,122.4 C289.6,128.6 292.8,133.8 296.8,137.8 C300.8,141.9 305.4,145 310.6,147.2 C315.8,149.4 321.3,150.5 327.1,150.5 C336.5,150.5 344.6,148.3 351.4,143.9 C358.2,139.5 363.7,132.6 367.9,123.3 C365.1,144.1 356.5,163.9 342.3,182.8" id="Shape" fill="#005467"></path>
                <path d="M88.1,228.4 C82.8,225.3 78.4,220.3 74.9,213.3 C71.4,206.3 68.9,197.3 67.2,186.1 C65.6,175 64.7,161.4 64.7,145.3 C64.7,129.2 65.5,115.6 67.2,104.5 C68.8,93.4 71.4,84.3 74.9,77.3 C78.4,70.3 82.8,65.2 88.1,62 C93.4,58.8 99.7,57.2 107,57.2 C114.3,57.2 120.6,58.8 125.9,62 C131.2,65.2 135.6,70.3 139.1,77.3 C142.6,84.3 145.1,93.3 146.8,104.5 C148.4,115.6 149.3,129.2 149.3,145 C149.3,161.1 148.5,174.7 146.8,185.8 C145.2,196.9 142.6,206 139.1,213 C135.6,220 131.2,225.1 125.9,228.3 C120.6,231.5 114.3,233.1 107,233.1 C99.7,233.1 93.4,231.5 88.1,228.4 M127.9,234.2 C133.9,230.9 139,225.5 143.1,218.1 C147.2,210.6 150.3,201 152.4,189 C154.5,177.1 155.6,162.4 155.6,145 C155.6,127.8 154.5,113.2 152.4,101.3 C150.3,89.4 147.2,79.7 143.1,72.2 C139,64.7 133.9,59.4 127.9,56.1 C121.9,52.8 114.9,51.2 107,51.2 C99.1,51.2 92.2,52.8 86.1,56.1 C80.1,59.4 75,64.8 70.9,72.2 C66.8,79.7 63.7,89.3 61.6,101.3 C59.5,113.2 58.4,127.9 58.4,145.3 C58.4,162.5 59.5,177.2 61.6,189.2 C63.7,201.2 66.8,210.9 70.9,218.3 C75,225.7 80.1,231 86.1,234.3 C92.1,237.6 99.1,239.2 107,239.2 C114.9,239.2 121.8,237.5 127.9,234.2" id="Shape" fill="#005467"></path>
                <path d="M432.2,291.2 L240.3,291.2 L218.3,279.1 L197.3,292.2 L7.3,292.2" id="Shape" stroke="#C0C0C0" stroke-width="1.041"></path>
                <path d="M0.6,0.4 L0.6,286.5 L193.8,286.5 L218.3,271.2 L244.6,286.5 L438,286.5 L438,0.4 L244.8,0.4 L218.3,15.7 L193.7,0.4 L0.6,0.4 Z" id="Shape" stroke="#005467" stroke-width="3.122"></path>
            </g>
        </g>
    </g>
</svg>